G75*
G70*
%OFA0B0*%
%FSLAX24Y24*%
%IPPOS*%
%LPD*%
%AMOC8*
5,1,8,0,0,1.08239X$1,22.5*
%
%ADD10C,0.0600*%
%ADD11OC8,0.0600*%
%ADD12C,0.0984*%
%ADD13C,0.1181*%
%ADD14C,0.0574*%
%ADD15OC8,0.1306*%
%ADD16C,0.0063*%
%ADD17C,0.0630*%
%ADD18C,0.0300*%
%ADD19C,0.0400*%
%ADD20C,0.0100*%
%ADD21C,0.0240*%
%ADD22C,0.0120*%
%ADD23C,0.0080*%
%ADD24C,0.0160*%
D10*
X033510Y067210D02*
X033510Y067810D01*
X034510Y067810D02*
X034510Y067210D01*
X035510Y067210D02*
X035510Y067810D01*
X036510Y067810D02*
X036510Y067210D01*
X037510Y067210D02*
X037510Y067810D01*
X038510Y067810D02*
X038510Y067210D01*
X040510Y067210D02*
X040510Y067810D01*
X041510Y067810D02*
X041510Y067210D01*
X042510Y067210D02*
X042510Y067810D01*
X043510Y067810D02*
X043510Y067210D01*
X044510Y067210D02*
X044510Y067810D01*
X045510Y067810D02*
X045510Y067210D01*
X046510Y067210D02*
X046510Y067810D01*
X047510Y067810D02*
X047510Y067210D01*
X049510Y067210D02*
X049510Y067810D01*
X050510Y067810D02*
X050510Y067210D01*
X051510Y067210D02*
X051510Y067810D01*
X052510Y067810D02*
X052510Y067210D01*
X053510Y067210D02*
X053510Y067810D01*
X054510Y067810D02*
X054510Y067210D01*
X055510Y067210D02*
X055510Y067810D01*
X056510Y067810D02*
X056510Y067210D01*
X054510Y086210D02*
X054510Y086810D01*
X053510Y086810D02*
X053510Y086210D01*
X052510Y086210D02*
X052510Y086810D01*
X051510Y086810D02*
X051510Y086210D01*
X050510Y086210D02*
X050510Y086810D01*
X049510Y086810D02*
X049510Y086210D01*
X048510Y086210D02*
X048510Y086810D01*
X047510Y086810D02*
X047510Y086210D01*
X045510Y086210D02*
X045510Y086810D01*
X044510Y086810D02*
X044510Y086210D01*
X043510Y086210D02*
X043510Y086810D01*
X042510Y086810D02*
X042510Y086210D01*
X041510Y086210D02*
X041510Y086810D01*
X040510Y086810D02*
X040510Y086210D01*
X039510Y086210D02*
X039510Y086810D01*
X038510Y086810D02*
X038510Y086210D01*
X036910Y086210D02*
X036910Y086810D01*
X035910Y086810D02*
X035910Y086210D01*
X034910Y086210D02*
X034910Y086810D01*
X033910Y086810D02*
X033910Y086210D01*
X032910Y086210D02*
X032910Y086810D01*
X031910Y086810D02*
X031910Y086210D01*
X030910Y086210D02*
X030910Y086810D01*
X029910Y086810D02*
X029910Y086210D01*
D11*
X057510Y086510D03*
X058510Y086510D03*
X058510Y085510D03*
X057510Y085510D03*
X057510Y084510D03*
X058510Y084510D03*
X058510Y083510D03*
X057510Y083510D03*
X057510Y082510D03*
X058510Y082510D03*
X058510Y081510D03*
X057510Y081510D03*
X057510Y080510D03*
X058510Y080510D03*
X058510Y079510D03*
X057510Y079510D03*
X057510Y078510D03*
X058510Y078510D03*
X058510Y077510D03*
X057510Y077510D03*
X057510Y076510D03*
X058510Y076510D03*
X058510Y075510D03*
X057510Y075510D03*
X057510Y074510D03*
X058510Y074510D03*
X058510Y073510D03*
X057510Y073510D03*
X057510Y072510D03*
X058510Y072510D03*
X058510Y071510D03*
X057510Y071510D03*
X057510Y070510D03*
X058510Y070510D03*
X058510Y069510D03*
X057510Y069510D03*
D12*
X024683Y068859D02*
X023699Y068859D01*
X023010Y070217D02*
X023010Y071202D01*
D13*
X025372Y071300D02*
X025372Y070119D01*
D14*
X025290Y076132D02*
X025864Y076132D01*
X025864Y077116D02*
X025290Y077116D01*
X025290Y077903D02*
X025864Y077903D01*
X025864Y078888D02*
X025290Y078888D01*
D15*
X024510Y080096D03*
X024510Y074923D03*
D16*
X051226Y072794D02*
X051794Y072794D01*
X051794Y072226D01*
X051226Y072226D01*
X051226Y072794D01*
X051226Y072288D02*
X051794Y072288D01*
X051794Y072350D02*
X051226Y072350D01*
X051226Y072412D02*
X051794Y072412D01*
X051794Y072474D02*
X051226Y072474D01*
X051226Y072536D02*
X051794Y072536D01*
X051794Y072598D02*
X051226Y072598D01*
X051226Y072660D02*
X051794Y072660D01*
X051794Y072722D02*
X051226Y072722D01*
X051226Y072784D02*
X051794Y072784D01*
D17*
X052510Y072510D03*
X052510Y073510D03*
X052510Y074510D03*
X051510Y074510D03*
X051510Y073510D03*
D18*
X050710Y073810D03*
X050210Y073410D03*
X049710Y072910D03*
X049310Y072910D03*
X048910Y073170D03*
X049010Y074010D03*
X049010Y074410D03*
X050190Y074510D03*
X050610Y076010D03*
X050350Y076510D03*
X050670Y076990D03*
X049910Y076910D03*
X049810Y077510D03*
X048910Y077310D03*
X048710Y077110D03*
X048310Y077410D03*
X048030Y076910D03*
X047670Y077430D03*
X047270Y077430D03*
X046550Y077630D03*
X046150Y077630D03*
X046150Y077270D03*
X045610Y076460D03*
X044310Y075510D03*
X043830Y074910D03*
X043390Y074910D03*
X042990Y074910D03*
X042710Y074630D03*
X042430Y074310D03*
X042150Y074030D03*
X041870Y074310D03*
X041590Y074030D03*
X041310Y073750D03*
X040590Y074030D03*
X040610Y074660D03*
X039630Y076110D03*
X039350Y076390D03*
X038830Y076110D03*
X038350Y075830D03*
X037590Y076830D03*
X037010Y076010D03*
X035710Y076010D03*
X035710Y075060D03*
X036310Y074610D03*
X037610Y074610D03*
X037550Y072670D03*
X037910Y072190D03*
X039470Y072670D03*
X041310Y072750D03*
X041590Y072430D03*
X041870Y072750D03*
X042150Y072430D03*
X042430Y072750D03*
X042710Y072430D03*
X042990Y072750D03*
X043270Y072430D03*
X043550Y072750D03*
X043910Y072110D03*
X045110Y072310D03*
X045190Y071590D03*
X045950Y072790D03*
X046110Y073150D03*
X046270Y073510D03*
X046430Y073870D03*
X046590Y074230D03*
X047570Y072390D03*
X047830Y071310D03*
X048870Y070310D03*
X048590Y070030D03*
X049150Y070030D03*
X049430Y070310D03*
X049710Y070030D03*
X050070Y069910D03*
X050470Y069910D03*
X050750Y070150D03*
X051030Y069870D03*
X051310Y070150D03*
X051390Y070590D03*
X051750Y070750D03*
X052110Y070790D03*
X052430Y070990D03*
X052750Y070750D03*
X053070Y070990D03*
X054010Y072010D03*
X052510Y072510D03*
X053610Y073910D03*
X050010Y072410D03*
X049610Y076010D03*
X048030Y075510D03*
X045510Y078390D03*
X044950Y078550D03*
X045390Y079350D03*
X044390Y080030D03*
X044030Y080470D03*
X043670Y080750D03*
X044110Y081470D03*
X044390Y081750D03*
X043810Y082110D03*
X043010Y082910D03*
X042110Y083910D03*
X041010Y084610D03*
X040110Y085110D03*
X039110Y085810D03*
X037610Y085710D03*
X037790Y083670D03*
X037510Y082110D03*
X036910Y081970D03*
X035590Y081670D03*
X035270Y082230D03*
X034710Y081510D03*
X034010Y081210D03*
X033410Y081010D03*
X032210Y082010D03*
X031470Y082130D03*
X031410Y083310D03*
X030230Y084310D03*
X029210Y084810D03*
X029410Y085410D03*
X028410Y083810D03*
X026960Y082980D03*
X026410Y083310D03*
X026410Y083710D03*
X025460Y083910D03*
X025410Y084760D03*
X024110Y084860D03*
X024110Y084210D03*
X023910Y085810D03*
X023560Y085810D03*
X023710Y087110D03*
X022510Y087110D03*
X021110Y084910D03*
X021110Y082910D03*
X023710Y082560D03*
X024010Y082560D03*
X023260Y081310D03*
X023260Y080960D03*
X025810Y080010D03*
X026590Y081210D03*
X027310Y080810D03*
X028270Y081190D03*
X028790Y081430D03*
X028870Y080430D03*
X028610Y080010D03*
X029510Y079470D03*
X028910Y078510D03*
X028210Y078010D03*
X028010Y078670D03*
X027410Y078810D03*
X029610Y077810D03*
X031560Y078610D03*
X031210Y079210D03*
X032060Y079790D03*
X030310Y080660D03*
X030250Y081910D03*
X029210Y082610D03*
X028030Y082470D03*
X025710Y082610D03*
X025610Y082990D03*
X032610Y084510D03*
X035910Y080010D03*
X039470Y082110D03*
X042210Y079910D03*
X043790Y079830D03*
X044030Y078710D03*
X043310Y076610D03*
X042750Y076790D03*
X042470Y076470D03*
X042360Y075860D03*
X043590Y075950D03*
X040190Y076590D03*
X039910Y076870D03*
X039630Y077150D03*
X040260Y077610D03*
X040510Y078510D03*
X040230Y078870D03*
X040830Y078870D03*
X041110Y078470D03*
X036110Y077410D03*
X034160Y076610D03*
X033710Y076210D03*
X032710Y076110D03*
X031110Y076060D03*
X029510Y074810D03*
X029160Y074810D03*
X029210Y075660D03*
X027710Y074810D03*
X027560Y076360D03*
X023510Y074110D03*
X023260Y074360D03*
X029910Y072110D03*
X029910Y071760D03*
X029910Y071410D03*
X030210Y070810D03*
X030560Y070810D03*
X030560Y070460D03*
X030210Y070460D03*
X030210Y070110D03*
X030560Y070110D03*
X030260Y069460D03*
X030260Y069110D03*
X030260Y068760D03*
X031810Y067710D03*
X032160Y067710D03*
X034010Y069341D03*
X035010Y069341D03*
X036210Y071510D03*
X035810Y072010D03*
X035810Y072910D03*
X034310Y074410D03*
X034310Y074710D03*
X033860Y074560D03*
X031810Y077710D03*
X041350Y071590D03*
X048510Y067510D03*
X053110Y069510D03*
X053210Y077010D03*
X053310Y078210D03*
X052610Y078310D03*
X052310Y078010D03*
X052010Y077310D03*
X054010Y078310D03*
X054810Y078310D03*
X051660Y081560D03*
X052160Y082120D03*
X050910Y082760D03*
X050510Y082070D03*
X049910Y082070D03*
X049410Y081570D03*
X049110Y081570D03*
X048910Y082110D03*
X048390Y081990D03*
X047830Y082550D03*
X046610Y083210D03*
X045010Y083010D03*
X048560Y079610D03*
X048110Y078990D03*
X047830Y078710D03*
X052710Y083510D03*
X053610Y083460D03*
X054160Y083460D03*
X054620Y083480D03*
X054010Y084710D03*
X053010Y084710D03*
X051410Y084810D03*
X051410Y084410D03*
X055110Y085300D03*
X028410Y069610D03*
D19*
X031810Y067710D02*
X032410Y067710D01*
X033110Y068410D01*
X033410Y068410D01*
X033410Y073410D01*
X034310Y074310D01*
X034310Y074410D01*
X034310Y074710D01*
X029510Y074810D02*
X029160Y074810D01*
X028710Y074810D01*
X027460Y073560D01*
X024060Y073560D01*
X023260Y074360D01*
X027610Y077260D02*
X027610Y078270D01*
X028010Y078670D01*
X028010Y079090D01*
X026610Y080510D01*
X026590Y080530D01*
X026590Y081210D01*
X023260Y080960D02*
X023260Y083310D01*
X023560Y083610D01*
X023560Y085810D01*
X023910Y085810D01*
X027610Y077260D02*
X029210Y075660D01*
X023010Y072110D02*
X023010Y069310D01*
X023910Y070710D02*
X022070Y070710D01*
X031810Y067710D02*
X032160Y067710D01*
X033410Y068410D02*
X034910Y068410D01*
X035510Y067810D01*
X035510Y067510D01*
X045110Y072310D02*
X047490Y072310D01*
X047570Y072390D01*
X048030Y075510D02*
X044310Y075510D01*
X048710Y077110D02*
X048910Y077310D01*
X049110Y077510D01*
X049110Y081570D01*
X049410Y081570D01*
D20*
X051310Y084210D02*
X051110Y084410D01*
X051110Y085110D01*
X051310Y085310D01*
X054510Y085310D01*
X055287Y086087D01*
X055307Y086039D01*
X055540Y085806D01*
X055845Y085680D01*
X056175Y085680D01*
X056480Y085806D01*
X056714Y086039D01*
X056840Y086344D01*
X056840Y086675D01*
X056714Y086980D01*
X056480Y087213D01*
X056433Y087233D01*
X056510Y087310D01*
X058427Y087310D01*
X059169Y086568D01*
X058610Y086010D01*
X057310Y086010D01*
X055510Y084210D01*
X051310Y084210D01*
X051272Y084247D02*
X055548Y084247D01*
X055647Y084346D02*
X051174Y084346D01*
X051110Y084444D02*
X055745Y084444D01*
X055844Y084543D02*
X051110Y084543D01*
X051110Y084642D02*
X055942Y084642D01*
X056041Y084740D02*
X051110Y084740D01*
X051110Y084839D02*
X056139Y084839D01*
X056238Y084937D02*
X051110Y084937D01*
X051110Y085036D02*
X056336Y085036D01*
X056435Y085134D02*
X051135Y085134D01*
X051233Y085233D02*
X056533Y085233D01*
X056632Y085331D02*
X054532Y085331D01*
X054631Y085430D02*
X056731Y085430D01*
X056829Y085528D02*
X054729Y085528D01*
X054828Y085627D02*
X056928Y085627D01*
X057026Y085726D02*
X056286Y085726D01*
X056498Y085824D02*
X057125Y085824D01*
X057223Y085923D02*
X056597Y085923D01*
X056695Y086021D02*
X058622Y086021D01*
X058720Y086120D02*
X056747Y086120D01*
X056788Y086218D02*
X058819Y086218D01*
X058917Y086317D02*
X056829Y086317D01*
X056840Y086415D02*
X059016Y086415D01*
X059115Y086514D02*
X056840Y086514D01*
X056840Y086612D02*
X059125Y086612D01*
X059026Y086711D02*
X056825Y086711D01*
X056784Y086810D02*
X058927Y086810D01*
X058829Y086908D02*
X056743Y086908D01*
X056687Y087007D02*
X058730Y087007D01*
X058632Y087105D02*
X056588Y087105D01*
X056490Y087204D02*
X058533Y087204D01*
X058435Y087302D02*
X056503Y087302D01*
X055325Y086021D02*
X055222Y086021D01*
X055123Y085923D02*
X055424Y085923D01*
X055522Y085824D02*
X055025Y085824D01*
X054926Y085726D02*
X055734Y085726D01*
X054810Y073510D02*
X052510Y073510D01*
X052110Y073010D02*
X051610Y073510D01*
X051510Y073510D01*
X052110Y073010D02*
X055010Y073010D01*
X056010Y072010D01*
X057710Y072010D01*
X058010Y071710D01*
X058010Y071010D01*
X057510Y070510D01*
X057510Y071510D02*
X056210Y071510D01*
X055210Y072510D01*
X053210Y072510D01*
X052710Y072010D01*
X052010Y072010D01*
X051510Y072510D01*
X054810Y073510D02*
X055310Y073010D01*
X057710Y073010D01*
X058010Y072710D01*
X058010Y072010D01*
X058510Y071510D01*
X037610Y074610D02*
X037430Y074790D01*
X037430Y076490D01*
X037310Y076610D01*
X034160Y076610D01*
X035710Y076010D02*
X035710Y075060D01*
X036310Y075310D02*
X036310Y074610D01*
X036310Y075310D02*
X037010Y076010D01*
X035810Y072910D02*
X035810Y072010D01*
X031210Y079210D02*
X030660Y079210D01*
X030210Y078760D01*
X029210Y078760D01*
X027810Y080160D01*
X027810Y081390D01*
X028660Y082240D01*
X028660Y083560D01*
X028410Y083810D01*
X026410Y083710D02*
X025710Y083090D01*
X025610Y082990D01*
X025710Y082610D02*
X026410Y083310D01*
X025160Y084510D02*
X025410Y084760D01*
X025160Y084510D02*
X024410Y084510D01*
X024110Y084210D01*
X027310Y081750D02*
X027310Y080810D01*
X027310Y081750D02*
X028030Y082470D01*
D21*
X031410Y083310D02*
X032210Y082510D01*
X032210Y082010D01*
X033210Y081010D01*
X033410Y081010D01*
X032060Y079790D02*
X032060Y079110D01*
X031560Y078610D01*
X033710Y076210D02*
X036210Y073710D01*
X036210Y071510D01*
X021110Y082910D02*
X021110Y084910D01*
D22*
X020760Y067010D02*
X021010Y066760D01*
X025626Y066760D01*
X025534Y066798D01*
X025298Y067034D01*
X025170Y067343D01*
X025170Y067677D01*
X025298Y067985D01*
X025534Y068222D01*
X025843Y068349D01*
X026177Y068349D01*
X026486Y068222D01*
X026722Y067985D01*
X026850Y067677D01*
X026850Y067343D01*
X026722Y067034D01*
X026486Y066798D01*
X026394Y066760D01*
X036411Y066760D01*
X036402Y066761D01*
X036334Y066783D01*
X036269Y066816D01*
X036211Y066859D01*
X036159Y066910D01*
X036117Y066969D01*
X036084Y067033D01*
X036062Y067102D01*
X036050Y067173D01*
X036050Y067470D01*
X036470Y067470D01*
X036470Y067550D01*
X036470Y068269D01*
X036402Y068258D01*
X036334Y068236D01*
X036269Y068203D01*
X036211Y068160D01*
X036159Y068109D01*
X036117Y068051D01*
X035863Y068051D01*
X035866Y068047D02*
X035748Y068166D01*
X035594Y068230D01*
X035543Y068230D01*
X035091Y068681D01*
X034974Y068730D01*
X034847Y068730D01*
X033730Y068730D01*
X033730Y073277D01*
X034491Y074038D01*
X034581Y074128D01*
X034630Y074246D01*
X034630Y074346D01*
X034630Y074773D01*
X034581Y074891D01*
X034491Y074981D01*
X034374Y075030D01*
X034247Y075030D01*
X034129Y074981D01*
X034039Y074891D01*
X033990Y074773D01*
X033990Y074442D01*
X033139Y073591D01*
X033090Y073473D01*
X033090Y073346D01*
X033090Y068730D01*
X033047Y068730D01*
X032929Y068681D01*
X032839Y068591D01*
X032278Y068030D01*
X031747Y068030D01*
X031629Y067981D01*
X031539Y067891D01*
X031490Y067773D01*
X031490Y067646D01*
X031539Y067528D01*
X031629Y067438D01*
X031747Y067390D01*
X032347Y067390D01*
X032474Y067390D01*
X032591Y067438D01*
X033121Y067968D01*
X033090Y067893D01*
X033090Y067126D01*
X033154Y066972D01*
X033272Y066854D01*
X033427Y066790D01*
X033594Y066790D01*
X033748Y066854D01*
X033866Y066972D01*
X033930Y067126D01*
X033930Y067893D01*
X033866Y068047D01*
X033824Y068090D01*
X034196Y068090D01*
X034154Y068047D01*
X034090Y067893D01*
X034090Y067126D01*
X034154Y066972D01*
X034272Y066854D01*
X034427Y066790D01*
X034594Y066790D01*
X034748Y066854D01*
X034866Y066972D01*
X034930Y067126D01*
X034930Y067893D01*
X034899Y067968D01*
X035090Y067777D01*
X035090Y067126D01*
X035154Y066972D01*
X035272Y066854D01*
X035427Y066790D01*
X035594Y066790D01*
X035748Y066854D01*
X035866Y066972D01*
X035930Y067126D01*
X035930Y067893D01*
X035866Y068047D01*
X035914Y067932D02*
X036066Y067932D01*
X036062Y067917D02*
X036050Y067846D01*
X036050Y067550D01*
X036470Y067550D01*
X036550Y067550D01*
X036550Y068269D01*
X036618Y068258D01*
X036687Y068236D01*
X036751Y068203D01*
X036810Y068160D01*
X036861Y068109D01*
X036904Y068051D01*
X037117Y068051D01*
X037084Y067986D01*
X037062Y067917D01*
X037050Y067846D01*
X037050Y067550D01*
X037470Y067550D01*
X037470Y068269D01*
X037402Y068258D01*
X037334Y068236D01*
X037269Y068203D01*
X037211Y068160D01*
X037159Y068109D01*
X037117Y068051D01*
X037066Y067932D02*
X036954Y067932D01*
X036959Y067917D02*
X036936Y067986D01*
X036904Y068051D01*
X036959Y067917D02*
X036970Y067846D01*
X036970Y067550D01*
X036550Y067550D01*
X036550Y067470D01*
X036970Y067470D01*
X036970Y067173D01*
X036959Y067102D01*
X036936Y067033D01*
X036904Y066969D01*
X036861Y066910D01*
X036810Y066859D01*
X036751Y066816D01*
X036687Y066783D01*
X036618Y066761D01*
X036609Y066760D01*
X037411Y066760D01*
X037402Y066761D01*
X037334Y066783D01*
X037269Y066816D01*
X037211Y066859D01*
X037159Y066910D01*
X037117Y066969D01*
X037084Y067033D01*
X037062Y067102D01*
X037050Y067173D01*
X037050Y067470D01*
X037470Y067470D01*
X037470Y067550D01*
X037550Y067550D01*
X037550Y068269D01*
X037618Y068258D01*
X037687Y068236D01*
X037751Y068203D01*
X037810Y068160D01*
X037861Y068109D01*
X037904Y068051D01*
X038157Y068051D01*
X038154Y068047D02*
X038090Y067893D01*
X038090Y067126D01*
X038154Y066972D01*
X038272Y066854D01*
X038427Y066790D01*
X038594Y066790D01*
X038748Y066854D01*
X038866Y066972D01*
X038930Y067126D01*
X038930Y067893D01*
X038866Y068047D01*
X038748Y068166D01*
X038594Y068230D01*
X038427Y068230D01*
X038272Y068166D01*
X038154Y068047D01*
X038106Y067932D02*
X037954Y067932D01*
X037959Y067917D02*
X037936Y067986D01*
X037904Y068051D01*
X037959Y067917D02*
X037970Y067846D01*
X037970Y067550D01*
X037550Y067550D01*
X037550Y067470D01*
X037970Y067470D01*
X037970Y067173D01*
X037959Y067102D01*
X037936Y067033D01*
X037904Y066969D01*
X037861Y066910D01*
X037810Y066859D01*
X037751Y066816D01*
X037687Y066783D01*
X037618Y066761D01*
X037609Y066760D01*
X058126Y066760D01*
X058034Y066798D01*
X057798Y067034D01*
X057670Y067343D01*
X057670Y067677D01*
X057798Y067985D01*
X058034Y068222D01*
X058343Y068349D01*
X058677Y068349D01*
X058986Y068222D01*
X059222Y067985D01*
X059350Y067677D01*
X059350Y067343D01*
X059222Y067034D01*
X058986Y066798D01*
X058894Y066760D01*
X059300Y066760D01*
X059300Y067097D01*
X059423Y067220D01*
X060300Y068097D01*
X060300Y081423D01*
X059423Y082300D01*
X059423Y082300D01*
X059300Y082423D01*
X059300Y086423D01*
X059282Y086441D01*
X059281Y086440D01*
X058727Y085886D01*
X058930Y085684D01*
X058930Y085336D01*
X058684Y085090D01*
X058336Y085090D01*
X058090Y085336D01*
X058090Y085684D01*
X058246Y085840D01*
X057774Y085840D01*
X057930Y085684D01*
X057930Y085336D01*
X057684Y085090D01*
X057336Y085090D01*
X057090Y085336D01*
X057090Y085549D01*
X055581Y084040D01*
X055440Y084040D01*
X051240Y084040D01*
X051140Y084139D01*
X050940Y084339D01*
X050940Y084480D01*
X050940Y085180D01*
X051040Y085280D01*
X051240Y085480D01*
X051381Y085480D01*
X054440Y085480D01*
X055209Y086249D01*
X055170Y086343D01*
X055170Y086677D01*
X055298Y086985D01*
X055534Y087222D01*
X055626Y087260D01*
X031009Y087260D01*
X031018Y087258D01*
X031087Y087236D01*
X031151Y087203D01*
X031210Y087160D01*
X031261Y087109D01*
X031304Y087051D01*
X031336Y086986D01*
X031359Y086917D01*
X031370Y086846D01*
X031370Y086550D01*
X030950Y086550D01*
X030950Y086470D01*
X031370Y086470D01*
X031370Y086173D01*
X031359Y086102D01*
X031336Y086033D01*
X031304Y085969D01*
X031261Y085910D01*
X031210Y085859D01*
X031151Y085816D01*
X031087Y085783D01*
X031018Y085761D01*
X030950Y085750D01*
X030950Y086469D01*
X030870Y086469D01*
X030870Y085750D01*
X030802Y085761D01*
X030734Y085783D01*
X030669Y085816D01*
X030611Y085859D01*
X030559Y085910D01*
X030517Y085969D01*
X030484Y086033D01*
X030462Y086102D01*
X030450Y086173D01*
X030450Y086470D01*
X030870Y086470D01*
X030870Y086550D01*
X030450Y086550D01*
X030450Y086846D01*
X030462Y086917D01*
X030484Y086986D01*
X030517Y087051D01*
X030559Y087109D01*
X030611Y087160D01*
X030669Y087203D01*
X030734Y087236D01*
X030802Y087258D01*
X030811Y087260D01*
X026894Y087260D01*
X026986Y087222D01*
X027222Y086985D01*
X027350Y086677D01*
X027350Y086343D01*
X027222Y086034D01*
X026986Y085798D01*
X026677Y085670D01*
X026343Y085670D01*
X026034Y085798D01*
X025798Y086034D01*
X025670Y086343D01*
X025670Y086677D01*
X025798Y086985D01*
X026034Y087222D01*
X026126Y087260D01*
X020760Y087260D01*
X020760Y067010D01*
X020786Y066984D02*
X025348Y066984D01*
X025270Y067102D02*
X020760Y067102D01*
X020760Y067221D02*
X025221Y067221D01*
X025172Y067339D02*
X020760Y067339D01*
X020760Y067458D02*
X025170Y067458D01*
X025170Y067576D02*
X020760Y067576D01*
X020760Y067695D02*
X025178Y067695D01*
X025227Y067814D02*
X020760Y067814D01*
X020760Y067932D02*
X025276Y067932D01*
X025364Y068051D02*
X020760Y068051D01*
X020760Y068169D02*
X025482Y068169D01*
X025694Y068288D02*
X024903Y068288D01*
X024805Y068247D02*
X025030Y068340D01*
X025202Y068512D01*
X025296Y068737D01*
X025296Y068981D01*
X025202Y069206D01*
X025030Y069378D01*
X024805Y069471D01*
X023577Y069471D01*
X023352Y069378D01*
X023180Y069206D01*
X023087Y068981D01*
X023087Y068737D01*
X023180Y068512D01*
X023352Y068340D01*
X023577Y068247D01*
X024805Y068247D01*
X025096Y068406D02*
X032654Y068406D01*
X032536Y068288D02*
X026326Y068288D01*
X026538Y068169D02*
X032417Y068169D01*
X032299Y068051D02*
X026657Y068051D01*
X026744Y067932D02*
X031580Y067932D01*
X031507Y067814D02*
X026793Y067814D01*
X026843Y067695D02*
X031490Y067695D01*
X031519Y067576D02*
X026850Y067576D01*
X026850Y067458D02*
X031609Y067458D01*
X032611Y067458D02*
X033090Y067458D01*
X033090Y067576D02*
X032730Y067576D01*
X032848Y067695D02*
X033090Y067695D01*
X033090Y067814D02*
X032967Y067814D01*
X033085Y067932D02*
X033106Y067932D01*
X033090Y067339D02*
X026849Y067339D01*
X026800Y067221D02*
X033090Y067221D01*
X033100Y067102D02*
X026751Y067102D01*
X026672Y066984D02*
X033149Y066984D01*
X033261Y066865D02*
X026554Y066865D01*
X025467Y066865D02*
X020905Y066865D01*
X020760Y068288D02*
X023479Y068288D01*
X023286Y068406D02*
X020760Y068406D01*
X020760Y068525D02*
X023175Y068525D01*
X023126Y068643D02*
X020760Y068643D01*
X020760Y068762D02*
X023087Y068762D01*
X023087Y068880D02*
X020760Y068880D01*
X020760Y068999D02*
X023095Y068999D01*
X023144Y069118D02*
X020760Y069118D01*
X020760Y069236D02*
X023210Y069236D01*
X023329Y069355D02*
X020760Y069355D01*
X020760Y069473D02*
X025075Y069473D01*
X024970Y069517D02*
X025231Y069409D01*
X025514Y069409D01*
X025775Y069517D01*
X025975Y069717D01*
X026083Y069978D01*
X026083Y071441D01*
X025975Y071703D01*
X025775Y071903D01*
X025514Y072011D01*
X025231Y072011D01*
X024970Y071903D01*
X024770Y071703D01*
X024662Y071441D01*
X024662Y069978D01*
X024770Y069717D01*
X024970Y069517D01*
X024895Y069592D02*
X023195Y069592D01*
X023220Y069599D02*
X023299Y069631D01*
X023373Y069674D01*
X023441Y069726D01*
X023502Y069787D01*
X023554Y069854D01*
X023596Y069928D01*
X023629Y070007D01*
X023651Y070090D01*
X023662Y070175D01*
X023662Y070667D01*
X023053Y070667D01*
X023053Y070752D01*
X023662Y070752D01*
X023662Y071244D01*
X023651Y071329D01*
X023629Y071412D01*
X023596Y071491D01*
X023554Y071565D01*
X023502Y071633D01*
X023441Y071693D01*
X023373Y071745D01*
X023299Y071788D01*
X023220Y071821D01*
X023138Y071843D01*
X023053Y071854D01*
X023053Y071854D01*
X023053Y071715D01*
X022968Y071715D01*
X022968Y071854D01*
X022967Y071854D01*
X022883Y071843D01*
X022800Y071821D01*
X022721Y071788D01*
X022647Y071745D01*
X022579Y071693D01*
X022519Y071633D01*
X022467Y071565D01*
X022424Y071491D01*
X022391Y071412D01*
X022369Y071329D01*
X022358Y071244D01*
X022358Y070752D01*
X022967Y070752D01*
X022967Y070667D01*
X022358Y070667D01*
X022358Y070175D01*
X022369Y070090D01*
X022391Y070007D01*
X022424Y069928D01*
X022467Y069854D01*
X022519Y069787D01*
X022579Y069726D01*
X022647Y069674D01*
X022721Y069631D01*
X022800Y069599D01*
X022883Y069576D01*
X022967Y069565D01*
X022968Y069565D01*
X022968Y069705D01*
X023053Y069705D01*
X023053Y069565D01*
X023138Y069576D01*
X023220Y069599D01*
X023053Y069592D02*
X022968Y069592D01*
X023053Y069565D02*
X023053Y069565D01*
X022826Y069592D02*
X020760Y069592D01*
X020760Y069710D02*
X022600Y069710D01*
X022486Y069829D02*
X020760Y069829D01*
X020760Y069947D02*
X022416Y069947D01*
X022376Y070066D02*
X020760Y070066D01*
X020760Y070184D02*
X022358Y070184D01*
X022358Y070303D02*
X020760Y070303D01*
X020760Y070422D02*
X022358Y070422D01*
X022358Y070540D02*
X020760Y070540D01*
X020760Y070659D02*
X022358Y070659D01*
X022358Y070777D02*
X020760Y070777D01*
X020760Y070896D02*
X022358Y070896D01*
X022358Y071014D02*
X020760Y071014D01*
X020760Y071133D02*
X022358Y071133D01*
X022359Y071251D02*
X020760Y071251D01*
X020760Y071370D02*
X022380Y071370D01*
X022423Y071488D02*
X020760Y071488D01*
X020760Y071607D02*
X022499Y071607D01*
X022622Y071726D02*
X020760Y071726D01*
X020760Y071844D02*
X022893Y071844D01*
X022968Y071844D02*
X023053Y071844D01*
X023127Y071844D02*
X024911Y071844D01*
X024793Y071726D02*
X023399Y071726D01*
X023521Y071607D02*
X024730Y071607D01*
X024681Y071488D02*
X023597Y071488D01*
X023640Y071370D02*
X024662Y071370D01*
X024662Y071251D02*
X023661Y071251D01*
X023662Y071133D02*
X024662Y071133D01*
X024662Y071014D02*
X023662Y071014D01*
X023662Y070896D02*
X024662Y070896D01*
X024662Y070777D02*
X023662Y070777D01*
X023662Y070659D02*
X024662Y070659D01*
X024662Y070540D02*
X023662Y070540D01*
X023662Y070422D02*
X024662Y070422D01*
X024662Y070303D02*
X023662Y070303D01*
X023662Y070184D02*
X024662Y070184D01*
X024662Y070066D02*
X023645Y070066D01*
X023604Y069947D02*
X024674Y069947D01*
X024724Y069829D02*
X023534Y069829D01*
X023420Y069710D02*
X024776Y069710D01*
X025054Y069355D02*
X033090Y069355D01*
X033090Y069473D02*
X025670Y069473D01*
X025850Y069592D02*
X033090Y069592D01*
X033090Y069710D02*
X025969Y069710D01*
X026021Y069829D02*
X033090Y069829D01*
X033090Y069947D02*
X026070Y069947D01*
X026083Y070066D02*
X033090Y070066D01*
X033090Y070184D02*
X026083Y070184D01*
X026083Y070303D02*
X033090Y070303D01*
X033090Y070422D02*
X026083Y070422D01*
X026083Y070540D02*
X033090Y070540D01*
X033090Y070659D02*
X026083Y070659D01*
X026083Y070777D02*
X033090Y070777D01*
X033090Y070896D02*
X026083Y070896D01*
X026083Y071014D02*
X033090Y071014D01*
X033090Y071133D02*
X026083Y071133D01*
X026083Y071251D02*
X033090Y071251D01*
X033090Y071370D02*
X026083Y071370D01*
X026064Y071488D02*
X033090Y071488D01*
X033090Y071607D02*
X026014Y071607D01*
X025952Y071726D02*
X033090Y071726D01*
X033090Y071844D02*
X025833Y071844D01*
X025630Y071963D02*
X033090Y071963D01*
X033090Y072081D02*
X020760Y072081D01*
X020760Y071963D02*
X025115Y071963D01*
X024124Y073240D02*
X027524Y073240D01*
X027641Y073288D01*
X027731Y073378D01*
X028843Y074490D01*
X029097Y074490D01*
X029574Y074490D01*
X029691Y074538D01*
X029781Y074628D01*
X029830Y074746D01*
X029830Y074873D01*
X029781Y074991D01*
X029691Y075081D01*
X029574Y075130D01*
X029097Y075130D01*
X028774Y075130D01*
X028647Y075130D01*
X028529Y075081D01*
X027328Y073880D01*
X024193Y073880D01*
X023441Y074631D01*
X023324Y074680D01*
X023197Y074680D01*
X023079Y074631D01*
X022989Y074541D01*
X022940Y074423D01*
X022940Y074296D01*
X022989Y074178D01*
X023879Y073288D01*
X023997Y073240D01*
X024124Y073240D01*
X023931Y073267D02*
X020760Y073267D01*
X020760Y073385D02*
X023782Y073385D01*
X023664Y073504D02*
X020760Y073504D01*
X020760Y073622D02*
X023545Y073622D01*
X023426Y073741D02*
X020760Y073741D01*
X020760Y073859D02*
X023308Y073859D01*
X023189Y073978D02*
X020760Y073978D01*
X020760Y074096D02*
X023071Y074096D01*
X022974Y074215D02*
X020760Y074215D01*
X020760Y074333D02*
X022940Y074333D01*
X022952Y074452D02*
X020760Y074452D01*
X020760Y074571D02*
X023019Y074571D01*
X023502Y074571D02*
X023770Y074571D01*
X023737Y074603D02*
X024190Y074150D01*
X024830Y074150D01*
X025283Y074603D01*
X025283Y075243D01*
X024830Y075696D01*
X024190Y075696D01*
X023737Y075243D01*
X023737Y074603D01*
X023737Y074689D02*
X020760Y074689D01*
X020760Y074808D02*
X023737Y074808D01*
X023737Y074926D02*
X020760Y074926D01*
X020760Y075045D02*
X023737Y075045D01*
X023737Y075163D02*
X020760Y075163D01*
X020760Y075282D02*
X023776Y075282D01*
X023895Y075400D02*
X020760Y075400D01*
X020760Y075519D02*
X024013Y075519D01*
X024132Y075637D02*
X020760Y075637D01*
X020760Y075756D02*
X025047Y075756D01*
X025056Y075749D02*
X025119Y075717D01*
X025185Y075696D01*
X025255Y075685D01*
X025544Y075685D01*
X025544Y076098D01*
X025611Y076098D01*
X025611Y076165D01*
X026311Y076165D01*
X026311Y076167D01*
X026300Y076236D01*
X026278Y076303D01*
X026246Y076366D01*
X026205Y076423D01*
X026155Y076473D01*
X026098Y076514D01*
X026036Y076546D01*
X025969Y076568D01*
X025899Y076579D01*
X025611Y076579D01*
X025611Y076165D01*
X025544Y076165D01*
X025544Y076579D01*
X025255Y076579D01*
X025185Y076568D01*
X025119Y076546D01*
X025056Y076514D01*
X024999Y076473D01*
X024949Y076423D01*
X024908Y076366D01*
X024876Y076303D01*
X024854Y076236D01*
X024843Y076167D01*
X024843Y076165D01*
X025543Y076165D01*
X025543Y076098D01*
X024843Y076098D01*
X024843Y076096D01*
X024854Y076027D01*
X024876Y075960D01*
X024908Y075897D01*
X024949Y075840D01*
X024999Y075791D01*
X025056Y075749D01*
X024924Y075875D02*
X020760Y075875D01*
X020760Y075993D02*
X024865Y075993D01*
X024853Y076230D02*
X020760Y076230D01*
X020760Y076112D02*
X025543Y076112D01*
X025611Y076112D02*
X027453Y076112D01*
X027407Y076131D02*
X027506Y076090D01*
X027576Y076090D01*
X028536Y075130D01*
X028685Y075130D01*
X030435Y075130D01*
X030540Y075235D01*
X031095Y075790D01*
X031164Y075790D01*
X031263Y075831D01*
X031339Y075907D01*
X031380Y076006D01*
X031380Y076113D01*
X031339Y076213D01*
X031263Y076288D01*
X031164Y076330D01*
X031056Y076330D01*
X030957Y076288D01*
X030881Y076213D01*
X030840Y076113D01*
X030840Y076044D01*
X030286Y075490D01*
X029486Y075490D01*
X029530Y075596D01*
X029530Y075723D01*
X029481Y075841D01*
X027930Y077392D01*
X027930Y078137D01*
X028281Y078488D01*
X028330Y078606D01*
X028330Y078733D01*
X028330Y079090D01*
X028331Y079151D01*
X028330Y079152D01*
X028330Y079153D01*
X028305Y079213D01*
X028283Y079269D01*
X028282Y079270D01*
X028281Y079271D01*
X028236Y079317D01*
X026910Y080661D01*
X026910Y081273D01*
X026861Y081391D01*
X026771Y081481D01*
X026654Y081530D01*
X026527Y081530D01*
X026409Y081481D01*
X026319Y081391D01*
X026270Y081273D01*
X026270Y080466D01*
X026319Y080348D01*
X026385Y080283D01*
X027690Y078958D01*
X027690Y078802D01*
X027339Y078451D01*
X027290Y078333D01*
X027290Y078206D01*
X027290Y077196D01*
X027339Y077078D01*
X027429Y076988D01*
X028928Y075490D01*
X028685Y075490D01*
X027830Y076344D01*
X027830Y076413D01*
X027789Y076513D01*
X027713Y076588D01*
X027614Y076630D01*
X027506Y076630D01*
X027407Y076588D01*
X027331Y076513D01*
X027290Y076413D01*
X027290Y076306D01*
X027331Y076207D01*
X027407Y076131D01*
X027322Y076230D02*
X026301Y076230D01*
X026255Y076349D02*
X027290Y076349D01*
X027313Y076467D02*
X026161Y076467D01*
X026095Y076771D02*
X026209Y076885D01*
X026271Y077035D01*
X026271Y077197D01*
X026209Y077346D01*
X026095Y077461D01*
X025977Y077510D01*
X026095Y077558D01*
X026209Y077673D01*
X026271Y077822D01*
X026271Y077984D01*
X026209Y078134D01*
X026095Y078248D01*
X025945Y078310D01*
X025209Y078310D01*
X025060Y078248D01*
X024945Y078134D01*
X024883Y077984D01*
X024883Y077822D01*
X024945Y077673D01*
X025060Y077558D01*
X025177Y077510D01*
X025060Y077461D01*
X024945Y077346D01*
X024883Y077197D01*
X024883Y077035D01*
X024945Y076885D01*
X025060Y076771D01*
X025209Y076709D01*
X025945Y076709D01*
X026095Y076771D01*
X026147Y076823D02*
X027594Y076823D01*
X027476Y076941D02*
X026232Y076941D01*
X026271Y077060D02*
X027357Y077060D01*
X027297Y077179D02*
X026271Y077179D01*
X026230Y077297D02*
X027290Y077297D01*
X027290Y077416D02*
X026140Y077416D01*
X026036Y077534D02*
X027290Y077534D01*
X027290Y077653D02*
X026189Y077653D01*
X026250Y077771D02*
X027290Y077771D01*
X027290Y077890D02*
X026271Y077890D01*
X026261Y078008D02*
X027290Y078008D01*
X027290Y078127D02*
X026212Y078127D01*
X026098Y078245D02*
X027290Y078245D01*
X027303Y078364D02*
X020760Y078364D01*
X020760Y078482D02*
X025204Y078482D01*
X025209Y078481D02*
X025945Y078481D01*
X026095Y078543D01*
X026209Y078657D01*
X026271Y078807D01*
X026271Y078969D01*
X026209Y079118D01*
X026095Y079233D01*
X025945Y079295D01*
X025209Y079295D01*
X025060Y079233D01*
X024945Y079118D01*
X024883Y078969D01*
X024883Y078807D01*
X024945Y078657D01*
X025060Y078543D01*
X025209Y078481D01*
X025001Y078601D02*
X020760Y078601D01*
X020760Y078720D02*
X024919Y078720D01*
X024883Y078838D02*
X020760Y078838D01*
X020760Y078957D02*
X024883Y078957D01*
X024927Y079075D02*
X020760Y079075D01*
X020760Y079194D02*
X025021Y079194D01*
X024830Y079323D02*
X025283Y079776D01*
X025283Y080416D01*
X024830Y080869D01*
X024190Y080869D01*
X023737Y080416D01*
X023737Y079776D01*
X024190Y079323D01*
X024830Y079323D01*
X024938Y079431D02*
X027224Y079431D01*
X027108Y079549D02*
X025056Y079549D01*
X025175Y079668D02*
X026991Y079668D01*
X026874Y079786D02*
X025283Y079786D01*
X025283Y079905D02*
X026757Y079905D01*
X026640Y080024D02*
X025283Y080024D01*
X025283Y080142D02*
X026523Y080142D01*
X026406Y080261D02*
X025283Y080261D01*
X025283Y080379D02*
X026306Y080379D01*
X026270Y080498D02*
X025201Y080498D01*
X025083Y080616D02*
X026270Y080616D01*
X026270Y080735D02*
X024964Y080735D01*
X024846Y080853D02*
X026270Y080853D01*
X026270Y080972D02*
X023580Y080972D01*
X023580Y080896D02*
X023580Y083177D01*
X023831Y083428D01*
X023880Y083546D01*
X023880Y083673D01*
X023880Y084059D01*
X023881Y084057D01*
X023957Y083981D01*
X024056Y083940D01*
X024164Y083940D01*
X024263Y083981D01*
X024339Y084057D01*
X024380Y084156D01*
X024380Y084239D01*
X024481Y084340D01*
X025090Y084340D01*
X025231Y084340D01*
X025381Y084490D01*
X025464Y084490D01*
X025563Y084531D01*
X025639Y084607D01*
X025680Y084706D01*
X025680Y084813D01*
X025639Y084913D01*
X025563Y084988D01*
X025464Y085030D01*
X025356Y085030D01*
X025257Y084988D01*
X025181Y084913D01*
X025140Y084813D01*
X025140Y084730D01*
X025090Y084680D01*
X024340Y084680D01*
X024240Y084580D01*
X024140Y084480D01*
X024056Y084480D01*
X023957Y084438D01*
X023881Y084363D01*
X023880Y084360D01*
X023880Y085490D01*
X023974Y085490D01*
X024091Y085538D01*
X024181Y085628D01*
X024230Y085746D01*
X024230Y085873D01*
X024181Y085991D01*
X024091Y086081D01*
X023974Y086130D01*
X023624Y086130D01*
X023497Y086130D01*
X023379Y086081D01*
X023289Y085991D01*
X023240Y085873D01*
X023240Y083742D01*
X022989Y083491D01*
X022940Y083373D01*
X022940Y083246D01*
X022940Y080896D01*
X022989Y080778D01*
X023079Y080688D01*
X023197Y080640D01*
X023324Y080640D01*
X023441Y080688D01*
X023531Y080778D01*
X023580Y080896D01*
X023563Y080853D02*
X024175Y080853D01*
X024056Y080735D02*
X023488Y080735D01*
X023580Y081090D02*
X026270Y081090D01*
X026270Y081209D02*
X023580Y081209D01*
X023580Y081328D02*
X026293Y081328D01*
X026374Y081446D02*
X023580Y081446D01*
X023580Y081565D02*
X027140Y081565D01*
X027140Y081683D02*
X023580Y081683D01*
X023580Y081802D02*
X027140Y081802D01*
X027140Y081820D02*
X027140Y081021D01*
X027081Y080963D01*
X027040Y080863D01*
X027040Y080756D01*
X027081Y080657D01*
X027157Y080581D01*
X027256Y080540D01*
X027364Y080540D01*
X027463Y080581D01*
X027539Y080657D01*
X027580Y080756D01*
X027580Y080863D01*
X027539Y080963D01*
X027480Y081021D01*
X027480Y081679D01*
X028001Y082200D01*
X028084Y082200D01*
X028183Y082241D01*
X028259Y082317D01*
X028300Y082416D01*
X028300Y082523D01*
X028259Y082623D01*
X028183Y082698D01*
X028084Y082740D01*
X027976Y082740D01*
X027877Y082698D01*
X027801Y082623D01*
X027760Y082523D01*
X027760Y082440D01*
X027240Y081920D01*
X027240Y081920D01*
X027140Y081820D01*
X027241Y081920D02*
X023580Y081920D01*
X023580Y082039D02*
X027359Y082039D01*
X027478Y082157D02*
X023580Y082157D01*
X023580Y082276D02*
X027596Y082276D01*
X027715Y082394D02*
X025877Y082394D01*
X025863Y082381D02*
X025939Y082457D01*
X025980Y082556D01*
X025980Y082639D01*
X026381Y083040D01*
X026464Y083040D01*
X026563Y083081D01*
X026639Y083157D01*
X026680Y083256D01*
X026680Y083363D01*
X026639Y083463D01*
X026592Y083510D01*
X026639Y083557D01*
X026680Y083656D01*
X026680Y083763D01*
X026639Y083863D01*
X026563Y083938D01*
X026464Y083980D01*
X026356Y083980D01*
X026257Y083938D01*
X026181Y083863D01*
X026140Y083763D01*
X026140Y083698D01*
X023880Y083698D01*
X023880Y083580D02*
X026007Y083580D01*
X026140Y083698D02*
X025646Y083260D01*
X025556Y083260D01*
X025457Y083218D01*
X025381Y083143D01*
X025340Y083043D01*
X025340Y082936D01*
X025381Y082837D01*
X025457Y082761D01*
X025477Y082752D01*
X025440Y082663D01*
X025440Y082556D01*
X025481Y082457D01*
X025557Y082381D01*
X025656Y082340D01*
X025764Y082340D01*
X025863Y082381D01*
X025962Y082513D02*
X027760Y082513D01*
X027810Y082631D02*
X025980Y082631D01*
X026091Y082750D02*
X028490Y082750D01*
X028490Y082631D02*
X028250Y082631D01*
X028300Y082513D02*
X028490Y082513D01*
X028490Y082394D02*
X028291Y082394D01*
X028218Y082276D02*
X028456Y082276D01*
X028490Y082310D02*
X027740Y081560D01*
X027640Y081460D01*
X027640Y080230D01*
X027640Y080089D01*
X028950Y078780D01*
X028856Y078780D01*
X028757Y078738D01*
X028688Y078670D01*
X028644Y078670D01*
X028254Y078280D01*
X028156Y078280D01*
X028057Y078238D01*
X027981Y078163D01*
X027940Y078063D01*
X027940Y077956D01*
X027981Y077857D01*
X028057Y077781D01*
X028156Y077740D01*
X028264Y077740D01*
X028363Y077781D01*
X028439Y077857D01*
X028480Y077956D01*
X028480Y078053D01*
X028732Y078306D01*
X028757Y078281D01*
X028856Y078240D01*
X028964Y078240D01*
X029063Y078281D01*
X029139Y078357D01*
X029180Y078456D01*
X029180Y078563D01*
X029169Y078590D01*
X030140Y078590D01*
X030281Y078590D01*
X030731Y079040D01*
X030998Y079040D01*
X031057Y078981D01*
X031156Y078940D01*
X031264Y078940D01*
X031363Y078981D01*
X031439Y079057D01*
X031480Y079156D01*
X031480Y079263D01*
X031439Y079363D01*
X031363Y079438D01*
X031264Y079480D01*
X031156Y079480D01*
X031057Y079438D01*
X030998Y079380D01*
X030731Y079380D01*
X030590Y079380D01*
X030140Y078930D01*
X029281Y078930D01*
X027980Y080230D01*
X027980Y081319D01*
X028830Y082169D01*
X028830Y082310D01*
X028830Y083489D01*
X028830Y083630D01*
X028680Y083780D01*
X028680Y083863D01*
X028639Y083963D01*
X028563Y084038D01*
X028464Y084080D01*
X028356Y084080D01*
X028257Y084038D01*
X028181Y083963D01*
X028140Y083863D01*
X028140Y083756D01*
X028181Y083657D01*
X028257Y083581D01*
X028356Y083540D01*
X028440Y083540D01*
X028490Y083489D01*
X028490Y082310D01*
X028338Y082157D02*
X027958Y082157D01*
X027840Y082039D02*
X028219Y082039D01*
X028100Y081920D02*
X027721Y081920D01*
X027603Y081802D02*
X027982Y081802D01*
X027863Y081683D02*
X027484Y081683D01*
X027480Y081565D02*
X027745Y081565D01*
X027640Y081446D02*
X027480Y081446D01*
X027480Y081328D02*
X027640Y081328D01*
X027640Y081209D02*
X027480Y081209D01*
X027480Y081090D02*
X027640Y081090D01*
X027640Y080972D02*
X027530Y080972D01*
X027580Y080853D02*
X027640Y080853D01*
X027640Y080735D02*
X027571Y080735D01*
X027640Y080616D02*
X027499Y080616D01*
X027640Y080498D02*
X027071Y080498D01*
X027122Y080616D02*
X026954Y080616D01*
X026910Y080735D02*
X027049Y080735D01*
X027040Y080853D02*
X026910Y080853D01*
X026910Y080972D02*
X027091Y080972D01*
X027140Y081090D02*
X026910Y081090D01*
X026910Y081209D02*
X027140Y081209D01*
X027140Y081328D02*
X026888Y081328D01*
X026806Y081446D02*
X027140Y081446D01*
X027989Y081328D02*
X028035Y081328D01*
X028041Y081343D02*
X028000Y081243D01*
X028000Y081136D01*
X028041Y081037D01*
X028117Y080961D01*
X028216Y080920D01*
X028324Y080920D01*
X028423Y080961D01*
X028452Y080990D01*
X032124Y080990D01*
X032710Y080403D01*
X032804Y080310D01*
X034564Y080310D01*
X034696Y080310D01*
X035496Y081110D01*
X035590Y081203D01*
X035590Y081400D01*
X035644Y081400D01*
X035743Y081441D01*
X035750Y081448D01*
X035750Y080231D01*
X035681Y080163D01*
X035640Y080063D01*
X035640Y079956D01*
X035681Y079857D01*
X035757Y079781D01*
X035856Y079740D01*
X035964Y079740D01*
X036063Y079781D01*
X036139Y079857D01*
X036180Y079956D01*
X036180Y080063D01*
X036139Y080163D01*
X036070Y080231D01*
X036070Y085821D01*
X036148Y085854D01*
X036266Y085972D01*
X036330Y086126D01*
X036330Y086893D01*
X036266Y087047D01*
X036148Y087166D01*
X035994Y087230D01*
X035827Y087230D01*
X035672Y087166D01*
X035554Y087047D01*
X035490Y086893D01*
X035490Y086126D01*
X035554Y085972D01*
X035672Y085854D01*
X035750Y085821D01*
X035750Y081891D01*
X035743Y081898D01*
X035644Y081940D01*
X035536Y081940D01*
X035437Y081898D01*
X035430Y081891D01*
X035430Y082008D01*
X035499Y082077D01*
X035540Y082176D01*
X035540Y082283D01*
X035499Y082383D01*
X035423Y082458D01*
X035324Y082500D01*
X035216Y082500D01*
X035117Y082458D01*
X035041Y082383D01*
X035000Y082283D01*
X035000Y082176D01*
X035041Y082077D01*
X035110Y082008D01*
X035110Y081376D01*
X034524Y080790D01*
X033572Y080790D01*
X033639Y080857D01*
X033680Y080956D01*
X033680Y081063D01*
X033639Y081163D01*
X033563Y081238D01*
X033464Y081280D01*
X033356Y081280D01*
X033302Y081257D01*
X032469Y082090D01*
X032450Y082136D01*
X032450Y082462D01*
X032450Y082557D01*
X032414Y082646D01*
X031669Y083390D01*
X031639Y083463D01*
X031563Y083538D01*
X031464Y083580D01*
X031356Y083580D01*
X031257Y083538D01*
X031181Y083463D01*
X031140Y083363D01*
X031140Y083256D01*
X031181Y083157D01*
X031257Y083081D01*
X031330Y083051D01*
X031970Y082410D01*
X031970Y082136D01*
X031940Y082063D01*
X031940Y081956D01*
X031981Y081857D01*
X032057Y081781D01*
X032130Y081751D01*
X033007Y080874D01*
X033074Y080806D01*
X033114Y080790D01*
X032976Y080790D01*
X032176Y081590D01*
X032044Y081590D01*
X029012Y081590D01*
X028943Y081658D01*
X028844Y081700D01*
X028736Y081700D01*
X028637Y081658D01*
X028561Y081583D01*
X028520Y081483D01*
X028520Y081376D01*
X028548Y081310D01*
X028513Y081310D01*
X028499Y081343D01*
X028423Y081418D01*
X028324Y081460D01*
X028216Y081460D01*
X028117Y081418D01*
X028041Y081343D01*
X028107Y081446D02*
X028184Y081446D01*
X028226Y081565D02*
X028554Y081565D01*
X028520Y081446D02*
X028357Y081446D01*
X028505Y081328D02*
X028540Y081328D01*
X028434Y080972D02*
X032142Y080972D01*
X032260Y080853D02*
X027980Y080853D01*
X027980Y080735D02*
X032379Y080735D01*
X032497Y080616D02*
X029065Y080616D01*
X029099Y080583D02*
X029023Y080658D01*
X028924Y080700D01*
X028816Y080700D01*
X028717Y080658D01*
X028641Y080583D01*
X028600Y080483D01*
X028600Y080376D01*
X028641Y080277D01*
X028717Y080201D01*
X028816Y080160D01*
X028914Y080160D01*
X029350Y079723D01*
X029350Y079691D01*
X029281Y079623D01*
X029240Y079523D01*
X029240Y079416D01*
X029281Y079317D01*
X029357Y079241D01*
X029456Y079200D01*
X029564Y079200D01*
X029663Y079241D01*
X029739Y079317D01*
X029780Y079416D01*
X029780Y079523D01*
X029739Y079623D01*
X029670Y079691D01*
X029670Y079856D01*
X029576Y079950D01*
X029140Y080386D01*
X029140Y080483D01*
X029099Y080583D01*
X029134Y080498D02*
X032616Y080498D01*
X032734Y080379D02*
X029147Y080379D01*
X029265Y080261D02*
X035750Y080261D01*
X035750Y080379D02*
X034766Y080379D01*
X034885Y080498D02*
X035750Y080498D01*
X035750Y080616D02*
X035003Y080616D01*
X035122Y080735D02*
X035750Y080735D01*
X035750Y080853D02*
X035240Y080853D01*
X035359Y080972D02*
X035750Y080972D01*
X035750Y081090D02*
X035477Y081090D01*
X035590Y081209D02*
X035750Y081209D01*
X035750Y081328D02*
X035590Y081328D01*
X035748Y081446D02*
X035750Y081446D01*
X036070Y081446D02*
X039907Y081446D01*
X039789Y081565D02*
X036070Y081565D01*
X036070Y081683D02*
X039670Y081683D01*
X039552Y081802D02*
X037124Y081802D01*
X037139Y081817D02*
X037180Y081916D01*
X037180Y082023D01*
X037139Y082123D01*
X037070Y082191D01*
X037070Y085821D01*
X037148Y085854D01*
X037266Y085972D01*
X037330Y086126D01*
X037330Y086893D01*
X037266Y087047D01*
X037148Y087166D01*
X036994Y087230D01*
X036827Y087230D01*
X036672Y087166D01*
X036554Y087047D01*
X036490Y086893D01*
X036490Y086126D01*
X036554Y085972D01*
X036672Y085854D01*
X036750Y085821D01*
X036750Y082191D01*
X036681Y082123D01*
X036640Y082023D01*
X036640Y081916D01*
X036681Y081817D01*
X036757Y081741D01*
X036856Y081700D01*
X036964Y081700D01*
X037063Y081741D01*
X037139Y081817D01*
X037180Y081920D02*
X037318Y081920D01*
X037281Y081957D02*
X037357Y081881D01*
X037456Y081840D01*
X037564Y081840D01*
X037663Y081881D01*
X037739Y081957D01*
X037780Y082056D01*
X037780Y082153D01*
X037976Y082350D01*
X039344Y082350D01*
X039317Y082338D01*
X039241Y082263D01*
X039200Y082163D01*
X039200Y082056D01*
X039241Y081957D01*
X039317Y081881D01*
X039416Y081840D01*
X039514Y081840D01*
X040044Y081310D01*
X040176Y081310D01*
X043888Y081310D01*
X043957Y081241D01*
X044056Y081200D01*
X044164Y081200D01*
X044263Y081241D01*
X044339Y081317D01*
X044380Y081416D01*
X044380Y081480D01*
X044434Y081480D01*
X044990Y080923D01*
X044990Y080336D01*
X044790Y080536D01*
X044696Y080630D01*
X044252Y080630D01*
X044183Y080698D01*
X044084Y080740D01*
X043976Y080740D01*
X043940Y080724D01*
X043940Y080803D01*
X043899Y080903D01*
X043823Y080978D01*
X043724Y081020D01*
X043616Y081020D01*
X043517Y080978D01*
X043441Y080903D01*
X043400Y080803D01*
X043400Y080696D01*
X043441Y080597D01*
X043510Y080528D01*
X043510Y080323D01*
X043604Y080230D01*
X043735Y080099D01*
X043637Y080058D01*
X043561Y079983D01*
X043520Y079883D01*
X043520Y079776D01*
X043561Y079677D01*
X043637Y079601D01*
X043736Y079560D01*
X043834Y079560D01*
X044150Y079243D01*
X044150Y078952D01*
X044084Y078980D01*
X043976Y078980D01*
X043877Y078938D01*
X043801Y078863D01*
X043760Y078763D01*
X043760Y078656D01*
X043801Y078557D01*
X043877Y078481D01*
X043976Y078440D01*
X044074Y078440D01*
X045364Y077150D01*
X044816Y077150D01*
X044736Y077230D01*
X044604Y077230D01*
X042564Y077230D01*
X042470Y077136D01*
X042310Y076976D01*
X042310Y076843D01*
X042310Y076691D01*
X042241Y076623D01*
X042200Y076523D01*
X042200Y076416D01*
X042241Y076317D01*
X042317Y076241D01*
X042416Y076200D01*
X042524Y076200D01*
X042623Y076241D01*
X042699Y076317D01*
X042740Y076416D01*
X042740Y076520D01*
X042804Y076520D01*
X042903Y076561D01*
X042972Y076630D01*
X043096Y076630D01*
X043176Y076710D01*
X043484Y076710D01*
X043564Y076630D01*
X047096Y076630D01*
X047190Y076723D01*
X047190Y076723D01*
X047626Y077160D01*
X047724Y077160D01*
X047823Y077201D01*
X047899Y077277D01*
X047940Y077376D01*
X047940Y077483D01*
X047899Y077583D01*
X047823Y077658D01*
X047724Y077700D01*
X047616Y077700D01*
X047517Y077658D01*
X047470Y077611D01*
X047423Y077658D01*
X047324Y077700D01*
X047216Y077700D01*
X047117Y077658D01*
X047041Y077583D01*
X047000Y077483D01*
X047000Y077386D01*
X046764Y077150D01*
X046393Y077150D01*
X046420Y077216D01*
X046420Y077323D01*
X046382Y077416D01*
X046382Y077416D01*
X046397Y077401D01*
X046496Y077360D01*
X046604Y077360D01*
X046703Y077401D01*
X046779Y077477D01*
X046820Y077576D01*
X046820Y077683D01*
X046779Y077783D01*
X046710Y077851D01*
X046710Y078216D01*
X046616Y078310D01*
X045830Y079096D01*
X045736Y079190D01*
X045612Y079190D01*
X045619Y079197D01*
X045660Y079296D01*
X045660Y079403D01*
X045619Y079503D01*
X045550Y079571D01*
X045550Y079643D01*
X045550Y079776D01*
X045310Y080016D01*
X045310Y081056D01*
X045216Y081150D01*
X044660Y081706D01*
X044660Y081803D01*
X044619Y081903D01*
X044543Y081978D01*
X044444Y082020D01*
X044336Y082020D01*
X044237Y081978D01*
X044168Y081910D01*
X040736Y081910D01*
X040070Y082576D01*
X039976Y082670D01*
X037976Y082670D01*
X037844Y082670D01*
X037554Y082380D01*
X037456Y082380D01*
X037357Y082338D01*
X037281Y082263D01*
X037240Y082163D01*
X037240Y082056D01*
X037281Y081957D01*
X037247Y082039D02*
X037174Y082039D01*
X037240Y082157D02*
X037104Y082157D01*
X037070Y082276D02*
X037295Y082276D01*
X037070Y082394D02*
X037569Y082394D01*
X037687Y082513D02*
X037070Y082513D01*
X037070Y082631D02*
X037806Y082631D01*
X037903Y082276D02*
X039255Y082276D01*
X039200Y082157D02*
X037784Y082157D01*
X037773Y082039D02*
X039207Y082039D01*
X039278Y081920D02*
X037703Y081920D01*
X036696Y081802D02*
X036070Y081802D01*
X036070Y081920D02*
X036640Y081920D01*
X036647Y082039D02*
X036070Y082039D01*
X036070Y082157D02*
X036716Y082157D01*
X036750Y082276D02*
X036070Y082276D01*
X036070Y082394D02*
X036750Y082394D01*
X036750Y082513D02*
X036070Y082513D01*
X036070Y082631D02*
X036750Y082631D01*
X036750Y082750D02*
X036070Y082750D01*
X036070Y082869D02*
X036750Y082869D01*
X036750Y082987D02*
X036070Y082987D01*
X036070Y083106D02*
X036750Y083106D01*
X036750Y083224D02*
X036070Y083224D01*
X036070Y083343D02*
X036750Y083343D01*
X036750Y083461D02*
X036070Y083461D01*
X036070Y083580D02*
X036750Y083580D01*
X036750Y083698D02*
X036070Y083698D01*
X036070Y083817D02*
X036750Y083817D01*
X036750Y083935D02*
X036070Y083935D01*
X036070Y084054D02*
X036750Y084054D01*
X036750Y084173D02*
X036070Y084173D01*
X036070Y084291D02*
X036750Y084291D01*
X036750Y084410D02*
X036070Y084410D01*
X036070Y084528D02*
X036750Y084528D01*
X036750Y084647D02*
X036070Y084647D01*
X036070Y084765D02*
X036750Y084765D01*
X036750Y084884D02*
X036070Y084884D01*
X036070Y085002D02*
X036750Y085002D01*
X036750Y085121D02*
X036070Y085121D01*
X036070Y085239D02*
X036750Y085239D01*
X036750Y085358D02*
X036070Y085358D01*
X036070Y085477D02*
X036750Y085477D01*
X036750Y085595D02*
X036070Y085595D01*
X036070Y085714D02*
X036750Y085714D01*
X036724Y085832D02*
X036096Y085832D01*
X036245Y085951D02*
X036575Y085951D01*
X036514Y086069D02*
X036307Y086069D01*
X036330Y086188D02*
X036490Y086188D01*
X036490Y086306D02*
X036330Y086306D01*
X036330Y086425D02*
X036490Y086425D01*
X036490Y086543D02*
X036330Y086543D01*
X036330Y086662D02*
X036490Y086662D01*
X036490Y086781D02*
X036330Y086781D01*
X036328Y086899D02*
X036493Y086899D01*
X036542Y087018D02*
X036279Y087018D01*
X036178Y087136D02*
X036643Y087136D01*
X037178Y087136D02*
X038243Y087136D01*
X038272Y087166D02*
X038154Y087047D01*
X038090Y086893D01*
X038090Y086126D01*
X038152Y085977D01*
X037630Y085456D01*
X037630Y085323D01*
X037630Y083891D01*
X037561Y083823D01*
X037520Y083723D01*
X037520Y083616D01*
X037561Y083517D01*
X037637Y083441D01*
X037736Y083400D01*
X037844Y083400D01*
X037943Y083441D01*
X038019Y083517D01*
X038060Y083616D01*
X038060Y083723D01*
X038019Y083823D01*
X037950Y083891D01*
X037950Y085323D01*
X038419Y085793D01*
X038427Y085790D01*
X038594Y085790D01*
X038748Y085854D01*
X038866Y085972D01*
X038930Y086126D01*
X038930Y086893D01*
X038866Y087047D01*
X038748Y087166D01*
X038594Y087230D01*
X038427Y087230D01*
X038272Y087166D01*
X038142Y087018D02*
X037279Y087018D01*
X037328Y086899D02*
X038093Y086899D01*
X038090Y086781D02*
X037330Y086781D01*
X037330Y086662D02*
X038090Y086662D01*
X038090Y086543D02*
X037330Y086543D01*
X037330Y086425D02*
X038090Y086425D01*
X038090Y086306D02*
X037330Y086306D01*
X037330Y086188D02*
X038090Y086188D01*
X038114Y086069D02*
X037307Y086069D01*
X037245Y085951D02*
X038125Y085951D01*
X038007Y085832D02*
X037096Y085832D01*
X037070Y085714D02*
X037888Y085714D01*
X037769Y085595D02*
X037070Y085595D01*
X037070Y085477D02*
X037651Y085477D01*
X037630Y085358D02*
X037070Y085358D01*
X037070Y085239D02*
X037630Y085239D01*
X037630Y085121D02*
X037070Y085121D01*
X037070Y085002D02*
X037630Y085002D01*
X037630Y084884D02*
X037070Y084884D01*
X037070Y084765D02*
X037630Y084765D01*
X037630Y084647D02*
X037070Y084647D01*
X037070Y084528D02*
X037630Y084528D01*
X037630Y084410D02*
X037070Y084410D01*
X037070Y084291D02*
X037630Y084291D01*
X037630Y084173D02*
X037070Y084173D01*
X037070Y084054D02*
X037630Y084054D01*
X037630Y083935D02*
X037070Y083935D01*
X037070Y083817D02*
X037559Y083817D01*
X037520Y083698D02*
X037070Y083698D01*
X037070Y083580D02*
X037535Y083580D01*
X037617Y083461D02*
X037070Y083461D01*
X037070Y083343D02*
X053366Y083343D01*
X053381Y083307D02*
X053450Y083238D01*
X053450Y078643D01*
X053544Y078550D01*
X053740Y078353D01*
X053740Y078256D01*
X053781Y078157D01*
X053857Y078081D01*
X053956Y078040D01*
X054064Y078040D01*
X054163Y078081D01*
X054239Y078157D01*
X054280Y078256D01*
X054280Y078363D01*
X054239Y078463D01*
X054163Y078538D01*
X054064Y078580D01*
X053966Y078580D01*
X053770Y078776D01*
X053770Y083238D01*
X053839Y083307D01*
X053880Y083406D01*
X053880Y083513D01*
X053839Y083613D01*
X053763Y083688D01*
X053664Y083730D01*
X053556Y083730D01*
X053457Y083688D01*
X053381Y083613D01*
X053340Y083513D01*
X053340Y083406D01*
X053381Y083307D01*
X053450Y083224D02*
X037070Y083224D01*
X037070Y083106D02*
X053450Y083106D01*
X053450Y082987D02*
X051064Y082987D01*
X051063Y082988D02*
X050964Y083030D01*
X050856Y083030D01*
X050757Y082988D01*
X050681Y082913D01*
X050640Y082813D01*
X050640Y082706D01*
X050681Y082607D01*
X050750Y082538D01*
X050750Y082196D01*
X050739Y082223D01*
X050663Y082298D01*
X050564Y082340D01*
X050456Y082340D01*
X050357Y082298D01*
X050281Y082223D01*
X050240Y082123D01*
X050240Y082016D01*
X050281Y081917D01*
X050350Y081848D01*
X050350Y077576D01*
X049954Y077180D01*
X049856Y077180D01*
X049757Y077138D01*
X049681Y077063D01*
X049640Y076963D01*
X049640Y076856D01*
X049681Y076757D01*
X049757Y076681D01*
X049856Y076640D01*
X049964Y076640D01*
X050063Y076681D01*
X050139Y076757D01*
X050180Y076856D01*
X050180Y076953D01*
X050670Y077443D01*
X050670Y077576D01*
X050670Y081848D01*
X050739Y081917D01*
X050750Y081944D01*
X050750Y081443D01*
X050844Y081350D01*
X052150Y080043D01*
X052150Y078231D01*
X052081Y078163D01*
X052040Y078063D01*
X052040Y077956D01*
X052081Y077857D01*
X052157Y077781D01*
X052256Y077740D01*
X052364Y077740D01*
X052463Y077781D01*
X052539Y077857D01*
X052580Y077956D01*
X052580Y078040D01*
X052664Y078040D01*
X052763Y078081D01*
X052839Y078157D01*
X052880Y078256D01*
X052880Y078363D01*
X052839Y078463D01*
X052770Y078531D01*
X052770Y080376D01*
X052676Y080470D01*
X052320Y080826D01*
X052320Y081898D01*
X052389Y081967D01*
X052430Y082066D01*
X052430Y082173D01*
X052389Y082273D01*
X052313Y082348D01*
X052214Y082390D01*
X052106Y082390D01*
X052007Y082348D01*
X051931Y082273D01*
X051890Y082173D01*
X051890Y082066D01*
X051931Y081967D01*
X052000Y081898D01*
X052000Y080826D01*
X052000Y080693D01*
X052450Y080243D01*
X052450Y080196D01*
X051070Y081576D01*
X051070Y082538D01*
X051139Y082607D01*
X051180Y082706D01*
X051180Y082813D01*
X051139Y082913D01*
X051063Y082988D01*
X051157Y082869D02*
X053450Y082869D01*
X053450Y082750D02*
X051180Y082750D01*
X051149Y082631D02*
X053450Y082631D01*
X053450Y082513D02*
X051070Y082513D01*
X051070Y082394D02*
X053450Y082394D01*
X053450Y082276D02*
X052386Y082276D01*
X052430Y082157D02*
X053450Y082157D01*
X053450Y082039D02*
X052419Y082039D01*
X052343Y081920D02*
X053450Y081920D01*
X053450Y081802D02*
X052320Y081802D01*
X052320Y081683D02*
X053450Y081683D01*
X053450Y081565D02*
X052320Y081565D01*
X052320Y081446D02*
X053450Y081446D01*
X053450Y081328D02*
X052320Y081328D01*
X052320Y081209D02*
X053450Y081209D01*
X053450Y081090D02*
X052320Y081090D01*
X052320Y080972D02*
X053450Y080972D01*
X053450Y080853D02*
X052320Y080853D01*
X052411Y080735D02*
X053450Y080735D01*
X053450Y080616D02*
X052530Y080616D01*
X052648Y080498D02*
X053450Y080498D01*
X053450Y080379D02*
X052767Y080379D01*
X052770Y080261D02*
X053450Y080261D01*
X053450Y080142D02*
X052770Y080142D01*
X052770Y080024D02*
X053450Y080024D01*
X053450Y079905D02*
X052770Y079905D01*
X052770Y079786D02*
X053450Y079786D01*
X053450Y079668D02*
X052770Y079668D01*
X052770Y079549D02*
X053450Y079549D01*
X053450Y079431D02*
X052770Y079431D01*
X052770Y079312D02*
X053450Y079312D01*
X053450Y079194D02*
X052770Y079194D01*
X052770Y079075D02*
X053450Y079075D01*
X053450Y078957D02*
X052770Y078957D01*
X052770Y078838D02*
X053450Y078838D01*
X053450Y078720D02*
X052770Y078720D01*
X052770Y078601D02*
X053493Y078601D01*
X053611Y078482D02*
X052819Y078482D01*
X052880Y078364D02*
X053730Y078364D01*
X053745Y078245D02*
X052876Y078245D01*
X052809Y078127D02*
X053811Y078127D01*
X054209Y078127D02*
X054611Y078127D01*
X054581Y078157D02*
X054657Y078081D01*
X054756Y078040D01*
X054864Y078040D01*
X054963Y078081D01*
X055039Y078157D01*
X055080Y078256D01*
X055080Y078363D01*
X055039Y078463D01*
X054970Y078531D01*
X054970Y082851D01*
X054975Y082857D01*
X054970Y082916D01*
X054970Y082976D01*
X054965Y082981D01*
X054964Y082989D01*
X054919Y083027D01*
X054876Y083070D01*
X054869Y083070D01*
X054430Y083441D01*
X054430Y083513D01*
X054389Y083613D01*
X054313Y083688D01*
X054214Y083730D01*
X054106Y083730D01*
X054007Y083688D01*
X053931Y083613D01*
X053890Y083513D01*
X053890Y083406D01*
X053931Y083307D01*
X054007Y083231D01*
X054106Y083190D01*
X054214Y083190D01*
X054226Y083195D01*
X054650Y082835D01*
X054650Y078531D01*
X054581Y078463D01*
X054540Y078363D01*
X054540Y078256D01*
X054581Y078157D01*
X054545Y078245D02*
X054276Y078245D01*
X054280Y078364D02*
X054541Y078364D01*
X054601Y078482D02*
X054219Y078482D01*
X053945Y078601D02*
X054650Y078601D01*
X054650Y078720D02*
X053826Y078720D01*
X053770Y078838D02*
X054650Y078838D01*
X054650Y078957D02*
X053770Y078957D01*
X053770Y079075D02*
X054650Y079075D01*
X054650Y079194D02*
X053770Y079194D01*
X053770Y079312D02*
X054650Y079312D01*
X054650Y079431D02*
X053770Y079431D01*
X053770Y079549D02*
X054650Y079549D01*
X054650Y079668D02*
X053770Y079668D01*
X053770Y079786D02*
X054650Y079786D01*
X054650Y079905D02*
X053770Y079905D01*
X053770Y080024D02*
X054650Y080024D01*
X054650Y080142D02*
X053770Y080142D01*
X053770Y080261D02*
X054650Y080261D01*
X054650Y080379D02*
X053770Y080379D01*
X053770Y080498D02*
X054650Y080498D01*
X054650Y080616D02*
X053770Y080616D01*
X053770Y080735D02*
X054650Y080735D01*
X054650Y080853D02*
X053770Y080853D01*
X053770Y080972D02*
X054650Y080972D01*
X054650Y081090D02*
X053770Y081090D01*
X053770Y081209D02*
X054650Y081209D01*
X054650Y081328D02*
X053770Y081328D01*
X053770Y081446D02*
X054650Y081446D01*
X054650Y081565D02*
X053770Y081565D01*
X053770Y081683D02*
X054650Y081683D01*
X054650Y081802D02*
X053770Y081802D01*
X053770Y081920D02*
X054650Y081920D01*
X054650Y082039D02*
X053770Y082039D01*
X053770Y082157D02*
X054650Y082157D01*
X054650Y082276D02*
X053770Y082276D01*
X053770Y082394D02*
X054650Y082394D01*
X054650Y082513D02*
X053770Y082513D01*
X053770Y082631D02*
X054650Y082631D01*
X054650Y082750D02*
X053770Y082750D01*
X053770Y082869D02*
X054611Y082869D01*
X054471Y082987D02*
X053770Y082987D01*
X053770Y083106D02*
X054331Y083106D01*
X054546Y083343D02*
X057090Y083343D01*
X057090Y083336D02*
X057336Y083090D01*
X057684Y083090D01*
X057930Y083336D01*
X057930Y083684D01*
X057684Y083930D01*
X057336Y083930D01*
X057090Y083684D01*
X057090Y083336D01*
X057090Y083461D02*
X054430Y083461D01*
X054403Y083580D02*
X057090Y083580D01*
X057105Y083698D02*
X054289Y083698D01*
X054031Y083698D02*
X053739Y083698D01*
X053853Y083580D02*
X053918Y083580D01*
X053890Y083461D02*
X053880Y083461D01*
X053854Y083343D02*
X053916Y083343D01*
X054023Y083224D02*
X053770Y083224D01*
X053340Y083461D02*
X037964Y083461D01*
X038045Y083580D02*
X053368Y083580D01*
X053481Y083698D02*
X038060Y083698D01*
X038021Y083817D02*
X057224Y083817D01*
X057336Y084090D02*
X057684Y084090D01*
X057930Y084336D01*
X057930Y084684D01*
X057684Y084930D01*
X057336Y084930D01*
X057090Y084684D01*
X057090Y084336D01*
X057336Y084090D01*
X057253Y084173D02*
X055714Y084173D01*
X055832Y084291D02*
X057135Y084291D01*
X057090Y084410D02*
X055951Y084410D01*
X056069Y084528D02*
X057090Y084528D01*
X057090Y084647D02*
X056188Y084647D01*
X056306Y084765D02*
X057172Y084765D01*
X057291Y084884D02*
X056425Y084884D01*
X056543Y085002D02*
X059300Y085002D01*
X059300Y084884D02*
X058730Y084884D01*
X058684Y084930D02*
X058336Y084930D01*
X058090Y084684D01*
X058090Y084336D01*
X058336Y084090D01*
X058684Y084090D01*
X058930Y084336D01*
X058930Y084684D01*
X058684Y084930D01*
X058715Y085121D02*
X059300Y085121D01*
X059300Y085239D02*
X058834Y085239D01*
X058930Y085358D02*
X059300Y085358D01*
X059300Y085477D02*
X058930Y085477D01*
X058930Y085595D02*
X059300Y085595D01*
X059300Y085714D02*
X058900Y085714D01*
X058782Y085832D02*
X059300Y085832D01*
X059300Y085951D02*
X058792Y085951D01*
X058910Y086069D02*
X059300Y086069D01*
X059300Y086188D02*
X059029Y086188D01*
X059147Y086306D02*
X059300Y086306D01*
X059298Y086425D02*
X059266Y086425D01*
X058239Y085832D02*
X057782Y085832D01*
X057900Y085714D02*
X058120Y085714D01*
X058090Y085595D02*
X057930Y085595D01*
X057930Y085477D02*
X058090Y085477D01*
X058090Y085358D02*
X057930Y085358D01*
X057834Y085239D02*
X058186Y085239D01*
X058305Y085121D02*
X057715Y085121D01*
X057730Y084884D02*
X058291Y084884D01*
X058172Y084765D02*
X057848Y084765D01*
X057930Y084647D02*
X058090Y084647D01*
X058090Y084528D02*
X057930Y084528D01*
X057930Y084410D02*
X058090Y084410D01*
X058135Y084291D02*
X057886Y084291D01*
X057767Y084173D02*
X058253Y084173D01*
X058336Y083930D02*
X058090Y083684D01*
X058090Y083336D01*
X058336Y083090D01*
X058684Y083090D01*
X058930Y083336D01*
X058930Y083684D01*
X058684Y083930D01*
X058336Y083930D01*
X058224Y083817D02*
X057797Y083817D01*
X057915Y083698D02*
X058105Y083698D01*
X058090Y083580D02*
X057930Y083580D01*
X057930Y083461D02*
X058090Y083461D01*
X058090Y083343D02*
X057930Y083343D01*
X057819Y083224D02*
X058202Y083224D01*
X058320Y083106D02*
X057700Y083106D01*
X057684Y082930D02*
X057336Y082930D01*
X057090Y082684D01*
X057090Y082336D01*
X057336Y082090D01*
X057684Y082090D01*
X057930Y082336D01*
X057930Y082684D01*
X057684Y082930D01*
X057745Y082869D02*
X058275Y082869D01*
X058336Y082930D02*
X058090Y082684D01*
X058090Y082336D01*
X058336Y082090D01*
X058684Y082090D01*
X058930Y082336D01*
X058930Y082684D01*
X058684Y082930D01*
X058336Y082930D01*
X058157Y082750D02*
X057864Y082750D01*
X057930Y082631D02*
X058090Y082631D01*
X058090Y082513D02*
X057930Y082513D01*
X057930Y082394D02*
X058090Y082394D01*
X058150Y082276D02*
X057870Y082276D01*
X057752Y082157D02*
X058269Y082157D01*
X058336Y081930D02*
X058090Y081684D01*
X058090Y081336D01*
X058336Y081090D01*
X058684Y081090D01*
X058930Y081336D01*
X058930Y081684D01*
X058684Y081930D01*
X058336Y081930D01*
X058327Y081920D02*
X057694Y081920D01*
X057684Y081930D02*
X057336Y081930D01*
X057090Y081684D01*
X057090Y081336D01*
X057336Y081090D01*
X057684Y081090D01*
X057930Y081336D01*
X057930Y081684D01*
X057684Y081930D01*
X057812Y081802D02*
X058208Y081802D01*
X058090Y081683D02*
X057930Y081683D01*
X057930Y081565D02*
X058090Y081565D01*
X058090Y081446D02*
X057930Y081446D01*
X057922Y081328D02*
X058098Y081328D01*
X058217Y081209D02*
X057804Y081209D01*
X057685Y081090D02*
X058335Y081090D01*
X058336Y080930D02*
X058090Y080684D01*
X058090Y080336D01*
X058336Y080090D01*
X058684Y080090D01*
X058930Y080336D01*
X058930Y080684D01*
X058684Y080930D01*
X058336Y080930D01*
X058260Y080853D02*
X057760Y080853D01*
X057684Y080930D02*
X057336Y080930D01*
X057090Y080684D01*
X057090Y080336D01*
X057336Y080090D01*
X057684Y080090D01*
X057930Y080336D01*
X057930Y080684D01*
X057684Y080930D01*
X057879Y080735D02*
X058141Y080735D01*
X058090Y080616D02*
X057930Y080616D01*
X057930Y080498D02*
X058090Y080498D01*
X058090Y080379D02*
X057930Y080379D01*
X057855Y080261D02*
X058165Y080261D01*
X058284Y080142D02*
X057737Y080142D01*
X057684Y079930D02*
X057336Y079930D01*
X057090Y079684D01*
X057090Y079336D01*
X057336Y079090D01*
X057684Y079090D01*
X057930Y079336D01*
X057930Y079684D01*
X057684Y079930D01*
X057709Y079905D02*
X058312Y079905D01*
X058336Y079930D02*
X058090Y079684D01*
X058090Y079336D01*
X058336Y079090D01*
X058684Y079090D01*
X058930Y079336D01*
X058930Y079684D01*
X058684Y079930D01*
X058336Y079930D01*
X058193Y079786D02*
X057827Y079786D01*
X057930Y079668D02*
X058090Y079668D01*
X058090Y079549D02*
X057930Y079549D01*
X057930Y079431D02*
X058090Y079431D01*
X058114Y079312D02*
X057907Y079312D01*
X057788Y079194D02*
X058232Y079194D01*
X058336Y078930D02*
X058090Y078684D01*
X058090Y078336D01*
X058336Y078090D01*
X058684Y078090D01*
X058930Y078336D01*
X058930Y078684D01*
X058684Y078930D01*
X058336Y078930D01*
X058245Y078838D02*
X057776Y078838D01*
X057684Y078930D02*
X057336Y078930D01*
X057090Y078684D01*
X057090Y078336D01*
X057336Y078090D01*
X057684Y078090D01*
X057930Y078336D01*
X057930Y078684D01*
X057684Y078930D01*
X057894Y078720D02*
X058126Y078720D01*
X058090Y078601D02*
X057930Y078601D01*
X057930Y078482D02*
X058090Y078482D01*
X058090Y078364D02*
X057930Y078364D01*
X057840Y078245D02*
X058180Y078245D01*
X058299Y078127D02*
X057721Y078127D01*
X057684Y077930D02*
X057336Y077930D01*
X057090Y077684D01*
X057090Y077670D01*
X056844Y077670D01*
X056750Y077576D01*
X056644Y077470D01*
X052232Y077470D01*
X052163Y077538D01*
X052064Y077580D01*
X051956Y077580D01*
X051857Y077538D01*
X051781Y077463D01*
X051740Y077363D01*
X051740Y077256D01*
X051781Y077157D01*
X051857Y077081D01*
X051956Y077040D01*
X052064Y077040D01*
X052163Y077081D01*
X052232Y077150D01*
X056644Y077150D01*
X056776Y077150D01*
X056976Y077350D01*
X057090Y077350D01*
X057090Y077336D01*
X057276Y077150D01*
X057164Y077150D01*
X057070Y077056D01*
X056844Y076830D01*
X051056Y076830D01*
X050940Y076946D01*
X050940Y077043D01*
X050899Y077143D01*
X050823Y077218D01*
X050724Y077260D01*
X050616Y077260D01*
X050517Y077218D01*
X050441Y077143D01*
X050400Y077043D01*
X050400Y076936D01*
X050441Y076837D01*
X050517Y076761D01*
X050616Y076720D01*
X050714Y076720D01*
X050764Y076670D01*
X050572Y076670D01*
X050503Y076738D01*
X050404Y076780D01*
X050296Y076780D01*
X050197Y076738D01*
X050121Y076663D01*
X050080Y076563D01*
X050080Y076456D01*
X050121Y076357D01*
X050197Y076281D01*
X050296Y076240D01*
X050404Y076240D01*
X050503Y076281D01*
X050572Y076350D01*
X057090Y076350D01*
X057090Y076336D01*
X057256Y076170D01*
X050832Y076170D01*
X050763Y076238D01*
X050664Y076280D01*
X050556Y076280D01*
X050457Y076238D01*
X050381Y076163D01*
X050340Y076063D01*
X050340Y075956D01*
X050381Y075857D01*
X050457Y075781D01*
X050556Y075740D01*
X050664Y075740D01*
X050763Y075781D01*
X050832Y075850D01*
X057256Y075850D01*
X057090Y075684D01*
X057090Y075336D01*
X057336Y075090D01*
X057684Y075090D01*
X057930Y075336D01*
X057930Y075684D01*
X057764Y075850D01*
X058256Y075850D01*
X058090Y075684D01*
X058090Y075336D01*
X058336Y075090D01*
X058684Y075090D01*
X058930Y075336D01*
X058930Y075684D01*
X058764Y075850D01*
X058876Y075850D01*
X058970Y075943D01*
X058970Y075943D01*
X059176Y076150D01*
X059176Y076150D01*
X059270Y076243D01*
X059270Y076976D01*
X059176Y077070D01*
X058920Y077326D01*
X058930Y077336D01*
X058930Y077684D01*
X058684Y077930D01*
X058336Y077930D01*
X058090Y077684D01*
X058090Y077336D01*
X058336Y077090D01*
X058684Y077090D01*
X058694Y077100D01*
X058950Y076843D01*
X058950Y076376D01*
X058930Y076356D01*
X058930Y076684D01*
X058684Y076930D01*
X058336Y076930D01*
X058326Y076920D01*
X058190Y077056D01*
X058096Y077150D01*
X057744Y077150D01*
X057930Y077336D01*
X057930Y077684D01*
X057684Y077930D01*
X057724Y077890D02*
X058296Y077890D01*
X058178Y077771D02*
X057843Y077771D01*
X057930Y077653D02*
X058090Y077653D01*
X058090Y077534D02*
X057930Y077534D01*
X057930Y077416D02*
X058090Y077416D01*
X058129Y077297D02*
X057892Y077297D01*
X057773Y077179D02*
X058247Y077179D01*
X058186Y077060D02*
X058734Y077060D01*
X058852Y076941D02*
X058305Y076941D01*
X058791Y076823D02*
X058950Y076823D01*
X058950Y076704D02*
X058909Y076704D01*
X058930Y076586D02*
X058950Y076586D01*
X058950Y076467D02*
X058930Y076467D01*
X059270Y076467D02*
X060300Y076467D01*
X060300Y076349D02*
X059270Y076349D01*
X059257Y076230D02*
X060300Y076230D01*
X060300Y076112D02*
X059138Y076112D01*
X059020Y075993D02*
X060300Y075993D01*
X060300Y075875D02*
X058901Y075875D01*
X058858Y075756D02*
X060300Y075756D01*
X060300Y075637D02*
X058930Y075637D01*
X058930Y075519D02*
X060300Y075519D01*
X060300Y075400D02*
X058930Y075400D01*
X058876Y075282D02*
X060300Y075282D01*
X060300Y075163D02*
X058758Y075163D01*
X058684Y074930D02*
X058336Y074930D01*
X058090Y074684D01*
X058090Y074336D01*
X058336Y074090D01*
X058684Y074090D01*
X058930Y074336D01*
X058930Y074684D01*
X058684Y074930D01*
X058688Y074926D02*
X060300Y074926D01*
X060300Y074808D02*
X058806Y074808D01*
X058925Y074689D02*
X060300Y074689D01*
X060300Y074571D02*
X058930Y074571D01*
X058930Y074452D02*
X060300Y074452D01*
X060300Y074333D02*
X058928Y074333D01*
X058809Y074215D02*
X060300Y074215D01*
X060300Y074096D02*
X058691Y074096D01*
X058684Y073930D02*
X058336Y073930D01*
X058090Y073684D01*
X058090Y073336D01*
X058336Y073090D01*
X058684Y073090D01*
X058930Y073336D01*
X058930Y073684D01*
X058684Y073930D01*
X058754Y073859D02*
X060300Y073859D01*
X060300Y073741D02*
X058873Y073741D01*
X058930Y073622D02*
X060300Y073622D01*
X060300Y073504D02*
X058930Y073504D01*
X058930Y073385D02*
X060300Y073385D01*
X060300Y073267D02*
X058861Y073267D01*
X058743Y073148D02*
X060300Y073148D01*
X060300Y073029D02*
X057931Y073029D01*
X058049Y072911D02*
X058318Y072911D01*
X058336Y072930D02*
X058180Y072773D01*
X058180Y072780D01*
X058081Y072880D01*
X057781Y073180D01*
X057774Y073180D01*
X057930Y073336D01*
X057930Y073684D01*
X057684Y073930D01*
X057336Y073930D01*
X057090Y073684D01*
X057090Y073336D01*
X057246Y073180D01*
X055381Y073180D01*
X054881Y073680D01*
X054740Y073680D01*
X052911Y073680D01*
X052879Y073756D01*
X052757Y073878D01*
X052597Y073945D01*
X052424Y073945D01*
X052264Y073878D01*
X052141Y073756D01*
X052075Y073596D01*
X052075Y073423D01*
X052141Y073263D01*
X052225Y073180D01*
X052181Y073180D01*
X051943Y073417D01*
X051945Y073423D01*
X051945Y073596D01*
X051879Y073756D01*
X051757Y073878D01*
X051597Y073945D01*
X051424Y073945D01*
X051264Y073878D01*
X051141Y073756D01*
X051075Y073596D01*
X051075Y073423D01*
X051111Y073337D01*
X050844Y073070D01*
X049932Y073070D01*
X049863Y073138D01*
X049764Y073180D01*
X049656Y073180D01*
X049557Y073138D01*
X049510Y073091D01*
X049470Y073131D01*
X049470Y074276D01*
X049376Y074370D01*
X049278Y074468D01*
X049239Y074563D01*
X049163Y074638D01*
X049064Y074680D01*
X048956Y074680D01*
X048857Y074638D01*
X048781Y074563D01*
X048740Y074463D01*
X048740Y074356D01*
X048781Y074257D01*
X048828Y074210D01*
X048781Y074163D01*
X048740Y074063D01*
X048740Y073956D01*
X048781Y073857D01*
X048850Y073788D01*
X048850Y073516D01*
X048844Y073510D01*
X048750Y073416D01*
X048750Y073391D01*
X048681Y073323D01*
X048640Y073223D01*
X048640Y073116D01*
X048681Y073017D01*
X048757Y072941D01*
X048856Y072900D01*
X048964Y072900D01*
X049040Y072931D01*
X049040Y072856D01*
X049081Y072757D01*
X049157Y072681D01*
X049256Y072640D01*
X049364Y072640D01*
X049463Y072681D01*
X049510Y072728D01*
X049557Y072681D01*
X049656Y072640D01*
X049764Y072640D01*
X049863Y072681D01*
X049932Y072750D01*
X050844Y072750D01*
X050976Y072750D01*
X051075Y072849D01*
X051075Y072570D01*
X050232Y072570D01*
X050163Y072638D01*
X050064Y072680D01*
X049956Y072680D01*
X049857Y072638D01*
X049781Y072563D01*
X049740Y072463D01*
X049740Y072356D01*
X049781Y072257D01*
X049857Y072181D01*
X049956Y072140D01*
X050064Y072140D01*
X050163Y072181D01*
X050232Y072250D01*
X051075Y072250D01*
X051075Y072163D01*
X051164Y072075D01*
X051705Y072075D01*
X051940Y071840D01*
X052081Y071840D01*
X052781Y071840D01*
X052880Y071939D01*
X053281Y072340D01*
X055140Y072340D01*
X056140Y071340D01*
X056281Y071340D01*
X057090Y071340D01*
X057090Y071336D01*
X057336Y071090D01*
X057684Y071090D01*
X057840Y071246D01*
X057840Y071080D01*
X057687Y070927D01*
X057684Y070930D01*
X057336Y070930D01*
X057090Y070684D01*
X057090Y070336D01*
X057336Y070090D01*
X057684Y070090D01*
X057930Y070336D01*
X057930Y070684D01*
X057927Y070686D01*
X058081Y070840D01*
X058180Y070939D01*
X058180Y071246D01*
X058336Y071090D01*
X058684Y071090D01*
X058930Y071336D01*
X058930Y071684D01*
X058684Y071930D01*
X058336Y071930D01*
X058333Y071927D01*
X058180Y072080D01*
X058180Y072246D01*
X058336Y072090D01*
X058684Y072090D01*
X058930Y072336D01*
X058930Y072684D01*
X058684Y072930D01*
X058336Y072930D01*
X058199Y072792D02*
X058168Y072792D01*
X058278Y073148D02*
X057812Y073148D01*
X057861Y073267D02*
X058159Y073267D01*
X058090Y073385D02*
X057930Y073385D01*
X057930Y073504D02*
X058090Y073504D01*
X058090Y073622D02*
X057930Y073622D01*
X057873Y073741D02*
X058147Y073741D01*
X058266Y073859D02*
X057754Y073859D01*
X057684Y074090D02*
X057930Y074336D01*
X057930Y074684D01*
X057684Y074930D01*
X057336Y074930D01*
X057090Y074684D01*
X057090Y074336D01*
X057336Y074090D01*
X057684Y074090D01*
X057691Y074096D02*
X058329Y074096D01*
X058211Y074215D02*
X057809Y074215D01*
X057928Y074333D02*
X058092Y074333D01*
X058090Y074452D02*
X057930Y074452D01*
X057930Y074571D02*
X058090Y074571D01*
X058096Y074689D02*
X057925Y074689D01*
X057806Y074808D02*
X058214Y074808D01*
X058333Y074926D02*
X057688Y074926D01*
X057758Y075163D02*
X058263Y075163D01*
X058144Y075282D02*
X057876Y075282D01*
X057930Y075400D02*
X058090Y075400D01*
X058090Y075519D02*
X057930Y075519D01*
X057930Y075637D02*
X058090Y075637D01*
X058163Y075756D02*
X057858Y075756D01*
X057163Y075756D02*
X050703Y075756D01*
X050517Y075756D02*
X049703Y075756D01*
X049664Y075740D02*
X049763Y075781D01*
X049839Y075857D01*
X049880Y075956D01*
X049880Y076063D01*
X049839Y076163D01*
X049763Y076238D01*
X049664Y076280D01*
X049556Y076280D01*
X049457Y076238D01*
X049388Y076170D01*
X048996Y076170D01*
X048300Y076866D01*
X048300Y076963D01*
X048259Y077063D01*
X048183Y077138D01*
X048084Y077180D01*
X047976Y077180D01*
X047877Y077138D01*
X047801Y077063D01*
X047760Y076963D01*
X047760Y076856D01*
X047801Y076757D01*
X047877Y076681D01*
X047976Y076640D01*
X048074Y076640D01*
X048770Y075943D01*
X048864Y075850D01*
X049388Y075850D01*
X049457Y075781D01*
X049556Y075740D01*
X049664Y075740D01*
X049517Y075756D02*
X048490Y075756D01*
X048510Y075736D02*
X048350Y075896D01*
X048256Y075990D01*
X043860Y075990D01*
X043860Y076003D01*
X043819Y076103D01*
X043743Y076178D01*
X043644Y076220D01*
X043536Y076220D01*
X043437Y076178D01*
X043361Y076103D01*
X043320Y076003D01*
X043320Y075896D01*
X043361Y075797D01*
X043437Y075721D01*
X043536Y075680D01*
X043634Y075680D01*
X043644Y075670D01*
X043776Y075670D01*
X044030Y075670D01*
X044003Y075603D01*
X043986Y075620D01*
X041344Y075620D01*
X041250Y075526D01*
X040654Y074930D01*
X040556Y074930D01*
X040457Y074888D01*
X040381Y074813D01*
X040340Y074713D01*
X040340Y074606D01*
X040381Y074507D01*
X040457Y074431D01*
X040556Y074390D01*
X040664Y074390D01*
X040763Y074431D01*
X040839Y074507D01*
X040880Y074606D01*
X040880Y074703D01*
X041476Y075300D01*
X043854Y075300D01*
X044104Y075050D01*
X044236Y075050D01*
X048944Y075050D01*
X050050Y073943D01*
X050050Y073631D01*
X049981Y073563D01*
X049940Y073463D01*
X049940Y073356D01*
X049981Y073257D01*
X050057Y073181D01*
X050156Y073140D01*
X050264Y073140D01*
X050363Y073181D01*
X050439Y073257D01*
X050480Y073356D01*
X050480Y073463D01*
X050439Y073563D01*
X050370Y073631D01*
X050370Y073943D01*
X050370Y073943D01*
X050776Y074350D01*
X051106Y074350D01*
X051141Y074263D01*
X051264Y074141D01*
X051424Y074075D01*
X051597Y074075D01*
X051757Y074141D01*
X051879Y074263D01*
X051945Y074423D01*
X051945Y074596D01*
X051879Y074756D01*
X051757Y074878D01*
X051597Y074945D01*
X051424Y074945D01*
X051264Y074878D01*
X051141Y074756D01*
X051106Y074670D01*
X050644Y074670D01*
X050550Y074576D01*
X050460Y074486D01*
X050460Y074563D01*
X050419Y074663D01*
X050343Y074738D01*
X050244Y074780D01*
X050146Y074780D01*
X049510Y075416D01*
X049416Y075510D01*
X048576Y075510D01*
X048510Y075576D01*
X048510Y075603D01*
X048510Y075736D01*
X048510Y075637D02*
X057090Y075637D01*
X057090Y075519D02*
X048567Y075519D01*
X048372Y075875D02*
X048839Y075875D01*
X048720Y075993D02*
X043860Y075993D01*
X043810Y076112D02*
X048602Y076112D01*
X048483Y076230D02*
X042598Y076230D01*
X042712Y076349D02*
X048365Y076349D01*
X048246Y076467D02*
X042740Y076467D01*
X042928Y076586D02*
X048128Y076586D01*
X047854Y076704D02*
X047171Y076704D01*
X047290Y076823D02*
X047774Y076823D01*
X047760Y076941D02*
X047408Y076941D01*
X047527Y077060D02*
X047800Y077060D01*
X047770Y077179D02*
X047974Y077179D01*
X048087Y077179D02*
X048392Y077179D01*
X048390Y077173D02*
X048390Y077046D01*
X048439Y076928D01*
X048529Y076838D01*
X048647Y076790D01*
X048774Y076790D01*
X048891Y076838D01*
X049091Y077038D01*
X049381Y077328D01*
X049430Y077446D01*
X049430Y077573D01*
X049430Y081250D01*
X049474Y081250D01*
X049591Y081298D01*
X049681Y081388D01*
X049730Y081506D01*
X049730Y081633D01*
X049681Y081751D01*
X049591Y081841D01*
X049474Y081890D01*
X049174Y081890D01*
X049047Y081890D01*
X048929Y081841D01*
X048839Y081751D01*
X048790Y081633D01*
X048790Y077642D01*
X048639Y077491D01*
X048439Y077291D01*
X048390Y077173D01*
X048390Y077060D02*
X048260Y077060D01*
X048300Y076941D02*
X048434Y076941D01*
X048343Y076823D02*
X048566Y076823D01*
X048462Y076704D02*
X049734Y076704D01*
X049654Y076823D02*
X048854Y076823D01*
X048995Y076941D02*
X049640Y076941D01*
X049680Y077060D02*
X049113Y077060D01*
X049232Y077179D02*
X049854Y077179D01*
X049864Y077240D02*
X049963Y077281D01*
X050039Y077357D01*
X050080Y077456D01*
X050080Y077563D01*
X050070Y077587D01*
X050070Y077676D01*
X050070Y081848D01*
X050139Y081917D01*
X050180Y082016D01*
X050180Y082123D01*
X050139Y082223D01*
X050063Y082298D01*
X049964Y082340D01*
X049856Y082340D01*
X049757Y082298D01*
X049681Y082223D01*
X049640Y082123D01*
X049640Y082016D01*
X049681Y081917D01*
X049750Y081848D01*
X049750Y077777D01*
X049657Y077738D01*
X049581Y077663D01*
X049540Y077563D01*
X049540Y077456D01*
X049581Y077357D01*
X049657Y077281D01*
X049756Y077240D01*
X049864Y077240D01*
X049979Y077297D02*
X050071Y077297D01*
X050064Y077416D02*
X050190Y077416D01*
X050080Y077534D02*
X050309Y077534D01*
X050350Y077653D02*
X050070Y077653D01*
X050070Y077771D02*
X050350Y077771D01*
X050350Y077890D02*
X050070Y077890D01*
X050070Y078008D02*
X050350Y078008D01*
X050350Y078127D02*
X050070Y078127D01*
X050070Y078245D02*
X050350Y078245D01*
X050350Y078364D02*
X050070Y078364D01*
X050070Y078482D02*
X050350Y078482D01*
X050350Y078601D02*
X050070Y078601D01*
X050070Y078720D02*
X050350Y078720D01*
X050350Y078838D02*
X050070Y078838D01*
X050070Y078957D02*
X050350Y078957D01*
X050350Y079075D02*
X050070Y079075D01*
X050070Y079194D02*
X050350Y079194D01*
X050350Y079312D02*
X050070Y079312D01*
X050070Y079431D02*
X050350Y079431D01*
X050350Y079549D02*
X050070Y079549D01*
X050070Y079668D02*
X050350Y079668D01*
X050350Y079786D02*
X050070Y079786D01*
X050070Y079905D02*
X050350Y079905D01*
X050350Y080024D02*
X050070Y080024D01*
X050070Y080142D02*
X050350Y080142D01*
X050350Y080261D02*
X050070Y080261D01*
X050070Y080379D02*
X050350Y080379D01*
X050350Y080498D02*
X050070Y080498D01*
X050070Y080616D02*
X050350Y080616D01*
X050350Y080735D02*
X050070Y080735D01*
X050070Y080853D02*
X050350Y080853D01*
X050350Y080972D02*
X050070Y080972D01*
X050070Y081090D02*
X050350Y081090D01*
X050350Y081209D02*
X050070Y081209D01*
X050070Y081328D02*
X050350Y081328D01*
X050350Y081446D02*
X050070Y081446D01*
X050070Y081565D02*
X050350Y081565D01*
X050350Y081683D02*
X050070Y081683D01*
X050070Y081802D02*
X050350Y081802D01*
X050280Y081920D02*
X050141Y081920D01*
X050180Y082039D02*
X050240Y082039D01*
X050254Y082157D02*
X050166Y082157D01*
X050086Y082276D02*
X050335Y082276D01*
X050686Y082276D02*
X050750Y082276D01*
X050750Y082394D02*
X048057Y082394D01*
X048059Y082397D02*
X048100Y082496D01*
X048100Y082603D01*
X048059Y082703D01*
X047983Y082778D01*
X047884Y082820D01*
X047776Y082820D01*
X047677Y082778D01*
X047601Y082703D01*
X047560Y082603D01*
X047560Y082496D01*
X047601Y082397D01*
X047670Y082328D01*
X047670Y078931D01*
X047601Y078863D01*
X047560Y078763D01*
X047560Y078656D01*
X047601Y078557D01*
X047677Y078481D01*
X047776Y078440D01*
X047884Y078440D01*
X047983Y078481D01*
X048059Y078557D01*
X048100Y078656D01*
X048100Y078720D01*
X048164Y078720D01*
X048263Y078761D01*
X048339Y078837D01*
X048380Y078936D01*
X048380Y079043D01*
X048339Y079143D01*
X048270Y079211D01*
X048270Y079336D01*
X048150Y079456D01*
X048150Y081523D01*
X048270Y081643D01*
X048346Y081720D01*
X048444Y081720D01*
X048543Y081761D01*
X048619Y081837D01*
X048660Y081936D01*
X048660Y082043D01*
X048619Y082143D01*
X048543Y082218D01*
X048444Y082260D01*
X048336Y082260D01*
X048237Y082218D01*
X048161Y082143D01*
X048120Y082043D01*
X048120Y081946D01*
X048044Y081870D01*
X047990Y081816D01*
X047990Y082328D01*
X048059Y082397D01*
X048100Y082513D02*
X050750Y082513D01*
X050671Y082631D02*
X048089Y082631D01*
X048012Y082750D02*
X050640Y082750D01*
X050663Y082869D02*
X037070Y082869D01*
X037070Y082987D02*
X050756Y082987D01*
X051070Y082276D02*
X051935Y082276D01*
X051890Y082157D02*
X051070Y082157D01*
X051070Y082039D02*
X051901Y082039D01*
X051978Y081920D02*
X051070Y081920D01*
X051070Y081802D02*
X052000Y081802D01*
X052000Y081683D02*
X051070Y081683D01*
X051081Y081565D02*
X052000Y081565D01*
X052000Y081446D02*
X051200Y081446D01*
X051319Y081328D02*
X052000Y081328D01*
X052000Y081209D02*
X051437Y081209D01*
X051556Y081090D02*
X052000Y081090D01*
X052000Y080972D02*
X051674Y080972D01*
X051793Y080853D02*
X052000Y080853D01*
X052000Y080735D02*
X051911Y080735D01*
X052030Y080616D02*
X052077Y080616D01*
X052148Y080498D02*
X052196Y080498D01*
X052267Y080379D02*
X052314Y080379D01*
X052385Y080261D02*
X052433Y080261D01*
X052150Y080024D02*
X050670Y080024D01*
X050670Y080142D02*
X052051Y080142D01*
X051933Y080261D02*
X050670Y080261D01*
X050670Y080379D02*
X051814Y080379D01*
X051696Y080498D02*
X050670Y080498D01*
X050670Y080616D02*
X051577Y080616D01*
X051459Y080735D02*
X050670Y080735D01*
X050670Y080853D02*
X051340Y080853D01*
X051222Y080972D02*
X050670Y080972D01*
X050670Y081090D02*
X051103Y081090D01*
X050985Y081209D02*
X050670Y081209D01*
X050670Y081328D02*
X050866Y081328D01*
X050750Y081446D02*
X050670Y081446D01*
X050670Y081565D02*
X050750Y081565D01*
X050750Y081683D02*
X050670Y081683D01*
X050670Y081802D02*
X050750Y081802D01*
X050741Y081920D02*
X050750Y081920D01*
X049750Y081802D02*
X049631Y081802D01*
X049680Y081920D02*
X048654Y081920D01*
X048660Y082039D02*
X049640Y082039D01*
X049654Y082157D02*
X048604Y082157D01*
X048584Y081802D02*
X048890Y081802D01*
X048811Y081683D02*
X048310Y081683D01*
X048191Y081565D02*
X048790Y081565D01*
X048790Y081446D02*
X048150Y081446D01*
X048150Y081328D02*
X048790Y081328D01*
X048790Y081209D02*
X048150Y081209D01*
X048150Y081090D02*
X048790Y081090D01*
X048790Y080972D02*
X048150Y080972D01*
X048150Y080853D02*
X048790Y080853D01*
X048790Y080735D02*
X048150Y080735D01*
X048150Y080616D02*
X048790Y080616D01*
X048790Y080498D02*
X048150Y080498D01*
X048150Y080379D02*
X048790Y080379D01*
X048790Y080261D02*
X048150Y080261D01*
X048150Y080142D02*
X048790Y080142D01*
X048790Y080024D02*
X048150Y080024D01*
X048150Y079905D02*
X048790Y079905D01*
X048790Y079786D02*
X048150Y079786D01*
X048150Y079668D02*
X048790Y079668D01*
X048790Y079549D02*
X048150Y079549D01*
X048175Y079431D02*
X048790Y079431D01*
X048790Y079312D02*
X048270Y079312D01*
X048288Y079194D02*
X048790Y079194D01*
X048790Y079075D02*
X048367Y079075D01*
X048380Y078957D02*
X048790Y078957D01*
X048790Y078838D02*
X048340Y078838D01*
X048100Y078720D02*
X048790Y078720D01*
X048790Y078601D02*
X048077Y078601D01*
X047985Y078482D02*
X048790Y078482D01*
X048790Y078364D02*
X046562Y078364D01*
X046444Y078482D02*
X047676Y078482D01*
X047583Y078601D02*
X046325Y078601D01*
X046206Y078720D02*
X047560Y078720D01*
X047591Y078838D02*
X046088Y078838D01*
X045969Y078957D02*
X047670Y078957D01*
X047670Y079075D02*
X045851Y079075D01*
X045616Y079194D02*
X047670Y079194D01*
X047670Y079312D02*
X045660Y079312D01*
X045649Y079431D02*
X047670Y079431D01*
X047670Y079549D02*
X045572Y079549D01*
X045550Y079668D02*
X047670Y079668D01*
X047670Y079786D02*
X046959Y079786D01*
X046986Y079798D02*
X047222Y080034D01*
X047350Y080343D01*
X047350Y080677D01*
X047222Y080985D01*
X046986Y081222D01*
X046677Y081349D01*
X046343Y081349D01*
X046034Y081222D01*
X045798Y080985D01*
X045670Y080677D01*
X045670Y080343D01*
X045798Y080034D01*
X046034Y079798D01*
X046343Y079670D01*
X046677Y079670D01*
X046986Y079798D01*
X047093Y079905D02*
X047670Y079905D01*
X047670Y080024D02*
X047212Y080024D01*
X047267Y080142D02*
X047670Y080142D01*
X047670Y080261D02*
X047316Y080261D01*
X047350Y080379D02*
X047670Y080379D01*
X047670Y080498D02*
X047350Y080498D01*
X047350Y080616D02*
X047670Y080616D01*
X047670Y080735D02*
X047326Y080735D01*
X047277Y080853D02*
X047670Y080853D01*
X047670Y080972D02*
X047228Y080972D01*
X047117Y081090D02*
X047670Y081090D01*
X047670Y081209D02*
X046999Y081209D01*
X046730Y081328D02*
X047670Y081328D01*
X047670Y081446D02*
X044920Y081446D01*
X045039Y081328D02*
X046290Y081328D01*
X046022Y081209D02*
X045157Y081209D01*
X045276Y081090D02*
X045903Y081090D01*
X045793Y080972D02*
X045310Y080972D01*
X045310Y080853D02*
X045744Y080853D01*
X045694Y080735D02*
X045310Y080735D01*
X045310Y080616D02*
X045670Y080616D01*
X045670Y080498D02*
X045310Y080498D01*
X045310Y080379D02*
X045670Y080379D01*
X045704Y080261D02*
X045310Y080261D01*
X045310Y080142D02*
X045753Y080142D01*
X045808Y080024D02*
X045310Y080024D01*
X045421Y079905D02*
X045927Y079905D01*
X046061Y079786D02*
X045540Y079786D01*
X044990Y080379D02*
X044947Y080379D01*
X044990Y080498D02*
X044828Y080498D01*
X044710Y080616D02*
X044990Y080616D01*
X044990Y080735D02*
X044095Y080735D01*
X043965Y080735D02*
X043940Y080735D01*
X043919Y080853D02*
X044990Y080853D01*
X044942Y080972D02*
X043830Y080972D01*
X044034Y081209D02*
X036070Y081209D01*
X036070Y081328D02*
X040026Y081328D01*
X040726Y081920D02*
X044179Y081920D01*
X044601Y081920D02*
X047670Y081920D01*
X047670Y081802D02*
X044660Y081802D01*
X044683Y081683D02*
X047670Y081683D01*
X047670Y081565D02*
X044801Y081565D01*
X044586Y081328D02*
X044344Y081328D01*
X044380Y081446D02*
X044467Y081446D01*
X044705Y081209D02*
X044187Y081209D01*
X044823Y081090D02*
X036070Y081090D01*
X036070Y080972D02*
X043511Y080972D01*
X043421Y080853D02*
X036070Y080853D01*
X036070Y080735D02*
X043400Y080735D01*
X043433Y080616D02*
X036070Y080616D01*
X036070Y080498D02*
X043510Y080498D01*
X043510Y080379D02*
X036070Y080379D01*
X036070Y080261D02*
X043573Y080261D01*
X043691Y080142D02*
X036148Y080142D01*
X036180Y080024D02*
X043602Y080024D01*
X043529Y079905D02*
X036159Y079905D01*
X036069Y079786D02*
X043520Y079786D01*
X043570Y079668D02*
X032302Y079668D01*
X032300Y079663D02*
X032330Y079736D01*
X032330Y079843D01*
X032289Y079943D01*
X032213Y080018D01*
X032114Y080060D01*
X032006Y080060D01*
X031907Y080018D01*
X031831Y079943D01*
X031790Y079843D01*
X031790Y079736D01*
X031820Y079663D01*
X031820Y079209D01*
X031480Y078868D01*
X031407Y078838D01*
X030529Y078838D01*
X030411Y078720D02*
X031314Y078720D01*
X031331Y078763D02*
X031290Y078663D01*
X031290Y078556D01*
X031331Y078457D01*
X031407Y078381D01*
X031506Y078340D01*
X031614Y078340D01*
X031713Y078381D01*
X031789Y078457D01*
X031819Y078529D01*
X032196Y078906D01*
X032196Y078906D01*
X032264Y078974D01*
X032300Y079062D01*
X032300Y079663D01*
X032300Y079549D02*
X043844Y079549D01*
X043963Y079431D02*
X032300Y079431D01*
X032300Y079312D02*
X044081Y079312D01*
X044150Y079194D02*
X032300Y079194D01*
X032300Y079075D02*
X040054Y079075D01*
X040077Y079098D02*
X040001Y079023D01*
X039960Y078923D01*
X039960Y078816D01*
X040001Y078717D01*
X040070Y078648D01*
X040070Y078456D01*
X040070Y078323D01*
X040470Y077923D01*
X040470Y076576D01*
X040460Y076566D01*
X040460Y076643D01*
X040419Y076743D01*
X040343Y076818D01*
X040244Y076860D01*
X040180Y076860D01*
X040180Y076923D01*
X040139Y077023D01*
X040063Y077098D01*
X039964Y077140D01*
X039900Y077140D01*
X039900Y077203D01*
X039859Y077303D01*
X039783Y077378D01*
X039684Y077420D01*
X039576Y077420D01*
X039477Y077378D01*
X039408Y077310D01*
X038776Y077310D01*
X038644Y077310D01*
X037750Y076416D01*
X037750Y076608D01*
X037819Y076677D01*
X037860Y076776D01*
X037860Y076883D01*
X037819Y076983D01*
X037743Y077058D01*
X037644Y077100D01*
X037536Y077100D01*
X037437Y077058D01*
X037361Y076983D01*
X037320Y076883D01*
X037320Y076780D01*
X037240Y076780D01*
X034372Y076780D01*
X034313Y076838D01*
X034214Y076880D01*
X034106Y076880D01*
X034007Y076838D01*
X033931Y076763D01*
X033890Y076663D01*
X033890Y076556D01*
X033931Y076457D01*
X034007Y076381D01*
X034106Y076340D01*
X034214Y076340D01*
X034313Y076381D01*
X034372Y076440D01*
X037240Y076440D01*
X037260Y076419D01*
X037260Y076111D01*
X037239Y076163D01*
X037163Y076238D01*
X037064Y076280D01*
X036956Y076280D01*
X036857Y076238D01*
X036781Y076163D01*
X036740Y076063D01*
X036740Y075980D01*
X036240Y075480D01*
X036140Y075380D01*
X036140Y074821D01*
X036081Y074763D01*
X036040Y074663D01*
X036040Y074556D01*
X036081Y074457D01*
X036157Y074381D01*
X036256Y074340D01*
X036364Y074340D01*
X036463Y074381D01*
X036539Y074457D01*
X036580Y074556D01*
X036580Y074663D01*
X036539Y074763D01*
X036480Y074821D01*
X036480Y075239D01*
X036981Y075740D01*
X037064Y075740D01*
X037163Y075781D01*
X037239Y075857D01*
X037260Y075908D01*
X037260Y074719D01*
X037340Y074639D01*
X037340Y074556D01*
X037381Y074457D01*
X037457Y074381D01*
X037556Y074340D01*
X037664Y074340D01*
X037710Y074359D01*
X037710Y072403D01*
X037726Y072387D01*
X037681Y072343D01*
X037640Y072243D01*
X037640Y072136D01*
X037681Y072037D01*
X037757Y071961D01*
X037856Y071920D01*
X037964Y071920D01*
X038063Y071961D01*
X038139Y072037D01*
X038180Y072136D01*
X038180Y072243D01*
X038139Y072343D01*
X038070Y072411D01*
X038070Y072496D01*
X038030Y072536D01*
X038030Y074683D01*
X038030Y074816D01*
X037750Y075096D01*
X037750Y075243D01*
X038150Y074843D01*
X038150Y073683D01*
X038244Y073590D01*
X038710Y073123D01*
X038710Y072363D01*
X038804Y072270D01*
X039110Y071963D01*
X039110Y071163D01*
X039204Y071070D01*
X040724Y069550D01*
X040856Y069550D01*
X043723Y069550D01*
X045080Y068174D01*
X045080Y068173D01*
X045127Y068126D01*
X045173Y068080D01*
X045174Y068080D01*
X045186Y068080D01*
X045154Y068047D01*
X045090Y067893D01*
X045090Y067126D01*
X045154Y066972D01*
X045272Y066854D01*
X045427Y066790D01*
X045594Y066790D01*
X045748Y066854D01*
X045866Y066972D01*
X045930Y067126D01*
X045930Y067893D01*
X045866Y068047D01*
X045834Y068080D01*
X046186Y068080D01*
X046154Y068047D01*
X046090Y067893D01*
X046090Y067126D01*
X046154Y066972D01*
X046272Y066854D01*
X046427Y066790D01*
X046594Y066790D01*
X046748Y066854D01*
X046866Y066972D01*
X046930Y067126D01*
X046930Y067893D01*
X046866Y068047D01*
X046834Y068080D01*
X047186Y068080D01*
X047154Y068047D01*
X047090Y067893D01*
X047090Y067126D01*
X047154Y066972D01*
X047272Y066854D01*
X047427Y066790D01*
X047594Y066790D01*
X047748Y066854D01*
X047866Y066972D01*
X047930Y067126D01*
X047930Y067893D01*
X047866Y068047D01*
X047834Y068080D01*
X049186Y068080D01*
X049154Y068047D01*
X049090Y067893D01*
X049090Y067126D01*
X049154Y066972D01*
X049272Y066854D01*
X049427Y066790D01*
X049594Y066790D01*
X049748Y066854D01*
X049866Y066972D01*
X049930Y067126D01*
X049930Y067893D01*
X049866Y068047D01*
X049834Y068080D01*
X050186Y068080D01*
X050154Y068047D01*
X050090Y067893D01*
X050090Y067126D01*
X050154Y066972D01*
X050272Y066854D01*
X050427Y066790D01*
X050594Y066790D01*
X050748Y066854D01*
X050866Y066972D01*
X050930Y067126D01*
X050930Y067893D01*
X050866Y068047D01*
X050834Y068080D01*
X051186Y068080D01*
X051154Y068047D01*
X051090Y067893D01*
X051090Y067126D01*
X051154Y066972D01*
X051272Y066854D01*
X051427Y066790D01*
X051594Y066790D01*
X051748Y066854D01*
X051866Y066972D01*
X051930Y067126D01*
X051930Y067893D01*
X051866Y068047D01*
X051748Y068166D01*
X051594Y068230D01*
X051536Y068230D01*
X053230Y069923D01*
X053230Y070056D01*
X053230Y070768D01*
X053299Y070837D01*
X053340Y070936D01*
X053340Y071043D01*
X053299Y071143D01*
X053223Y071218D01*
X053124Y071260D01*
X053016Y071260D01*
X052917Y071218D01*
X052841Y071143D01*
X052800Y071043D01*
X052800Y071020D01*
X052700Y071020D01*
X052700Y071043D01*
X052659Y071143D01*
X052583Y071218D01*
X052484Y071260D01*
X052376Y071260D01*
X052277Y071218D01*
X052201Y071143D01*
X052167Y071058D01*
X052164Y071060D01*
X052056Y071060D01*
X051957Y071018D01*
X051910Y070971D01*
X051903Y070978D01*
X051804Y071020D01*
X051696Y071020D01*
X051597Y070978D01*
X051521Y070903D01*
X051495Y070838D01*
X051444Y070860D01*
X051336Y070860D01*
X051237Y070818D01*
X051161Y070743D01*
X051120Y070643D01*
X051120Y070536D01*
X051161Y070437D01*
X051201Y070397D01*
X051157Y070378D01*
X051081Y070303D01*
X051040Y070203D01*
X051040Y070140D01*
X051020Y070140D01*
X051020Y070203D01*
X050979Y070303D01*
X051082Y070303D01*
X050979Y070303D02*
X050903Y070378D01*
X050804Y070420D01*
X050696Y070420D01*
X050597Y070378D01*
X050521Y070303D01*
X050480Y070203D01*
X050480Y070180D01*
X050416Y070180D01*
X050317Y070138D01*
X050270Y070091D01*
X050223Y070138D01*
X050124Y070180D01*
X050016Y070180D01*
X049951Y070153D01*
X049939Y070183D01*
X049870Y070251D01*
X049870Y070656D01*
X049776Y070750D01*
X048910Y071616D01*
X048910Y072576D01*
X048816Y072670D01*
X047896Y073590D01*
X047764Y073590D01*
X047456Y073590D01*
X046860Y074186D01*
X046860Y074283D01*
X046819Y074383D01*
X046743Y074458D01*
X046644Y074500D01*
X046536Y074500D01*
X046437Y074458D01*
X046361Y074383D01*
X046320Y074283D01*
X046320Y074176D01*
X046341Y074125D01*
X046277Y074098D01*
X046201Y074023D01*
X046160Y073923D01*
X046160Y073816D01*
X046181Y073765D01*
X046117Y073738D01*
X046041Y073663D01*
X046000Y073563D01*
X046000Y073456D01*
X046021Y073405D01*
X045957Y073378D01*
X045881Y073303D01*
X045840Y073203D01*
X045840Y073096D01*
X045861Y073045D01*
X045797Y073018D01*
X045721Y072943D01*
X045680Y072843D01*
X045680Y072736D01*
X045721Y072637D01*
X045728Y072630D01*
X045047Y072630D01*
X044929Y072581D01*
X044839Y072491D01*
X044790Y072373D01*
X044790Y072246D01*
X044839Y072128D01*
X044929Y072038D01*
X045047Y071990D01*
X047554Y071990D01*
X047671Y072038D01*
X047761Y072128D01*
X047841Y072208D01*
X047884Y072310D01*
X047950Y072243D01*
X047950Y071096D01*
X047950Y071016D01*
X047590Y071376D01*
X047496Y071470D01*
X045433Y071470D01*
X045460Y071536D01*
X045460Y071643D01*
X045419Y071743D01*
X045343Y071818D01*
X045244Y071860D01*
X045136Y071860D01*
X045037Y071818D01*
X044968Y071750D01*
X041572Y071750D01*
X041503Y071818D01*
X041404Y071860D01*
X041296Y071860D01*
X041197Y071818D01*
X041121Y071743D01*
X041081Y071645D01*
X041030Y071696D01*
X041030Y073123D01*
X041030Y073256D01*
X040070Y074216D01*
X040070Y075123D01*
X041176Y076230D01*
X041270Y076323D01*
X041270Y078248D01*
X041339Y078317D01*
X041380Y078416D01*
X041380Y078523D01*
X041339Y078623D01*
X041263Y078698D01*
X041164Y078740D01*
X041069Y078740D01*
X041100Y078816D01*
X041100Y078923D01*
X041059Y079023D01*
X040983Y079098D01*
X040884Y079140D01*
X040776Y079140D01*
X040677Y079098D01*
X040601Y079023D01*
X040560Y078923D01*
X040560Y078816D01*
X040578Y078774D01*
X040564Y078780D01*
X040485Y078780D01*
X040500Y078816D01*
X040500Y078923D01*
X040459Y079023D01*
X040383Y079098D01*
X040284Y079140D01*
X040176Y079140D01*
X040077Y079098D01*
X039974Y078957D02*
X032247Y078957D01*
X032128Y078838D02*
X039960Y078838D01*
X040000Y078720D02*
X032010Y078720D01*
X031891Y078601D02*
X040070Y078601D01*
X040070Y078482D02*
X031800Y078482D01*
X031673Y078364D02*
X040070Y078364D01*
X040148Y078245D02*
X028978Y078245D01*
X028843Y078245D02*
X028672Y078245D01*
X028554Y078127D02*
X040267Y078127D01*
X040385Y078008D02*
X028480Y078008D01*
X028453Y077890D02*
X040470Y077890D01*
X040470Y077771D02*
X028340Y077771D01*
X028080Y077771D02*
X027930Y077771D01*
X027930Y077653D02*
X040470Y077653D01*
X040470Y077534D02*
X027930Y077534D01*
X027930Y077416D02*
X039567Y077416D01*
X039694Y077416D02*
X040470Y077416D01*
X040470Y077297D02*
X039861Y077297D01*
X039900Y077179D02*
X040470Y077179D01*
X040470Y077060D02*
X040102Y077060D01*
X040173Y076941D02*
X040470Y076941D01*
X040470Y076823D02*
X040333Y076823D01*
X040435Y076704D02*
X040470Y076704D01*
X040460Y076586D02*
X040470Y076586D01*
X041059Y076112D02*
X043370Y076112D01*
X043320Y075993D02*
X040940Y075993D01*
X040821Y075875D02*
X043329Y075875D01*
X043402Y075756D02*
X040703Y075756D01*
X040584Y075637D02*
X044017Y075637D01*
X043872Y075282D02*
X041459Y075282D01*
X041340Y075163D02*
X042897Y075163D01*
X042936Y075180D02*
X042837Y075138D01*
X042761Y075063D01*
X042720Y074963D01*
X042720Y074900D01*
X042656Y074900D01*
X042557Y074858D01*
X042481Y074783D01*
X042440Y074683D01*
X042440Y074580D01*
X042376Y074580D01*
X042277Y074538D01*
X042201Y074463D01*
X042160Y074363D01*
X042160Y074300D01*
X042140Y074300D01*
X042140Y074363D01*
X042099Y074463D01*
X042023Y074538D01*
X041924Y074580D01*
X041816Y074580D01*
X041717Y074538D01*
X041641Y074463D01*
X041600Y074363D01*
X041600Y074300D01*
X041536Y074300D01*
X041437Y074258D01*
X041361Y074183D01*
X041320Y074083D01*
X041320Y074020D01*
X041256Y074020D01*
X041157Y073978D01*
X040308Y073978D01*
X040190Y074096D02*
X041326Y074096D01*
X041394Y074215D02*
X040071Y074215D01*
X040070Y074333D02*
X041600Y074333D01*
X041637Y074452D02*
X040784Y074452D01*
X040866Y074571D02*
X041795Y074571D01*
X041946Y074571D02*
X042355Y074571D01*
X042443Y074689D02*
X040880Y074689D01*
X040985Y074808D02*
X042506Y074808D01*
X042720Y074926D02*
X041103Y074926D01*
X041222Y075045D02*
X042754Y075045D01*
X042936Y075180D02*
X043044Y075180D01*
X043143Y075138D01*
X043190Y075091D01*
X043237Y075138D01*
X043336Y075180D01*
X043444Y075180D01*
X043543Y075138D01*
X043610Y075071D01*
X043677Y075138D01*
X043776Y075180D01*
X043884Y075180D01*
X043983Y075138D01*
X044059Y075063D01*
X044100Y074963D01*
X044100Y074856D01*
X044059Y074757D01*
X043983Y074681D01*
X043884Y074640D01*
X043786Y074640D01*
X043710Y074563D01*
X043710Y072971D01*
X043779Y072903D01*
X043820Y072803D01*
X043820Y072696D01*
X043779Y072597D01*
X043703Y072521D01*
X043604Y072480D01*
X043540Y072480D01*
X043540Y072376D01*
X043499Y072277D01*
X043423Y072201D01*
X043324Y072160D01*
X043216Y072160D01*
X043117Y072201D01*
X043041Y072277D01*
X043000Y072376D01*
X043000Y072480D01*
X042980Y072480D01*
X042980Y072376D01*
X042939Y072277D01*
X042863Y072201D01*
X042764Y072160D01*
X042656Y072160D01*
X042557Y072201D01*
X042481Y072277D01*
X042440Y072376D01*
X042440Y072480D01*
X042420Y072480D01*
X042420Y072376D01*
X042379Y072277D01*
X042303Y072201D01*
X042204Y072160D01*
X042096Y072160D01*
X041997Y072201D01*
X041921Y072277D01*
X041880Y072376D01*
X041880Y072480D01*
X041860Y072480D01*
X041860Y072376D01*
X041819Y072277D01*
X041743Y072201D01*
X041644Y072160D01*
X041536Y072160D01*
X041437Y072201D01*
X041361Y072277D01*
X041320Y072376D01*
X041320Y072480D01*
X041256Y072480D01*
X041157Y072521D01*
X041081Y072597D01*
X041040Y072696D01*
X041040Y072803D01*
X041081Y072903D01*
X041150Y072971D01*
X041150Y073528D01*
X041081Y073597D01*
X041040Y073696D01*
X041040Y073803D01*
X041081Y073903D01*
X041157Y073978D01*
X041063Y073859D02*
X040427Y073859D01*
X040545Y073741D02*
X041040Y073741D01*
X041071Y073622D02*
X040664Y073622D01*
X040782Y073504D02*
X041150Y073504D01*
X041150Y073385D02*
X040901Y073385D01*
X041019Y073267D02*
X041150Y073267D01*
X041150Y073148D02*
X041030Y073148D01*
X041030Y073029D02*
X041150Y073029D01*
X041090Y072911D02*
X041030Y072911D01*
X041030Y072792D02*
X041040Y072792D01*
X041030Y072674D02*
X041049Y072674D01*
X041030Y072555D02*
X041123Y072555D01*
X041030Y072437D02*
X041320Y072437D01*
X041344Y072318D02*
X041030Y072318D01*
X041030Y072200D02*
X041440Y072200D01*
X041741Y072200D02*
X042000Y072200D01*
X041904Y072318D02*
X041836Y072318D01*
X041860Y072437D02*
X041880Y072437D01*
X042301Y072200D02*
X042560Y072200D01*
X042464Y072318D02*
X042396Y072318D01*
X042420Y072437D02*
X042440Y072437D01*
X042861Y072200D02*
X043120Y072200D01*
X043024Y072318D02*
X042956Y072318D01*
X042980Y072437D02*
X043000Y072437D01*
X043421Y072200D02*
X044809Y072200D01*
X044790Y072318D02*
X043516Y072318D01*
X043540Y072437D02*
X044817Y072437D01*
X044903Y072555D02*
X043738Y072555D01*
X043811Y072674D02*
X045706Y072674D01*
X045680Y072792D02*
X043820Y072792D01*
X043771Y072911D02*
X045708Y072911D01*
X045824Y073029D02*
X043710Y073029D01*
X043710Y073148D02*
X045840Y073148D01*
X045866Y073267D02*
X043710Y073267D01*
X043710Y073385D02*
X045973Y073385D01*
X046000Y073504D02*
X043710Y073504D01*
X043710Y073622D02*
X046025Y073622D01*
X046123Y073741D02*
X043710Y073741D01*
X043710Y073859D02*
X046160Y073859D01*
X046183Y073978D02*
X043710Y073978D01*
X043710Y074096D02*
X046275Y074096D01*
X046320Y074215D02*
X043710Y074215D01*
X043710Y074333D02*
X046341Y074333D01*
X046431Y074452D02*
X043710Y074452D01*
X043717Y074571D02*
X048789Y074571D01*
X048740Y074452D02*
X046750Y074452D01*
X046839Y074333D02*
X048749Y074333D01*
X048823Y074215D02*
X046860Y074215D01*
X046950Y074096D02*
X048754Y074096D01*
X048740Y073978D02*
X047068Y073978D01*
X047187Y073859D02*
X048780Y073859D01*
X048850Y073741D02*
X047305Y073741D01*
X047424Y073622D02*
X048850Y073622D01*
X048838Y073504D02*
X047982Y073504D01*
X048101Y073385D02*
X048744Y073385D01*
X048658Y073267D02*
X048219Y073267D01*
X048338Y073148D02*
X048640Y073148D01*
X048676Y073029D02*
X048457Y073029D01*
X048575Y072911D02*
X048829Y072911D01*
X048991Y072911D02*
X049040Y072911D01*
X049066Y072792D02*
X048694Y072792D01*
X048812Y072674D02*
X049174Y072674D01*
X049447Y072674D02*
X049574Y072674D01*
X049778Y072555D02*
X048910Y072555D01*
X048910Y072437D02*
X049740Y072437D01*
X049756Y072318D02*
X048910Y072318D01*
X048910Y072200D02*
X049838Y072200D01*
X050182Y072200D02*
X051075Y072200D01*
X051158Y072081D02*
X048910Y072081D01*
X048910Y071963D02*
X051817Y071963D01*
X051935Y071844D02*
X048910Y071844D01*
X048910Y071726D02*
X055754Y071726D01*
X055635Y071844D02*
X052785Y071844D01*
X052904Y071963D02*
X055517Y071963D01*
X055398Y072081D02*
X053022Y072081D01*
X053141Y072200D02*
X055280Y072200D01*
X055161Y072318D02*
X053259Y072318D01*
X053144Y071251D02*
X057175Y071251D01*
X057293Y071133D02*
X053303Y071133D01*
X053340Y071014D02*
X057775Y071014D01*
X057727Y071133D02*
X057840Y071133D01*
X058180Y071133D02*
X058293Y071133D01*
X058180Y071014D02*
X060300Y071014D01*
X060300Y070896D02*
X058718Y070896D01*
X058684Y070930D02*
X058336Y070930D01*
X058090Y070684D01*
X058090Y070336D01*
X058336Y070090D01*
X058684Y070090D01*
X058930Y070336D01*
X058930Y070684D01*
X058684Y070930D01*
X058727Y071133D02*
X060300Y071133D01*
X060300Y071251D02*
X058846Y071251D01*
X058930Y071370D02*
X060300Y071370D01*
X060300Y071488D02*
X058930Y071488D01*
X058930Y071607D02*
X060300Y071607D01*
X060300Y071726D02*
X058888Y071726D01*
X058770Y071844D02*
X060300Y071844D01*
X060300Y071963D02*
X058298Y071963D01*
X058180Y072081D02*
X060300Y072081D01*
X060300Y072200D02*
X058794Y072200D01*
X058913Y072318D02*
X060300Y072318D01*
X060300Y072437D02*
X058930Y072437D01*
X058930Y072555D02*
X060300Y072555D01*
X060300Y072674D02*
X058930Y072674D01*
X058821Y072792D02*
X060300Y072792D01*
X060300Y072911D02*
X058703Y072911D01*
X058226Y072200D02*
X058180Y072200D01*
X058137Y070896D02*
X058302Y070896D01*
X058184Y070777D02*
X058018Y070777D01*
X058081Y070840D02*
X058081Y070840D01*
X058090Y070659D02*
X057930Y070659D01*
X057930Y070540D02*
X058090Y070540D01*
X058090Y070422D02*
X057930Y070422D01*
X057898Y070303D02*
X058123Y070303D01*
X058241Y070184D02*
X057779Y070184D01*
X057701Y069970D02*
X057550Y069970D01*
X057550Y069550D01*
X057470Y069550D01*
X057470Y069970D01*
X057320Y069970D01*
X057050Y069700D01*
X057050Y069550D01*
X057470Y069550D01*
X057470Y069470D01*
X057050Y069470D01*
X057050Y069319D01*
X057320Y069050D01*
X057470Y069050D01*
X057470Y069469D01*
X057550Y069469D01*
X057550Y069050D01*
X057701Y069050D01*
X057970Y069319D01*
X057970Y069470D01*
X057550Y069470D01*
X057550Y069550D01*
X057970Y069550D01*
X057970Y069700D01*
X057701Y069970D01*
X057723Y069947D02*
X058297Y069947D01*
X058320Y069970D02*
X058050Y069700D01*
X058050Y069550D01*
X058470Y069550D01*
X058470Y069970D01*
X058320Y069970D01*
X058470Y069947D02*
X058550Y069947D01*
X058550Y069970D02*
X058701Y069970D01*
X058970Y069700D01*
X058970Y069550D01*
X058550Y069550D01*
X058470Y069550D01*
X058470Y069470D01*
X058050Y069470D01*
X058050Y069319D01*
X058320Y069050D01*
X058470Y069050D01*
X058470Y069469D01*
X058550Y069469D01*
X058550Y069050D01*
X058701Y069050D01*
X058970Y069319D01*
X058970Y069470D01*
X058550Y069470D01*
X058550Y069550D01*
X058550Y069970D01*
X058550Y069829D02*
X058470Y069829D01*
X058470Y069710D02*
X058550Y069710D01*
X058550Y069592D02*
X058470Y069592D01*
X058470Y069473D02*
X057550Y069473D01*
X057470Y069473D02*
X052780Y069473D01*
X052661Y069355D02*
X057050Y069355D01*
X057133Y069236D02*
X052543Y069236D01*
X052424Y069118D02*
X057252Y069118D01*
X057470Y069118D02*
X057550Y069118D01*
X057550Y069236D02*
X057470Y069236D01*
X057470Y069355D02*
X057550Y069355D01*
X057550Y069592D02*
X057470Y069592D01*
X057470Y069710D02*
X057550Y069710D01*
X057550Y069829D02*
X057470Y069829D01*
X057470Y069947D02*
X057550Y069947D01*
X057297Y069947D02*
X053230Y069947D01*
X053230Y070066D02*
X060300Y070066D01*
X060300Y070184D02*
X058779Y070184D01*
X058898Y070303D02*
X060300Y070303D01*
X060300Y070422D02*
X058930Y070422D01*
X058930Y070540D02*
X060300Y070540D01*
X060300Y070659D02*
X058930Y070659D01*
X058837Y070777D02*
X060300Y070777D01*
X060300Y069947D02*
X058723Y069947D01*
X058841Y069829D02*
X060300Y069829D01*
X060300Y069710D02*
X058960Y069710D01*
X058970Y069592D02*
X060300Y069592D01*
X060300Y069473D02*
X058550Y069473D01*
X058550Y069355D02*
X058470Y069355D01*
X058470Y069236D02*
X058550Y069236D01*
X058550Y069118D02*
X058470Y069118D01*
X058252Y069118D02*
X057769Y069118D01*
X057887Y069236D02*
X058133Y069236D01*
X058050Y069355D02*
X057970Y069355D01*
X057970Y069592D02*
X058050Y069592D01*
X058060Y069710D02*
X057960Y069710D01*
X057841Y069829D02*
X058179Y069829D01*
X058970Y069355D02*
X060300Y069355D01*
X060300Y069236D02*
X058887Y069236D01*
X058769Y069118D02*
X060300Y069118D01*
X060300Y068999D02*
X052306Y068999D01*
X052187Y068880D02*
X060300Y068880D01*
X060300Y068762D02*
X052069Y068762D01*
X051950Y068643D02*
X060300Y068643D01*
X060300Y068525D02*
X051832Y068525D01*
X051713Y068406D02*
X060300Y068406D01*
X060300Y068288D02*
X058826Y068288D01*
X059038Y068169D02*
X060300Y068169D01*
X060254Y068051D02*
X059157Y068051D01*
X059244Y067932D02*
X060136Y067932D01*
X060017Y067814D02*
X059293Y067814D01*
X059343Y067695D02*
X059899Y067695D01*
X059780Y067576D02*
X059350Y067576D01*
X059350Y067458D02*
X059662Y067458D01*
X059543Y067339D02*
X059349Y067339D01*
X059300Y067221D02*
X059425Y067221D01*
X059306Y067102D02*
X059251Y067102D01*
X059300Y066984D02*
X059172Y066984D01*
X059054Y066865D02*
X059300Y066865D01*
X057967Y066865D02*
X056760Y066865D01*
X056748Y066854D02*
X056866Y066972D01*
X056930Y067126D01*
X056930Y067893D01*
X056866Y068047D01*
X056748Y068166D01*
X056594Y068230D01*
X056427Y068230D01*
X056272Y068166D01*
X056154Y068047D01*
X056090Y067893D01*
X056090Y067126D01*
X056154Y066972D01*
X056272Y066854D01*
X056427Y066790D01*
X056594Y066790D01*
X056748Y066854D01*
X056871Y066984D02*
X057848Y066984D01*
X057770Y067102D02*
X056920Y067102D01*
X056930Y067221D02*
X057721Y067221D01*
X057672Y067339D02*
X056930Y067339D01*
X056930Y067458D02*
X057670Y067458D01*
X057670Y067576D02*
X056930Y067576D01*
X056930Y067695D02*
X057678Y067695D01*
X057727Y067814D02*
X056930Y067814D01*
X056914Y067932D02*
X057776Y067932D01*
X057864Y068051D02*
X056863Y068051D01*
X056739Y068169D02*
X057982Y068169D01*
X058194Y068288D02*
X051595Y068288D01*
X051739Y068169D02*
X052281Y068169D01*
X052272Y068166D02*
X052154Y068047D01*
X052090Y067893D01*
X052090Y067126D01*
X052154Y066972D01*
X052272Y066854D01*
X052427Y066790D01*
X052594Y066790D01*
X052748Y066854D01*
X052866Y066972D01*
X052930Y067126D01*
X052930Y067893D01*
X052866Y068047D01*
X052748Y068166D01*
X052594Y068230D01*
X052427Y068230D01*
X052272Y068166D01*
X052157Y068051D02*
X051863Y068051D01*
X051914Y067932D02*
X052106Y067932D01*
X052090Y067814D02*
X051930Y067814D01*
X051930Y067695D02*
X052090Y067695D01*
X052090Y067576D02*
X051930Y067576D01*
X051930Y067458D02*
X052090Y067458D01*
X052090Y067339D02*
X051930Y067339D01*
X051930Y067221D02*
X052090Y067221D01*
X052100Y067102D02*
X051920Y067102D01*
X051871Y066984D02*
X052149Y066984D01*
X052261Y066865D02*
X051760Y066865D01*
X051261Y066865D02*
X050760Y066865D01*
X050871Y066984D02*
X051149Y066984D01*
X051100Y067102D02*
X050920Y067102D01*
X050930Y067221D02*
X051090Y067221D01*
X051090Y067339D02*
X050930Y067339D01*
X050930Y067458D02*
X051090Y067458D01*
X051090Y067576D02*
X050930Y067576D01*
X050930Y067695D02*
X051090Y067695D01*
X051090Y067814D02*
X050930Y067814D01*
X050914Y067932D02*
X051106Y067932D01*
X051157Y068051D02*
X050863Y068051D01*
X050157Y068051D02*
X049863Y068051D01*
X049914Y067932D02*
X050106Y067932D01*
X050090Y067814D02*
X049930Y067814D01*
X049930Y067695D02*
X050090Y067695D01*
X050090Y067576D02*
X049930Y067576D01*
X049930Y067458D02*
X050090Y067458D01*
X050090Y067339D02*
X049930Y067339D01*
X049930Y067221D02*
X050090Y067221D01*
X050100Y067102D02*
X049920Y067102D01*
X049871Y066984D02*
X050149Y066984D01*
X050261Y066865D02*
X049760Y066865D01*
X049261Y066865D02*
X047760Y066865D01*
X047871Y066984D02*
X049149Y066984D01*
X049100Y067102D02*
X047920Y067102D01*
X047930Y067221D02*
X049090Y067221D01*
X049090Y067339D02*
X047930Y067339D01*
X047930Y067458D02*
X049090Y067458D01*
X049090Y067576D02*
X047930Y067576D01*
X047930Y067695D02*
X049090Y067695D01*
X049090Y067814D02*
X047930Y067814D01*
X047914Y067932D02*
X049106Y067932D01*
X049157Y068051D02*
X047863Y068051D01*
X047157Y068051D02*
X046863Y068051D01*
X046914Y067932D02*
X047106Y067932D01*
X047090Y067814D02*
X046930Y067814D01*
X046930Y067695D02*
X047090Y067695D01*
X047090Y067576D02*
X046930Y067576D01*
X046930Y067458D02*
X047090Y067458D01*
X047090Y067339D02*
X046930Y067339D01*
X046930Y067221D02*
X047090Y067221D01*
X047100Y067102D02*
X046920Y067102D01*
X046871Y066984D02*
X047149Y066984D01*
X047261Y066865D02*
X046760Y066865D01*
X046261Y066865D02*
X045760Y066865D01*
X045871Y066984D02*
X046149Y066984D01*
X046100Y067102D02*
X045920Y067102D01*
X045930Y067221D02*
X046090Y067221D01*
X046090Y067339D02*
X045930Y067339D01*
X045930Y067458D02*
X046090Y067458D01*
X046090Y067576D02*
X045930Y067576D01*
X045930Y067695D02*
X046090Y067695D01*
X046090Y067814D02*
X045930Y067814D01*
X045914Y067932D02*
X046106Y067932D01*
X046157Y068051D02*
X045863Y068051D01*
X045174Y068080D02*
X045174Y068080D01*
X045157Y068051D02*
X044863Y068051D01*
X044866Y068047D02*
X044748Y068166D01*
X044594Y068230D01*
X044427Y068230D01*
X044272Y068166D01*
X044154Y068047D01*
X044090Y067893D01*
X044090Y067126D01*
X044154Y066972D01*
X044272Y066854D01*
X044427Y066790D01*
X044594Y066790D01*
X044748Y066854D01*
X044866Y066972D01*
X044930Y067126D01*
X044930Y067893D01*
X044866Y068047D01*
X044914Y067932D02*
X045106Y067932D01*
X045090Y067814D02*
X044930Y067814D01*
X044930Y067695D02*
X045090Y067695D01*
X045090Y067576D02*
X044930Y067576D01*
X044930Y067458D02*
X045090Y067458D01*
X045090Y067339D02*
X044930Y067339D01*
X044930Y067221D02*
X045090Y067221D01*
X045100Y067102D02*
X044920Y067102D01*
X044871Y066984D02*
X045149Y066984D01*
X045261Y066865D02*
X044760Y066865D01*
X044261Y066865D02*
X043760Y066865D01*
X043748Y066854D02*
X043866Y066972D01*
X043930Y067126D01*
X043930Y067893D01*
X043866Y068047D01*
X043748Y068166D01*
X043594Y068230D01*
X043427Y068230D01*
X043272Y068166D01*
X043154Y068047D01*
X043090Y067893D01*
X043090Y067126D01*
X043154Y066972D01*
X043272Y066854D01*
X043427Y066790D01*
X043594Y066790D01*
X043748Y066854D01*
X043871Y066984D02*
X044149Y066984D01*
X044100Y067102D02*
X043920Y067102D01*
X043930Y067221D02*
X044090Y067221D01*
X044090Y067339D02*
X043930Y067339D01*
X043930Y067458D02*
X044090Y067458D01*
X044090Y067576D02*
X043930Y067576D01*
X043930Y067695D02*
X044090Y067695D01*
X044090Y067814D02*
X043930Y067814D01*
X043914Y067932D02*
X044106Y067932D01*
X044157Y068051D02*
X043863Y068051D01*
X043739Y068169D02*
X044281Y068169D01*
X044739Y068169D02*
X045084Y068169D01*
X044968Y068288D02*
X035485Y068288D01*
X035366Y068406D02*
X044851Y068406D01*
X044734Y068525D02*
X035248Y068525D01*
X035129Y068643D02*
X044617Y068643D01*
X044500Y068762D02*
X033730Y068762D01*
X033730Y068880D02*
X044383Y068880D01*
X044266Y068999D02*
X033730Y068999D01*
X033730Y069118D02*
X044149Y069118D01*
X044033Y069236D02*
X033730Y069236D01*
X033730Y069355D02*
X043916Y069355D01*
X043799Y069473D02*
X033730Y069473D01*
X033730Y069592D02*
X040682Y069592D01*
X040563Y069710D02*
X033730Y069710D01*
X033730Y069829D02*
X040445Y069829D01*
X040326Y069947D02*
X033730Y069947D01*
X033730Y070066D02*
X040208Y070066D01*
X040089Y070184D02*
X033730Y070184D01*
X033730Y070303D02*
X039971Y070303D01*
X039852Y070422D02*
X033730Y070422D01*
X033730Y070540D02*
X039733Y070540D01*
X039615Y070659D02*
X033730Y070659D01*
X033730Y070777D02*
X039496Y070777D01*
X039378Y070896D02*
X033730Y070896D01*
X033730Y071014D02*
X039259Y071014D01*
X039141Y071133D02*
X033730Y071133D01*
X033730Y071251D02*
X036128Y071251D01*
X036156Y071240D02*
X036264Y071240D01*
X036363Y071281D01*
X036439Y071357D01*
X036480Y071456D01*
X036480Y071563D01*
X036450Y071636D01*
X036450Y073757D01*
X036414Y073846D01*
X036346Y073913D01*
X033969Y076290D01*
X033939Y076363D01*
X033863Y076438D01*
X033764Y076480D01*
X033656Y076480D01*
X033557Y076438D01*
X033481Y076363D01*
X033440Y076263D01*
X033440Y076156D01*
X033481Y076057D01*
X033557Y075981D01*
X033630Y075951D01*
X035970Y073610D01*
X035970Y073131D01*
X035963Y073138D01*
X035864Y073180D01*
X035756Y073180D01*
X035657Y073138D01*
X035581Y073063D01*
X035540Y072963D01*
X035540Y072856D01*
X035581Y072757D01*
X035640Y072698D01*
X035640Y072221D01*
X035581Y072163D01*
X035540Y072063D01*
X035540Y071956D01*
X035581Y071857D01*
X035657Y071781D01*
X035756Y071740D01*
X035864Y071740D01*
X035963Y071781D01*
X035970Y071788D01*
X035970Y071636D01*
X035940Y071563D01*
X035940Y071456D01*
X035981Y071357D01*
X036057Y071281D01*
X036156Y071240D01*
X036292Y071251D02*
X039110Y071251D01*
X039110Y071370D02*
X036445Y071370D01*
X036480Y071488D02*
X039110Y071488D01*
X039110Y071607D02*
X036462Y071607D01*
X036450Y071726D02*
X039110Y071726D01*
X039110Y071844D02*
X036450Y071844D01*
X036450Y071963D02*
X037755Y071963D01*
X037663Y072081D02*
X036450Y072081D01*
X036450Y072200D02*
X037640Y072200D01*
X037671Y072318D02*
X036450Y072318D01*
X036450Y072437D02*
X037710Y072437D01*
X037710Y072555D02*
X036450Y072555D01*
X036450Y072674D02*
X037710Y072674D01*
X037710Y072792D02*
X036450Y072792D01*
X036450Y072911D02*
X037710Y072911D01*
X037710Y073029D02*
X036450Y073029D01*
X036450Y073148D02*
X037710Y073148D01*
X037710Y073267D02*
X036450Y073267D01*
X036450Y073385D02*
X037710Y073385D01*
X037710Y073504D02*
X036450Y073504D01*
X036450Y073622D02*
X037710Y073622D01*
X037710Y073741D02*
X036450Y073741D01*
X036400Y073859D02*
X037710Y073859D01*
X037710Y073978D02*
X036281Y073978D01*
X036163Y074096D02*
X037710Y074096D01*
X037710Y074215D02*
X036044Y074215D01*
X035926Y074333D02*
X037710Y074333D01*
X038030Y074333D02*
X038150Y074333D01*
X038150Y074215D02*
X038030Y074215D01*
X038030Y074096D02*
X038150Y074096D01*
X038150Y073978D02*
X038030Y073978D01*
X038030Y073859D02*
X038150Y073859D01*
X038150Y073741D02*
X038030Y073741D01*
X038030Y073622D02*
X038211Y073622D01*
X038330Y073504D02*
X038030Y073504D01*
X038030Y073385D02*
X038448Y073385D01*
X038567Y073267D02*
X038030Y073267D01*
X038030Y073148D02*
X038686Y073148D01*
X038710Y073029D02*
X038030Y073029D01*
X038030Y072911D02*
X038710Y072911D01*
X038710Y072792D02*
X038030Y072792D01*
X038030Y072674D02*
X038710Y072674D01*
X038710Y072555D02*
X038030Y072555D01*
X038070Y072437D02*
X038710Y072437D01*
X038755Y072318D02*
X038149Y072318D01*
X038180Y072200D02*
X038874Y072200D01*
X038992Y072081D02*
X038158Y072081D01*
X038065Y071963D02*
X039110Y071963D01*
X039489Y072437D02*
X039590Y072437D01*
X039590Y072336D02*
X039350Y072576D01*
X039350Y073083D01*
X039590Y072843D01*
X039590Y072336D01*
X039590Y072555D02*
X039371Y072555D01*
X039350Y072674D02*
X039590Y072674D01*
X039590Y072792D02*
X039350Y072792D01*
X039350Y072911D02*
X039523Y072911D01*
X039404Y073029D02*
X039350Y073029D01*
X041030Y072081D02*
X044886Y072081D01*
X045099Y071844D02*
X041441Y071844D01*
X041259Y071844D02*
X041030Y071844D01*
X041030Y071726D02*
X041114Y071726D01*
X041030Y071963D02*
X047950Y071963D01*
X047950Y072081D02*
X047714Y072081D01*
X047833Y072200D02*
X047950Y072200D01*
X047950Y071844D02*
X045281Y071844D01*
X045426Y071726D02*
X047950Y071726D01*
X047950Y071607D02*
X045460Y071607D01*
X045441Y071488D02*
X047950Y071488D01*
X047950Y071370D02*
X047596Y071370D01*
X047715Y071251D02*
X047950Y071251D01*
X047950Y071133D02*
X047833Y071133D01*
X048919Y071607D02*
X055872Y071607D01*
X055991Y071488D02*
X049038Y071488D01*
X049156Y071370D02*
X056110Y071370D01*
X057090Y070659D02*
X053230Y070659D01*
X053240Y070777D02*
X057184Y070777D01*
X057302Y070896D02*
X053324Y070896D01*
X053230Y070540D02*
X057090Y070540D01*
X057090Y070422D02*
X053230Y070422D01*
X053230Y070303D02*
X057123Y070303D01*
X057241Y070184D02*
X053230Y070184D01*
X053136Y069829D02*
X057179Y069829D01*
X057060Y069710D02*
X053017Y069710D01*
X052899Y069592D02*
X057050Y069592D01*
X056281Y068169D02*
X055739Y068169D01*
X055748Y068166D02*
X055594Y068230D01*
X055427Y068230D01*
X055272Y068166D01*
X055154Y068047D01*
X055090Y067893D01*
X055090Y067126D01*
X055154Y066972D01*
X055272Y066854D01*
X055427Y066790D01*
X055594Y066790D01*
X055748Y066854D01*
X055866Y066972D01*
X055930Y067126D01*
X055930Y067893D01*
X055866Y068047D01*
X055748Y068166D01*
X055863Y068051D02*
X056157Y068051D01*
X056106Y067932D02*
X055914Y067932D01*
X055930Y067814D02*
X056090Y067814D01*
X056090Y067695D02*
X055930Y067695D01*
X055930Y067576D02*
X056090Y067576D01*
X056090Y067458D02*
X055930Y067458D01*
X055930Y067339D02*
X056090Y067339D01*
X056090Y067221D02*
X055930Y067221D01*
X055920Y067102D02*
X056100Y067102D01*
X056149Y066984D02*
X055871Y066984D01*
X055760Y066865D02*
X056261Y066865D01*
X055261Y066865D02*
X054760Y066865D01*
X054748Y066854D02*
X054866Y066972D01*
X054930Y067126D01*
X054930Y067893D01*
X054866Y068047D01*
X054748Y068166D01*
X054594Y068230D01*
X054427Y068230D01*
X054272Y068166D01*
X054154Y068047D01*
X054090Y067893D01*
X054090Y067126D01*
X054154Y066972D01*
X054272Y066854D01*
X054427Y066790D01*
X054594Y066790D01*
X054748Y066854D01*
X054871Y066984D02*
X055149Y066984D01*
X055100Y067102D02*
X054920Y067102D01*
X054930Y067221D02*
X055090Y067221D01*
X055090Y067339D02*
X054930Y067339D01*
X054930Y067458D02*
X055090Y067458D01*
X055090Y067576D02*
X054930Y067576D01*
X054930Y067695D02*
X055090Y067695D01*
X055090Y067814D02*
X054930Y067814D01*
X054914Y067932D02*
X055106Y067932D01*
X055157Y068051D02*
X054863Y068051D01*
X054739Y068169D02*
X055281Y068169D01*
X054281Y068169D02*
X053739Y068169D01*
X053748Y068166D02*
X053594Y068230D01*
X053427Y068230D01*
X053272Y068166D01*
X053154Y068047D01*
X053090Y067893D01*
X053090Y067126D01*
X053154Y066972D01*
X053272Y066854D01*
X053427Y066790D01*
X053594Y066790D01*
X053748Y066854D01*
X053866Y066972D01*
X053930Y067126D01*
X053930Y067893D01*
X053866Y068047D01*
X053748Y068166D01*
X053863Y068051D02*
X054157Y068051D01*
X054106Y067932D02*
X053914Y067932D01*
X053930Y067814D02*
X054090Y067814D01*
X054090Y067695D02*
X053930Y067695D01*
X053930Y067576D02*
X054090Y067576D01*
X054090Y067458D02*
X053930Y067458D01*
X053930Y067339D02*
X054090Y067339D01*
X054090Y067221D02*
X053930Y067221D01*
X053920Y067102D02*
X054100Y067102D01*
X054149Y066984D02*
X053871Y066984D01*
X053760Y066865D02*
X054261Y066865D01*
X053261Y066865D02*
X052760Y066865D01*
X052871Y066984D02*
X053149Y066984D01*
X053100Y067102D02*
X052920Y067102D01*
X052930Y067221D02*
X053090Y067221D01*
X053090Y067339D02*
X052930Y067339D01*
X052930Y067458D02*
X053090Y067458D01*
X053090Y067576D02*
X052930Y067576D01*
X052930Y067695D02*
X053090Y067695D01*
X053090Y067814D02*
X052930Y067814D01*
X052914Y067932D02*
X053106Y067932D01*
X053157Y068051D02*
X052863Y068051D01*
X052739Y068169D02*
X053281Y068169D01*
X052837Y071133D02*
X052663Y071133D01*
X052504Y071251D02*
X052997Y071251D01*
X052357Y071251D02*
X049275Y071251D01*
X049393Y071133D02*
X052197Y071133D01*
X051953Y071014D02*
X051817Y071014D01*
X051684Y071014D02*
X049512Y071014D01*
X049630Y070896D02*
X051519Y070896D01*
X051196Y070777D02*
X049749Y070777D01*
X049867Y070659D02*
X051127Y070659D01*
X051120Y070540D02*
X049870Y070540D01*
X049870Y070422D02*
X051176Y070422D01*
X051040Y070184D02*
X051020Y070184D01*
X050522Y070303D02*
X049870Y070303D01*
X049937Y070184D02*
X050480Y070184D01*
X050078Y072674D02*
X051075Y072674D01*
X051075Y072792D02*
X051019Y072792D01*
X050922Y073148D02*
X050284Y073148D01*
X050136Y073148D02*
X049840Y073148D01*
X049977Y073267D02*
X049470Y073267D01*
X049470Y073385D02*
X049940Y073385D01*
X049957Y073504D02*
X049470Y073504D01*
X049470Y073622D02*
X050041Y073622D01*
X050050Y073741D02*
X049470Y073741D01*
X049470Y073859D02*
X050050Y073859D01*
X050016Y073978D02*
X049470Y073978D01*
X049470Y074096D02*
X049897Y074096D01*
X049779Y074215D02*
X049470Y074215D01*
X049413Y074333D02*
X049660Y074333D01*
X049542Y074452D02*
X049294Y074452D01*
X049231Y074571D02*
X049423Y074571D01*
X049304Y074689D02*
X043992Y074689D01*
X044080Y074808D02*
X049186Y074808D01*
X049067Y074926D02*
X044100Y074926D01*
X044066Y075045D02*
X048949Y075045D01*
X049526Y075400D02*
X057090Y075400D01*
X057144Y075282D02*
X049644Y075282D01*
X049763Y075163D02*
X057263Y075163D01*
X057333Y074926D02*
X052739Y074926D01*
X052759Y074916D02*
X052693Y074950D01*
X052621Y074973D01*
X052570Y074981D01*
X052570Y074570D01*
X052450Y074570D01*
X052450Y074981D01*
X052399Y074973D01*
X052328Y074950D01*
X052261Y074916D01*
X052201Y074872D01*
X052148Y074819D01*
X052104Y074759D01*
X052070Y074692D01*
X052047Y074621D01*
X052039Y074569D01*
X052450Y074569D01*
X052450Y074450D01*
X052039Y074450D01*
X052047Y074398D01*
X052070Y074327D01*
X052104Y074261D01*
X052148Y074200D01*
X052201Y074147D01*
X052261Y074103D01*
X052328Y074069D01*
X052399Y074046D01*
X052450Y074038D01*
X052450Y074449D01*
X052570Y074449D01*
X052570Y074038D01*
X052621Y074046D01*
X052693Y074069D01*
X052759Y074103D01*
X052820Y074147D01*
X052872Y074200D01*
X052916Y074261D01*
X052950Y074327D01*
X052973Y074398D01*
X052982Y074450D01*
X052570Y074450D01*
X052570Y074569D01*
X052982Y074569D01*
X052973Y074621D01*
X052950Y074692D01*
X052916Y074759D01*
X052872Y074819D01*
X052820Y074872D01*
X052759Y074916D01*
X052881Y074808D02*
X057214Y074808D01*
X057096Y074689D02*
X052951Y074689D01*
X052981Y074571D02*
X057090Y074571D01*
X057090Y074452D02*
X052570Y074452D01*
X052570Y074571D02*
X052450Y074571D01*
X052450Y074689D02*
X052570Y074689D01*
X052570Y074808D02*
X052450Y074808D01*
X052450Y074926D02*
X052570Y074926D01*
X052282Y074926D02*
X051641Y074926D01*
X051827Y074808D02*
X052140Y074808D01*
X052069Y074689D02*
X051907Y074689D01*
X051945Y074571D02*
X052039Y074571D01*
X051945Y074452D02*
X052450Y074452D01*
X052450Y074333D02*
X052570Y074333D01*
X052570Y074215D02*
X052450Y074215D01*
X052450Y074096D02*
X052570Y074096D01*
X052745Y074096D02*
X057329Y074096D01*
X057211Y074215D02*
X052883Y074215D01*
X052952Y074333D02*
X057092Y074333D01*
X057266Y073859D02*
X052776Y073859D01*
X052885Y073741D02*
X057147Y073741D01*
X057090Y073622D02*
X054938Y073622D01*
X055057Y073504D02*
X057090Y073504D01*
X057090Y073385D02*
X055175Y073385D01*
X055294Y073267D02*
X057159Y073267D01*
X060300Y073978D02*
X050405Y073978D01*
X050370Y073859D02*
X051245Y073859D01*
X051135Y073741D02*
X050370Y073741D01*
X050379Y073622D02*
X051086Y073622D01*
X051075Y073504D02*
X050464Y073504D01*
X050480Y073385D02*
X051091Y073385D01*
X051041Y073267D02*
X050443Y073267D01*
X049943Y072674D02*
X049847Y072674D01*
X049580Y073148D02*
X049470Y073148D01*
X050523Y074096D02*
X051371Y074096D01*
X051190Y074215D02*
X050642Y074215D01*
X050760Y074333D02*
X051112Y074333D01*
X051114Y074689D02*
X050393Y074689D01*
X050457Y074571D02*
X050545Y074571D01*
X050118Y074808D02*
X051193Y074808D01*
X051379Y074926D02*
X050000Y074926D01*
X049881Y075045D02*
X060300Y075045D01*
X060300Y076586D02*
X059270Y076586D01*
X059270Y076704D02*
X060300Y076704D01*
X060300Y076823D02*
X059270Y076823D01*
X059270Y076941D02*
X060300Y076941D01*
X060300Y077060D02*
X059186Y077060D01*
X059176Y077070D02*
X059176Y077070D01*
X059068Y077179D02*
X060300Y077179D01*
X060300Y077297D02*
X058949Y077297D01*
X058930Y077416D02*
X060300Y077416D01*
X060300Y077534D02*
X058930Y077534D01*
X058930Y077653D02*
X060300Y077653D01*
X060300Y077771D02*
X058843Y077771D01*
X058724Y077890D02*
X060300Y077890D01*
X060300Y078008D02*
X052580Y078008D01*
X052553Y077890D02*
X057296Y077890D01*
X057178Y077771D02*
X052440Y077771D01*
X052180Y077771D02*
X050670Y077771D01*
X050670Y077653D02*
X056827Y077653D01*
X056709Y077534D02*
X052167Y077534D01*
X051853Y077534D02*
X050670Y077534D01*
X050642Y077416D02*
X051762Y077416D01*
X051740Y077297D02*
X050524Y077297D01*
X050477Y077179D02*
X050405Y077179D01*
X050407Y077060D02*
X050287Y077060D01*
X050180Y076941D02*
X050400Y076941D01*
X050455Y076823D02*
X050166Y076823D01*
X050163Y076704D02*
X050087Y076704D01*
X050090Y076586D02*
X048580Y076586D01*
X048699Y076467D02*
X050080Y076467D01*
X050129Y076349D02*
X048817Y076349D01*
X048936Y076230D02*
X049449Y076230D01*
X049771Y076230D02*
X050449Y076230D01*
X050360Y076112D02*
X049860Y076112D01*
X049880Y075993D02*
X050340Y075993D01*
X050374Y075875D02*
X049846Y075875D01*
X050571Y076349D02*
X057090Y076349D01*
X057196Y076230D02*
X050771Y076230D01*
X050729Y076704D02*
X050537Y076704D01*
X050945Y076941D02*
X056956Y076941D01*
X057074Y077060D02*
X052113Y077060D01*
X051907Y077060D02*
X050933Y077060D01*
X050863Y077179D02*
X051772Y077179D01*
X052068Y077890D02*
X050670Y077890D01*
X050670Y078008D02*
X052040Y078008D01*
X052067Y078127D02*
X050670Y078127D01*
X050670Y078245D02*
X052150Y078245D01*
X052150Y078364D02*
X050670Y078364D01*
X050670Y078482D02*
X052150Y078482D01*
X052150Y078601D02*
X050670Y078601D01*
X050670Y078720D02*
X052150Y078720D01*
X052150Y078838D02*
X050670Y078838D01*
X050670Y078957D02*
X052150Y078957D01*
X052150Y079075D02*
X050670Y079075D01*
X050670Y079194D02*
X052150Y079194D01*
X052150Y079312D02*
X050670Y079312D01*
X050670Y079431D02*
X052150Y079431D01*
X052150Y079549D02*
X050670Y079549D01*
X050670Y079668D02*
X052150Y079668D01*
X052150Y079786D02*
X050670Y079786D01*
X050670Y079905D02*
X052150Y079905D01*
X049750Y079905D02*
X049430Y079905D01*
X049430Y080024D02*
X049750Y080024D01*
X049750Y080142D02*
X049430Y080142D01*
X049430Y080261D02*
X049750Y080261D01*
X049750Y080379D02*
X049430Y080379D01*
X049430Y080498D02*
X049750Y080498D01*
X049750Y080616D02*
X049430Y080616D01*
X049430Y080735D02*
X049750Y080735D01*
X049750Y080853D02*
X049430Y080853D01*
X049430Y080972D02*
X049750Y080972D01*
X049750Y081090D02*
X049430Y081090D01*
X049430Y081209D02*
X049750Y081209D01*
X049750Y081328D02*
X049621Y081328D01*
X049705Y081446D02*
X049750Y081446D01*
X049750Y081565D02*
X049730Y081565D01*
X049710Y081683D02*
X049750Y081683D01*
X049735Y082276D02*
X047990Y082276D01*
X047990Y082157D02*
X048176Y082157D01*
X048120Y082039D02*
X047990Y082039D01*
X047990Y081920D02*
X048095Y081920D01*
X047670Y082039D02*
X040607Y082039D01*
X040489Y082157D02*
X047670Y082157D01*
X047670Y082276D02*
X040370Y082276D01*
X040252Y082394D02*
X047604Y082394D01*
X047560Y082513D02*
X040133Y082513D01*
X040015Y082631D02*
X047572Y082631D01*
X047649Y082750D02*
X037070Y082750D01*
X035750Y082750D02*
X033696Y082750D01*
X033577Y082869D02*
X035750Y082869D01*
X035750Y082987D02*
X033459Y082987D01*
X033340Y083106D02*
X035750Y083106D01*
X035750Y083224D02*
X033222Y083224D01*
X033103Y083343D02*
X035750Y083343D01*
X035750Y083461D02*
X032985Y083461D01*
X032866Y083580D02*
X035750Y083580D01*
X035750Y083698D02*
X032748Y083698D01*
X032629Y083817D02*
X035750Y083817D01*
X035750Y083935D02*
X032511Y083935D01*
X032392Y084054D02*
X035750Y084054D01*
X035750Y084173D02*
X032274Y084173D01*
X032155Y084291D02*
X035750Y084291D01*
X035750Y084410D02*
X032036Y084410D01*
X031918Y084528D02*
X035750Y084528D01*
X035750Y084647D02*
X031799Y084647D01*
X031681Y084765D02*
X035750Y084765D01*
X035750Y084884D02*
X031562Y084884D01*
X031444Y085002D02*
X035750Y085002D01*
X035750Y085121D02*
X031325Y085121D01*
X031207Y085239D02*
X035750Y085239D01*
X035750Y085358D02*
X031088Y085358D01*
X030970Y085477D02*
X035750Y085477D01*
X035750Y085595D02*
X029607Y085595D01*
X029632Y085570D02*
X029563Y085638D01*
X029464Y085680D01*
X029356Y085680D01*
X029257Y085638D01*
X029181Y085563D01*
X029140Y085463D01*
X029140Y085356D01*
X029181Y085257D01*
X029257Y085181D01*
X029356Y085140D01*
X029464Y085140D01*
X029563Y085181D01*
X029632Y085250D01*
X030744Y085250D01*
X034440Y081553D01*
X034440Y081456D01*
X034481Y081357D01*
X034557Y081281D01*
X034656Y081240D01*
X034764Y081240D01*
X034863Y081281D01*
X034939Y081357D01*
X034980Y081456D01*
X034980Y081563D01*
X034939Y081663D01*
X034863Y081738D01*
X034764Y081780D01*
X034666Y081780D01*
X030876Y085570D01*
X030744Y085570D01*
X029632Y085570D01*
X029724Y085832D02*
X027021Y085832D01*
X027139Y085951D02*
X029575Y085951D01*
X029554Y085972D02*
X029672Y085854D01*
X029827Y085790D01*
X029994Y085790D01*
X030148Y085854D01*
X030266Y085972D01*
X030330Y086126D01*
X030330Y086893D01*
X030266Y087047D01*
X030148Y087166D01*
X029994Y087230D01*
X029827Y087230D01*
X029672Y087166D01*
X029554Y087047D01*
X029490Y086893D01*
X029490Y086126D01*
X029554Y085972D01*
X029514Y086069D02*
X027237Y086069D01*
X027286Y086188D02*
X029490Y086188D01*
X029490Y086306D02*
X027335Y086306D01*
X027350Y086425D02*
X029490Y086425D01*
X029490Y086543D02*
X027350Y086543D01*
X027350Y086662D02*
X029490Y086662D01*
X029490Y086781D02*
X027307Y086781D01*
X027258Y086899D02*
X029493Y086899D01*
X029542Y087018D02*
X027190Y087018D01*
X027071Y087136D02*
X029643Y087136D01*
X030178Y087136D02*
X030586Y087136D01*
X030500Y087018D02*
X030279Y087018D01*
X030328Y086899D02*
X030459Y086899D01*
X030450Y086781D02*
X030330Y086781D01*
X030330Y086662D02*
X030450Y086662D01*
X030330Y086543D02*
X030870Y086543D01*
X030950Y086543D02*
X031490Y086543D01*
X031490Y086425D02*
X031370Y086425D01*
X031370Y086306D02*
X031490Y086306D01*
X031490Y086188D02*
X031370Y086188D01*
X031348Y086069D02*
X031514Y086069D01*
X031490Y086126D02*
X031554Y085972D01*
X031672Y085854D01*
X031827Y085790D01*
X031994Y085790D01*
X032148Y085854D01*
X032266Y085972D01*
X032330Y086126D01*
X032330Y086893D01*
X032266Y087047D01*
X032148Y087166D01*
X031994Y087230D01*
X031827Y087230D01*
X031672Y087166D01*
X031554Y087047D01*
X031490Y086893D01*
X031490Y086126D01*
X031575Y085951D02*
X031291Y085951D01*
X031173Y085832D02*
X031724Y085832D01*
X032096Y085832D02*
X032724Y085832D01*
X032672Y085854D02*
X032827Y085790D01*
X032994Y085790D01*
X033148Y085854D01*
X033266Y085972D01*
X033330Y086126D01*
X033330Y086893D01*
X033266Y087047D01*
X033148Y087166D01*
X032994Y087230D01*
X032827Y087230D01*
X032672Y087166D01*
X032554Y087047D01*
X032490Y086893D01*
X032490Y086126D01*
X032554Y085972D01*
X032672Y085854D01*
X032575Y085951D02*
X032245Y085951D01*
X032307Y086069D02*
X032514Y086069D01*
X032490Y086188D02*
X032330Y086188D01*
X032330Y086306D02*
X032490Y086306D01*
X032490Y086425D02*
X032330Y086425D01*
X032330Y086543D02*
X032490Y086543D01*
X032490Y086662D02*
X032330Y086662D01*
X032330Y086781D02*
X032490Y086781D01*
X032493Y086899D02*
X032328Y086899D01*
X032279Y087018D02*
X032542Y087018D01*
X032643Y087136D02*
X032178Y087136D01*
X031643Y087136D02*
X031234Y087136D01*
X031321Y087018D02*
X031542Y087018D01*
X031493Y086899D02*
X031362Y086899D01*
X031370Y086781D02*
X031490Y086781D01*
X031490Y086662D02*
X031370Y086662D01*
X030950Y086425D02*
X030870Y086425D01*
X030870Y086306D02*
X030950Y086306D01*
X030950Y086188D02*
X030870Y086188D01*
X030870Y086069D02*
X030950Y086069D01*
X030950Y085951D02*
X030870Y085951D01*
X030870Y085832D02*
X030950Y085832D01*
X030647Y085832D02*
X030096Y085832D01*
X030245Y085951D02*
X030530Y085951D01*
X030472Y086069D02*
X030307Y086069D01*
X030330Y086188D02*
X030450Y086188D01*
X030450Y086306D02*
X030330Y086306D01*
X030330Y086425D02*
X030450Y086425D01*
X030792Y087255D02*
X026906Y087255D01*
X026114Y087255D02*
X020760Y087255D01*
X020760Y087136D02*
X025949Y087136D01*
X025830Y087018D02*
X020760Y087018D01*
X020760Y086899D02*
X025762Y086899D01*
X025713Y086781D02*
X020760Y086781D01*
X020760Y086662D02*
X025670Y086662D01*
X025670Y086543D02*
X020760Y086543D01*
X020760Y086425D02*
X025670Y086425D01*
X025685Y086306D02*
X020760Y086306D01*
X020760Y086188D02*
X025734Y086188D01*
X025784Y086069D02*
X024103Y086069D01*
X024198Y085951D02*
X025881Y085951D01*
X026000Y085832D02*
X024230Y085832D01*
X024217Y085714D02*
X026237Y085714D01*
X026783Y085714D02*
X035750Y085714D01*
X035724Y085832D02*
X035096Y085832D01*
X035148Y085854D02*
X034994Y085790D01*
X034827Y085790D01*
X034672Y085854D01*
X034554Y085972D01*
X034490Y086126D01*
X034490Y086893D01*
X034554Y087047D01*
X034672Y087166D01*
X034827Y087230D01*
X034994Y087230D01*
X035148Y087166D01*
X035266Y087047D01*
X035330Y086893D01*
X035330Y086126D01*
X035266Y085972D01*
X035148Y085854D01*
X035245Y085951D02*
X035575Y085951D01*
X035514Y086069D02*
X035307Y086069D01*
X035330Y086188D02*
X035490Y086188D01*
X035490Y086306D02*
X035330Y086306D01*
X035330Y086425D02*
X035490Y086425D01*
X035490Y086543D02*
X035330Y086543D01*
X035330Y086662D02*
X035490Y086662D01*
X035490Y086781D02*
X035330Y086781D01*
X035328Y086899D02*
X035493Y086899D01*
X035542Y087018D02*
X035279Y087018D01*
X035178Y087136D02*
X035643Y087136D01*
X034643Y087136D02*
X034178Y087136D01*
X034148Y087166D02*
X033994Y087230D01*
X033827Y087230D01*
X033672Y087166D01*
X033554Y087047D01*
X033490Y086893D01*
X033490Y086126D01*
X033554Y085972D01*
X033672Y085854D01*
X033827Y085790D01*
X033994Y085790D01*
X034148Y085854D01*
X034266Y085972D01*
X034330Y086126D01*
X034330Y086893D01*
X034266Y087047D01*
X034148Y087166D01*
X034279Y087018D02*
X034542Y087018D01*
X034493Y086899D02*
X034328Y086899D01*
X034330Y086781D02*
X034490Y086781D01*
X034490Y086662D02*
X034330Y086662D01*
X034330Y086543D02*
X034490Y086543D01*
X034490Y086425D02*
X034330Y086425D01*
X034330Y086306D02*
X034490Y086306D01*
X034490Y086188D02*
X034330Y086188D01*
X034307Y086069D02*
X034514Y086069D01*
X034575Y085951D02*
X034245Y085951D01*
X034096Y085832D02*
X034724Y085832D01*
X033724Y085832D02*
X033096Y085832D01*
X033245Y085951D02*
X033575Y085951D01*
X033514Y086069D02*
X033307Y086069D01*
X033330Y086188D02*
X033490Y086188D01*
X033490Y086306D02*
X033330Y086306D01*
X033330Y086425D02*
X033490Y086425D01*
X033490Y086543D02*
X033330Y086543D01*
X033330Y086662D02*
X033490Y086662D01*
X033490Y086781D02*
X033330Y086781D01*
X033328Y086899D02*
X033493Y086899D01*
X033542Y087018D02*
X033279Y087018D01*
X033178Y087136D02*
X033643Y087136D01*
X031029Y087255D02*
X055614Y087255D01*
X055449Y087136D02*
X054778Y087136D01*
X054748Y087166D02*
X054594Y087230D01*
X054427Y087230D01*
X054272Y087166D01*
X054154Y087047D01*
X054090Y086893D01*
X054090Y086126D01*
X054154Y085972D01*
X054272Y085854D01*
X054427Y085790D01*
X054594Y085790D01*
X054748Y085854D01*
X054866Y085972D01*
X054930Y086126D01*
X054930Y086893D01*
X054866Y087047D01*
X054748Y087166D01*
X054879Y087018D02*
X055330Y087018D01*
X055262Y086899D02*
X054928Y086899D01*
X054930Y086781D02*
X055213Y086781D01*
X055170Y086662D02*
X054930Y086662D01*
X054930Y086543D02*
X055170Y086543D01*
X055170Y086425D02*
X054930Y086425D01*
X054930Y086306D02*
X055185Y086306D01*
X055148Y086188D02*
X054930Y086188D01*
X054907Y086069D02*
X055030Y086069D01*
X054911Y085951D02*
X054845Y085951D01*
X054792Y085832D02*
X054696Y085832D01*
X054674Y085714D02*
X038340Y085714D01*
X038222Y085595D02*
X054555Y085595D01*
X054324Y085832D02*
X053696Y085832D01*
X053748Y085854D02*
X053594Y085790D01*
X053427Y085790D01*
X053272Y085854D01*
X053154Y085972D01*
X053090Y086126D01*
X053090Y086893D01*
X053154Y087047D01*
X053272Y087166D01*
X053427Y087230D01*
X053594Y087230D01*
X053748Y087166D01*
X053866Y087047D01*
X053930Y086893D01*
X053930Y086126D01*
X053866Y085972D01*
X053748Y085854D01*
X053845Y085951D02*
X054175Y085951D01*
X054114Y086069D02*
X053907Y086069D01*
X053930Y086188D02*
X054090Y086188D01*
X054090Y086306D02*
X053930Y086306D01*
X053930Y086425D02*
X054090Y086425D01*
X054090Y086543D02*
X053930Y086543D01*
X053930Y086662D02*
X054090Y086662D01*
X054090Y086781D02*
X053930Y086781D01*
X053928Y086899D02*
X054093Y086899D01*
X054142Y087018D02*
X053879Y087018D01*
X053778Y087136D02*
X054243Y087136D01*
X053243Y087136D02*
X052778Y087136D01*
X052748Y087166D02*
X052594Y087230D01*
X052427Y087230D01*
X052272Y087166D01*
X052154Y087047D01*
X052090Y086893D01*
X052090Y086126D01*
X052154Y085972D01*
X052272Y085854D01*
X052427Y085790D01*
X052594Y085790D01*
X052748Y085854D01*
X052866Y085972D01*
X052930Y086126D01*
X052930Y086893D01*
X052866Y087047D01*
X052748Y087166D01*
X052879Y087018D02*
X053142Y087018D01*
X053093Y086899D02*
X052928Y086899D01*
X052930Y086781D02*
X053090Y086781D01*
X053090Y086662D02*
X052930Y086662D01*
X052930Y086543D02*
X053090Y086543D01*
X053090Y086425D02*
X052930Y086425D01*
X052930Y086306D02*
X053090Y086306D01*
X053090Y086188D02*
X052930Y086188D01*
X052907Y086069D02*
X053114Y086069D01*
X053175Y085951D02*
X052845Y085951D01*
X052696Y085832D02*
X053324Y085832D01*
X052324Y085832D02*
X051696Y085832D01*
X051748Y085854D02*
X051594Y085790D01*
X051427Y085790D01*
X051272Y085854D01*
X051154Y085972D01*
X051090Y086126D01*
X051090Y086893D01*
X051154Y087047D01*
X051272Y087166D01*
X051427Y087230D01*
X051594Y087230D01*
X051748Y087166D01*
X051866Y087047D01*
X051930Y086893D01*
X051930Y086126D01*
X051866Y085972D01*
X051748Y085854D01*
X051845Y085951D02*
X052175Y085951D01*
X052114Y086069D02*
X051907Y086069D01*
X051930Y086188D02*
X052090Y086188D01*
X052090Y086306D02*
X051930Y086306D01*
X051930Y086425D02*
X052090Y086425D01*
X052090Y086543D02*
X051930Y086543D01*
X051930Y086662D02*
X052090Y086662D01*
X052090Y086781D02*
X051930Y086781D01*
X051928Y086899D02*
X052093Y086899D01*
X052142Y087018D02*
X051879Y087018D01*
X051778Y087136D02*
X052243Y087136D01*
X051243Y087136D02*
X050778Y087136D01*
X050748Y087166D02*
X050594Y087230D01*
X050427Y087230D01*
X050272Y087166D01*
X050154Y087047D01*
X050090Y086893D01*
X050090Y086126D01*
X050154Y085972D01*
X050272Y085854D01*
X050427Y085790D01*
X050594Y085790D01*
X050748Y085854D01*
X050866Y085972D01*
X050930Y086126D01*
X050930Y086893D01*
X050866Y087047D01*
X050748Y087166D01*
X050879Y087018D02*
X051142Y087018D01*
X051093Y086899D02*
X050928Y086899D01*
X050930Y086781D02*
X051090Y086781D01*
X051090Y086662D02*
X050930Y086662D01*
X050930Y086543D02*
X051090Y086543D01*
X051090Y086425D02*
X050930Y086425D01*
X050930Y086306D02*
X051090Y086306D01*
X051090Y086188D02*
X050930Y086188D01*
X050907Y086069D02*
X051114Y086069D01*
X051175Y085951D02*
X050845Y085951D01*
X050696Y085832D02*
X051324Y085832D01*
X051237Y085477D02*
X038103Y085477D01*
X037985Y085358D02*
X051118Y085358D01*
X051000Y085239D02*
X037950Y085239D01*
X037950Y085121D02*
X050940Y085121D01*
X050940Y085002D02*
X037950Y085002D01*
X037950Y084884D02*
X050940Y084884D01*
X050940Y084765D02*
X037950Y084765D01*
X037950Y084647D02*
X050940Y084647D01*
X050940Y084528D02*
X037950Y084528D01*
X037950Y084410D02*
X050940Y084410D01*
X050988Y084291D02*
X037950Y084291D01*
X037950Y084173D02*
X051107Y084173D01*
X051225Y084054D02*
X037950Y084054D01*
X037950Y083935D02*
X059300Y083935D01*
X059300Y083817D02*
X058797Y083817D01*
X058915Y083698D02*
X059300Y083698D01*
X059300Y083580D02*
X058930Y083580D01*
X058930Y083461D02*
X059300Y083461D01*
X059300Y083343D02*
X058930Y083343D01*
X058819Y083224D02*
X059300Y083224D01*
X059300Y083106D02*
X058700Y083106D01*
X058745Y082869D02*
X059300Y082869D01*
X059300Y082987D02*
X054964Y082987D01*
X054974Y082869D02*
X057275Y082869D01*
X057157Y082750D02*
X054970Y082750D01*
X054970Y082631D02*
X057090Y082631D01*
X057090Y082513D02*
X054970Y082513D01*
X054970Y082394D02*
X057090Y082394D01*
X057150Y082276D02*
X054970Y082276D01*
X054970Y082157D02*
X057269Y082157D01*
X057327Y081920D02*
X054970Y081920D01*
X054970Y081802D02*
X057208Y081802D01*
X057090Y081683D02*
X054970Y081683D01*
X054970Y081565D02*
X057090Y081565D01*
X057090Y081446D02*
X054970Y081446D01*
X054970Y081328D02*
X057098Y081328D01*
X057217Y081209D02*
X054970Y081209D01*
X054970Y081090D02*
X057335Y081090D01*
X057260Y080853D02*
X054970Y080853D01*
X054970Y080735D02*
X057141Y080735D01*
X057090Y080616D02*
X054970Y080616D01*
X054970Y080498D02*
X057090Y080498D01*
X057090Y080379D02*
X054970Y080379D01*
X054970Y080261D02*
X057165Y080261D01*
X057284Y080142D02*
X054970Y080142D01*
X054970Y080024D02*
X060300Y080024D01*
X060300Y080142D02*
X058737Y080142D01*
X058855Y080261D02*
X060300Y080261D01*
X060300Y080379D02*
X058930Y080379D01*
X058930Y080498D02*
X060300Y080498D01*
X060300Y080616D02*
X058930Y080616D01*
X058879Y080735D02*
X060300Y080735D01*
X060300Y080853D02*
X058760Y080853D01*
X058685Y081090D02*
X060300Y081090D01*
X060300Y080972D02*
X054970Y080972D01*
X054970Y082039D02*
X059684Y082039D01*
X059566Y082157D02*
X058752Y082157D01*
X058870Y082276D02*
X059447Y082276D01*
X059328Y082394D02*
X058930Y082394D01*
X058930Y082513D02*
X059300Y082513D01*
X059300Y082631D02*
X058930Y082631D01*
X058864Y082750D02*
X059300Y082750D01*
X059803Y081920D02*
X058694Y081920D01*
X058812Y081802D02*
X059921Y081802D01*
X060040Y081683D02*
X058930Y081683D01*
X058930Y081565D02*
X060158Y081565D01*
X060277Y081446D02*
X058930Y081446D01*
X058922Y081328D02*
X060300Y081328D01*
X060300Y081209D02*
X058804Y081209D01*
X058709Y079905D02*
X060300Y079905D01*
X060300Y079786D02*
X058827Y079786D01*
X058930Y079668D02*
X060300Y079668D01*
X060300Y079549D02*
X058930Y079549D01*
X058930Y079431D02*
X060300Y079431D01*
X060300Y079312D02*
X058907Y079312D01*
X058788Y079194D02*
X060300Y079194D01*
X060300Y079075D02*
X054970Y079075D01*
X054970Y078957D02*
X060300Y078957D01*
X060300Y078838D02*
X058776Y078838D01*
X058894Y078720D02*
X060300Y078720D01*
X060300Y078601D02*
X058930Y078601D01*
X058930Y078482D02*
X060300Y078482D01*
X060300Y078364D02*
X058930Y078364D01*
X058840Y078245D02*
X060300Y078245D01*
X060300Y078127D02*
X058721Y078127D01*
X057299Y078127D02*
X055009Y078127D01*
X055076Y078245D02*
X057180Y078245D01*
X057090Y078364D02*
X055080Y078364D01*
X055019Y078482D02*
X057090Y078482D01*
X057090Y078601D02*
X054970Y078601D01*
X054970Y078720D02*
X057126Y078720D01*
X057245Y078838D02*
X054970Y078838D01*
X054970Y079194D02*
X057232Y079194D01*
X057114Y079312D02*
X054970Y079312D01*
X054970Y079431D02*
X057090Y079431D01*
X057090Y079549D02*
X054970Y079549D01*
X054970Y079668D02*
X057090Y079668D01*
X057193Y079786D02*
X054970Y079786D01*
X054970Y079905D02*
X057312Y079905D01*
X057129Y077297D02*
X056924Y077297D01*
X056805Y077179D02*
X057247Y077179D01*
X052275Y074096D02*
X051649Y074096D01*
X051831Y074215D02*
X052137Y074215D01*
X052068Y074333D02*
X051908Y074333D01*
X051776Y073859D02*
X052245Y073859D01*
X052135Y073741D02*
X051885Y073741D01*
X051934Y073622D02*
X052086Y073622D01*
X052075Y073504D02*
X051945Y073504D01*
X051975Y073385D02*
X052091Y073385D01*
X052094Y073267D02*
X052140Y073267D01*
X049641Y077297D02*
X049350Y077297D01*
X049418Y077416D02*
X049557Y077416D01*
X049540Y077534D02*
X049430Y077534D01*
X049430Y077653D02*
X049577Y077653D01*
X049430Y077771D02*
X049736Y077771D01*
X049750Y077890D02*
X049430Y077890D01*
X049430Y078008D02*
X049750Y078008D01*
X049750Y078127D02*
X049430Y078127D01*
X049430Y078245D02*
X049750Y078245D01*
X049750Y078364D02*
X049430Y078364D01*
X049430Y078482D02*
X049750Y078482D01*
X049750Y078601D02*
X049430Y078601D01*
X049430Y078720D02*
X049750Y078720D01*
X049750Y078838D02*
X049430Y078838D01*
X049430Y078957D02*
X049750Y078957D01*
X049750Y079075D02*
X049430Y079075D01*
X049430Y079194D02*
X049750Y079194D01*
X049750Y079312D02*
X049430Y079312D01*
X049430Y079431D02*
X049750Y079431D01*
X049750Y079549D02*
X049430Y079549D01*
X049430Y079668D02*
X049750Y079668D01*
X049750Y079786D02*
X049430Y079786D01*
X048790Y078245D02*
X046681Y078245D01*
X046710Y078127D02*
X048790Y078127D01*
X048790Y078008D02*
X046710Y078008D01*
X046710Y077890D02*
X048790Y077890D01*
X048790Y077771D02*
X046784Y077771D01*
X046820Y077653D02*
X047111Y077653D01*
X047021Y077534D02*
X046803Y077534D01*
X046718Y077416D02*
X047000Y077416D01*
X046911Y077297D02*
X046420Y077297D01*
X046405Y077179D02*
X046793Y077179D01*
X047429Y077653D02*
X047512Y077653D01*
X047829Y077653D02*
X048790Y077653D01*
X048682Y077534D02*
X047919Y077534D01*
X047940Y077416D02*
X048564Y077416D01*
X048445Y077297D02*
X047908Y077297D01*
X045335Y077179D02*
X044788Y077179D01*
X045098Y077416D02*
X041270Y077416D01*
X041270Y077534D02*
X044979Y077534D01*
X044861Y077653D02*
X041270Y077653D01*
X041270Y077771D02*
X044742Y077771D01*
X044624Y077890D02*
X041270Y077890D01*
X041270Y078008D02*
X044505Y078008D01*
X044387Y078127D02*
X041270Y078127D01*
X041270Y078245D02*
X044268Y078245D01*
X044150Y078364D02*
X041359Y078364D01*
X041380Y078482D02*
X043876Y078482D01*
X043783Y078601D02*
X041348Y078601D01*
X041212Y078720D02*
X043760Y078720D01*
X043791Y078838D02*
X041100Y078838D01*
X041086Y078957D02*
X043921Y078957D01*
X044139Y078957D02*
X044150Y078957D01*
X044150Y079075D02*
X041006Y079075D01*
X040654Y079075D02*
X040406Y079075D01*
X040486Y078957D02*
X040574Y078957D01*
X040560Y078838D02*
X040500Y078838D01*
X041270Y077297D02*
X045217Y077297D01*
X043489Y076704D02*
X043171Y076704D01*
X042513Y077179D02*
X041270Y077179D01*
X041270Y077060D02*
X042394Y077060D01*
X042310Y076941D02*
X041270Y076941D01*
X041270Y076823D02*
X042310Y076823D01*
X042310Y076704D02*
X041270Y076704D01*
X041270Y076586D02*
X042226Y076586D01*
X042200Y076467D02*
X041270Y076467D01*
X041270Y076349D02*
X042228Y076349D01*
X042343Y076230D02*
X041177Y076230D01*
X041243Y075519D02*
X040466Y075519D01*
X040347Y075400D02*
X041125Y075400D01*
X041006Y075282D02*
X040229Y075282D01*
X040110Y075163D02*
X040888Y075163D01*
X040769Y075045D02*
X040070Y075045D01*
X040070Y074926D02*
X040548Y074926D01*
X040379Y074808D02*
X040070Y074808D01*
X040070Y074689D02*
X040340Y074689D01*
X040355Y074571D02*
X040070Y074571D01*
X040070Y074452D02*
X040436Y074452D01*
X042103Y074452D02*
X042197Y074452D01*
X042160Y074333D02*
X042140Y074333D01*
X043083Y075163D02*
X043297Y075163D01*
X043483Y075163D02*
X043737Y075163D01*
X043923Y075163D02*
X043990Y075163D01*
X038631Y077297D02*
X028025Y077297D01*
X028144Y077179D02*
X038513Y077179D01*
X038394Y077060D02*
X037740Y077060D01*
X037836Y076941D02*
X038276Y076941D01*
X038157Y076823D02*
X037860Y076823D01*
X037831Y076704D02*
X038039Y076704D01*
X037920Y076586D02*
X037750Y076586D01*
X037750Y076467D02*
X037802Y076467D01*
X037260Y076349D02*
X034236Y076349D01*
X034085Y076349D02*
X033945Y076349D01*
X033927Y076467D02*
X033794Y076467D01*
X033890Y076586D02*
X028737Y076586D01*
X028855Y076467D02*
X033627Y076467D01*
X033476Y076349D02*
X028974Y076349D01*
X029092Y076230D02*
X030899Y076230D01*
X030840Y076112D02*
X029211Y076112D01*
X029329Y075993D02*
X030789Y075993D01*
X030671Y075875D02*
X029448Y075875D01*
X029517Y075756D02*
X030552Y075756D01*
X030434Y075637D02*
X029530Y075637D01*
X029498Y075519D02*
X030315Y075519D01*
X030360Y075310D02*
X028610Y075310D01*
X027560Y076360D01*
X027808Y076467D02*
X027950Y076467D01*
X028069Y076349D02*
X027830Y076349D01*
X027944Y076230D02*
X028187Y076230D01*
X028306Y076112D02*
X028063Y076112D01*
X028181Y075993D02*
X028424Y075993D01*
X028543Y075875D02*
X028300Y075875D01*
X028418Y075756D02*
X028661Y075756D01*
X028780Y075637D02*
X028537Y075637D01*
X028655Y075519D02*
X028898Y075519D01*
X028502Y075163D02*
X025283Y075163D01*
X025283Y075045D02*
X028493Y075045D01*
X028374Y074926D02*
X025283Y074926D01*
X025283Y074808D02*
X028256Y074808D01*
X028137Y074689D02*
X025283Y074689D01*
X025251Y074571D02*
X028019Y074571D01*
X027900Y074452D02*
X025132Y074452D01*
X025014Y074333D02*
X027782Y074333D01*
X027663Y074215D02*
X024895Y074215D01*
X024125Y074215D02*
X023857Y074215D01*
X023739Y074333D02*
X024007Y074333D01*
X023888Y074452D02*
X023620Y074452D01*
X023976Y074096D02*
X027544Y074096D01*
X027426Y073978D02*
X024095Y073978D01*
X025244Y075282D02*
X028383Y075282D01*
X028265Y075400D02*
X025126Y075400D01*
X025007Y075519D02*
X028146Y075519D01*
X028028Y075637D02*
X024889Y075637D01*
X025544Y075756D02*
X025611Y075756D01*
X025611Y075685D02*
X025899Y075685D01*
X025969Y075696D01*
X026036Y075717D01*
X026098Y075749D01*
X026155Y075791D01*
X026205Y075840D01*
X026246Y075897D01*
X026278Y075960D01*
X026300Y076027D01*
X026311Y076096D01*
X026311Y076098D01*
X025611Y076098D01*
X025611Y075685D01*
X025611Y075875D02*
X025544Y075875D01*
X025544Y075993D02*
X025611Y075993D01*
X025611Y076230D02*
X025544Y076230D01*
X025544Y076349D02*
X025611Y076349D01*
X025611Y076467D02*
X025544Y076467D01*
X024994Y076467D02*
X020760Y076467D01*
X020760Y076349D02*
X024899Y076349D01*
X025008Y076823D02*
X020760Y076823D01*
X020760Y076941D02*
X024922Y076941D01*
X024883Y077060D02*
X020760Y077060D01*
X020760Y077179D02*
X024883Y077179D01*
X024925Y077297D02*
X020760Y077297D01*
X020760Y077416D02*
X025014Y077416D01*
X025118Y077534D02*
X020760Y077534D01*
X020760Y077653D02*
X024965Y077653D01*
X024904Y077771D02*
X020760Y077771D01*
X020760Y077890D02*
X024883Y077890D01*
X024893Y078008D02*
X020760Y078008D01*
X020760Y078127D02*
X024942Y078127D01*
X025057Y078245D02*
X020760Y078245D01*
X020760Y079312D02*
X027341Y079312D01*
X027458Y079194D02*
X026134Y079194D01*
X026227Y079075D02*
X027575Y079075D01*
X027690Y078957D02*
X026271Y078957D01*
X026271Y078838D02*
X027690Y078838D01*
X027608Y078720D02*
X026235Y078720D01*
X026153Y078601D02*
X027489Y078601D01*
X027371Y078482D02*
X025950Y078482D01*
X024083Y079431D02*
X020760Y079431D01*
X020760Y079549D02*
X023964Y079549D01*
X023846Y079668D02*
X020760Y079668D01*
X020760Y079786D02*
X023737Y079786D01*
X023737Y079905D02*
X020760Y079905D01*
X020760Y080024D02*
X023737Y080024D01*
X023737Y080142D02*
X020760Y080142D01*
X020760Y080261D02*
X023737Y080261D01*
X023737Y080379D02*
X020760Y080379D01*
X020760Y080498D02*
X023819Y080498D01*
X023937Y080616D02*
X020760Y080616D01*
X020760Y080735D02*
X023032Y080735D01*
X022958Y080853D02*
X020760Y080853D01*
X020760Y080972D02*
X022940Y080972D01*
X022940Y081090D02*
X020760Y081090D01*
X020760Y081209D02*
X022940Y081209D01*
X022940Y081328D02*
X020760Y081328D01*
X020760Y081446D02*
X022940Y081446D01*
X022940Y081565D02*
X020760Y081565D01*
X020760Y081683D02*
X022940Y081683D01*
X022940Y081802D02*
X020760Y081802D01*
X020760Y081920D02*
X022940Y081920D01*
X022940Y082039D02*
X020760Y082039D01*
X020760Y082157D02*
X022940Y082157D01*
X022940Y082276D02*
X020760Y082276D01*
X020760Y082394D02*
X022940Y082394D01*
X022940Y082513D02*
X020760Y082513D01*
X020760Y082631D02*
X022940Y082631D01*
X022940Y082750D02*
X021332Y082750D01*
X021339Y082757D02*
X021380Y082856D01*
X021380Y082963D01*
X021350Y083036D01*
X021350Y084783D01*
X021380Y084856D01*
X021380Y084963D01*
X021339Y085063D01*
X021263Y085138D01*
X021164Y085180D01*
X021056Y085180D01*
X020957Y085138D01*
X020881Y085063D01*
X020840Y084963D01*
X020840Y084856D01*
X020870Y084783D01*
X020870Y083036D01*
X020840Y082963D01*
X020840Y082856D01*
X020881Y082757D01*
X020957Y082681D01*
X021056Y082640D01*
X021164Y082640D01*
X021263Y082681D01*
X021339Y082757D01*
X021380Y082869D02*
X022940Y082869D01*
X022940Y082987D02*
X021370Y082987D01*
X021350Y083106D02*
X022940Y083106D01*
X022940Y083224D02*
X021350Y083224D01*
X021350Y083343D02*
X022940Y083343D01*
X022977Y083461D02*
X021350Y083461D01*
X021350Y083580D02*
X023078Y083580D01*
X023196Y083698D02*
X021350Y083698D01*
X021350Y083817D02*
X023240Y083817D01*
X023240Y083935D02*
X021350Y083935D01*
X021350Y084054D02*
X023240Y084054D01*
X023240Y084173D02*
X021350Y084173D01*
X021350Y084291D02*
X023240Y084291D01*
X023240Y084410D02*
X021350Y084410D01*
X021350Y084528D02*
X023240Y084528D01*
X023240Y084647D02*
X021350Y084647D01*
X021350Y084765D02*
X023240Y084765D01*
X023240Y084884D02*
X021380Y084884D01*
X021364Y085002D02*
X023240Y085002D01*
X023240Y085121D02*
X021281Y085121D01*
X020940Y085121D02*
X020760Y085121D01*
X020760Y085239D02*
X023240Y085239D01*
X023240Y085358D02*
X020760Y085358D01*
X020760Y085477D02*
X023240Y085477D01*
X023240Y085595D02*
X020760Y085595D01*
X020760Y085714D02*
X023240Y085714D01*
X023240Y085832D02*
X020760Y085832D01*
X020760Y085951D02*
X023272Y085951D01*
X023367Y086069D02*
X020760Y086069D01*
X020760Y085002D02*
X020856Y085002D01*
X020840Y084884D02*
X020760Y084884D01*
X020760Y084765D02*
X020870Y084765D01*
X020870Y084647D02*
X020760Y084647D01*
X020760Y084528D02*
X020870Y084528D01*
X020870Y084410D02*
X020760Y084410D01*
X020760Y084291D02*
X020870Y084291D01*
X020870Y084173D02*
X020760Y084173D01*
X020760Y084054D02*
X020870Y084054D01*
X020870Y083935D02*
X020760Y083935D01*
X020760Y083817D02*
X020870Y083817D01*
X020870Y083698D02*
X020760Y083698D01*
X020760Y083580D02*
X020870Y083580D01*
X020870Y083461D02*
X020760Y083461D01*
X020760Y083343D02*
X020870Y083343D01*
X020870Y083224D02*
X020760Y083224D01*
X020760Y083106D02*
X020870Y083106D01*
X020850Y082987D02*
X020760Y082987D01*
X020760Y082869D02*
X020840Y082869D01*
X020888Y082750D02*
X020760Y082750D01*
X023580Y082750D02*
X025476Y082750D01*
X025440Y082631D02*
X023580Y082631D01*
X023580Y082513D02*
X025458Y082513D01*
X025544Y082394D02*
X023580Y082394D01*
X023580Y082869D02*
X025368Y082869D01*
X025340Y082987D02*
X023580Y082987D01*
X023580Y083106D02*
X025366Y083106D01*
X025471Y083224D02*
X023627Y083224D01*
X023746Y083343D02*
X025740Y083343D01*
X025874Y083461D02*
X023845Y083461D01*
X023880Y083817D02*
X026162Y083817D01*
X026254Y083935D02*
X023880Y083935D01*
X023880Y084054D02*
X023884Y084054D01*
X023880Y084410D02*
X023928Y084410D01*
X023880Y084528D02*
X024188Y084528D01*
X024307Y084647D02*
X023880Y084647D01*
X023880Y084765D02*
X025140Y084765D01*
X025169Y084884D02*
X023880Y084884D01*
X023880Y085002D02*
X025291Y085002D01*
X025530Y085002D02*
X030991Y085002D01*
X031110Y084884D02*
X025651Y084884D01*
X025680Y084765D02*
X031228Y084765D01*
X031347Y084647D02*
X025656Y084647D01*
X025557Y084528D02*
X030067Y084528D01*
X030077Y084538D02*
X030001Y084463D01*
X029960Y084363D01*
X029960Y084256D01*
X030001Y084157D01*
X030077Y084081D01*
X030176Y084040D01*
X030284Y084040D01*
X030383Y084081D01*
X030452Y084150D01*
X031080Y084150D01*
X033741Y081265D01*
X033740Y081263D01*
X033740Y081156D01*
X033781Y081057D01*
X033857Y080981D01*
X033956Y080940D01*
X034064Y080940D01*
X034163Y080981D01*
X034239Y081057D01*
X034280Y081156D01*
X034280Y081263D01*
X034239Y081363D01*
X034163Y081438D01*
X034064Y081480D01*
X033979Y081480D01*
X031310Y084372D01*
X031310Y084376D01*
X031266Y084420D01*
X031223Y084467D01*
X031219Y084467D01*
X031216Y084470D01*
X031153Y084470D01*
X031090Y084472D01*
X031088Y084470D01*
X030452Y084470D01*
X030383Y084538D01*
X030284Y084580D01*
X030176Y084580D01*
X030077Y084538D01*
X029979Y084410D02*
X025301Y084410D01*
X024432Y084291D02*
X029960Y084291D01*
X029995Y084173D02*
X024380Y084173D01*
X024336Y084054D02*
X028295Y084054D01*
X028170Y083935D02*
X026566Y083935D01*
X026658Y083817D02*
X028140Y083817D01*
X028164Y083698D02*
X026680Y083698D01*
X026649Y083580D02*
X028259Y083580D01*
X028490Y083461D02*
X026640Y083461D01*
X026680Y083343D02*
X028490Y083343D01*
X028490Y083224D02*
X026667Y083224D01*
X026588Y083106D02*
X028490Y083106D01*
X028490Y082987D02*
X026328Y082987D01*
X026210Y082869D02*
X028490Y082869D01*
X028830Y082869D02*
X031512Y082869D01*
X031393Y082987D02*
X028830Y082987D01*
X028830Y083106D02*
X031232Y083106D01*
X031153Y083224D02*
X028830Y083224D01*
X028830Y083343D02*
X031140Y083343D01*
X031181Y083461D02*
X028830Y083461D01*
X028830Y083580D02*
X031606Y083580D01*
X031640Y083461D02*
X031715Y083461D01*
X031716Y083343D02*
X031825Y083343D01*
X031835Y083224D02*
X031934Y083224D01*
X031954Y083106D02*
X032043Y083106D01*
X032072Y082987D02*
X032153Y082987D01*
X032191Y082869D02*
X032262Y082869D01*
X032309Y082750D02*
X032371Y082750D01*
X032419Y082631D02*
X032481Y082631D01*
X032450Y082513D02*
X032590Y082513D01*
X032699Y082394D02*
X032450Y082394D01*
X032450Y082276D02*
X032809Y082276D01*
X032918Y082157D02*
X032450Y082157D01*
X032520Y082039D02*
X033028Y082039D01*
X033137Y081920D02*
X032639Y081920D01*
X032758Y081802D02*
X033246Y081802D01*
X033356Y081683D02*
X032876Y081683D01*
X032995Y081565D02*
X033465Y081565D01*
X033574Y081446D02*
X033113Y081446D01*
X033232Y081328D02*
X033684Y081328D01*
X033740Y081209D02*
X033593Y081209D01*
X033669Y081090D02*
X033767Y081090D01*
X033680Y080972D02*
X033879Y080972D01*
X034142Y080972D02*
X034706Y080972D01*
X034588Y080853D02*
X033636Y080853D01*
X033027Y080853D02*
X032913Y080853D01*
X032909Y080972D02*
X032794Y080972D01*
X032790Y081090D02*
X032676Y081090D01*
X032671Y081209D02*
X032557Y081209D01*
X032553Y081328D02*
X032439Y081328D01*
X032434Y081446D02*
X032320Y081446D01*
X032316Y081565D02*
X032201Y081565D01*
X032197Y081683D02*
X030406Y081683D01*
X030403Y081681D02*
X030432Y081710D01*
X031167Y081710D01*
X031333Y081710D01*
X031483Y081860D01*
X031524Y081860D01*
X031623Y081901D01*
X031699Y081977D01*
X031740Y082076D01*
X031740Y082183D01*
X031699Y082283D01*
X031623Y082358D01*
X031524Y082400D01*
X031416Y082400D01*
X031317Y082358D01*
X031241Y082283D01*
X031200Y082183D01*
X031200Y082142D01*
X031167Y082110D01*
X030432Y082110D01*
X030403Y082138D01*
X030304Y082180D01*
X030196Y082180D01*
X030097Y082138D01*
X030021Y082063D01*
X029980Y081963D01*
X029980Y081856D01*
X030021Y081757D01*
X030097Y081681D01*
X030196Y081640D01*
X030304Y081640D01*
X030403Y081681D01*
X030095Y081683D02*
X028884Y081683D01*
X028697Y081683D02*
X028344Y081683D01*
X028463Y081802D02*
X030003Y081802D01*
X029980Y081920D02*
X028581Y081920D01*
X028700Y082039D02*
X030012Y082039D01*
X030143Y082157D02*
X028818Y082157D01*
X028830Y082276D02*
X031239Y082276D01*
X031200Y082157D02*
X030358Y082157D01*
X031404Y082394D02*
X028830Y082394D01*
X028830Y082513D02*
X031867Y082513D01*
X031970Y082394D02*
X031536Y082394D01*
X031702Y082276D02*
X031970Y082276D01*
X031970Y082157D02*
X031740Y082157D01*
X031725Y082039D02*
X031940Y082039D01*
X031955Y081920D02*
X031643Y081920D01*
X031425Y081802D02*
X032036Y081802D01*
X031749Y082631D02*
X028830Y082631D01*
X028830Y082750D02*
X031630Y082750D01*
X032260Y083343D02*
X032651Y083343D01*
X032532Y083461D02*
X032151Y083461D01*
X032041Y083580D02*
X032414Y083580D01*
X032295Y083698D02*
X031932Y083698D01*
X031822Y083817D02*
X032177Y083817D01*
X032058Y083935D02*
X031713Y083935D01*
X031604Y084054D02*
X031940Y084054D01*
X031821Y084173D02*
X031494Y084173D01*
X031385Y084291D02*
X031702Y084291D01*
X031584Y084410D02*
X031276Y084410D01*
X031465Y084528D02*
X030393Y084528D01*
X030319Y084054D02*
X031168Y084054D01*
X031278Y083935D02*
X028650Y083935D01*
X028680Y083817D02*
X031387Y083817D01*
X031496Y083698D02*
X028762Y083698D01*
X028526Y084054D02*
X030142Y084054D01*
X030873Y085121D02*
X023880Y085121D01*
X023880Y085239D02*
X029199Y085239D01*
X029140Y085358D02*
X023880Y085358D01*
X023880Y085477D02*
X029146Y085477D01*
X029214Y085595D02*
X024148Y085595D01*
X029622Y085239D02*
X030754Y085239D01*
X032369Y083224D02*
X032769Y083224D01*
X032888Y083106D02*
X032479Y083106D01*
X032588Y082987D02*
X033006Y082987D01*
X033125Y082869D02*
X032697Y082869D01*
X032807Y082750D02*
X033244Y082750D01*
X033362Y082631D02*
X032916Y082631D01*
X033025Y082513D02*
X033481Y082513D01*
X033599Y082394D02*
X033135Y082394D01*
X033244Y082276D02*
X033718Y082276D01*
X033836Y082157D02*
X033354Y082157D01*
X033463Y082039D02*
X033955Y082039D01*
X034073Y081920D02*
X033572Y081920D01*
X033682Y081802D02*
X034192Y081802D01*
X034310Y081683D02*
X033791Y081683D01*
X033900Y081565D02*
X034429Y081565D01*
X034444Y081446D02*
X034145Y081446D01*
X034254Y081328D02*
X034510Y081328D01*
X034280Y081209D02*
X034943Y081209D01*
X034910Y081328D02*
X035062Y081328D01*
X035110Y081446D02*
X034976Y081446D01*
X034980Y081565D02*
X035110Y081565D01*
X035110Y081683D02*
X034918Y081683D01*
X035110Y081802D02*
X034644Y081802D01*
X034526Y081920D02*
X035110Y081920D01*
X035079Y082039D02*
X034407Y082039D01*
X034289Y082157D02*
X035008Y082157D01*
X035000Y082276D02*
X034170Y082276D01*
X034052Y082394D02*
X035053Y082394D01*
X035487Y082394D02*
X035750Y082394D01*
X035750Y082276D02*
X035540Y082276D01*
X035532Y082157D02*
X035750Y082157D01*
X035750Y082039D02*
X035461Y082039D01*
X035430Y081920D02*
X035490Y081920D01*
X035691Y081920D02*
X035750Y081920D01*
X035750Y082513D02*
X033933Y082513D01*
X033815Y082631D02*
X035750Y082631D01*
X034825Y081090D02*
X034253Y081090D01*
X035673Y080142D02*
X029384Y080142D01*
X029503Y080024D02*
X031920Y080024D01*
X031816Y079905D02*
X029621Y079905D01*
X029670Y079786D02*
X031790Y079786D01*
X031818Y079668D02*
X029694Y079668D01*
X029769Y079549D02*
X031820Y079549D01*
X031820Y079431D02*
X031371Y079431D01*
X031460Y079312D02*
X031820Y079312D01*
X031805Y079194D02*
X031480Y079194D01*
X031447Y079075D02*
X031686Y079075D01*
X031568Y078957D02*
X031305Y078957D01*
X031407Y078838D02*
X031331Y078763D01*
X031290Y078601D02*
X030292Y078601D01*
X030167Y078957D02*
X029254Y078957D01*
X029135Y079075D02*
X030285Y079075D01*
X030404Y079194D02*
X029016Y079194D01*
X028898Y079312D02*
X029286Y079312D01*
X029240Y079431D02*
X028779Y079431D01*
X028661Y079549D02*
X029251Y079549D01*
X029327Y079668D02*
X028542Y079668D01*
X028424Y079786D02*
X029287Y079786D01*
X029169Y079905D02*
X028305Y079905D01*
X028187Y080024D02*
X029050Y080024D01*
X028931Y080142D02*
X028068Y080142D01*
X027980Y080261D02*
X028657Y080261D01*
X028600Y080379D02*
X027980Y080379D01*
X027980Y080498D02*
X028606Y080498D01*
X028675Y080616D02*
X027980Y080616D01*
X027980Y080972D02*
X028106Y080972D01*
X028019Y081090D02*
X027980Y081090D01*
X027980Y081209D02*
X028000Y081209D01*
X027640Y080379D02*
X027188Y080379D01*
X027305Y080261D02*
X027640Y080261D01*
X027640Y080142D02*
X027422Y080142D01*
X027539Y080024D02*
X027706Y080024D01*
X027656Y079905D02*
X027824Y079905D01*
X027773Y079786D02*
X027943Y079786D01*
X027889Y079668D02*
X028061Y079668D01*
X028006Y079549D02*
X028180Y079549D01*
X028123Y079431D02*
X028299Y079431D01*
X028240Y079312D02*
X028417Y079312D01*
X028313Y079194D02*
X028536Y079194D01*
X028654Y079075D02*
X028330Y079075D01*
X028330Y078957D02*
X028773Y078957D01*
X028891Y078838D02*
X028330Y078838D01*
X028330Y078720D02*
X028738Y078720D01*
X028575Y078601D02*
X028328Y078601D01*
X028276Y078482D02*
X028457Y078482D01*
X028338Y078364D02*
X028157Y078364D01*
X028074Y078245D02*
X028039Y078245D01*
X027967Y078127D02*
X027930Y078127D01*
X027930Y078008D02*
X027940Y078008D01*
X027930Y077890D02*
X027968Y077890D01*
X028262Y077060D02*
X037441Y077060D01*
X037344Y076941D02*
X028381Y076941D01*
X028499Y076823D02*
X033992Y076823D01*
X033907Y076704D02*
X028618Y076704D01*
X027831Y076586D02*
X027716Y076586D01*
X027713Y076704D02*
X020760Y076704D01*
X020760Y076586D02*
X027405Y076586D01*
X027672Y075993D02*
X026289Y075993D01*
X026230Y075875D02*
X027791Y075875D01*
X027909Y075756D02*
X026108Y075756D01*
X028094Y073741D02*
X033289Y073741D01*
X033407Y073859D02*
X028212Y073859D01*
X028331Y073978D02*
X033526Y073978D01*
X033644Y074096D02*
X028450Y074096D01*
X028568Y074215D02*
X033763Y074215D01*
X033882Y074333D02*
X028687Y074333D01*
X028805Y074452D02*
X033990Y074452D01*
X033990Y074571D02*
X029724Y074571D01*
X029807Y074689D02*
X033990Y074689D01*
X034004Y074808D02*
X029830Y074808D01*
X029808Y074926D02*
X034074Y074926D01*
X034417Y075163D02*
X030468Y075163D01*
X030587Y075282D02*
X034299Y075282D01*
X034180Y075400D02*
X030706Y075400D01*
X030824Y075519D02*
X034061Y075519D01*
X033943Y075637D02*
X030943Y075637D01*
X031061Y075756D02*
X033824Y075756D01*
X033706Y075875D02*
X031307Y075875D01*
X031375Y075993D02*
X033545Y075993D01*
X033459Y076112D02*
X031380Y076112D01*
X031321Y076230D02*
X033440Y076230D01*
X034029Y076230D02*
X035549Y076230D01*
X035557Y076238D02*
X035481Y076163D01*
X035440Y076063D01*
X035440Y075956D01*
X035481Y075857D01*
X035540Y075798D01*
X035540Y075271D01*
X035481Y075213D01*
X035440Y075113D01*
X035440Y075006D01*
X035481Y074907D01*
X035557Y074831D01*
X035656Y074790D01*
X035764Y074790D01*
X035863Y074831D01*
X035939Y074907D01*
X035980Y075006D01*
X035980Y075113D01*
X035939Y075213D01*
X035880Y075271D01*
X035880Y075798D01*
X035939Y075857D01*
X035980Y075956D01*
X035980Y076063D01*
X035939Y076163D01*
X035863Y076238D01*
X035764Y076280D01*
X035656Y076280D01*
X035557Y076238D01*
X035460Y076112D02*
X034148Y076112D01*
X034266Y075993D02*
X035440Y075993D01*
X035474Y075875D02*
X034385Y075875D01*
X034503Y075756D02*
X035540Y075756D01*
X035540Y075637D02*
X034622Y075637D01*
X034740Y075519D02*
X035540Y075519D01*
X035540Y075400D02*
X034859Y075400D01*
X034977Y075282D02*
X035540Y075282D01*
X035461Y075163D02*
X035096Y075163D01*
X035214Y075045D02*
X035440Y075045D01*
X035473Y074926D02*
X035333Y074926D01*
X035452Y074808D02*
X035613Y074808D01*
X035570Y074689D02*
X036051Y074689D01*
X036040Y074571D02*
X035689Y074571D01*
X035807Y074452D02*
X036086Y074452D01*
X036126Y074808D02*
X035807Y074808D01*
X035947Y074926D02*
X036140Y074926D01*
X036140Y075045D02*
X035980Y075045D01*
X035960Y075163D02*
X036140Y075163D01*
X036140Y075282D02*
X035880Y075282D01*
X035880Y075400D02*
X036161Y075400D01*
X036279Y075519D02*
X035880Y075519D01*
X035880Y075637D02*
X036398Y075637D01*
X036516Y075756D02*
X035880Y075756D01*
X035946Y075875D02*
X036635Y075875D01*
X036740Y075993D02*
X035980Y075993D01*
X035960Y076112D02*
X036760Y076112D01*
X036849Y076230D02*
X035871Y076230D01*
X036641Y075400D02*
X037260Y075400D01*
X037260Y075282D02*
X036523Y075282D01*
X036480Y075163D02*
X037260Y075163D01*
X037260Y075045D02*
X036480Y075045D01*
X036480Y074926D02*
X037260Y074926D01*
X037260Y074808D02*
X036494Y074808D01*
X036570Y074689D02*
X037290Y074689D01*
X037340Y074571D02*
X036580Y074571D01*
X036534Y074452D02*
X037386Y074452D01*
X038030Y074452D02*
X038150Y074452D01*
X038150Y074571D02*
X038030Y074571D01*
X038030Y074689D02*
X038150Y074689D01*
X038150Y074808D02*
X038030Y074808D01*
X038067Y074926D02*
X037920Y074926D01*
X037949Y075045D02*
X037801Y075045D01*
X037830Y075163D02*
X037750Y075163D01*
X037260Y075519D02*
X036760Y075519D01*
X036878Y075637D02*
X037260Y075637D01*
X037260Y075756D02*
X037103Y075756D01*
X037246Y075875D02*
X037260Y075875D01*
X037260Y076112D02*
X037260Y076112D01*
X037260Y076230D02*
X037171Y076230D01*
X037320Y076823D02*
X034329Y076823D01*
X034536Y075045D02*
X029728Y075045D01*
X030360Y075310D02*
X031110Y076060D01*
X031448Y078364D02*
X029142Y078364D01*
X029180Y078482D02*
X031321Y078482D01*
X031115Y078957D02*
X030648Y078957D01*
X030523Y079312D02*
X029735Y079312D01*
X029780Y079431D02*
X031050Y079431D01*
X032201Y080024D02*
X035640Y080024D01*
X035661Y079905D02*
X032305Y079905D01*
X032330Y079786D02*
X035752Y079786D01*
X034654Y074926D02*
X034546Y074926D01*
X034616Y074808D02*
X034773Y074808D01*
X034891Y074689D02*
X034630Y074689D01*
X034630Y074571D02*
X035010Y074571D01*
X035128Y074452D02*
X034630Y074452D01*
X034630Y074333D02*
X035247Y074333D01*
X035365Y074215D02*
X034617Y074215D01*
X034550Y074096D02*
X035484Y074096D01*
X035603Y073978D02*
X034431Y073978D01*
X034312Y073859D02*
X035721Y073859D01*
X035840Y073741D02*
X034194Y073741D01*
X034075Y073622D02*
X035958Y073622D01*
X035970Y073504D02*
X033957Y073504D01*
X033838Y073385D02*
X035970Y073385D01*
X035970Y073267D02*
X033730Y073267D01*
X033730Y073148D02*
X035680Y073148D01*
X035568Y073029D02*
X033730Y073029D01*
X033730Y072911D02*
X035540Y072911D01*
X035566Y072792D02*
X033730Y072792D01*
X033730Y072674D02*
X035640Y072674D01*
X035640Y072555D02*
X033730Y072555D01*
X033730Y072437D02*
X035640Y072437D01*
X035640Y072318D02*
X033730Y072318D01*
X033730Y072200D02*
X035619Y072200D01*
X035548Y072081D02*
X033730Y072081D01*
X033730Y071963D02*
X035540Y071963D01*
X035594Y071844D02*
X033730Y071844D01*
X033730Y071726D02*
X035970Y071726D01*
X035958Y071607D02*
X033730Y071607D01*
X033730Y071488D02*
X035940Y071488D01*
X035976Y071370D02*
X033730Y071370D01*
X033090Y072200D02*
X020760Y072200D01*
X020760Y072318D02*
X033090Y072318D01*
X033090Y072437D02*
X020760Y072437D01*
X020760Y072555D02*
X033090Y072555D01*
X033090Y072674D02*
X020760Y072674D01*
X020760Y072792D02*
X033090Y072792D01*
X033090Y072911D02*
X020760Y072911D01*
X020760Y073029D02*
X033090Y073029D01*
X033090Y073148D02*
X020760Y073148D01*
X022968Y071726D02*
X023053Y071726D01*
X025172Y069236D02*
X033090Y069236D01*
X033090Y069118D02*
X025239Y069118D01*
X025288Y068999D02*
X033090Y068999D01*
X033090Y068880D02*
X025296Y068880D01*
X025296Y068762D02*
X033090Y068762D01*
X032891Y068643D02*
X025257Y068643D01*
X025207Y068525D02*
X032773Y068525D01*
X033863Y068051D02*
X034157Y068051D01*
X034106Y067932D02*
X033914Y067932D01*
X033930Y067814D02*
X034090Y067814D01*
X034090Y067695D02*
X033930Y067695D01*
X033930Y067576D02*
X034090Y067576D01*
X034090Y067458D02*
X033930Y067458D01*
X033930Y067339D02*
X034090Y067339D01*
X034090Y067221D02*
X033930Y067221D01*
X033920Y067102D02*
X034100Y067102D01*
X034149Y066984D02*
X033871Y066984D01*
X033760Y066865D02*
X034261Y066865D01*
X034760Y066865D02*
X035261Y066865D01*
X035149Y066984D02*
X034871Y066984D01*
X034920Y067102D02*
X035100Y067102D01*
X035090Y067221D02*
X034930Y067221D01*
X034930Y067339D02*
X035090Y067339D01*
X035090Y067458D02*
X034930Y067458D01*
X034930Y067576D02*
X035090Y067576D01*
X035090Y067695D02*
X034930Y067695D01*
X034930Y067814D02*
X035054Y067814D01*
X034935Y067932D02*
X034914Y067932D01*
X035739Y068169D02*
X036223Y068169D01*
X036117Y068051D02*
X036084Y067986D01*
X036062Y067917D01*
X036050Y067814D02*
X035930Y067814D01*
X035930Y067695D02*
X036050Y067695D01*
X036050Y067576D02*
X035930Y067576D01*
X035930Y067458D02*
X036050Y067458D01*
X036050Y067339D02*
X035930Y067339D01*
X035930Y067221D02*
X036050Y067221D01*
X036061Y067102D02*
X035920Y067102D01*
X035871Y066984D02*
X036109Y066984D01*
X036204Y066865D02*
X035760Y066865D01*
X036470Y067576D02*
X036550Y067576D01*
X036550Y067695D02*
X036470Y067695D01*
X036470Y067814D02*
X036550Y067814D01*
X036550Y067932D02*
X036470Y067932D01*
X036470Y068051D02*
X036550Y068051D01*
X036550Y068169D02*
X036470Y068169D01*
X036798Y068169D02*
X037223Y068169D01*
X037470Y068169D02*
X037550Y068169D01*
X037550Y068051D02*
X037470Y068051D01*
X037470Y067932D02*
X037550Y067932D01*
X037550Y067814D02*
X037470Y067814D01*
X037470Y067695D02*
X037550Y067695D01*
X037550Y067576D02*
X037470Y067576D01*
X037050Y067576D02*
X036970Y067576D01*
X036970Y067458D02*
X037050Y067458D01*
X037050Y067339D02*
X036970Y067339D01*
X036970Y067221D02*
X037050Y067221D01*
X037061Y067102D02*
X036959Y067102D01*
X036911Y066984D02*
X037109Y066984D01*
X037204Y066865D02*
X036816Y066865D01*
X036970Y067695D02*
X037050Y067695D01*
X037050Y067814D02*
X036970Y067814D01*
X037798Y068169D02*
X038281Y068169D01*
X038090Y067814D02*
X037970Y067814D01*
X037970Y067695D02*
X038090Y067695D01*
X038090Y067576D02*
X037970Y067576D01*
X037970Y067458D02*
X038090Y067458D01*
X038090Y067339D02*
X037970Y067339D01*
X037970Y067221D02*
X038090Y067221D01*
X038100Y067102D02*
X037959Y067102D01*
X037911Y066984D02*
X038149Y066984D01*
X038261Y066865D02*
X037816Y066865D01*
X038760Y066865D02*
X040261Y066865D01*
X040272Y066854D02*
X040427Y066790D01*
X040594Y066790D01*
X040748Y066854D01*
X040866Y066972D01*
X040930Y067126D01*
X040930Y067893D01*
X040866Y068047D01*
X040748Y068166D01*
X040594Y068230D01*
X040427Y068230D01*
X040272Y068166D01*
X040154Y068047D01*
X040090Y067893D01*
X040090Y067126D01*
X040154Y066972D01*
X040272Y066854D01*
X040149Y066984D02*
X038871Y066984D01*
X038920Y067102D02*
X040100Y067102D01*
X040090Y067221D02*
X038930Y067221D01*
X038930Y067339D02*
X040090Y067339D01*
X040090Y067458D02*
X038930Y067458D01*
X038930Y067576D02*
X040090Y067576D01*
X040090Y067695D02*
X038930Y067695D01*
X038930Y067814D02*
X040090Y067814D01*
X040106Y067932D02*
X038914Y067932D01*
X038863Y068051D02*
X040157Y068051D01*
X040281Y068169D02*
X038739Y068169D01*
X040739Y068169D02*
X041281Y068169D01*
X041272Y068166D02*
X041154Y068047D01*
X041090Y067893D01*
X041090Y067126D01*
X041154Y066972D01*
X041272Y066854D01*
X041427Y066790D01*
X041594Y066790D01*
X041748Y066854D01*
X041866Y066972D01*
X041930Y067126D01*
X041930Y067893D01*
X041866Y068047D01*
X041748Y068166D01*
X041594Y068230D01*
X041427Y068230D01*
X041272Y068166D01*
X041157Y068051D02*
X040863Y068051D01*
X040914Y067932D02*
X041106Y067932D01*
X041090Y067814D02*
X040930Y067814D01*
X040930Y067695D02*
X041090Y067695D01*
X041090Y067576D02*
X040930Y067576D01*
X040930Y067458D02*
X041090Y067458D01*
X041090Y067339D02*
X040930Y067339D01*
X040930Y067221D02*
X041090Y067221D01*
X041100Y067102D02*
X040920Y067102D01*
X040871Y066984D02*
X041149Y066984D01*
X041261Y066865D02*
X040760Y066865D01*
X041760Y066865D02*
X042261Y066865D01*
X042272Y066854D02*
X042427Y066790D01*
X042594Y066790D01*
X042748Y066854D01*
X042866Y066972D01*
X042930Y067126D01*
X042930Y067893D01*
X042866Y068047D01*
X042748Y068166D01*
X042594Y068230D01*
X042427Y068230D01*
X042272Y068166D01*
X042154Y068047D01*
X042090Y067893D01*
X042090Y067126D01*
X042154Y066972D01*
X042272Y066854D01*
X042149Y066984D02*
X041871Y066984D01*
X041920Y067102D02*
X042100Y067102D01*
X042090Y067221D02*
X041930Y067221D01*
X041930Y067339D02*
X042090Y067339D01*
X042090Y067458D02*
X041930Y067458D01*
X041930Y067576D02*
X042090Y067576D01*
X042090Y067695D02*
X041930Y067695D01*
X041930Y067814D02*
X042090Y067814D01*
X042106Y067932D02*
X041914Y067932D01*
X041863Y068051D02*
X042157Y068051D01*
X042281Y068169D02*
X041739Y068169D01*
X042739Y068169D02*
X043281Y068169D01*
X043157Y068051D02*
X042863Y068051D01*
X042914Y067932D02*
X043106Y067932D01*
X043090Y067814D02*
X042930Y067814D01*
X042930Y067695D02*
X043090Y067695D01*
X043090Y067576D02*
X042930Y067576D01*
X042930Y067458D02*
X043090Y067458D01*
X043090Y067339D02*
X042930Y067339D01*
X042930Y067221D02*
X043090Y067221D01*
X043100Y067102D02*
X042920Y067102D01*
X042871Y066984D02*
X043149Y066984D01*
X043261Y066865D02*
X042760Y066865D01*
X035970Y073148D02*
X035940Y073148D01*
X033170Y073622D02*
X027975Y073622D01*
X027857Y073504D02*
X033103Y073504D01*
X033090Y073385D02*
X027738Y073385D01*
X027589Y073267D02*
X033090Y073267D01*
X038696Y085832D02*
X039324Y085832D01*
X039272Y085854D02*
X039427Y085790D01*
X039594Y085790D01*
X039748Y085854D01*
X039866Y085972D01*
X039930Y086126D01*
X039930Y086893D01*
X039866Y087047D01*
X039748Y087166D01*
X039594Y087230D01*
X039427Y087230D01*
X039272Y087166D01*
X039154Y087047D01*
X039090Y086893D01*
X039090Y086126D01*
X039154Y085972D01*
X039272Y085854D01*
X039175Y085951D02*
X038845Y085951D01*
X038907Y086069D02*
X039114Y086069D01*
X039090Y086188D02*
X038930Y086188D01*
X038930Y086306D02*
X039090Y086306D01*
X039090Y086425D02*
X038930Y086425D01*
X038930Y086543D02*
X039090Y086543D01*
X039090Y086662D02*
X038930Y086662D01*
X038930Y086781D02*
X039090Y086781D01*
X039093Y086899D02*
X038928Y086899D01*
X038879Y087018D02*
X039142Y087018D01*
X039243Y087136D02*
X038778Y087136D01*
X039778Y087136D02*
X040243Y087136D01*
X040272Y087166D02*
X040154Y087047D01*
X040090Y086893D01*
X040090Y086126D01*
X040154Y085972D01*
X040272Y085854D01*
X040427Y085790D01*
X040594Y085790D01*
X040748Y085854D01*
X040866Y085972D01*
X040930Y086126D01*
X040930Y086893D01*
X040866Y087047D01*
X040748Y087166D01*
X040594Y087230D01*
X040427Y087230D01*
X040272Y087166D01*
X040142Y087018D02*
X039879Y087018D01*
X039928Y086899D02*
X040093Y086899D01*
X040090Y086781D02*
X039930Y086781D01*
X039930Y086662D02*
X040090Y086662D01*
X040090Y086543D02*
X039930Y086543D01*
X039930Y086425D02*
X040090Y086425D01*
X040090Y086306D02*
X039930Y086306D01*
X039930Y086188D02*
X040090Y086188D01*
X040114Y086069D02*
X039907Y086069D01*
X039845Y085951D02*
X040175Y085951D01*
X040324Y085832D02*
X039696Y085832D01*
X040696Y085832D02*
X041324Y085832D01*
X041272Y085854D02*
X041427Y085790D01*
X041594Y085790D01*
X041748Y085854D01*
X041866Y085972D01*
X041930Y086126D01*
X041930Y086893D01*
X041866Y087047D01*
X041748Y087166D01*
X041594Y087230D01*
X041427Y087230D01*
X041272Y087166D01*
X041154Y087047D01*
X041090Y086893D01*
X041090Y086126D01*
X041154Y085972D01*
X041272Y085854D01*
X041175Y085951D02*
X040845Y085951D01*
X040907Y086069D02*
X041114Y086069D01*
X041090Y086188D02*
X040930Y086188D01*
X040930Y086306D02*
X041090Y086306D01*
X041090Y086425D02*
X040930Y086425D01*
X040930Y086543D02*
X041090Y086543D01*
X041090Y086662D02*
X040930Y086662D01*
X040930Y086781D02*
X041090Y086781D01*
X041093Y086899D02*
X040928Y086899D01*
X040879Y087018D02*
X041142Y087018D01*
X041243Y087136D02*
X040778Y087136D01*
X041778Y087136D02*
X042243Y087136D01*
X042272Y087166D02*
X042154Y087047D01*
X042090Y086893D01*
X042090Y086126D01*
X042154Y085972D01*
X042272Y085854D01*
X042427Y085790D01*
X042594Y085790D01*
X042748Y085854D01*
X042866Y085972D01*
X042930Y086126D01*
X042930Y086893D01*
X042866Y087047D01*
X042748Y087166D01*
X042594Y087230D01*
X042427Y087230D01*
X042272Y087166D01*
X042142Y087018D02*
X041879Y087018D01*
X041928Y086899D02*
X042093Y086899D01*
X042090Y086781D02*
X041930Y086781D01*
X041930Y086662D02*
X042090Y086662D01*
X042090Y086543D02*
X041930Y086543D01*
X041930Y086425D02*
X042090Y086425D01*
X042090Y086306D02*
X041930Y086306D01*
X041930Y086188D02*
X042090Y086188D01*
X042114Y086069D02*
X041907Y086069D01*
X041845Y085951D02*
X042175Y085951D01*
X042324Y085832D02*
X041696Y085832D01*
X042696Y085832D02*
X043324Y085832D01*
X043272Y085854D02*
X043427Y085790D01*
X043594Y085790D01*
X043748Y085854D01*
X043866Y085972D01*
X043930Y086126D01*
X043930Y086893D01*
X043866Y087047D01*
X043748Y087166D01*
X043594Y087230D01*
X043427Y087230D01*
X043272Y087166D01*
X043154Y087047D01*
X043090Y086893D01*
X043090Y086126D01*
X043154Y085972D01*
X043272Y085854D01*
X043175Y085951D02*
X042845Y085951D01*
X042907Y086069D02*
X043114Y086069D01*
X043090Y086188D02*
X042930Y086188D01*
X042930Y086306D02*
X043090Y086306D01*
X043090Y086425D02*
X042930Y086425D01*
X042930Y086543D02*
X043090Y086543D01*
X043090Y086662D02*
X042930Y086662D01*
X042930Y086781D02*
X043090Y086781D01*
X043093Y086899D02*
X042928Y086899D01*
X042879Y087018D02*
X043142Y087018D01*
X043243Y087136D02*
X042778Y087136D01*
X043778Y087136D02*
X044243Y087136D01*
X044272Y087166D02*
X044154Y087047D01*
X044090Y086893D01*
X044090Y086126D01*
X044154Y085972D01*
X044272Y085854D01*
X044427Y085790D01*
X044594Y085790D01*
X044748Y085854D01*
X044866Y085972D01*
X044930Y086126D01*
X044930Y086893D01*
X044866Y087047D01*
X044748Y087166D01*
X044594Y087230D01*
X044427Y087230D01*
X044272Y087166D01*
X044142Y087018D02*
X043879Y087018D01*
X043928Y086899D02*
X044093Y086899D01*
X044090Y086781D02*
X043930Y086781D01*
X043930Y086662D02*
X044090Y086662D01*
X044090Y086543D02*
X043930Y086543D01*
X043930Y086425D02*
X044090Y086425D01*
X044090Y086306D02*
X043930Y086306D01*
X043930Y086188D02*
X044090Y086188D01*
X044114Y086069D02*
X043907Y086069D01*
X043845Y085951D02*
X044175Y085951D01*
X044324Y085832D02*
X043696Y085832D01*
X044696Y085832D02*
X045324Y085832D01*
X045272Y085854D02*
X045427Y085790D01*
X045594Y085790D01*
X045748Y085854D01*
X045866Y085972D01*
X045930Y086126D01*
X045930Y086893D01*
X045866Y087047D01*
X045748Y087166D01*
X045594Y087230D01*
X045427Y087230D01*
X045272Y087166D01*
X045154Y087047D01*
X045090Y086893D01*
X045090Y086126D01*
X045154Y085972D01*
X045272Y085854D01*
X045175Y085951D02*
X044845Y085951D01*
X044907Y086069D02*
X045114Y086069D01*
X045090Y086188D02*
X044930Y086188D01*
X044930Y086306D02*
X045090Y086306D01*
X045090Y086425D02*
X044930Y086425D01*
X044930Y086543D02*
X045090Y086543D01*
X045090Y086662D02*
X044930Y086662D01*
X044930Y086781D02*
X045090Y086781D01*
X045093Y086899D02*
X044928Y086899D01*
X044879Y087018D02*
X045142Y087018D01*
X045243Y087136D02*
X044778Y087136D01*
X045778Y087136D02*
X047243Y087136D01*
X047272Y087166D02*
X047154Y087047D01*
X047090Y086893D01*
X047090Y086126D01*
X047154Y085972D01*
X047272Y085854D01*
X047427Y085790D01*
X047594Y085790D01*
X047748Y085854D01*
X047866Y085972D01*
X047930Y086126D01*
X047930Y086893D01*
X047866Y087047D01*
X047748Y087166D01*
X047594Y087230D01*
X047427Y087230D01*
X047272Y087166D01*
X047142Y087018D02*
X045879Y087018D01*
X045928Y086899D02*
X047093Y086899D01*
X047090Y086781D02*
X045930Y086781D01*
X045930Y086662D02*
X047090Y086662D01*
X047090Y086543D02*
X045930Y086543D01*
X045930Y086425D02*
X047090Y086425D01*
X047090Y086306D02*
X045930Y086306D01*
X045930Y086188D02*
X047090Y086188D01*
X047114Y086069D02*
X045907Y086069D01*
X045845Y085951D02*
X047175Y085951D01*
X047324Y085832D02*
X045696Y085832D01*
X047696Y085832D02*
X048324Y085832D01*
X048272Y085854D02*
X048427Y085790D01*
X048594Y085790D01*
X048748Y085854D01*
X048866Y085972D01*
X048930Y086126D01*
X048930Y086893D01*
X048866Y087047D01*
X048748Y087166D01*
X048594Y087230D01*
X048427Y087230D01*
X048272Y087166D01*
X048154Y087047D01*
X048090Y086893D01*
X048090Y086126D01*
X048154Y085972D01*
X048272Y085854D01*
X048175Y085951D02*
X047845Y085951D01*
X047907Y086069D02*
X048114Y086069D01*
X048090Y086188D02*
X047930Y086188D01*
X047930Y086306D02*
X048090Y086306D01*
X048090Y086425D02*
X047930Y086425D01*
X047930Y086543D02*
X048090Y086543D01*
X048090Y086662D02*
X047930Y086662D01*
X047930Y086781D02*
X048090Y086781D01*
X048093Y086899D02*
X047928Y086899D01*
X047879Y087018D02*
X048142Y087018D01*
X048243Y087136D02*
X047778Y087136D01*
X048778Y087136D02*
X049243Y087136D01*
X049272Y087166D02*
X049154Y087047D01*
X049090Y086893D01*
X049090Y086126D01*
X049154Y085972D01*
X049272Y085854D01*
X049427Y085790D01*
X049594Y085790D01*
X049748Y085854D01*
X049866Y085972D01*
X049930Y086126D01*
X049930Y086893D01*
X049866Y087047D01*
X049748Y087166D01*
X049594Y087230D01*
X049427Y087230D01*
X049272Y087166D01*
X049142Y087018D02*
X048879Y087018D01*
X048928Y086899D02*
X049093Y086899D01*
X049090Y086781D02*
X048930Y086781D01*
X048930Y086662D02*
X049090Y086662D01*
X049090Y086543D02*
X048930Y086543D01*
X048930Y086425D02*
X049090Y086425D01*
X049090Y086306D02*
X048930Y086306D01*
X048930Y086188D02*
X049090Y086188D01*
X049114Y086069D02*
X048907Y086069D01*
X048845Y085951D02*
X049175Y085951D01*
X049324Y085832D02*
X048696Y085832D01*
X049696Y085832D02*
X050324Y085832D01*
X050175Y085951D02*
X049845Y085951D01*
X049907Y086069D02*
X050114Y086069D01*
X050090Y086188D02*
X049930Y086188D01*
X049930Y086306D02*
X050090Y086306D01*
X050090Y086425D02*
X049930Y086425D01*
X049930Y086543D02*
X050090Y086543D01*
X050090Y086662D02*
X049930Y086662D01*
X049930Y086781D02*
X050090Y086781D01*
X050093Y086899D02*
X049928Y086899D01*
X049879Y087018D02*
X050142Y087018D01*
X050243Y087136D02*
X049778Y087136D01*
X054686Y083224D02*
X057202Y083224D01*
X057320Y083106D02*
X054826Y083106D01*
X055595Y084054D02*
X059300Y084054D01*
X059300Y084173D02*
X058767Y084173D01*
X058886Y084291D02*
X059300Y084291D01*
X059300Y084410D02*
X058930Y084410D01*
X058930Y084528D02*
X059300Y084528D01*
X059300Y084647D02*
X058930Y084647D01*
X058848Y084765D02*
X059300Y084765D01*
X057305Y085121D02*
X056662Y085121D01*
X056780Y085239D02*
X057186Y085239D01*
X057090Y085358D02*
X056899Y085358D01*
X057018Y085477D02*
X057090Y085477D01*
D23*
X054810Y082910D02*
X054810Y078310D01*
X054010Y078310D02*
X053610Y078710D01*
X053610Y083460D01*
X054160Y083460D02*
X054810Y082910D01*
X052160Y082120D02*
X052160Y080760D01*
X052610Y080310D01*
X052610Y078310D01*
X052310Y078010D02*
X052310Y080110D01*
X050910Y081510D01*
X050910Y082760D01*
X050510Y082070D02*
X050510Y077510D01*
X049910Y076910D01*
X050350Y076510D02*
X057510Y076510D01*
X057230Y076990D02*
X058030Y076990D01*
X058510Y076510D01*
X058810Y076010D02*
X059110Y076310D01*
X059110Y076910D01*
X058510Y077510D01*
X057510Y077510D02*
X056910Y077510D01*
X056710Y077310D01*
X052010Y077310D01*
X050990Y076670D02*
X056910Y076670D01*
X057230Y076990D01*
X058810Y076010D02*
X050610Y076010D01*
X050990Y076670D02*
X050670Y076990D01*
X049910Y077610D02*
X049810Y077510D01*
X049910Y077610D02*
X049910Y082070D01*
X048390Y081990D02*
X048110Y081710D01*
X047990Y081590D01*
X047990Y079390D01*
X048110Y079270D01*
X048110Y078990D01*
X047830Y078710D02*
X047830Y082550D01*
X045150Y080990D02*
X045150Y079950D01*
X045390Y079710D01*
X045390Y079350D01*
X045350Y079030D02*
X044950Y079430D01*
X044950Y080150D01*
X044630Y080470D01*
X044030Y080470D01*
X043670Y080390D02*
X043670Y080750D01*
X043670Y080390D02*
X044110Y079950D01*
X044110Y079750D01*
X044950Y078910D01*
X044950Y078550D01*
X045510Y078630D02*
X045510Y078390D01*
X045510Y078630D02*
X044390Y079750D01*
X044390Y080030D01*
X043790Y079830D02*
X044310Y079310D01*
X044310Y078750D01*
X045430Y077630D01*
X046150Y077630D01*
X046150Y077270D02*
X045470Y077270D01*
X044030Y078710D01*
X045350Y079030D02*
X045670Y079030D01*
X046550Y078150D01*
X046550Y077630D01*
X046830Y076990D02*
X044750Y076990D01*
X044670Y077070D01*
X042630Y077070D01*
X042470Y076910D01*
X042470Y076470D01*
X042750Y076790D02*
X043030Y076790D01*
X043110Y076870D01*
X043550Y076870D01*
X043630Y076790D01*
X047030Y076790D01*
X047670Y077430D01*
X047270Y077430D02*
X046830Y076990D01*
X048030Y076910D02*
X048930Y076010D01*
X049610Y076010D01*
X049350Y075350D02*
X048510Y075350D01*
X048350Y075510D01*
X048350Y075670D01*
X048190Y075830D01*
X043710Y075830D01*
X043590Y075950D01*
X043920Y075460D02*
X041410Y075460D01*
X040610Y074660D01*
X039910Y074150D02*
X039910Y075190D01*
X041110Y076390D01*
X041110Y078470D01*
X040830Y078310D02*
X040830Y078870D01*
X040510Y078510D02*
X040510Y078350D01*
X040790Y078070D01*
X040790Y076470D01*
X039590Y075270D01*
X039590Y074070D01*
X040550Y073110D01*
X040550Y071550D01*
X041110Y070990D01*
X047350Y070990D01*
X047990Y070350D01*
X047990Y069790D01*
X048320Y069460D01*
X050460Y069460D01*
X050750Y069750D01*
X050750Y070150D01*
X050470Y069910D02*
X050470Y069710D01*
X050370Y069610D01*
X048370Y069610D01*
X048150Y069830D01*
X048150Y070390D01*
X047390Y071150D01*
X041150Y071150D01*
X040710Y071590D01*
X040710Y073150D01*
X039750Y074110D01*
X039750Y075230D01*
X040950Y076430D01*
X040950Y078190D01*
X040830Y078310D01*
X040630Y077990D02*
X040230Y078390D01*
X040230Y078870D01*
X040630Y077990D02*
X040630Y076510D01*
X039430Y075310D01*
X039430Y074030D01*
X040390Y073070D01*
X040390Y071510D01*
X041070Y070830D01*
X047310Y070830D01*
X047830Y070310D01*
X047830Y069750D01*
X048270Y069310D01*
X050630Y069310D01*
X051030Y069710D01*
X051030Y069870D01*
X051310Y069710D02*
X051310Y070150D01*
X051590Y070390D02*
X051390Y070590D01*
X051590Y070390D02*
X051590Y069790D01*
X050810Y069010D01*
X048170Y069010D01*
X047510Y069670D01*
X047510Y070230D01*
X047230Y070510D01*
X040990Y070510D01*
X040070Y071430D01*
X040070Y072990D01*
X039110Y073950D01*
X039110Y075470D01*
X039350Y075710D01*
X039350Y076390D01*
X039630Y076110D02*
X039630Y075750D01*
X039270Y075390D01*
X039270Y073990D01*
X040230Y073030D01*
X040230Y071470D01*
X041030Y070670D01*
X047270Y070670D01*
X047670Y070270D01*
X047670Y069710D01*
X048220Y069160D01*
X050760Y069160D01*
X051310Y069710D01*
X051750Y069750D02*
X050860Y068860D01*
X048120Y068860D01*
X047350Y069630D01*
X047350Y070190D01*
X047190Y070350D01*
X040950Y070350D01*
X039910Y071390D01*
X039910Y072950D01*
X038950Y073910D01*
X038950Y075710D01*
X038830Y075830D01*
X038830Y076110D01*
X038350Y075830D02*
X038790Y075390D01*
X038790Y073870D01*
X039750Y072910D01*
X039750Y071350D01*
X040910Y070190D01*
X043950Y070190D01*
X045430Y068690D01*
X050890Y068690D01*
X052110Y069910D01*
X052110Y070790D01*
X051750Y070750D02*
X051750Y069750D01*
X052430Y069950D02*
X051020Y068540D01*
X045380Y068540D01*
X043910Y070030D01*
X040870Y070030D01*
X039590Y071310D01*
X039590Y072110D01*
X039190Y072510D01*
X039190Y073270D01*
X038630Y073830D01*
X038630Y075070D01*
X038070Y075630D01*
X038070Y076110D01*
X038670Y076710D01*
X039590Y076710D01*
X039710Y076590D01*
X040190Y076590D01*
X039910Y076870D02*
X038630Y076870D01*
X037910Y076150D01*
X037910Y075550D01*
X038470Y074990D01*
X038470Y073790D01*
X039030Y073230D01*
X039030Y072470D01*
X039430Y072070D01*
X039430Y071270D01*
X040830Y069870D01*
X043870Y069870D01*
X045330Y068390D01*
X051150Y068390D01*
X052750Y069990D01*
X052750Y070750D01*
X052430Y070990D02*
X052430Y069950D01*
X053070Y069990D02*
X051320Y068240D01*
X045240Y068240D01*
X043790Y069710D01*
X040790Y069710D01*
X039270Y071230D01*
X039270Y072030D01*
X038870Y072430D01*
X038870Y073190D01*
X038310Y073750D01*
X038310Y074910D01*
X037750Y075470D01*
X037750Y076190D01*
X038710Y077150D01*
X039630Y077150D01*
X037590Y076830D02*
X037590Y075030D01*
X037870Y074750D01*
X037870Y072470D01*
X037910Y072430D01*
X037910Y072190D01*
X039910Y074150D02*
X040870Y073190D01*
X040870Y071630D01*
X041190Y071310D01*
X047430Y071310D01*
X048310Y070430D01*
X048310Y069910D01*
X048460Y069760D01*
X049920Y069760D01*
X050070Y069910D01*
X049710Y070030D02*
X049710Y070590D01*
X048750Y071550D01*
X048750Y072510D01*
X047830Y073430D01*
X047390Y073430D01*
X046590Y074230D01*
X046430Y073870D02*
X047030Y073270D01*
X047790Y073270D01*
X048590Y072470D01*
X048590Y071430D01*
X049430Y070590D01*
X049430Y070310D01*
X049150Y070030D02*
X049150Y070590D01*
X048430Y071310D01*
X048430Y072430D01*
X047750Y073110D01*
X046670Y073110D01*
X046270Y073510D01*
X046110Y073150D02*
X046310Y072950D01*
X047710Y072950D01*
X048270Y072390D01*
X048270Y071190D01*
X048870Y070590D01*
X048870Y070310D01*
X048590Y070550D02*
X048110Y071030D01*
X048110Y072310D01*
X047630Y072790D01*
X045950Y072790D01*
X045190Y071590D02*
X041350Y071590D01*
X041590Y072430D02*
X041590Y074030D01*
X041870Y074310D02*
X041870Y072750D01*
X042150Y072430D02*
X042150Y074030D01*
X042430Y074310D02*
X042430Y072750D01*
X042710Y072430D02*
X042710Y074630D01*
X042990Y074910D02*
X042990Y072750D01*
X043270Y072430D02*
X043270Y074790D01*
X043390Y074910D01*
X043550Y074630D02*
X043830Y074910D01*
X043550Y074630D02*
X043550Y072750D01*
X041310Y072750D02*
X041310Y073750D01*
X043920Y075460D02*
X044170Y075210D01*
X049010Y075210D01*
X050210Y074010D01*
X050710Y074510D01*
X051510Y074510D01*
X051510Y073510D02*
X050910Y072910D01*
X049710Y072910D01*
X049310Y072910D02*
X049310Y074210D01*
X049110Y074410D01*
X049010Y074410D01*
X049010Y074010D02*
X049010Y073450D01*
X048910Y073350D01*
X048910Y073170D01*
X050210Y073410D02*
X050210Y074010D01*
X050190Y074510D02*
X049350Y075350D01*
X050010Y072410D02*
X051410Y072410D01*
X051510Y072510D01*
X053070Y070990D02*
X053070Y069990D01*
X048590Y070030D02*
X048590Y070550D01*
X035910Y080010D02*
X035910Y086510D01*
X036910Y086510D02*
X036910Y081970D01*
X037510Y082110D02*
X037910Y082510D01*
X039910Y082510D01*
X040670Y081750D01*
X044390Y081750D01*
X045150Y080990D01*
X044110Y081470D02*
X040110Y081470D01*
X039470Y082110D01*
X037790Y083670D02*
X037790Y085390D01*
X038510Y086110D01*
X038510Y086510D01*
X035270Y082230D02*
X035270Y081310D01*
X034590Y080630D01*
X032910Y080630D01*
X032110Y081430D01*
X028790Y081430D01*
X028310Y081150D02*
X032190Y081150D01*
X032870Y080470D01*
X034630Y080470D01*
X035430Y081270D01*
X035430Y081510D01*
X035590Y081670D01*
X034710Y081510D02*
X030810Y085410D01*
X029410Y085410D01*
X030230Y084310D02*
X031150Y084310D01*
X034010Y081210D01*
X029510Y079790D02*
X029510Y079470D01*
X029510Y079790D02*
X028870Y080430D01*
X028310Y081150D02*
X028270Y081190D01*
X028710Y078510D02*
X028210Y078010D01*
X028710Y078510D02*
X028910Y078510D01*
D24*
X030250Y081910D02*
X031250Y081910D01*
X031470Y082130D01*
M02*
