G75*
G70*
%OFA0B0*%
%FSLAX24Y24*%
%IPPOS*%
%LPD*%
%AMOC8*
5,1,8,0,0,1.08239X$1,22.5*
%
%ADD10C,0.0036*%
%ADD11C,0.0085*%
%ADD12C,0.0035*%
%ADD13C,0.0026*%
%ADD14C,0.0035*%
%ADD15C,0.0035*%
%ADD16C,0.0032*%
%ADD17C,0.0197*%
%ADD18C,0.0067*%
%ADD19C,0.0046*%
%ADD20C,0.0032*%
%ADD21C,0.0052*%
%ADD22C,0.0027*%
%ADD23C,0.0058*%
%ADD24C,0.0024*%
%ADD25C,0.0057*%
%ADD26C,0.0039*%
%ADD27C,0.0050*%
%ADD28C,0.0025*%
%ADD29C,0.0028*%
%ADD30C,0.0027*%
%ADD31C,0.0089*%
%ADD32C,0.0112*%
D10*
X036234Y077841D02*
X036234Y078079D01*
X036234Y077841D02*
X035996Y077841D01*
X035996Y078079D01*
X036234Y078079D01*
X036234Y077876D02*
X035996Y077876D01*
X035996Y077911D02*
X036234Y077911D01*
X036234Y077946D02*
X035996Y077946D01*
X035996Y077981D02*
X036234Y077981D01*
X036234Y078016D02*
X035996Y078016D01*
X035996Y078051D02*
X036234Y078051D01*
X036825Y078079D02*
X036825Y077841D01*
X036587Y077841D01*
X036587Y078079D01*
X036825Y078079D01*
X036825Y077876D02*
X036587Y077876D01*
X036587Y077911D02*
X036825Y077911D01*
X036825Y077946D02*
X036587Y077946D01*
X036587Y077981D02*
X036825Y077981D01*
X036825Y078016D02*
X036587Y078016D01*
X036587Y078051D02*
X036825Y078051D01*
X037604Y080961D02*
X037604Y081199D01*
X037604Y080961D02*
X037366Y080961D01*
X037366Y081199D01*
X037604Y081199D01*
X037604Y080996D02*
X037366Y080996D01*
X037366Y081031D02*
X037604Y081031D01*
X037604Y081066D02*
X037366Y081066D01*
X037366Y081101D02*
X037604Y081101D01*
X037604Y081136D02*
X037366Y081136D01*
X037366Y081171D02*
X037604Y081171D01*
X038195Y081199D02*
X038195Y080961D01*
X037957Y080961D01*
X037957Y081199D01*
X038195Y081199D01*
X038195Y080996D02*
X037957Y080996D01*
X037957Y081031D02*
X038195Y081031D01*
X038195Y081066D02*
X037957Y081066D01*
X037957Y081101D02*
X038195Y081101D01*
X038195Y081136D02*
X037957Y081136D01*
X037957Y081171D02*
X038195Y081171D01*
X039034Y081199D02*
X039034Y080961D01*
X038796Y080961D01*
X038796Y081199D01*
X039034Y081199D01*
X039034Y080996D02*
X038796Y080996D01*
X038796Y081031D02*
X039034Y081031D01*
X039034Y081066D02*
X038796Y081066D01*
X038796Y081101D02*
X039034Y081101D01*
X039034Y081136D02*
X038796Y081136D01*
X038796Y081171D02*
X039034Y081171D01*
X039625Y081199D02*
X039625Y080961D01*
X039387Y080961D01*
X039387Y081199D01*
X039625Y081199D01*
X039625Y080996D02*
X039387Y080996D01*
X039387Y081031D02*
X039625Y081031D01*
X039625Y081066D02*
X039387Y081066D01*
X039387Y081101D02*
X039625Y081101D01*
X039625Y081136D02*
X039387Y081136D01*
X039387Y081171D02*
X039625Y081171D01*
X040384Y078079D02*
X040384Y077841D01*
X040146Y077841D01*
X040146Y078079D01*
X040384Y078079D01*
X040384Y077876D02*
X040146Y077876D01*
X040146Y077911D02*
X040384Y077911D01*
X040384Y077946D02*
X040146Y077946D01*
X040146Y077981D02*
X040384Y077981D01*
X040384Y078016D02*
X040146Y078016D01*
X040146Y078051D02*
X040384Y078051D01*
X040975Y078079D02*
X040975Y077841D01*
X040737Y077841D01*
X040737Y078079D01*
X040975Y078079D01*
X040975Y077876D02*
X040737Y077876D01*
X040737Y077911D02*
X040975Y077911D01*
X040975Y077946D02*
X040737Y077946D01*
X040737Y077981D02*
X040975Y077981D01*
X040975Y078016D02*
X040737Y078016D01*
X040737Y078051D02*
X040975Y078051D01*
D11*
X027227Y070909D02*
X027227Y070143D01*
X027227Y070909D02*
X027993Y070909D01*
X027993Y070143D01*
X027227Y070143D01*
X027227Y070227D02*
X027993Y070227D01*
X027993Y070311D02*
X027227Y070311D01*
X027227Y070395D02*
X027993Y070395D01*
X027993Y070479D02*
X027227Y070479D01*
X027227Y070563D02*
X027993Y070563D01*
X027993Y070647D02*
X027227Y070647D01*
X027227Y070731D02*
X027993Y070731D01*
X027993Y070815D02*
X027227Y070815D01*
X027227Y070899D02*
X027993Y070899D01*
X027227Y069176D02*
X027227Y068410D01*
X027227Y069176D02*
X027993Y069176D01*
X027993Y068410D01*
X027227Y068410D01*
X027227Y068494D02*
X027993Y068494D01*
X027993Y068578D02*
X027227Y068578D01*
X027227Y068662D02*
X027993Y068662D01*
X027993Y068746D02*
X027227Y068746D01*
X027227Y068830D02*
X027993Y068830D01*
X027993Y068914D02*
X027227Y068914D01*
X027227Y068998D02*
X027993Y068998D01*
X027993Y069082D02*
X027227Y069082D01*
X027227Y069166D02*
X027993Y069166D01*
D12*
X028653Y069250D02*
X028855Y069250D01*
X028855Y068970D01*
X028653Y068970D01*
X028653Y069250D01*
X028653Y069004D02*
X028855Y069004D01*
X028855Y069038D02*
X028653Y069038D01*
X028653Y069072D02*
X028855Y069072D01*
X028855Y069106D02*
X028653Y069106D01*
X028653Y069140D02*
X028855Y069140D01*
X028855Y069174D02*
X028653Y069174D01*
X028653Y069208D02*
X028855Y069208D01*
X028855Y069242D02*
X028653Y069242D01*
X028653Y069470D02*
X028855Y069470D01*
X028653Y069470D02*
X028653Y069750D01*
X028855Y069750D01*
X028855Y069470D01*
X028855Y069504D02*
X028653Y069504D01*
X028653Y069538D02*
X028855Y069538D01*
X028855Y069572D02*
X028653Y069572D01*
X028653Y069606D02*
X028855Y069606D01*
X028855Y069640D02*
X028653Y069640D01*
X028653Y069674D02*
X028855Y069674D01*
X028855Y069708D02*
X028653Y069708D01*
X028653Y069742D02*
X028855Y069742D01*
X028855Y069970D02*
X028653Y069970D01*
X028653Y070250D01*
X028855Y070250D01*
X028855Y069970D01*
X028855Y070004D02*
X028653Y070004D01*
X028653Y070038D02*
X028855Y070038D01*
X028855Y070072D02*
X028653Y070072D01*
X028653Y070106D02*
X028855Y070106D01*
X028855Y070140D02*
X028653Y070140D01*
X028653Y070174D02*
X028855Y070174D01*
X028855Y070208D02*
X028653Y070208D01*
X028653Y070242D02*
X028855Y070242D01*
X029165Y069970D02*
X029367Y069970D01*
X029165Y069970D02*
X029165Y070250D01*
X029367Y070250D01*
X029367Y069970D01*
X029367Y070004D02*
X029165Y070004D01*
X029165Y070038D02*
X029367Y070038D01*
X029367Y070072D02*
X029165Y070072D01*
X029165Y070106D02*
X029367Y070106D01*
X029367Y070140D02*
X029165Y070140D01*
X029165Y070174D02*
X029367Y070174D01*
X029367Y070208D02*
X029165Y070208D01*
X029165Y070242D02*
X029367Y070242D01*
X029367Y070670D02*
X029165Y070670D01*
X029165Y070950D01*
X029367Y070950D01*
X029367Y070670D01*
X029367Y070704D02*
X029165Y070704D01*
X029165Y070738D02*
X029367Y070738D01*
X029367Y070772D02*
X029165Y070772D01*
X029165Y070806D02*
X029367Y070806D01*
X029367Y070840D02*
X029165Y070840D01*
X029165Y070874D02*
X029367Y070874D01*
X029367Y070908D02*
X029165Y070908D01*
X029165Y070942D02*
X029367Y070942D01*
X028855Y070670D02*
X028653Y070670D01*
X028653Y070950D01*
X028855Y070950D01*
X028855Y070670D01*
X028855Y070704D02*
X028653Y070704D01*
X028653Y070738D02*
X028855Y070738D01*
X028855Y070772D02*
X028653Y070772D01*
X028653Y070806D02*
X028855Y070806D01*
X028855Y070840D02*
X028653Y070840D01*
X028653Y070874D02*
X028855Y070874D01*
X028855Y070908D02*
X028653Y070908D01*
X028653Y070942D02*
X028855Y070942D01*
X029165Y069470D02*
X029367Y069470D01*
X029165Y069470D02*
X029165Y069750D01*
X029367Y069750D01*
X029367Y069470D01*
X029367Y069504D02*
X029165Y069504D01*
X029165Y069538D02*
X029367Y069538D01*
X029367Y069572D02*
X029165Y069572D01*
X029165Y069606D02*
X029367Y069606D01*
X029367Y069640D02*
X029165Y069640D01*
X029165Y069674D02*
X029367Y069674D01*
X029367Y069708D02*
X029165Y069708D01*
X029165Y069742D02*
X029367Y069742D01*
X029367Y069250D02*
X029165Y069250D01*
X029367Y069250D02*
X029367Y068970D01*
X029165Y068970D01*
X029165Y069250D01*
X029165Y069004D02*
X029367Y069004D01*
X029367Y069038D02*
X029165Y069038D01*
X029165Y069072D02*
X029367Y069072D01*
X029367Y069106D02*
X029165Y069106D01*
X029165Y069140D02*
X029367Y069140D01*
X029367Y069174D02*
X029165Y069174D01*
X029165Y069208D02*
X029367Y069208D01*
X029367Y069242D02*
X029165Y069242D01*
X029165Y068750D02*
X029367Y068750D01*
X029367Y068470D01*
X029165Y068470D01*
X029165Y068750D01*
X029165Y068504D02*
X029367Y068504D01*
X029367Y068538D02*
X029165Y068538D01*
X029165Y068572D02*
X029367Y068572D01*
X029367Y068606D02*
X029165Y068606D01*
X029165Y068640D02*
X029367Y068640D01*
X029367Y068674D02*
X029165Y068674D01*
X029165Y068708D02*
X029367Y068708D01*
X029367Y068742D02*
X029165Y068742D01*
X028855Y068750D02*
X028653Y068750D01*
X028855Y068750D02*
X028855Y068470D01*
X028653Y068470D01*
X028653Y068750D01*
X028653Y068504D02*
X028855Y068504D01*
X028855Y068538D02*
X028653Y068538D01*
X028653Y068572D02*
X028855Y068572D01*
X028855Y068606D02*
X028653Y068606D01*
X028653Y068640D02*
X028855Y068640D01*
X028855Y068674D02*
X028653Y068674D01*
X028653Y068708D02*
X028855Y068708D01*
X028855Y068742D02*
X028653Y068742D01*
X031853Y067250D02*
X032055Y067250D01*
X032055Y066970D01*
X031853Y066970D01*
X031853Y067250D01*
X031853Y067004D02*
X032055Y067004D01*
X032055Y067038D02*
X031853Y067038D01*
X031853Y067072D02*
X032055Y067072D01*
X032055Y067106D02*
X031853Y067106D01*
X031853Y067140D02*
X032055Y067140D01*
X032055Y067174D02*
X031853Y067174D01*
X031853Y067208D02*
X032055Y067208D01*
X032055Y067242D02*
X031853Y067242D01*
X032365Y067250D02*
X032567Y067250D01*
X032567Y066970D01*
X032365Y066970D01*
X032365Y067250D01*
X032365Y067004D02*
X032567Y067004D01*
X032567Y067038D02*
X032365Y067038D01*
X032365Y067072D02*
X032567Y067072D01*
X032567Y067106D02*
X032365Y067106D01*
X032365Y067140D02*
X032567Y067140D01*
X032567Y067174D02*
X032365Y067174D01*
X032365Y067208D02*
X032567Y067208D01*
X032567Y067242D02*
X032365Y067242D01*
X034150Y068353D02*
X034150Y068555D01*
X034150Y068353D02*
X033870Y068353D01*
X033870Y068555D01*
X034150Y068555D01*
X034150Y068387D02*
X033870Y068387D01*
X033870Y068421D02*
X034150Y068421D01*
X034150Y068455D02*
X033870Y068455D01*
X033870Y068489D02*
X034150Y068489D01*
X034150Y068523D02*
X033870Y068523D01*
X034150Y068865D02*
X034150Y069067D01*
X034150Y068865D02*
X033870Y068865D01*
X033870Y069067D01*
X034150Y069067D01*
X034150Y068899D02*
X033870Y068899D01*
X033870Y068933D02*
X034150Y068933D01*
X034150Y068967D02*
X033870Y068967D01*
X033870Y069001D02*
X034150Y069001D01*
X034150Y069035D02*
X033870Y069035D01*
X034870Y069067D02*
X034870Y068865D01*
X034870Y069067D02*
X035150Y069067D01*
X035150Y068865D01*
X034870Y068865D01*
X034870Y068899D02*
X035150Y068899D01*
X035150Y068933D02*
X034870Y068933D01*
X034870Y068967D02*
X035150Y068967D01*
X035150Y069001D02*
X034870Y069001D01*
X034870Y069035D02*
X035150Y069035D01*
X034870Y068555D02*
X034870Y068353D01*
X034870Y068555D02*
X035150Y068555D01*
X035150Y068353D01*
X034870Y068353D01*
X034870Y068387D02*
X035150Y068387D01*
X035150Y068421D02*
X034870Y068421D01*
X034870Y068455D02*
X035150Y068455D01*
X035150Y068489D02*
X034870Y068489D01*
X034870Y068523D02*
X035150Y068523D01*
X034611Y073176D02*
X034409Y073176D01*
X034611Y073176D02*
X034611Y072896D01*
X034409Y072896D01*
X034409Y073176D01*
X034409Y072930D02*
X034611Y072930D01*
X034611Y072964D02*
X034409Y072964D01*
X034409Y072998D02*
X034611Y072998D01*
X034611Y073032D02*
X034409Y073032D01*
X034409Y073066D02*
X034611Y073066D01*
X034611Y073100D02*
X034409Y073100D01*
X034409Y073134D02*
X034611Y073134D01*
X034611Y073168D02*
X034409Y073168D01*
X034355Y073924D02*
X034153Y073924D01*
X034355Y073924D02*
X034355Y073644D01*
X034153Y073644D01*
X034153Y073924D01*
X034153Y073678D02*
X034355Y073678D01*
X034355Y073712D02*
X034153Y073712D01*
X034153Y073746D02*
X034355Y073746D01*
X034355Y073780D02*
X034153Y073780D01*
X034153Y073814D02*
X034355Y073814D01*
X034355Y073848D02*
X034153Y073848D01*
X034153Y073882D02*
X034355Y073882D01*
X034355Y073916D02*
X034153Y073916D01*
X033767Y073950D02*
X033565Y073950D01*
X033767Y073950D02*
X033767Y073670D01*
X033565Y073670D01*
X033565Y073950D01*
X033565Y073704D02*
X033767Y073704D01*
X033767Y073738D02*
X033565Y073738D01*
X033565Y073772D02*
X033767Y073772D01*
X033767Y073806D02*
X033565Y073806D01*
X033565Y073840D02*
X033767Y073840D01*
X033767Y073874D02*
X033565Y073874D01*
X033565Y073908D02*
X033767Y073908D01*
X033767Y073942D02*
X033565Y073942D01*
X033255Y073950D02*
X033053Y073950D01*
X033255Y073950D02*
X033255Y073670D01*
X033053Y073670D01*
X033053Y073950D01*
X033053Y073704D02*
X033255Y073704D01*
X033255Y073738D02*
X033053Y073738D01*
X033053Y073772D02*
X033255Y073772D01*
X033255Y073806D02*
X033053Y073806D01*
X033053Y073840D02*
X033255Y073840D01*
X033255Y073874D02*
X033053Y073874D01*
X033053Y073908D02*
X033255Y073908D01*
X033255Y073942D02*
X033053Y073942D01*
X033053Y073450D02*
X033255Y073450D01*
X033255Y073170D01*
X033053Y073170D01*
X033053Y073450D01*
X033053Y073204D02*
X033255Y073204D01*
X033255Y073238D02*
X033053Y073238D01*
X033053Y073272D02*
X033255Y073272D01*
X033255Y073306D02*
X033053Y073306D01*
X033053Y073340D02*
X033255Y073340D01*
X033255Y073374D02*
X033053Y073374D01*
X033053Y073408D02*
X033255Y073408D01*
X033255Y073442D02*
X033053Y073442D01*
X032567Y073450D02*
X032365Y073450D01*
X032567Y073450D02*
X032567Y073170D01*
X032365Y073170D01*
X032365Y073450D01*
X032365Y073204D02*
X032567Y073204D01*
X032567Y073238D02*
X032365Y073238D01*
X032365Y073272D02*
X032567Y073272D01*
X032567Y073306D02*
X032365Y073306D01*
X032365Y073340D02*
X032567Y073340D01*
X032567Y073374D02*
X032365Y073374D01*
X032365Y073408D02*
X032567Y073408D01*
X032567Y073442D02*
X032365Y073442D01*
X032055Y073450D02*
X031853Y073450D01*
X032055Y073450D02*
X032055Y073170D01*
X031853Y073170D01*
X031853Y073450D01*
X031853Y073204D02*
X032055Y073204D01*
X032055Y073238D02*
X031853Y073238D01*
X031853Y073272D02*
X032055Y073272D01*
X032055Y073306D02*
X031853Y073306D01*
X031853Y073340D02*
X032055Y073340D01*
X032055Y073374D02*
X031853Y073374D01*
X031853Y073408D02*
X032055Y073408D01*
X032055Y073442D02*
X031853Y073442D01*
X031267Y073650D02*
X031065Y073650D01*
X031267Y073650D02*
X031267Y073370D01*
X031065Y073370D01*
X031065Y073650D01*
X031065Y073404D02*
X031267Y073404D01*
X031267Y073438D02*
X031065Y073438D01*
X031065Y073472D02*
X031267Y073472D01*
X031267Y073506D02*
X031065Y073506D01*
X031065Y073540D02*
X031267Y073540D01*
X031267Y073574D02*
X031065Y073574D01*
X031065Y073608D02*
X031267Y073608D01*
X031267Y073642D02*
X031065Y073642D01*
X030755Y073650D02*
X030553Y073650D01*
X030755Y073650D02*
X030755Y073370D01*
X030553Y073370D01*
X030553Y073650D01*
X030553Y073404D02*
X030755Y073404D01*
X030755Y073438D02*
X030553Y073438D01*
X030553Y073472D02*
X030755Y073472D01*
X030755Y073506D02*
X030553Y073506D01*
X030553Y073540D02*
X030755Y073540D01*
X030755Y073574D02*
X030553Y073574D01*
X030553Y073608D02*
X030755Y073608D01*
X030755Y073642D02*
X030553Y073642D01*
X030553Y072170D02*
X030755Y072170D01*
X030553Y072170D02*
X030553Y072450D01*
X030755Y072450D01*
X030755Y072170D01*
X030755Y072204D02*
X030553Y072204D01*
X030553Y072238D02*
X030755Y072238D01*
X030755Y072272D02*
X030553Y072272D01*
X030553Y072306D02*
X030755Y072306D01*
X030755Y072340D02*
X030553Y072340D01*
X030553Y072374D02*
X030755Y072374D01*
X030755Y072408D02*
X030553Y072408D01*
X030553Y072442D02*
X030755Y072442D01*
X031065Y072170D02*
X031267Y072170D01*
X031065Y072170D02*
X031065Y072450D01*
X031267Y072450D01*
X031267Y072170D01*
X031267Y072204D02*
X031065Y072204D01*
X031065Y072238D02*
X031267Y072238D01*
X031267Y072272D02*
X031065Y072272D01*
X031065Y072306D02*
X031267Y072306D01*
X031267Y072340D02*
X031065Y072340D01*
X031065Y072374D02*
X031267Y072374D01*
X031267Y072408D02*
X031065Y072408D01*
X031065Y072442D02*
X031267Y072442D01*
X033565Y073450D02*
X033767Y073450D01*
X033767Y073170D01*
X033565Y073170D01*
X033565Y073450D01*
X033565Y073204D02*
X033767Y073204D01*
X033767Y073238D02*
X033565Y073238D01*
X033565Y073272D02*
X033767Y073272D01*
X033767Y073306D02*
X033565Y073306D01*
X033565Y073340D02*
X033767Y073340D01*
X033767Y073374D02*
X033565Y073374D01*
X033565Y073408D02*
X033767Y073408D01*
X033767Y073442D02*
X033565Y073442D01*
X034665Y073924D02*
X034867Y073924D01*
X034867Y073644D01*
X034665Y073644D01*
X034665Y073924D01*
X034665Y073678D02*
X034867Y073678D01*
X034867Y073712D02*
X034665Y073712D01*
X034665Y073746D02*
X034867Y073746D01*
X034867Y073780D02*
X034665Y073780D01*
X034665Y073814D02*
X034867Y073814D01*
X034867Y073848D02*
X034665Y073848D01*
X034665Y073882D02*
X034867Y073882D01*
X034867Y073916D02*
X034665Y073916D01*
X034900Y074303D02*
X034900Y074505D01*
X034900Y074303D02*
X034620Y074303D01*
X034620Y074505D01*
X034900Y074505D01*
X034900Y074337D02*
X034620Y074337D01*
X034620Y074371D02*
X034900Y074371D01*
X034900Y074405D02*
X034620Y074405D01*
X034620Y074439D02*
X034900Y074439D01*
X034900Y074473D02*
X034620Y074473D01*
X034900Y074815D02*
X034900Y075017D01*
X034900Y074815D02*
X034620Y074815D01*
X034620Y075017D01*
X034900Y075017D01*
X034900Y074849D02*
X034620Y074849D01*
X034620Y074883D02*
X034900Y074883D01*
X034900Y074917D02*
X034620Y074917D01*
X034620Y074951D02*
X034900Y074951D01*
X034900Y074985D02*
X034620Y074985D01*
X033767Y075350D02*
X033565Y075350D01*
X033767Y075350D02*
X033767Y075070D01*
X033565Y075070D01*
X033565Y075350D01*
X033565Y075104D02*
X033767Y075104D01*
X033767Y075138D02*
X033565Y075138D01*
X033565Y075172D02*
X033767Y075172D01*
X033767Y075206D02*
X033565Y075206D01*
X033565Y075240D02*
X033767Y075240D01*
X033767Y075274D02*
X033565Y075274D01*
X033565Y075308D02*
X033767Y075308D01*
X033767Y075342D02*
X033565Y075342D01*
X033255Y075350D02*
X033053Y075350D01*
X033255Y075350D02*
X033255Y075070D01*
X033053Y075070D01*
X033053Y075350D01*
X033053Y075104D02*
X033255Y075104D01*
X033255Y075138D02*
X033053Y075138D01*
X033053Y075172D02*
X033255Y075172D01*
X033255Y075206D02*
X033053Y075206D01*
X033053Y075240D02*
X033255Y075240D01*
X033255Y075274D02*
X033053Y075274D01*
X033053Y075308D02*
X033255Y075308D01*
X033255Y075342D02*
X033053Y075342D01*
X035253Y073296D02*
X035455Y073296D01*
X035253Y073296D02*
X035253Y073576D01*
X035455Y073576D01*
X035455Y073296D01*
X035455Y073330D02*
X035253Y073330D01*
X035253Y073364D02*
X035455Y073364D01*
X035455Y073398D02*
X035253Y073398D01*
X035253Y073432D02*
X035455Y073432D01*
X035455Y073466D02*
X035253Y073466D01*
X035253Y073500D02*
X035455Y073500D01*
X035455Y073534D02*
X035253Y073534D01*
X035253Y073568D02*
X035455Y073568D01*
X035765Y073296D02*
X035967Y073296D01*
X035765Y073296D02*
X035765Y073576D01*
X035967Y073576D01*
X035967Y073296D01*
X035967Y073330D02*
X035765Y073330D01*
X035765Y073364D02*
X035967Y073364D01*
X035967Y073398D02*
X035765Y073398D01*
X035765Y073432D02*
X035967Y073432D01*
X035967Y073466D02*
X035765Y073466D01*
X035765Y073500D02*
X035967Y073500D01*
X035967Y073534D02*
X035765Y073534D01*
X035765Y073568D02*
X035967Y073568D01*
X035711Y074044D02*
X035509Y074044D01*
X035509Y074324D01*
X035711Y074324D01*
X035711Y074044D01*
X035711Y074078D02*
X035509Y074078D01*
X035509Y074112D02*
X035711Y074112D01*
X035711Y074146D02*
X035509Y074146D01*
X035509Y074180D02*
X035711Y074180D01*
X035711Y074214D02*
X035509Y074214D01*
X035509Y074248D02*
X035711Y074248D01*
X035711Y074282D02*
X035509Y074282D01*
X035509Y074316D02*
X035711Y074316D01*
X032050Y076753D02*
X032050Y076955D01*
X032050Y076753D02*
X031770Y076753D01*
X031770Y076955D01*
X032050Y076955D01*
X032050Y076787D02*
X031770Y076787D01*
X031770Y076821D02*
X032050Y076821D01*
X032050Y076855D02*
X031770Y076855D01*
X031770Y076889D02*
X032050Y076889D01*
X032050Y076923D02*
X031770Y076923D01*
X032050Y077265D02*
X032050Y077467D01*
X032050Y077265D02*
X031770Y077265D01*
X031770Y077467D01*
X032050Y077467D01*
X032050Y077299D02*
X031770Y077299D01*
X031770Y077333D02*
X032050Y077333D01*
X032050Y077367D02*
X031770Y077367D01*
X031770Y077401D02*
X032050Y077401D01*
X032050Y077435D02*
X031770Y077435D01*
X032596Y077553D02*
X032596Y077755D01*
X032876Y077755D01*
X032876Y077553D01*
X032596Y077553D01*
X032596Y077587D02*
X032876Y077587D01*
X032876Y077621D02*
X032596Y077621D01*
X032596Y077655D02*
X032876Y077655D01*
X032876Y077689D02*
X032596Y077689D01*
X032596Y077723D02*
X032876Y077723D01*
X032596Y078065D02*
X032596Y078267D01*
X032876Y078267D01*
X032876Y078065D01*
X032596Y078065D01*
X032596Y078099D02*
X032876Y078099D01*
X032876Y078133D02*
X032596Y078133D01*
X032596Y078167D02*
X032876Y078167D01*
X032876Y078201D02*
X032596Y078201D01*
X032596Y078235D02*
X032876Y078235D01*
X033344Y078011D02*
X033344Y077809D01*
X033344Y078011D02*
X033624Y078011D01*
X033624Y077809D01*
X033344Y077809D01*
X033344Y077843D02*
X033624Y077843D01*
X033624Y077877D02*
X033344Y077877D01*
X033344Y077911D02*
X033624Y077911D01*
X033624Y077945D02*
X033344Y077945D01*
X033344Y077979D02*
X033624Y077979D01*
X033150Y079453D02*
X033150Y079655D01*
X033150Y079453D02*
X032870Y079453D01*
X032870Y079655D01*
X033150Y079655D01*
X033150Y079487D02*
X032870Y079487D01*
X032870Y079521D02*
X033150Y079521D01*
X033150Y079555D02*
X032870Y079555D01*
X032870Y079589D02*
X033150Y079589D01*
X033150Y079623D02*
X032870Y079623D01*
X033150Y079965D02*
X033150Y080167D01*
X033150Y079965D02*
X032870Y079965D01*
X032870Y080167D01*
X033150Y080167D01*
X033150Y079999D02*
X032870Y079999D01*
X032870Y080033D02*
X033150Y080033D01*
X033150Y080067D02*
X032870Y080067D01*
X032870Y080101D02*
X033150Y080101D01*
X033150Y080135D02*
X032870Y080135D01*
X033150Y080476D02*
X033150Y080678D01*
X033150Y080476D02*
X032870Y080476D01*
X032870Y080678D01*
X033150Y080678D01*
X033150Y080510D02*
X032870Y080510D01*
X032870Y080544D02*
X033150Y080544D01*
X033150Y080578D02*
X032870Y080578D01*
X032870Y080612D02*
X033150Y080612D01*
X033150Y080646D02*
X032870Y080646D01*
X033050Y081153D02*
X033050Y081355D01*
X033050Y081153D02*
X032770Y081153D01*
X032770Y081355D01*
X033050Y081355D01*
X033050Y081187D02*
X032770Y081187D01*
X032770Y081221D02*
X033050Y081221D01*
X033050Y081255D02*
X032770Y081255D01*
X032770Y081289D02*
X033050Y081289D01*
X033050Y081323D02*
X032770Y081323D01*
X033050Y081665D02*
X033050Y081867D01*
X033050Y081665D02*
X032770Y081665D01*
X032770Y081867D01*
X033050Y081867D01*
X033050Y081699D02*
X032770Y081699D01*
X032770Y081733D02*
X033050Y081733D01*
X033050Y081767D02*
X032770Y081767D01*
X032770Y081801D02*
X033050Y081801D01*
X033050Y081835D02*
X032770Y081835D01*
X033050Y082176D02*
X033050Y082378D01*
X033050Y082176D02*
X032770Y082176D01*
X032770Y082378D01*
X033050Y082378D01*
X033050Y082210D02*
X032770Y082210D01*
X032770Y082244D02*
X033050Y082244D01*
X033050Y082278D02*
X032770Y082278D01*
X032770Y082312D02*
X033050Y082312D01*
X033050Y082346D02*
X032770Y082346D01*
X033050Y082853D02*
X033050Y083055D01*
X033050Y082853D02*
X032770Y082853D01*
X032770Y083055D01*
X033050Y083055D01*
X033050Y082887D02*
X032770Y082887D01*
X032770Y082921D02*
X033050Y082921D01*
X033050Y082955D02*
X032770Y082955D01*
X032770Y082989D02*
X033050Y082989D01*
X033050Y083023D02*
X032770Y083023D01*
X033050Y083365D02*
X033050Y083567D01*
X033050Y083365D02*
X032770Y083365D01*
X032770Y083567D01*
X033050Y083567D01*
X033050Y083399D02*
X032770Y083399D01*
X032770Y083433D02*
X033050Y083433D01*
X033050Y083467D02*
X032770Y083467D01*
X032770Y083501D02*
X033050Y083501D01*
X033050Y083535D02*
X032770Y083535D01*
X033050Y083876D02*
X033050Y084078D01*
X033050Y083876D02*
X032770Y083876D01*
X032770Y084078D01*
X033050Y084078D01*
X033050Y083910D02*
X032770Y083910D01*
X032770Y083944D02*
X033050Y083944D01*
X033050Y083978D02*
X032770Y083978D01*
X032770Y084012D02*
X033050Y084012D01*
X033050Y084046D02*
X032770Y084046D01*
X031650Y084253D02*
X031650Y084455D01*
X031650Y084253D02*
X031370Y084253D01*
X031370Y084455D01*
X031650Y084455D01*
X031650Y084287D02*
X031370Y084287D01*
X031370Y084321D02*
X031650Y084321D01*
X031650Y084355D02*
X031370Y084355D01*
X031370Y084389D02*
X031650Y084389D01*
X031650Y084423D02*
X031370Y084423D01*
X031650Y084765D02*
X031650Y084967D01*
X031650Y084765D02*
X031370Y084765D01*
X031370Y084967D01*
X031650Y084967D01*
X031650Y084799D02*
X031370Y084799D01*
X031370Y084833D02*
X031650Y084833D01*
X031650Y084867D02*
X031370Y084867D01*
X031370Y084901D02*
X031650Y084901D01*
X031650Y084935D02*
X031370Y084935D01*
X030650Y084953D02*
X030650Y085155D01*
X030650Y084953D02*
X030370Y084953D01*
X030370Y085155D01*
X030650Y085155D01*
X030650Y084987D02*
X030370Y084987D01*
X030370Y085021D02*
X030650Y085021D01*
X030650Y085055D02*
X030370Y085055D01*
X030370Y085089D02*
X030650Y085089D01*
X030650Y085123D02*
X030370Y085123D01*
X030650Y085465D02*
X030650Y085667D01*
X030650Y085465D02*
X030370Y085465D01*
X030370Y085667D01*
X030650Y085667D01*
X030650Y085499D02*
X030370Y085499D01*
X030370Y085533D02*
X030650Y085533D01*
X030650Y085567D02*
X030370Y085567D01*
X030370Y085601D02*
X030650Y085601D01*
X030650Y085635D02*
X030370Y085635D01*
X028867Y085670D02*
X028665Y085670D01*
X028665Y085950D01*
X028867Y085950D01*
X028867Y085670D01*
X028867Y085704D02*
X028665Y085704D01*
X028665Y085738D02*
X028867Y085738D01*
X028867Y085772D02*
X028665Y085772D01*
X028665Y085806D02*
X028867Y085806D01*
X028867Y085840D02*
X028665Y085840D01*
X028665Y085874D02*
X028867Y085874D01*
X028867Y085908D02*
X028665Y085908D01*
X028665Y085942D02*
X028867Y085942D01*
X028355Y085670D02*
X028153Y085670D01*
X028153Y085950D01*
X028355Y085950D01*
X028355Y085670D01*
X028355Y085704D02*
X028153Y085704D01*
X028153Y085738D02*
X028355Y085738D01*
X028355Y085772D02*
X028153Y085772D01*
X028153Y085806D02*
X028355Y085806D01*
X028355Y085840D02*
X028153Y085840D01*
X028153Y085874D02*
X028355Y085874D01*
X028355Y085908D02*
X028153Y085908D01*
X028153Y085942D02*
X028355Y085942D01*
X028355Y085170D02*
X028153Y085170D01*
X028153Y085450D01*
X028355Y085450D01*
X028355Y085170D01*
X028355Y085204D02*
X028153Y085204D01*
X028153Y085238D02*
X028355Y085238D01*
X028355Y085272D02*
X028153Y085272D01*
X028153Y085306D02*
X028355Y085306D01*
X028355Y085340D02*
X028153Y085340D01*
X028153Y085374D02*
X028355Y085374D01*
X028355Y085408D02*
X028153Y085408D01*
X028153Y085442D02*
X028355Y085442D01*
X028665Y085170D02*
X028867Y085170D01*
X028665Y085170D02*
X028665Y085450D01*
X028867Y085450D01*
X028867Y085170D01*
X028867Y085204D02*
X028665Y085204D01*
X028665Y085238D02*
X028867Y085238D01*
X028867Y085272D02*
X028665Y085272D01*
X028665Y085306D02*
X028867Y085306D01*
X028867Y085340D02*
X028665Y085340D01*
X028665Y085374D02*
X028867Y085374D01*
X028867Y085408D02*
X028665Y085408D01*
X028665Y085442D02*
X028867Y085442D01*
X029350Y084567D02*
X029350Y084365D01*
X029070Y084365D01*
X029070Y084567D01*
X029350Y084567D01*
X029350Y084399D02*
X029070Y084399D01*
X029070Y084433D02*
X029350Y084433D01*
X029350Y084467D02*
X029070Y084467D01*
X029070Y084501D02*
X029350Y084501D01*
X029350Y084535D02*
X029070Y084535D01*
X029350Y084055D02*
X029350Y083853D01*
X029070Y083853D01*
X029070Y084055D01*
X029350Y084055D01*
X029350Y083887D02*
X029070Y083887D01*
X029070Y083921D02*
X029350Y083921D01*
X029350Y083955D02*
X029070Y083955D01*
X029070Y083989D02*
X029350Y083989D01*
X029350Y084023D02*
X029070Y084023D01*
X028550Y083567D02*
X028550Y083365D01*
X028270Y083365D01*
X028270Y083567D01*
X028550Y083567D01*
X028550Y083399D02*
X028270Y083399D01*
X028270Y083433D02*
X028550Y083433D01*
X028550Y083467D02*
X028270Y083467D01*
X028270Y083501D02*
X028550Y083501D01*
X028550Y083535D02*
X028270Y083535D01*
X028550Y083055D02*
X028550Y082853D01*
X028270Y082853D01*
X028270Y083055D01*
X028550Y083055D01*
X028550Y082887D02*
X028270Y082887D01*
X028270Y082921D02*
X028550Y082921D01*
X028550Y082955D02*
X028270Y082955D01*
X028270Y082989D02*
X028550Y082989D01*
X028550Y083023D02*
X028270Y083023D01*
X028550Y082367D02*
X028550Y082165D01*
X028270Y082165D01*
X028270Y082367D01*
X028550Y082367D01*
X028550Y082199D02*
X028270Y082199D01*
X028270Y082233D02*
X028550Y082233D01*
X028550Y082267D02*
X028270Y082267D01*
X028270Y082301D02*
X028550Y082301D01*
X028550Y082335D02*
X028270Y082335D01*
X028550Y081855D02*
X028550Y081653D01*
X028270Y081653D01*
X028270Y081855D01*
X028550Y081855D01*
X028550Y081687D02*
X028270Y081687D01*
X028270Y081721D02*
X028550Y081721D01*
X028550Y081755D02*
X028270Y081755D01*
X028270Y081789D02*
X028550Y081789D01*
X028550Y081823D02*
X028270Y081823D01*
X029350Y081855D02*
X029350Y081653D01*
X029070Y081653D01*
X029070Y081855D01*
X029350Y081855D01*
X029350Y081687D02*
X029070Y081687D01*
X029070Y081721D02*
X029350Y081721D01*
X029350Y081755D02*
X029070Y081755D01*
X029070Y081789D02*
X029350Y081789D01*
X029350Y081823D02*
X029070Y081823D01*
X029350Y082165D02*
X029350Y082367D01*
X029350Y082165D02*
X029070Y082165D01*
X029070Y082367D01*
X029350Y082367D01*
X029350Y082199D02*
X029070Y082199D01*
X029070Y082233D02*
X029350Y082233D01*
X029350Y082267D02*
X029070Y082267D01*
X029070Y082301D02*
X029350Y082301D01*
X029350Y082335D02*
X029070Y082335D01*
X028267Y080950D02*
X028065Y080950D01*
X028267Y080950D02*
X028267Y080670D01*
X028065Y080670D01*
X028065Y080950D01*
X028065Y080704D02*
X028267Y080704D01*
X028267Y080738D02*
X028065Y080738D01*
X028065Y080772D02*
X028267Y080772D01*
X028267Y080806D02*
X028065Y080806D01*
X028065Y080840D02*
X028267Y080840D01*
X028267Y080874D02*
X028065Y080874D01*
X028065Y080908D02*
X028267Y080908D01*
X028267Y080942D02*
X028065Y080942D01*
X027755Y080950D02*
X027553Y080950D01*
X027755Y080950D02*
X027755Y080670D01*
X027553Y080670D01*
X027553Y080950D01*
X027553Y080704D02*
X027755Y080704D01*
X027755Y080738D02*
X027553Y080738D01*
X027553Y080772D02*
X027755Y080772D01*
X027755Y080806D02*
X027553Y080806D01*
X027553Y080840D02*
X027755Y080840D01*
X027755Y080874D02*
X027553Y080874D01*
X027553Y080908D02*
X027755Y080908D01*
X027755Y080942D02*
X027553Y080942D01*
X027553Y080450D02*
X027755Y080450D01*
X027755Y080170D01*
X027553Y080170D01*
X027553Y080450D01*
X027553Y080204D02*
X027755Y080204D01*
X027755Y080238D02*
X027553Y080238D01*
X027553Y080272D02*
X027755Y080272D01*
X027755Y080306D02*
X027553Y080306D01*
X027553Y080340D02*
X027755Y080340D01*
X027755Y080374D02*
X027553Y080374D01*
X027553Y080408D02*
X027755Y080408D01*
X027755Y080442D02*
X027553Y080442D01*
X028065Y080450D02*
X028267Y080450D01*
X028267Y080170D01*
X028065Y080170D01*
X028065Y080450D01*
X028065Y080204D02*
X028267Y080204D01*
X028267Y080238D02*
X028065Y080238D01*
X028065Y080272D02*
X028267Y080272D01*
X028267Y080306D02*
X028065Y080306D01*
X028065Y080340D02*
X028267Y080340D01*
X028267Y080374D02*
X028065Y080374D01*
X028065Y080408D02*
X028267Y080408D01*
X028267Y080442D02*
X028065Y080442D01*
X028750Y079767D02*
X028750Y079565D01*
X028470Y079565D01*
X028470Y079767D01*
X028750Y079767D01*
X028750Y079599D02*
X028470Y079599D01*
X028470Y079633D02*
X028750Y079633D01*
X028750Y079667D02*
X028470Y079667D01*
X028470Y079701D02*
X028750Y079701D01*
X028750Y079735D02*
X028470Y079735D01*
X028750Y079255D02*
X028750Y079053D01*
X028470Y079053D01*
X028470Y079255D01*
X028750Y079255D01*
X028750Y079087D02*
X028470Y079087D01*
X028470Y079121D02*
X028750Y079121D01*
X028750Y079155D02*
X028470Y079155D01*
X028470Y079189D02*
X028750Y079189D01*
X028750Y079223D02*
X028470Y079223D01*
X027270Y079255D02*
X027270Y079053D01*
X027270Y079255D02*
X027550Y079255D01*
X027550Y079053D01*
X027270Y079053D01*
X027270Y079087D02*
X027550Y079087D01*
X027550Y079121D02*
X027270Y079121D01*
X027270Y079155D02*
X027550Y079155D01*
X027550Y079189D02*
X027270Y079189D01*
X027270Y079223D02*
X027550Y079223D01*
X027270Y079565D02*
X027270Y079767D01*
X027550Y079767D01*
X027550Y079565D01*
X027270Y079565D01*
X027270Y079599D02*
X027550Y079599D01*
X027550Y079633D02*
X027270Y079633D01*
X027270Y079667D02*
X027550Y079667D01*
X027550Y079701D02*
X027270Y079701D01*
X027270Y079735D02*
X027550Y079735D01*
X026967Y080850D02*
X026765Y080850D01*
X026967Y080850D02*
X026967Y080570D01*
X026765Y080570D01*
X026765Y080850D01*
X026765Y080604D02*
X026967Y080604D01*
X026967Y080638D02*
X026765Y080638D01*
X026765Y080672D02*
X026967Y080672D01*
X026967Y080706D02*
X026765Y080706D01*
X026765Y080740D02*
X026967Y080740D01*
X026967Y080774D02*
X026765Y080774D01*
X026765Y080808D02*
X026967Y080808D01*
X026967Y080842D02*
X026765Y080842D01*
X026455Y080850D02*
X026253Y080850D01*
X026455Y080850D02*
X026455Y080570D01*
X026253Y080570D01*
X026253Y080850D01*
X026253Y080604D02*
X026455Y080604D01*
X026455Y080638D02*
X026253Y080638D01*
X026253Y080672D02*
X026455Y080672D01*
X026455Y080706D02*
X026253Y080706D01*
X026253Y080740D02*
X026455Y080740D01*
X026455Y080774D02*
X026253Y080774D01*
X026253Y080808D02*
X026455Y080808D01*
X026455Y080842D02*
X026253Y080842D01*
X023950Y081603D02*
X023950Y081805D01*
X023950Y081603D02*
X023670Y081603D01*
X023670Y081805D01*
X023950Y081805D01*
X023950Y081637D02*
X023670Y081637D01*
X023670Y081671D02*
X023950Y081671D01*
X023950Y081705D02*
X023670Y081705D01*
X023670Y081739D02*
X023950Y081739D01*
X023950Y081773D02*
X023670Y081773D01*
X023950Y082115D02*
X023950Y082317D01*
X023950Y082115D02*
X023670Y082115D01*
X023670Y082317D01*
X023950Y082317D01*
X023950Y082149D02*
X023670Y082149D01*
X023670Y082183D02*
X023950Y082183D01*
X023950Y082217D02*
X023670Y082217D01*
X023670Y082251D02*
X023950Y082251D01*
X023950Y082285D02*
X023670Y082285D01*
X024153Y085350D02*
X024355Y085350D01*
X024355Y085070D01*
X024153Y085070D01*
X024153Y085350D01*
X024153Y085104D02*
X024355Y085104D01*
X024355Y085138D02*
X024153Y085138D01*
X024153Y085172D02*
X024355Y085172D01*
X024355Y085206D02*
X024153Y085206D01*
X024153Y085240D02*
X024355Y085240D01*
X024355Y085274D02*
X024153Y085274D01*
X024153Y085308D02*
X024355Y085308D01*
X024355Y085342D02*
X024153Y085342D01*
X024153Y085570D02*
X024355Y085570D01*
X024153Y085570D02*
X024153Y085850D01*
X024355Y085850D01*
X024355Y085570D01*
X024355Y085604D02*
X024153Y085604D01*
X024153Y085638D02*
X024355Y085638D01*
X024355Y085672D02*
X024153Y085672D01*
X024153Y085706D02*
X024355Y085706D01*
X024355Y085740D02*
X024153Y085740D01*
X024153Y085774D02*
X024355Y085774D01*
X024355Y085808D02*
X024153Y085808D01*
X024153Y085842D02*
X024355Y085842D01*
X024665Y085570D02*
X024867Y085570D01*
X024665Y085570D02*
X024665Y085850D01*
X024867Y085850D01*
X024867Y085570D01*
X024867Y085604D02*
X024665Y085604D01*
X024665Y085638D02*
X024867Y085638D01*
X024867Y085672D02*
X024665Y085672D01*
X024665Y085706D02*
X024867Y085706D01*
X024867Y085740D02*
X024665Y085740D01*
X024665Y085774D02*
X024867Y085774D01*
X024867Y085808D02*
X024665Y085808D01*
X024665Y085842D02*
X024867Y085842D01*
X024950Y086153D02*
X024950Y086355D01*
X024950Y086153D02*
X024670Y086153D01*
X024670Y086355D01*
X024950Y086355D01*
X024950Y086187D02*
X024670Y086187D01*
X024670Y086221D02*
X024950Y086221D01*
X024950Y086255D02*
X024670Y086255D01*
X024670Y086289D02*
X024950Y086289D01*
X024950Y086323D02*
X024670Y086323D01*
X024950Y086665D02*
X024950Y086867D01*
X024950Y086665D02*
X024670Y086665D01*
X024670Y086867D01*
X024950Y086867D01*
X024950Y086699D02*
X024670Y086699D01*
X024670Y086733D02*
X024950Y086733D01*
X024950Y086767D02*
X024670Y086767D01*
X024670Y086801D02*
X024950Y086801D01*
X024950Y086835D02*
X024670Y086835D01*
X024070Y086867D02*
X024070Y086665D01*
X024070Y086867D02*
X024350Y086867D01*
X024350Y086665D01*
X024070Y086665D01*
X024070Y086699D02*
X024350Y086699D01*
X024350Y086733D02*
X024070Y086733D01*
X024070Y086767D02*
X024350Y086767D01*
X024350Y086801D02*
X024070Y086801D01*
X024070Y086835D02*
X024350Y086835D01*
X024070Y086355D02*
X024070Y086153D01*
X024070Y086355D02*
X024350Y086355D01*
X024350Y086153D01*
X024070Y086153D01*
X024070Y086187D02*
X024350Y086187D01*
X024350Y086221D02*
X024070Y086221D01*
X024070Y086255D02*
X024350Y086255D01*
X024350Y086289D02*
X024070Y086289D01*
X024070Y086323D02*
X024350Y086323D01*
X023850Y086355D02*
X023850Y086153D01*
X023570Y086153D01*
X023570Y086355D01*
X023850Y086355D01*
X023850Y086187D02*
X023570Y086187D01*
X023570Y086221D02*
X023850Y086221D01*
X023850Y086255D02*
X023570Y086255D01*
X023570Y086289D02*
X023850Y086289D01*
X023850Y086323D02*
X023570Y086323D01*
X023850Y086665D02*
X023850Y086867D01*
X023850Y086665D02*
X023570Y086665D01*
X023570Y086867D01*
X023850Y086867D01*
X023850Y086699D02*
X023570Y086699D01*
X023570Y086733D02*
X023850Y086733D01*
X023850Y086767D02*
X023570Y086767D01*
X023570Y086801D02*
X023850Y086801D01*
X023850Y086835D02*
X023570Y086835D01*
X022650Y086867D02*
X022650Y086665D01*
X022370Y086665D01*
X022370Y086867D01*
X022650Y086867D01*
X022650Y086699D02*
X022370Y086699D01*
X022370Y086733D02*
X022650Y086733D01*
X022650Y086767D02*
X022370Y086767D01*
X022370Y086801D02*
X022650Y086801D01*
X022650Y086835D02*
X022370Y086835D01*
X022650Y086355D02*
X022650Y086153D01*
X022370Y086153D01*
X022370Y086355D01*
X022650Y086355D01*
X022650Y086187D02*
X022370Y086187D01*
X022370Y086221D02*
X022650Y086221D01*
X022650Y086255D02*
X022370Y086255D01*
X022370Y086289D02*
X022650Y086289D01*
X022650Y086323D02*
X022370Y086323D01*
X024665Y085350D02*
X024867Y085350D01*
X024867Y085070D01*
X024665Y085070D01*
X024665Y085350D01*
X024665Y085104D02*
X024867Y085104D01*
X024867Y085138D02*
X024665Y085138D01*
X024665Y085172D02*
X024867Y085172D01*
X024867Y085206D02*
X024665Y085206D01*
X024665Y085240D02*
X024867Y085240D01*
X024867Y085274D02*
X024665Y085274D01*
X024665Y085308D02*
X024867Y085308D01*
X024867Y085342D02*
X024665Y085342D01*
X031753Y079290D02*
X031955Y079290D01*
X031753Y079290D02*
X031753Y079570D01*
X031955Y079570D01*
X031955Y079290D01*
X031955Y079324D02*
X031753Y079324D01*
X031753Y079358D02*
X031955Y079358D01*
X031955Y079392D02*
X031753Y079392D01*
X031753Y079426D02*
X031955Y079426D01*
X031955Y079460D02*
X031753Y079460D01*
X031753Y079494D02*
X031955Y079494D01*
X031955Y079528D02*
X031753Y079528D01*
X031753Y079562D02*
X031955Y079562D01*
X032265Y079290D02*
X032467Y079290D01*
X032265Y079290D02*
X032265Y079570D01*
X032467Y079570D01*
X032467Y079290D01*
X032467Y079324D02*
X032265Y079324D01*
X032265Y079358D02*
X032467Y079358D01*
X032467Y079392D02*
X032265Y079392D01*
X032265Y079426D02*
X032467Y079426D01*
X032467Y079460D02*
X032265Y079460D01*
X032265Y079494D02*
X032467Y079494D01*
X032467Y079528D02*
X032265Y079528D01*
X032265Y079562D02*
X032467Y079562D01*
X027767Y078450D02*
X027565Y078450D01*
X027767Y078450D02*
X027767Y078170D01*
X027565Y078170D01*
X027565Y078450D01*
X027565Y078204D02*
X027767Y078204D01*
X027767Y078238D02*
X027565Y078238D01*
X027565Y078272D02*
X027767Y078272D01*
X027767Y078306D02*
X027565Y078306D01*
X027565Y078340D02*
X027767Y078340D01*
X027767Y078374D02*
X027565Y078374D01*
X027565Y078408D02*
X027767Y078408D01*
X027767Y078442D02*
X027565Y078442D01*
X027255Y078450D02*
X027053Y078450D01*
X027255Y078450D02*
X027255Y078170D01*
X027053Y078170D01*
X027053Y078450D01*
X027053Y078204D02*
X027255Y078204D01*
X027255Y078238D02*
X027053Y078238D01*
X027053Y078272D02*
X027255Y078272D01*
X027255Y078306D02*
X027053Y078306D01*
X027053Y078340D02*
X027255Y078340D01*
X027255Y078374D02*
X027053Y078374D01*
X027053Y078408D02*
X027255Y078408D01*
X027255Y078442D02*
X027053Y078442D01*
X027053Y077670D02*
X027255Y077670D01*
X027053Y077670D02*
X027053Y077950D01*
X027255Y077950D01*
X027255Y077670D01*
X027255Y077704D02*
X027053Y077704D01*
X027053Y077738D02*
X027255Y077738D01*
X027255Y077772D02*
X027053Y077772D01*
X027053Y077806D02*
X027255Y077806D01*
X027255Y077840D02*
X027053Y077840D01*
X027053Y077874D02*
X027255Y077874D01*
X027255Y077908D02*
X027053Y077908D01*
X027053Y077942D02*
X027255Y077942D01*
X027565Y077670D02*
X027767Y077670D01*
X027565Y077670D02*
X027565Y077950D01*
X027767Y077950D01*
X027767Y077670D01*
X027767Y077704D02*
X027565Y077704D01*
X027565Y077738D02*
X027767Y077738D01*
X027767Y077772D02*
X027565Y077772D01*
X027565Y077806D02*
X027767Y077806D01*
X027767Y077840D02*
X027565Y077840D01*
X027565Y077874D02*
X027767Y077874D01*
X027767Y077908D02*
X027565Y077908D01*
X027565Y077942D02*
X027767Y077942D01*
X027767Y077170D02*
X027565Y077170D01*
X027565Y077450D01*
X027767Y077450D01*
X027767Y077170D01*
X027767Y077204D02*
X027565Y077204D01*
X027565Y077238D02*
X027767Y077238D01*
X027767Y077272D02*
X027565Y077272D01*
X027565Y077306D02*
X027767Y077306D01*
X027767Y077340D02*
X027565Y077340D01*
X027565Y077374D02*
X027767Y077374D01*
X027767Y077408D02*
X027565Y077408D01*
X027565Y077442D02*
X027767Y077442D01*
X027255Y077170D02*
X027053Y077170D01*
X027053Y077450D01*
X027255Y077450D01*
X027255Y077170D01*
X027255Y077204D02*
X027053Y077204D01*
X027053Y077238D02*
X027255Y077238D01*
X027255Y077272D02*
X027053Y077272D01*
X027053Y077306D02*
X027255Y077306D01*
X027255Y077340D02*
X027053Y077340D01*
X027053Y077374D02*
X027255Y077374D01*
X027255Y077408D02*
X027053Y077408D01*
X027053Y077442D02*
X027255Y077442D01*
X027255Y076950D02*
X027053Y076950D01*
X027255Y076950D02*
X027255Y076670D01*
X027053Y076670D01*
X027053Y076950D01*
X027053Y076704D02*
X027255Y076704D01*
X027255Y076738D02*
X027053Y076738D01*
X027053Y076772D02*
X027255Y076772D01*
X027255Y076806D02*
X027053Y076806D01*
X027053Y076840D02*
X027255Y076840D01*
X027255Y076874D02*
X027053Y076874D01*
X027053Y076908D02*
X027255Y076908D01*
X027255Y076942D02*
X027053Y076942D01*
X027565Y076950D02*
X027767Y076950D01*
X027767Y076670D01*
X027565Y076670D01*
X027565Y076950D01*
X027565Y076704D02*
X027767Y076704D01*
X027767Y076738D02*
X027565Y076738D01*
X027565Y076772D02*
X027767Y076772D01*
X027767Y076806D02*
X027565Y076806D01*
X027565Y076840D02*
X027767Y076840D01*
X027767Y076874D02*
X027565Y076874D01*
X027565Y076908D02*
X027767Y076908D01*
X027767Y076942D02*
X027565Y076942D01*
X027467Y074670D02*
X027265Y074670D01*
X027265Y074950D01*
X027467Y074950D01*
X027467Y074670D01*
X027467Y074704D02*
X027265Y074704D01*
X027265Y074738D02*
X027467Y074738D01*
X027467Y074772D02*
X027265Y074772D01*
X027265Y074806D02*
X027467Y074806D01*
X027467Y074840D02*
X027265Y074840D01*
X027265Y074874D02*
X027467Y074874D01*
X027467Y074908D02*
X027265Y074908D01*
X027265Y074942D02*
X027467Y074942D01*
X027953Y074950D02*
X028155Y074950D01*
X028155Y074670D01*
X027953Y074670D01*
X027953Y074950D01*
X027953Y074704D02*
X028155Y074704D01*
X028155Y074738D02*
X027953Y074738D01*
X027953Y074772D02*
X028155Y074772D01*
X028155Y074806D02*
X027953Y074806D01*
X027953Y074840D02*
X028155Y074840D01*
X028155Y074874D02*
X027953Y074874D01*
X027953Y074908D02*
X028155Y074908D01*
X028155Y074942D02*
X027953Y074942D01*
X028465Y074950D02*
X028667Y074950D01*
X028667Y074670D01*
X028465Y074670D01*
X028465Y074950D01*
X028465Y074704D02*
X028667Y074704D01*
X028667Y074738D02*
X028465Y074738D01*
X028465Y074772D02*
X028667Y074772D01*
X028667Y074806D02*
X028465Y074806D01*
X028465Y074840D02*
X028667Y074840D01*
X028667Y074874D02*
X028465Y074874D01*
X028465Y074908D02*
X028667Y074908D01*
X028667Y074942D02*
X028465Y074942D01*
X026955Y074670D02*
X026753Y074670D01*
X026753Y074950D01*
X026955Y074950D01*
X026955Y074670D01*
X026955Y074704D02*
X026753Y074704D01*
X026753Y074738D02*
X026955Y074738D01*
X026955Y074772D02*
X026753Y074772D01*
X026753Y074806D02*
X026955Y074806D01*
X026955Y074840D02*
X026753Y074840D01*
X026753Y074874D02*
X026955Y074874D01*
X026955Y074908D02*
X026753Y074908D01*
X026753Y074942D02*
X026955Y074942D01*
X026267Y074250D02*
X026065Y074250D01*
X026267Y074250D02*
X026267Y073970D01*
X026065Y073970D01*
X026065Y074250D01*
X026065Y074004D02*
X026267Y074004D01*
X026267Y074038D02*
X026065Y074038D01*
X026065Y074072D02*
X026267Y074072D01*
X026267Y074106D02*
X026065Y074106D01*
X026065Y074140D02*
X026267Y074140D01*
X026267Y074174D02*
X026065Y074174D01*
X026065Y074208D02*
X026267Y074208D01*
X026267Y074242D02*
X026065Y074242D01*
X025755Y074250D02*
X025553Y074250D01*
X025755Y074250D02*
X025755Y073970D01*
X025553Y073970D01*
X025553Y074250D01*
X025553Y074004D02*
X025755Y074004D01*
X025755Y074038D02*
X025553Y074038D01*
X025553Y074072D02*
X025755Y074072D01*
X025755Y074106D02*
X025553Y074106D01*
X025553Y074140D02*
X025755Y074140D01*
X025755Y074174D02*
X025553Y074174D01*
X025553Y074208D02*
X025755Y074208D01*
X025755Y074242D02*
X025553Y074242D01*
X042753Y078100D02*
X042955Y078100D01*
X042955Y077820D01*
X042753Y077820D01*
X042753Y078100D01*
X042753Y077854D02*
X042955Y077854D01*
X042955Y077888D02*
X042753Y077888D01*
X042753Y077922D02*
X042955Y077922D01*
X042955Y077956D02*
X042753Y077956D01*
X042753Y077990D02*
X042955Y077990D01*
X042955Y078024D02*
X042753Y078024D01*
X042753Y078058D02*
X042955Y078058D01*
X042955Y078092D02*
X042753Y078092D01*
X043265Y078100D02*
X043467Y078100D01*
X043467Y077820D01*
X043265Y077820D01*
X043265Y078100D01*
X043265Y077854D02*
X043467Y077854D01*
X043467Y077888D02*
X043265Y077888D01*
X043265Y077922D02*
X043467Y077922D01*
X043467Y077956D02*
X043265Y077956D01*
X043265Y077990D02*
X043467Y077990D01*
X043467Y078024D02*
X043265Y078024D01*
X043265Y078058D02*
X043467Y078058D01*
X043467Y078092D02*
X043265Y078092D01*
X043553Y076750D02*
X043755Y076750D01*
X043755Y076470D01*
X043553Y076470D01*
X043553Y076750D01*
X043553Y076504D02*
X043755Y076504D01*
X043755Y076538D02*
X043553Y076538D01*
X043553Y076572D02*
X043755Y076572D01*
X043755Y076606D02*
X043553Y076606D01*
X043553Y076640D02*
X043755Y076640D01*
X043755Y076674D02*
X043553Y076674D01*
X043553Y076708D02*
X043755Y076708D01*
X043755Y076742D02*
X043553Y076742D01*
X044065Y076750D02*
X044267Y076750D01*
X044267Y076470D01*
X044065Y076470D01*
X044065Y076750D01*
X044065Y076504D02*
X044267Y076504D01*
X044267Y076538D02*
X044065Y076538D01*
X044065Y076572D02*
X044267Y076572D01*
X044267Y076606D02*
X044065Y076606D01*
X044065Y076640D02*
X044267Y076640D01*
X044267Y076674D02*
X044065Y076674D01*
X044065Y076708D02*
X044267Y076708D01*
X044267Y076742D02*
X044065Y076742D01*
X048650Y078653D02*
X048650Y078855D01*
X048650Y078653D02*
X048370Y078653D01*
X048370Y078855D01*
X048650Y078855D01*
X048650Y078687D02*
X048370Y078687D01*
X048370Y078721D02*
X048650Y078721D01*
X048650Y078755D02*
X048370Y078755D01*
X048370Y078789D02*
X048650Y078789D01*
X048650Y078823D02*
X048370Y078823D01*
X048650Y079165D02*
X048650Y079367D01*
X048650Y079165D02*
X048370Y079165D01*
X048370Y079367D01*
X048650Y079367D01*
X048650Y079199D02*
X048370Y079199D01*
X048370Y079233D02*
X048650Y079233D01*
X048650Y079267D02*
X048370Y079267D01*
X048370Y079301D02*
X048650Y079301D01*
X048650Y079335D02*
X048370Y079335D01*
X054103Y073870D02*
X054305Y073870D01*
X054103Y073870D02*
X054103Y074150D01*
X054305Y074150D01*
X054305Y073870D01*
X054305Y073904D02*
X054103Y073904D01*
X054103Y073938D02*
X054305Y073938D01*
X054305Y073972D02*
X054103Y073972D01*
X054103Y074006D02*
X054305Y074006D01*
X054305Y074040D02*
X054103Y074040D01*
X054103Y074074D02*
X054305Y074074D01*
X054305Y074108D02*
X054103Y074108D01*
X054103Y074142D02*
X054305Y074142D01*
X054615Y073870D02*
X054817Y073870D01*
X054615Y073870D02*
X054615Y074150D01*
X054817Y074150D01*
X054817Y073870D01*
X054817Y073904D02*
X054615Y073904D01*
X054615Y073938D02*
X054817Y073938D01*
X054817Y073972D02*
X054615Y073972D01*
X054615Y074006D02*
X054817Y074006D01*
X054817Y074040D02*
X054615Y074040D01*
X054615Y074074D02*
X054817Y074074D01*
X054817Y074108D02*
X054615Y074108D01*
X054615Y074142D02*
X054817Y074142D01*
X054765Y072150D02*
X054967Y072150D01*
X054967Y071870D01*
X054765Y071870D01*
X054765Y072150D01*
X054765Y071904D02*
X054967Y071904D01*
X054967Y071938D02*
X054765Y071938D01*
X054765Y071972D02*
X054967Y071972D01*
X054967Y072006D02*
X054765Y072006D01*
X054765Y072040D02*
X054967Y072040D01*
X054967Y072074D02*
X054765Y072074D01*
X054765Y072108D02*
X054967Y072108D01*
X054967Y072142D02*
X054765Y072142D01*
X054455Y072150D02*
X054253Y072150D01*
X054455Y072150D02*
X054455Y071870D01*
X054253Y071870D01*
X054253Y072150D01*
X054253Y071904D02*
X054455Y071904D01*
X054455Y071938D02*
X054253Y071938D01*
X054253Y071972D02*
X054455Y071972D01*
X054455Y072006D02*
X054253Y072006D01*
X054253Y072040D02*
X054455Y072040D01*
X054455Y072074D02*
X054253Y072074D01*
X054253Y072108D02*
X054455Y072108D01*
X054455Y072142D02*
X054253Y072142D01*
X053767Y071870D02*
X053565Y071870D01*
X053565Y072150D01*
X053767Y072150D01*
X053767Y071870D01*
X053767Y071904D02*
X053565Y071904D01*
X053565Y071938D02*
X053767Y071938D01*
X053767Y071972D02*
X053565Y071972D01*
X053565Y072006D02*
X053767Y072006D01*
X053767Y072040D02*
X053565Y072040D01*
X053565Y072074D02*
X053767Y072074D01*
X053767Y072108D02*
X053565Y072108D01*
X053565Y072142D02*
X053767Y072142D01*
X053255Y071870D02*
X053053Y071870D01*
X053053Y072150D01*
X053255Y072150D01*
X053255Y071870D01*
X053255Y071904D02*
X053053Y071904D01*
X053053Y071938D02*
X053255Y071938D01*
X053255Y071972D02*
X053053Y071972D01*
X053053Y072006D02*
X053255Y072006D01*
X053255Y072040D02*
X053053Y072040D01*
X053053Y072074D02*
X053255Y072074D01*
X053255Y072108D02*
X053053Y072108D01*
X053053Y072142D02*
X053255Y072142D01*
X053653Y071650D02*
X053855Y071650D01*
X053855Y071370D01*
X053653Y071370D01*
X053653Y071650D01*
X053653Y071404D02*
X053855Y071404D01*
X053855Y071438D02*
X053653Y071438D01*
X053653Y071472D02*
X053855Y071472D01*
X053855Y071506D02*
X053653Y071506D01*
X053653Y071540D02*
X053855Y071540D01*
X053855Y071574D02*
X053653Y071574D01*
X053653Y071608D02*
X053855Y071608D01*
X053855Y071642D02*
X053653Y071642D01*
X054165Y071650D02*
X054367Y071650D01*
X054367Y071370D01*
X054165Y071370D01*
X054165Y071650D01*
X054165Y071404D02*
X054367Y071404D01*
X054367Y071438D02*
X054165Y071438D01*
X054165Y071472D02*
X054367Y071472D01*
X054367Y071506D02*
X054165Y071506D01*
X054165Y071540D02*
X054367Y071540D01*
X054367Y071574D02*
X054165Y071574D01*
X054165Y071608D02*
X054367Y071608D01*
X054367Y071642D02*
X054165Y071642D01*
X044567Y072650D02*
X044365Y072650D01*
X044567Y072650D02*
X044567Y072370D01*
X044365Y072370D01*
X044365Y072650D01*
X044365Y072404D02*
X044567Y072404D01*
X044567Y072438D02*
X044365Y072438D01*
X044365Y072472D02*
X044567Y072472D01*
X044567Y072506D02*
X044365Y072506D01*
X044365Y072540D02*
X044567Y072540D01*
X044567Y072574D02*
X044365Y072574D01*
X044365Y072608D02*
X044567Y072608D01*
X044567Y072642D02*
X044365Y072642D01*
X044055Y072650D02*
X043853Y072650D01*
X044055Y072650D02*
X044055Y072370D01*
X043853Y072370D01*
X043853Y072650D01*
X043853Y072404D02*
X044055Y072404D01*
X044055Y072438D02*
X043853Y072438D01*
X043853Y072472D02*
X044055Y072472D01*
X044055Y072506D02*
X043853Y072506D01*
X043853Y072540D02*
X044055Y072540D01*
X044055Y072574D02*
X043853Y072574D01*
X043853Y072608D02*
X044055Y072608D01*
X044055Y072642D02*
X043853Y072642D01*
X052870Y084953D02*
X052870Y085155D01*
X053150Y085155D01*
X053150Y084953D01*
X052870Y084953D01*
X052870Y084987D02*
X053150Y084987D01*
X053150Y085021D02*
X052870Y085021D01*
X052870Y085055D02*
X053150Y085055D01*
X053150Y085089D02*
X052870Y085089D01*
X052870Y085123D02*
X053150Y085123D01*
X052870Y085465D02*
X052870Y085667D01*
X053150Y085667D01*
X053150Y085465D01*
X052870Y085465D01*
X052870Y085499D02*
X053150Y085499D01*
X053150Y085533D02*
X052870Y085533D01*
X052870Y085567D02*
X053150Y085567D01*
X053150Y085601D02*
X052870Y085601D01*
X052870Y085635D02*
X053150Y085635D01*
X053870Y085667D02*
X053870Y085465D01*
X053870Y085667D02*
X054150Y085667D01*
X054150Y085465D01*
X053870Y085465D01*
X053870Y085499D02*
X054150Y085499D01*
X054150Y085533D02*
X053870Y085533D01*
X053870Y085567D02*
X054150Y085567D01*
X054150Y085601D02*
X053870Y085601D01*
X053870Y085635D02*
X054150Y085635D01*
X053870Y085155D02*
X053870Y084953D01*
X053870Y085155D02*
X054150Y085155D01*
X054150Y084953D01*
X053870Y084953D01*
X053870Y084987D02*
X054150Y084987D01*
X054150Y085021D02*
X053870Y085021D01*
X053870Y085055D02*
X054150Y085055D01*
X054150Y085089D02*
X053870Y085089D01*
X053870Y085123D02*
X054150Y085123D01*
D13*
X050596Y078421D02*
X050596Y077897D01*
X050548Y077897D01*
X050548Y078421D01*
X050596Y078421D01*
X050596Y077922D02*
X050548Y077922D01*
X050548Y077947D02*
X050596Y077947D01*
X050596Y077972D02*
X050548Y077972D01*
X050548Y077997D02*
X050596Y077997D01*
X050596Y078022D02*
X050548Y078022D01*
X050548Y078047D02*
X050596Y078047D01*
X050596Y078072D02*
X050548Y078072D01*
X050548Y078097D02*
X050596Y078097D01*
X050596Y078122D02*
X050548Y078122D01*
X050548Y078147D02*
X050596Y078147D01*
X050596Y078172D02*
X050548Y078172D01*
X050548Y078197D02*
X050596Y078197D01*
X050596Y078222D02*
X050548Y078222D01*
X050548Y078247D02*
X050596Y078247D01*
X050596Y078272D02*
X050548Y078272D01*
X050548Y078297D02*
X050596Y078297D01*
X050596Y078322D02*
X050548Y078322D01*
X050548Y078347D02*
X050596Y078347D01*
X050596Y078372D02*
X050548Y078372D01*
X050548Y078397D02*
X050596Y078397D01*
X050400Y078421D02*
X050400Y077897D01*
X050352Y077897D01*
X050352Y078421D01*
X050400Y078421D01*
X050400Y077922D02*
X050352Y077922D01*
X050352Y077947D02*
X050400Y077947D01*
X050400Y077972D02*
X050352Y077972D01*
X050352Y077997D02*
X050400Y077997D01*
X050400Y078022D02*
X050352Y078022D01*
X050352Y078047D02*
X050400Y078047D01*
X050400Y078072D02*
X050352Y078072D01*
X050352Y078097D02*
X050400Y078097D01*
X050400Y078122D02*
X050352Y078122D01*
X050352Y078147D02*
X050400Y078147D01*
X050400Y078172D02*
X050352Y078172D01*
X050352Y078197D02*
X050400Y078197D01*
X050400Y078222D02*
X050352Y078222D01*
X050352Y078247D02*
X050400Y078247D01*
X050400Y078272D02*
X050352Y078272D01*
X050352Y078297D02*
X050400Y078297D01*
X050400Y078322D02*
X050352Y078322D01*
X050352Y078347D02*
X050400Y078347D01*
X050400Y078372D02*
X050352Y078372D01*
X050352Y078397D02*
X050400Y078397D01*
X050203Y078421D02*
X050203Y077897D01*
X050155Y077897D01*
X050155Y078421D01*
X050203Y078421D01*
X050203Y077922D02*
X050155Y077922D01*
X050155Y077947D02*
X050203Y077947D01*
X050203Y077972D02*
X050155Y077972D01*
X050155Y077997D02*
X050203Y077997D01*
X050203Y078022D02*
X050155Y078022D01*
X050155Y078047D02*
X050203Y078047D01*
X050203Y078072D02*
X050155Y078072D01*
X050155Y078097D02*
X050203Y078097D01*
X050203Y078122D02*
X050155Y078122D01*
X050155Y078147D02*
X050203Y078147D01*
X050203Y078172D02*
X050155Y078172D01*
X050155Y078197D02*
X050203Y078197D01*
X050203Y078222D02*
X050155Y078222D01*
X050155Y078247D02*
X050203Y078247D01*
X050203Y078272D02*
X050155Y078272D01*
X050155Y078297D02*
X050203Y078297D01*
X050203Y078322D02*
X050155Y078322D01*
X050155Y078347D02*
X050203Y078347D01*
X050203Y078372D02*
X050155Y078372D01*
X050155Y078397D02*
X050203Y078397D01*
X050006Y078421D02*
X050006Y077897D01*
X049958Y077897D01*
X049958Y078421D01*
X050006Y078421D01*
X050006Y077922D02*
X049958Y077922D01*
X049958Y077947D02*
X050006Y077947D01*
X050006Y077972D02*
X049958Y077972D01*
X049958Y077997D02*
X050006Y077997D01*
X050006Y078022D02*
X049958Y078022D01*
X049958Y078047D02*
X050006Y078047D01*
X050006Y078072D02*
X049958Y078072D01*
X049958Y078097D02*
X050006Y078097D01*
X050006Y078122D02*
X049958Y078122D01*
X049958Y078147D02*
X050006Y078147D01*
X050006Y078172D02*
X049958Y078172D01*
X049958Y078197D02*
X050006Y078197D01*
X050006Y078222D02*
X049958Y078222D01*
X049958Y078247D02*
X050006Y078247D01*
X050006Y078272D02*
X049958Y078272D01*
X049958Y078297D02*
X050006Y078297D01*
X050006Y078322D02*
X049958Y078322D01*
X049958Y078347D02*
X050006Y078347D01*
X050006Y078372D02*
X049958Y078372D01*
X049958Y078397D02*
X050006Y078397D01*
X049809Y078421D02*
X049809Y077897D01*
X049761Y077897D01*
X049761Y078421D01*
X049809Y078421D01*
X049809Y077922D02*
X049761Y077922D01*
X049761Y077947D02*
X049809Y077947D01*
X049809Y077972D02*
X049761Y077972D01*
X049761Y077997D02*
X049809Y077997D01*
X049809Y078022D02*
X049761Y078022D01*
X049761Y078047D02*
X049809Y078047D01*
X049809Y078072D02*
X049761Y078072D01*
X049761Y078097D02*
X049809Y078097D01*
X049809Y078122D02*
X049761Y078122D01*
X049761Y078147D02*
X049809Y078147D01*
X049809Y078172D02*
X049761Y078172D01*
X049761Y078197D02*
X049809Y078197D01*
X049809Y078222D02*
X049761Y078222D01*
X049761Y078247D02*
X049809Y078247D01*
X049809Y078272D02*
X049761Y078272D01*
X049761Y078297D02*
X049809Y078297D01*
X049809Y078322D02*
X049761Y078322D01*
X049761Y078347D02*
X049809Y078347D01*
X049809Y078372D02*
X049761Y078372D01*
X049761Y078397D02*
X049809Y078397D01*
X049612Y078421D02*
X049612Y077897D01*
X049564Y077897D01*
X049564Y078421D01*
X049612Y078421D01*
X049612Y077922D02*
X049564Y077922D01*
X049564Y077947D02*
X049612Y077947D01*
X049612Y077972D02*
X049564Y077972D01*
X049564Y077997D02*
X049612Y077997D01*
X049612Y078022D02*
X049564Y078022D01*
X049564Y078047D02*
X049612Y078047D01*
X049612Y078072D02*
X049564Y078072D01*
X049564Y078097D02*
X049612Y078097D01*
X049612Y078122D02*
X049564Y078122D01*
X049564Y078147D02*
X049612Y078147D01*
X049612Y078172D02*
X049564Y078172D01*
X049564Y078197D02*
X049612Y078197D01*
X049612Y078222D02*
X049564Y078222D01*
X049564Y078247D02*
X049612Y078247D01*
X049612Y078272D02*
X049564Y078272D01*
X049564Y078297D02*
X049612Y078297D01*
X049612Y078322D02*
X049564Y078322D01*
X049564Y078347D02*
X049612Y078347D01*
X049612Y078372D02*
X049564Y078372D01*
X049564Y078397D02*
X049612Y078397D01*
X049415Y078421D02*
X049415Y077897D01*
X049367Y077897D01*
X049367Y078421D01*
X049415Y078421D01*
X049415Y077922D02*
X049367Y077922D01*
X049367Y077947D02*
X049415Y077947D01*
X049415Y077972D02*
X049367Y077972D01*
X049367Y077997D02*
X049415Y077997D01*
X049415Y078022D02*
X049367Y078022D01*
X049367Y078047D02*
X049415Y078047D01*
X049415Y078072D02*
X049367Y078072D01*
X049367Y078097D02*
X049415Y078097D01*
X049415Y078122D02*
X049367Y078122D01*
X049367Y078147D02*
X049415Y078147D01*
X049415Y078172D02*
X049367Y078172D01*
X049367Y078197D02*
X049415Y078197D01*
X049415Y078222D02*
X049367Y078222D01*
X049367Y078247D02*
X049415Y078247D01*
X049415Y078272D02*
X049367Y078272D01*
X049367Y078297D02*
X049415Y078297D01*
X049415Y078322D02*
X049367Y078322D01*
X049367Y078347D02*
X049415Y078347D01*
X049415Y078372D02*
X049367Y078372D01*
X049367Y078397D02*
X049415Y078397D01*
X049218Y078421D02*
X049218Y077897D01*
X049170Y077897D01*
X049170Y078421D01*
X049218Y078421D01*
X049218Y077922D02*
X049170Y077922D01*
X049170Y077947D02*
X049218Y077947D01*
X049218Y077972D02*
X049170Y077972D01*
X049170Y077997D02*
X049218Y077997D01*
X049218Y078022D02*
X049170Y078022D01*
X049170Y078047D02*
X049218Y078047D01*
X049218Y078072D02*
X049170Y078072D01*
X049170Y078097D02*
X049218Y078097D01*
X049218Y078122D02*
X049170Y078122D01*
X049170Y078147D02*
X049218Y078147D01*
X049218Y078172D02*
X049170Y078172D01*
X049170Y078197D02*
X049218Y078197D01*
X049218Y078222D02*
X049170Y078222D01*
X049170Y078247D02*
X049218Y078247D01*
X049218Y078272D02*
X049170Y078272D01*
X049170Y078297D02*
X049218Y078297D01*
X049218Y078322D02*
X049170Y078322D01*
X049170Y078347D02*
X049218Y078347D01*
X049218Y078372D02*
X049170Y078372D01*
X049170Y078397D02*
X049218Y078397D01*
X049022Y078421D02*
X049022Y077897D01*
X048974Y077897D01*
X048974Y078421D01*
X049022Y078421D01*
X049022Y077922D02*
X048974Y077922D01*
X048974Y077947D02*
X049022Y077947D01*
X049022Y077972D02*
X048974Y077972D01*
X048974Y077997D02*
X049022Y077997D01*
X049022Y078022D02*
X048974Y078022D01*
X048974Y078047D02*
X049022Y078047D01*
X049022Y078072D02*
X048974Y078072D01*
X048974Y078097D02*
X049022Y078097D01*
X049022Y078122D02*
X048974Y078122D01*
X048974Y078147D02*
X049022Y078147D01*
X049022Y078172D02*
X048974Y078172D01*
X048974Y078197D02*
X049022Y078197D01*
X049022Y078222D02*
X048974Y078222D01*
X048974Y078247D02*
X049022Y078247D01*
X049022Y078272D02*
X048974Y078272D01*
X048974Y078297D02*
X049022Y078297D01*
X049022Y078322D02*
X048974Y078322D01*
X048974Y078347D02*
X049022Y078347D01*
X049022Y078372D02*
X048974Y078372D01*
X048974Y078397D02*
X049022Y078397D01*
X048825Y078421D02*
X048825Y077897D01*
X048777Y077897D01*
X048777Y078421D01*
X048825Y078421D01*
X048825Y077922D02*
X048777Y077922D01*
X048777Y077947D02*
X048825Y077947D01*
X048825Y077972D02*
X048777Y077972D01*
X048777Y077997D02*
X048825Y077997D01*
X048825Y078022D02*
X048777Y078022D01*
X048777Y078047D02*
X048825Y078047D01*
X048825Y078072D02*
X048777Y078072D01*
X048777Y078097D02*
X048825Y078097D01*
X048825Y078122D02*
X048777Y078122D01*
X048777Y078147D02*
X048825Y078147D01*
X048825Y078172D02*
X048777Y078172D01*
X048777Y078197D02*
X048825Y078197D01*
X048825Y078222D02*
X048777Y078222D01*
X048777Y078247D02*
X048825Y078247D01*
X048825Y078272D02*
X048777Y078272D01*
X048777Y078297D02*
X048825Y078297D01*
X048825Y078322D02*
X048777Y078322D01*
X048777Y078347D02*
X048825Y078347D01*
X048825Y078372D02*
X048777Y078372D01*
X048777Y078397D02*
X048825Y078397D01*
X048628Y078421D02*
X048628Y077897D01*
X048580Y077897D01*
X048580Y078421D01*
X048628Y078421D01*
X048628Y077922D02*
X048580Y077922D01*
X048580Y077947D02*
X048628Y077947D01*
X048628Y077972D02*
X048580Y077972D01*
X048580Y077997D02*
X048628Y077997D01*
X048628Y078022D02*
X048580Y078022D01*
X048580Y078047D02*
X048628Y078047D01*
X048628Y078072D02*
X048580Y078072D01*
X048580Y078097D02*
X048628Y078097D01*
X048628Y078122D02*
X048580Y078122D01*
X048580Y078147D02*
X048628Y078147D01*
X048628Y078172D02*
X048580Y078172D01*
X048580Y078197D02*
X048628Y078197D01*
X048628Y078222D02*
X048580Y078222D01*
X048580Y078247D02*
X048628Y078247D01*
X048628Y078272D02*
X048580Y078272D01*
X048580Y078297D02*
X048628Y078297D01*
X048628Y078322D02*
X048580Y078322D01*
X048580Y078347D02*
X048628Y078347D01*
X048628Y078372D02*
X048580Y078372D01*
X048580Y078397D02*
X048628Y078397D01*
X048431Y078421D02*
X048431Y077897D01*
X048383Y077897D01*
X048383Y078421D01*
X048431Y078421D01*
X048431Y077922D02*
X048383Y077922D01*
X048383Y077947D02*
X048431Y077947D01*
X048431Y077972D02*
X048383Y077972D01*
X048383Y077997D02*
X048431Y077997D01*
X048431Y078022D02*
X048383Y078022D01*
X048383Y078047D02*
X048431Y078047D01*
X048431Y078072D02*
X048383Y078072D01*
X048383Y078097D02*
X048431Y078097D01*
X048431Y078122D02*
X048383Y078122D01*
X048383Y078147D02*
X048431Y078147D01*
X048431Y078172D02*
X048383Y078172D01*
X048383Y078197D02*
X048431Y078197D01*
X048431Y078222D02*
X048383Y078222D01*
X048383Y078247D02*
X048431Y078247D01*
X048431Y078272D02*
X048383Y078272D01*
X048383Y078297D02*
X048431Y078297D01*
X048431Y078322D02*
X048383Y078322D01*
X048383Y078347D02*
X048431Y078347D01*
X048431Y078372D02*
X048383Y078372D01*
X048383Y078397D02*
X048431Y078397D01*
X048234Y078421D02*
X048234Y077897D01*
X048186Y077897D01*
X048186Y078421D01*
X048234Y078421D01*
X048234Y077922D02*
X048186Y077922D01*
X048186Y077947D02*
X048234Y077947D01*
X048234Y077972D02*
X048186Y077972D01*
X048186Y077997D02*
X048234Y077997D01*
X048234Y078022D02*
X048186Y078022D01*
X048186Y078047D02*
X048234Y078047D01*
X048234Y078072D02*
X048186Y078072D01*
X048186Y078097D02*
X048234Y078097D01*
X048234Y078122D02*
X048186Y078122D01*
X048186Y078147D02*
X048234Y078147D01*
X048234Y078172D02*
X048186Y078172D01*
X048186Y078197D02*
X048234Y078197D01*
X048234Y078222D02*
X048186Y078222D01*
X048186Y078247D02*
X048234Y078247D01*
X048234Y078272D02*
X048186Y078272D01*
X048186Y078297D02*
X048234Y078297D01*
X048234Y078322D02*
X048186Y078322D01*
X048186Y078347D02*
X048234Y078347D01*
X048234Y078372D02*
X048186Y078372D01*
X048186Y078397D02*
X048234Y078397D01*
X048037Y078421D02*
X048037Y077897D01*
X047989Y077897D01*
X047989Y078421D01*
X048037Y078421D01*
X048037Y077922D02*
X047989Y077922D01*
X047989Y077947D02*
X048037Y077947D01*
X048037Y077972D02*
X047989Y077972D01*
X047989Y077997D02*
X048037Y077997D01*
X048037Y078022D02*
X047989Y078022D01*
X047989Y078047D02*
X048037Y078047D01*
X048037Y078072D02*
X047989Y078072D01*
X047989Y078097D02*
X048037Y078097D01*
X048037Y078122D02*
X047989Y078122D01*
X047989Y078147D02*
X048037Y078147D01*
X048037Y078172D02*
X047989Y078172D01*
X047989Y078197D02*
X048037Y078197D01*
X048037Y078222D02*
X047989Y078222D01*
X047989Y078247D02*
X048037Y078247D01*
X048037Y078272D02*
X047989Y078272D01*
X047989Y078297D02*
X048037Y078297D01*
X048037Y078322D02*
X047989Y078322D01*
X047989Y078347D02*
X048037Y078347D01*
X048037Y078372D02*
X047989Y078372D01*
X047989Y078397D02*
X048037Y078397D01*
X047841Y078421D02*
X047841Y077897D01*
X047793Y077897D01*
X047793Y078421D01*
X047841Y078421D01*
X047841Y077922D02*
X047793Y077922D01*
X047793Y077947D02*
X047841Y077947D01*
X047841Y077972D02*
X047793Y077972D01*
X047793Y077997D02*
X047841Y077997D01*
X047841Y078022D02*
X047793Y078022D01*
X047793Y078047D02*
X047841Y078047D01*
X047841Y078072D02*
X047793Y078072D01*
X047793Y078097D02*
X047841Y078097D01*
X047841Y078122D02*
X047793Y078122D01*
X047793Y078147D02*
X047841Y078147D01*
X047841Y078172D02*
X047793Y078172D01*
X047793Y078197D02*
X047841Y078197D01*
X047841Y078222D02*
X047793Y078222D01*
X047793Y078247D02*
X047841Y078247D01*
X047841Y078272D02*
X047793Y078272D01*
X047793Y078297D02*
X047841Y078297D01*
X047841Y078322D02*
X047793Y078322D01*
X047793Y078347D02*
X047841Y078347D01*
X047841Y078372D02*
X047793Y078372D01*
X047793Y078397D02*
X047841Y078397D01*
X047644Y078421D02*
X047644Y077897D01*
X047596Y077897D01*
X047596Y078421D01*
X047644Y078421D01*
X047644Y077922D02*
X047596Y077922D01*
X047596Y077947D02*
X047644Y077947D01*
X047644Y077972D02*
X047596Y077972D01*
X047596Y077997D02*
X047644Y077997D01*
X047644Y078022D02*
X047596Y078022D01*
X047596Y078047D02*
X047644Y078047D01*
X047644Y078072D02*
X047596Y078072D01*
X047596Y078097D02*
X047644Y078097D01*
X047644Y078122D02*
X047596Y078122D01*
X047596Y078147D02*
X047644Y078147D01*
X047644Y078172D02*
X047596Y078172D01*
X047596Y078197D02*
X047644Y078197D01*
X047644Y078222D02*
X047596Y078222D01*
X047596Y078247D02*
X047644Y078247D01*
X047644Y078272D02*
X047596Y078272D01*
X047596Y078297D02*
X047644Y078297D01*
X047644Y078322D02*
X047596Y078322D01*
X047596Y078347D02*
X047644Y078347D01*
X047644Y078372D02*
X047596Y078372D01*
X047596Y078397D02*
X047644Y078397D01*
X047447Y078421D02*
X047447Y077897D01*
X047399Y077897D01*
X047399Y078421D01*
X047447Y078421D01*
X047447Y077922D02*
X047399Y077922D01*
X047399Y077947D02*
X047447Y077947D01*
X047447Y077972D02*
X047399Y077972D01*
X047399Y077997D02*
X047447Y077997D01*
X047447Y078022D02*
X047399Y078022D01*
X047399Y078047D02*
X047447Y078047D01*
X047447Y078072D02*
X047399Y078072D01*
X047399Y078097D02*
X047447Y078097D01*
X047447Y078122D02*
X047399Y078122D01*
X047399Y078147D02*
X047447Y078147D01*
X047447Y078172D02*
X047399Y078172D01*
X047399Y078197D02*
X047447Y078197D01*
X047447Y078222D02*
X047399Y078222D01*
X047399Y078247D02*
X047447Y078247D01*
X047447Y078272D02*
X047399Y078272D01*
X047399Y078297D02*
X047447Y078297D01*
X047447Y078322D02*
X047399Y078322D01*
X047399Y078347D02*
X047447Y078347D01*
X047447Y078372D02*
X047399Y078372D01*
X047399Y078397D02*
X047447Y078397D01*
X047250Y078421D02*
X047250Y077897D01*
X047202Y077897D01*
X047202Y078421D01*
X047250Y078421D01*
X047250Y077922D02*
X047202Y077922D01*
X047202Y077947D02*
X047250Y077947D01*
X047250Y077972D02*
X047202Y077972D01*
X047202Y077997D02*
X047250Y077997D01*
X047250Y078022D02*
X047202Y078022D01*
X047202Y078047D02*
X047250Y078047D01*
X047250Y078072D02*
X047202Y078072D01*
X047202Y078097D02*
X047250Y078097D01*
X047250Y078122D02*
X047202Y078122D01*
X047202Y078147D02*
X047250Y078147D01*
X047250Y078172D02*
X047202Y078172D01*
X047202Y078197D02*
X047250Y078197D01*
X047250Y078222D02*
X047202Y078222D01*
X047202Y078247D02*
X047250Y078247D01*
X047250Y078272D02*
X047202Y078272D01*
X047202Y078297D02*
X047250Y078297D01*
X047250Y078322D02*
X047202Y078322D01*
X047202Y078347D02*
X047250Y078347D01*
X047250Y078372D02*
X047202Y078372D01*
X047202Y078397D02*
X047250Y078397D01*
X047053Y078421D02*
X047053Y077897D01*
X047005Y077897D01*
X047005Y078421D01*
X047053Y078421D01*
X047053Y077922D02*
X047005Y077922D01*
X047005Y077947D02*
X047053Y077947D01*
X047053Y077972D02*
X047005Y077972D01*
X047005Y077997D02*
X047053Y077997D01*
X047053Y078022D02*
X047005Y078022D01*
X047005Y078047D02*
X047053Y078047D01*
X047053Y078072D02*
X047005Y078072D01*
X047005Y078097D02*
X047053Y078097D01*
X047053Y078122D02*
X047005Y078122D01*
X047005Y078147D02*
X047053Y078147D01*
X047053Y078172D02*
X047005Y078172D01*
X047005Y078197D02*
X047053Y078197D01*
X047053Y078222D02*
X047005Y078222D01*
X047005Y078247D02*
X047053Y078247D01*
X047053Y078272D02*
X047005Y078272D01*
X047005Y078297D02*
X047053Y078297D01*
X047053Y078322D02*
X047005Y078322D01*
X047005Y078347D02*
X047053Y078347D01*
X047053Y078372D02*
X047005Y078372D01*
X047005Y078397D02*
X047053Y078397D01*
X046856Y078421D02*
X046856Y077897D01*
X046808Y077897D01*
X046808Y078421D01*
X046856Y078421D01*
X046856Y077922D02*
X046808Y077922D01*
X046808Y077947D02*
X046856Y077947D01*
X046856Y077972D02*
X046808Y077972D01*
X046808Y077997D02*
X046856Y077997D01*
X046856Y078022D02*
X046808Y078022D01*
X046808Y078047D02*
X046856Y078047D01*
X046856Y078072D02*
X046808Y078072D01*
X046808Y078097D02*
X046856Y078097D01*
X046856Y078122D02*
X046808Y078122D01*
X046808Y078147D02*
X046856Y078147D01*
X046856Y078172D02*
X046808Y078172D01*
X046808Y078197D02*
X046856Y078197D01*
X046856Y078222D02*
X046808Y078222D01*
X046808Y078247D02*
X046856Y078247D01*
X046856Y078272D02*
X046808Y078272D01*
X046808Y078297D02*
X046856Y078297D01*
X046856Y078322D02*
X046808Y078322D01*
X046808Y078347D02*
X046856Y078347D01*
X046856Y078372D02*
X046808Y078372D01*
X046808Y078397D02*
X046856Y078397D01*
X046659Y078421D02*
X046659Y077897D01*
X046611Y077897D01*
X046611Y078421D01*
X046659Y078421D01*
X046659Y077922D02*
X046611Y077922D01*
X046611Y077947D02*
X046659Y077947D01*
X046659Y077972D02*
X046611Y077972D01*
X046611Y077997D02*
X046659Y077997D01*
X046659Y078022D02*
X046611Y078022D01*
X046611Y078047D02*
X046659Y078047D01*
X046659Y078072D02*
X046611Y078072D01*
X046611Y078097D02*
X046659Y078097D01*
X046659Y078122D02*
X046611Y078122D01*
X046611Y078147D02*
X046659Y078147D01*
X046659Y078172D02*
X046611Y078172D01*
X046611Y078197D02*
X046659Y078197D01*
X046659Y078222D02*
X046611Y078222D01*
X046611Y078247D02*
X046659Y078247D01*
X046659Y078272D02*
X046611Y078272D01*
X046611Y078297D02*
X046659Y078297D01*
X046659Y078322D02*
X046611Y078322D01*
X046611Y078347D02*
X046659Y078347D01*
X046659Y078372D02*
X046611Y078372D01*
X046611Y078397D02*
X046659Y078397D01*
X046463Y078421D02*
X046463Y077897D01*
X046415Y077897D01*
X046415Y078421D01*
X046463Y078421D01*
X046463Y077922D02*
X046415Y077922D01*
X046415Y077947D02*
X046463Y077947D01*
X046463Y077972D02*
X046415Y077972D01*
X046415Y077997D02*
X046463Y077997D01*
X046463Y078022D02*
X046415Y078022D01*
X046415Y078047D02*
X046463Y078047D01*
X046463Y078072D02*
X046415Y078072D01*
X046415Y078097D02*
X046463Y078097D01*
X046463Y078122D02*
X046415Y078122D01*
X046415Y078147D02*
X046463Y078147D01*
X046463Y078172D02*
X046415Y078172D01*
X046415Y078197D02*
X046463Y078197D01*
X046463Y078222D02*
X046415Y078222D01*
X046415Y078247D02*
X046463Y078247D01*
X046463Y078272D02*
X046415Y078272D01*
X046415Y078297D02*
X046463Y078297D01*
X046463Y078322D02*
X046415Y078322D01*
X046415Y078347D02*
X046463Y078347D01*
X046463Y078372D02*
X046415Y078372D01*
X046415Y078397D02*
X046463Y078397D01*
X046266Y078421D02*
X046266Y077897D01*
X046218Y077897D01*
X046218Y078421D01*
X046266Y078421D01*
X046266Y077922D02*
X046218Y077922D01*
X046218Y077947D02*
X046266Y077947D01*
X046266Y077972D02*
X046218Y077972D01*
X046218Y077997D02*
X046266Y077997D01*
X046266Y078022D02*
X046218Y078022D01*
X046218Y078047D02*
X046266Y078047D01*
X046266Y078072D02*
X046218Y078072D01*
X046218Y078097D02*
X046266Y078097D01*
X046266Y078122D02*
X046218Y078122D01*
X046218Y078147D02*
X046266Y078147D01*
X046266Y078172D02*
X046218Y078172D01*
X046218Y078197D02*
X046266Y078197D01*
X046266Y078222D02*
X046218Y078222D01*
X046218Y078247D02*
X046266Y078247D01*
X046266Y078272D02*
X046218Y078272D01*
X046218Y078297D02*
X046266Y078297D01*
X046266Y078322D02*
X046218Y078322D01*
X046218Y078347D02*
X046266Y078347D01*
X046266Y078372D02*
X046218Y078372D01*
X046218Y078397D02*
X046266Y078397D01*
X046069Y078421D02*
X046069Y077897D01*
X046021Y077897D01*
X046021Y078421D01*
X046069Y078421D01*
X046069Y077922D02*
X046021Y077922D01*
X046021Y077947D02*
X046069Y077947D01*
X046069Y077972D02*
X046021Y077972D01*
X046021Y077997D02*
X046069Y077997D01*
X046069Y078022D02*
X046021Y078022D01*
X046021Y078047D02*
X046069Y078047D01*
X046069Y078072D02*
X046021Y078072D01*
X046021Y078097D02*
X046069Y078097D01*
X046069Y078122D02*
X046021Y078122D01*
X046021Y078147D02*
X046069Y078147D01*
X046069Y078172D02*
X046021Y078172D01*
X046021Y078197D02*
X046069Y078197D01*
X046069Y078222D02*
X046021Y078222D01*
X046021Y078247D02*
X046069Y078247D01*
X046069Y078272D02*
X046021Y078272D01*
X046021Y078297D02*
X046069Y078297D01*
X046069Y078322D02*
X046021Y078322D01*
X046021Y078347D02*
X046069Y078347D01*
X046069Y078372D02*
X046021Y078372D01*
X046021Y078397D02*
X046069Y078397D01*
X045872Y078421D02*
X045872Y077897D01*
X045824Y077897D01*
X045824Y078421D01*
X045872Y078421D01*
X045872Y077922D02*
X045824Y077922D01*
X045824Y077947D02*
X045872Y077947D01*
X045872Y077972D02*
X045824Y077972D01*
X045824Y077997D02*
X045872Y077997D01*
X045872Y078022D02*
X045824Y078022D01*
X045824Y078047D02*
X045872Y078047D01*
X045872Y078072D02*
X045824Y078072D01*
X045824Y078097D02*
X045872Y078097D01*
X045872Y078122D02*
X045824Y078122D01*
X045824Y078147D02*
X045872Y078147D01*
X045872Y078172D02*
X045824Y078172D01*
X045824Y078197D02*
X045872Y078197D01*
X045872Y078222D02*
X045824Y078222D01*
X045824Y078247D02*
X045872Y078247D01*
X045872Y078272D02*
X045824Y078272D01*
X045824Y078297D02*
X045872Y078297D01*
X045872Y078322D02*
X045824Y078322D01*
X045824Y078347D02*
X045872Y078347D01*
X045872Y078372D02*
X045824Y078372D01*
X045824Y078397D02*
X045872Y078397D01*
X045323Y077396D02*
X045323Y077348D01*
X044799Y077348D01*
X044799Y077396D01*
X045323Y077396D01*
X045323Y077373D02*
X044799Y077373D01*
X045323Y077199D02*
X045323Y077151D01*
X044799Y077151D01*
X044799Y077199D01*
X045323Y077199D01*
X045323Y077176D02*
X044799Y077176D01*
X045323Y077002D02*
X045323Y076954D01*
X044799Y076954D01*
X044799Y077002D01*
X045323Y077002D01*
X045323Y076979D02*
X044799Y076979D01*
X045323Y076805D02*
X045323Y076757D01*
X044799Y076757D01*
X044799Y076805D01*
X045323Y076805D01*
X045323Y076782D02*
X044799Y076782D01*
X045323Y076608D02*
X045323Y076560D01*
X044799Y076560D01*
X044799Y076608D01*
X045323Y076608D01*
X045323Y076585D02*
X044799Y076585D01*
X045323Y076412D02*
X045323Y076364D01*
X044799Y076364D01*
X044799Y076412D01*
X045323Y076412D01*
X045323Y076389D02*
X044799Y076389D01*
X045323Y076215D02*
X045323Y076167D01*
X044799Y076167D01*
X044799Y076215D01*
X045323Y076215D01*
X045323Y076192D02*
X044799Y076192D01*
X045323Y076018D02*
X045323Y075970D01*
X044799Y075970D01*
X044799Y076018D01*
X045323Y076018D01*
X045323Y075995D02*
X044799Y075995D01*
X045323Y075821D02*
X045323Y075773D01*
X044799Y075773D01*
X044799Y075821D01*
X045323Y075821D01*
X045323Y075798D02*
X044799Y075798D01*
X045323Y075624D02*
X045323Y075576D01*
X044799Y075576D01*
X044799Y075624D01*
X045323Y075624D01*
X045323Y075601D02*
X044799Y075601D01*
X045323Y075427D02*
X045323Y075379D01*
X044799Y075379D01*
X044799Y075427D01*
X045323Y075427D01*
X045323Y075404D02*
X044799Y075404D01*
X045323Y075230D02*
X045323Y075182D01*
X044799Y075182D01*
X044799Y075230D01*
X045323Y075230D01*
X045323Y075207D02*
X044799Y075207D01*
X045323Y075034D02*
X045323Y074986D01*
X044799Y074986D01*
X044799Y075034D01*
X045323Y075034D01*
X045323Y075011D02*
X044799Y075011D01*
X045323Y074837D02*
X045323Y074789D01*
X044799Y074789D01*
X044799Y074837D01*
X045323Y074837D01*
X045323Y074814D02*
X044799Y074814D01*
X045323Y074640D02*
X045323Y074592D01*
X044799Y074592D01*
X044799Y074640D01*
X045323Y074640D01*
X045323Y074617D02*
X044799Y074617D01*
X045323Y074443D02*
X045323Y074395D01*
X044799Y074395D01*
X044799Y074443D01*
X045323Y074443D01*
X045323Y074420D02*
X044799Y074420D01*
X045323Y074246D02*
X045323Y074198D01*
X044799Y074198D01*
X044799Y074246D01*
X045323Y074246D01*
X045323Y074223D02*
X044799Y074223D01*
X045323Y074049D02*
X045323Y074001D01*
X044799Y074001D01*
X044799Y074049D01*
X045323Y074049D01*
X045323Y074026D02*
X044799Y074026D01*
X045323Y073853D02*
X045323Y073805D01*
X044799Y073805D01*
X044799Y073853D01*
X045323Y073853D01*
X045323Y073830D02*
X044799Y073830D01*
X045323Y073656D02*
X045323Y073608D01*
X044799Y073608D01*
X044799Y073656D01*
X045323Y073656D01*
X045323Y073633D02*
X044799Y073633D01*
X045323Y073459D02*
X045323Y073411D01*
X044799Y073411D01*
X044799Y073459D01*
X045323Y073459D01*
X045323Y073436D02*
X044799Y073436D01*
X045323Y073262D02*
X045323Y073214D01*
X044799Y073214D01*
X044799Y073262D01*
X045323Y073262D01*
X045323Y073239D02*
X044799Y073239D01*
X045323Y073065D02*
X045323Y073017D01*
X044799Y073017D01*
X044799Y073065D01*
X045323Y073065D01*
X045323Y073042D02*
X044799Y073042D01*
X045323Y072868D02*
X045323Y072820D01*
X044799Y072820D01*
X044799Y072868D01*
X045323Y072868D01*
X045323Y072845D02*
X044799Y072845D01*
X045323Y072671D02*
X045323Y072623D01*
X044799Y072623D01*
X044799Y072671D01*
X045323Y072671D01*
X045323Y072648D02*
X044799Y072648D01*
X045872Y072122D02*
X045872Y071598D01*
X045824Y071598D01*
X045824Y072122D01*
X045872Y072122D01*
X045872Y071623D02*
X045824Y071623D01*
X045824Y071648D02*
X045872Y071648D01*
X045872Y071673D02*
X045824Y071673D01*
X045824Y071698D02*
X045872Y071698D01*
X045872Y071723D02*
X045824Y071723D01*
X045824Y071748D02*
X045872Y071748D01*
X045872Y071773D02*
X045824Y071773D01*
X045824Y071798D02*
X045872Y071798D01*
X045872Y071823D02*
X045824Y071823D01*
X045824Y071848D02*
X045872Y071848D01*
X045872Y071873D02*
X045824Y071873D01*
X045824Y071898D02*
X045872Y071898D01*
X045872Y071923D02*
X045824Y071923D01*
X045824Y071948D02*
X045872Y071948D01*
X045872Y071973D02*
X045824Y071973D01*
X045824Y071998D02*
X045872Y071998D01*
X045872Y072023D02*
X045824Y072023D01*
X045824Y072048D02*
X045872Y072048D01*
X045872Y072073D02*
X045824Y072073D01*
X045824Y072098D02*
X045872Y072098D01*
X046069Y072122D02*
X046069Y071598D01*
X046021Y071598D01*
X046021Y072122D01*
X046069Y072122D01*
X046069Y071623D02*
X046021Y071623D01*
X046021Y071648D02*
X046069Y071648D01*
X046069Y071673D02*
X046021Y071673D01*
X046021Y071698D02*
X046069Y071698D01*
X046069Y071723D02*
X046021Y071723D01*
X046021Y071748D02*
X046069Y071748D01*
X046069Y071773D02*
X046021Y071773D01*
X046021Y071798D02*
X046069Y071798D01*
X046069Y071823D02*
X046021Y071823D01*
X046021Y071848D02*
X046069Y071848D01*
X046069Y071873D02*
X046021Y071873D01*
X046021Y071898D02*
X046069Y071898D01*
X046069Y071923D02*
X046021Y071923D01*
X046021Y071948D02*
X046069Y071948D01*
X046069Y071973D02*
X046021Y071973D01*
X046021Y071998D02*
X046069Y071998D01*
X046069Y072023D02*
X046021Y072023D01*
X046021Y072048D02*
X046069Y072048D01*
X046069Y072073D02*
X046021Y072073D01*
X046021Y072098D02*
X046069Y072098D01*
X046266Y072122D02*
X046266Y071598D01*
X046218Y071598D01*
X046218Y072122D01*
X046266Y072122D01*
X046266Y071623D02*
X046218Y071623D01*
X046218Y071648D02*
X046266Y071648D01*
X046266Y071673D02*
X046218Y071673D01*
X046218Y071698D02*
X046266Y071698D01*
X046266Y071723D02*
X046218Y071723D01*
X046218Y071748D02*
X046266Y071748D01*
X046266Y071773D02*
X046218Y071773D01*
X046218Y071798D02*
X046266Y071798D01*
X046266Y071823D02*
X046218Y071823D01*
X046218Y071848D02*
X046266Y071848D01*
X046266Y071873D02*
X046218Y071873D01*
X046218Y071898D02*
X046266Y071898D01*
X046266Y071923D02*
X046218Y071923D01*
X046218Y071948D02*
X046266Y071948D01*
X046266Y071973D02*
X046218Y071973D01*
X046218Y071998D02*
X046266Y071998D01*
X046266Y072023D02*
X046218Y072023D01*
X046218Y072048D02*
X046266Y072048D01*
X046266Y072073D02*
X046218Y072073D01*
X046218Y072098D02*
X046266Y072098D01*
X046463Y072122D02*
X046463Y071598D01*
X046415Y071598D01*
X046415Y072122D01*
X046463Y072122D01*
X046463Y071623D02*
X046415Y071623D01*
X046415Y071648D02*
X046463Y071648D01*
X046463Y071673D02*
X046415Y071673D01*
X046415Y071698D02*
X046463Y071698D01*
X046463Y071723D02*
X046415Y071723D01*
X046415Y071748D02*
X046463Y071748D01*
X046463Y071773D02*
X046415Y071773D01*
X046415Y071798D02*
X046463Y071798D01*
X046463Y071823D02*
X046415Y071823D01*
X046415Y071848D02*
X046463Y071848D01*
X046463Y071873D02*
X046415Y071873D01*
X046415Y071898D02*
X046463Y071898D01*
X046463Y071923D02*
X046415Y071923D01*
X046415Y071948D02*
X046463Y071948D01*
X046463Y071973D02*
X046415Y071973D01*
X046415Y071998D02*
X046463Y071998D01*
X046463Y072023D02*
X046415Y072023D01*
X046415Y072048D02*
X046463Y072048D01*
X046463Y072073D02*
X046415Y072073D01*
X046415Y072098D02*
X046463Y072098D01*
X046659Y072122D02*
X046659Y071598D01*
X046611Y071598D01*
X046611Y072122D01*
X046659Y072122D01*
X046659Y071623D02*
X046611Y071623D01*
X046611Y071648D02*
X046659Y071648D01*
X046659Y071673D02*
X046611Y071673D01*
X046611Y071698D02*
X046659Y071698D01*
X046659Y071723D02*
X046611Y071723D01*
X046611Y071748D02*
X046659Y071748D01*
X046659Y071773D02*
X046611Y071773D01*
X046611Y071798D02*
X046659Y071798D01*
X046659Y071823D02*
X046611Y071823D01*
X046611Y071848D02*
X046659Y071848D01*
X046659Y071873D02*
X046611Y071873D01*
X046611Y071898D02*
X046659Y071898D01*
X046659Y071923D02*
X046611Y071923D01*
X046611Y071948D02*
X046659Y071948D01*
X046659Y071973D02*
X046611Y071973D01*
X046611Y071998D02*
X046659Y071998D01*
X046659Y072023D02*
X046611Y072023D01*
X046611Y072048D02*
X046659Y072048D01*
X046659Y072073D02*
X046611Y072073D01*
X046611Y072098D02*
X046659Y072098D01*
X046856Y072122D02*
X046856Y071598D01*
X046808Y071598D01*
X046808Y072122D01*
X046856Y072122D01*
X046856Y071623D02*
X046808Y071623D01*
X046808Y071648D02*
X046856Y071648D01*
X046856Y071673D02*
X046808Y071673D01*
X046808Y071698D02*
X046856Y071698D01*
X046856Y071723D02*
X046808Y071723D01*
X046808Y071748D02*
X046856Y071748D01*
X046856Y071773D02*
X046808Y071773D01*
X046808Y071798D02*
X046856Y071798D01*
X046856Y071823D02*
X046808Y071823D01*
X046808Y071848D02*
X046856Y071848D01*
X046856Y071873D02*
X046808Y071873D01*
X046808Y071898D02*
X046856Y071898D01*
X046856Y071923D02*
X046808Y071923D01*
X046808Y071948D02*
X046856Y071948D01*
X046856Y071973D02*
X046808Y071973D01*
X046808Y071998D02*
X046856Y071998D01*
X046856Y072023D02*
X046808Y072023D01*
X046808Y072048D02*
X046856Y072048D01*
X046856Y072073D02*
X046808Y072073D01*
X046808Y072098D02*
X046856Y072098D01*
X047053Y072122D02*
X047053Y071598D01*
X047005Y071598D01*
X047005Y072122D01*
X047053Y072122D01*
X047053Y071623D02*
X047005Y071623D01*
X047005Y071648D02*
X047053Y071648D01*
X047053Y071673D02*
X047005Y071673D01*
X047005Y071698D02*
X047053Y071698D01*
X047053Y071723D02*
X047005Y071723D01*
X047005Y071748D02*
X047053Y071748D01*
X047053Y071773D02*
X047005Y071773D01*
X047005Y071798D02*
X047053Y071798D01*
X047053Y071823D02*
X047005Y071823D01*
X047005Y071848D02*
X047053Y071848D01*
X047053Y071873D02*
X047005Y071873D01*
X047005Y071898D02*
X047053Y071898D01*
X047053Y071923D02*
X047005Y071923D01*
X047005Y071948D02*
X047053Y071948D01*
X047053Y071973D02*
X047005Y071973D01*
X047005Y071998D02*
X047053Y071998D01*
X047053Y072023D02*
X047005Y072023D01*
X047005Y072048D02*
X047053Y072048D01*
X047053Y072073D02*
X047005Y072073D01*
X047005Y072098D02*
X047053Y072098D01*
X047250Y072122D02*
X047250Y071598D01*
X047202Y071598D01*
X047202Y072122D01*
X047250Y072122D01*
X047250Y071623D02*
X047202Y071623D01*
X047202Y071648D02*
X047250Y071648D01*
X047250Y071673D02*
X047202Y071673D01*
X047202Y071698D02*
X047250Y071698D01*
X047250Y071723D02*
X047202Y071723D01*
X047202Y071748D02*
X047250Y071748D01*
X047250Y071773D02*
X047202Y071773D01*
X047202Y071798D02*
X047250Y071798D01*
X047250Y071823D02*
X047202Y071823D01*
X047202Y071848D02*
X047250Y071848D01*
X047250Y071873D02*
X047202Y071873D01*
X047202Y071898D02*
X047250Y071898D01*
X047250Y071923D02*
X047202Y071923D01*
X047202Y071948D02*
X047250Y071948D01*
X047250Y071973D02*
X047202Y071973D01*
X047202Y071998D02*
X047250Y071998D01*
X047250Y072023D02*
X047202Y072023D01*
X047202Y072048D02*
X047250Y072048D01*
X047250Y072073D02*
X047202Y072073D01*
X047202Y072098D02*
X047250Y072098D01*
X047447Y072122D02*
X047447Y071598D01*
X047399Y071598D01*
X047399Y072122D01*
X047447Y072122D01*
X047447Y071623D02*
X047399Y071623D01*
X047399Y071648D02*
X047447Y071648D01*
X047447Y071673D02*
X047399Y071673D01*
X047399Y071698D02*
X047447Y071698D01*
X047447Y071723D02*
X047399Y071723D01*
X047399Y071748D02*
X047447Y071748D01*
X047447Y071773D02*
X047399Y071773D01*
X047399Y071798D02*
X047447Y071798D01*
X047447Y071823D02*
X047399Y071823D01*
X047399Y071848D02*
X047447Y071848D01*
X047447Y071873D02*
X047399Y071873D01*
X047399Y071898D02*
X047447Y071898D01*
X047447Y071923D02*
X047399Y071923D01*
X047399Y071948D02*
X047447Y071948D01*
X047447Y071973D02*
X047399Y071973D01*
X047399Y071998D02*
X047447Y071998D01*
X047447Y072023D02*
X047399Y072023D01*
X047399Y072048D02*
X047447Y072048D01*
X047447Y072073D02*
X047399Y072073D01*
X047399Y072098D02*
X047447Y072098D01*
X047644Y072122D02*
X047644Y071598D01*
X047596Y071598D01*
X047596Y072122D01*
X047644Y072122D01*
X047644Y071623D02*
X047596Y071623D01*
X047596Y071648D02*
X047644Y071648D01*
X047644Y071673D02*
X047596Y071673D01*
X047596Y071698D02*
X047644Y071698D01*
X047644Y071723D02*
X047596Y071723D01*
X047596Y071748D02*
X047644Y071748D01*
X047644Y071773D02*
X047596Y071773D01*
X047596Y071798D02*
X047644Y071798D01*
X047644Y071823D02*
X047596Y071823D01*
X047596Y071848D02*
X047644Y071848D01*
X047644Y071873D02*
X047596Y071873D01*
X047596Y071898D02*
X047644Y071898D01*
X047644Y071923D02*
X047596Y071923D01*
X047596Y071948D02*
X047644Y071948D01*
X047644Y071973D02*
X047596Y071973D01*
X047596Y071998D02*
X047644Y071998D01*
X047644Y072023D02*
X047596Y072023D01*
X047596Y072048D02*
X047644Y072048D01*
X047644Y072073D02*
X047596Y072073D01*
X047596Y072098D02*
X047644Y072098D01*
X047841Y072122D02*
X047841Y071598D01*
X047793Y071598D01*
X047793Y072122D01*
X047841Y072122D01*
X047841Y071623D02*
X047793Y071623D01*
X047793Y071648D02*
X047841Y071648D01*
X047841Y071673D02*
X047793Y071673D01*
X047793Y071698D02*
X047841Y071698D01*
X047841Y071723D02*
X047793Y071723D01*
X047793Y071748D02*
X047841Y071748D01*
X047841Y071773D02*
X047793Y071773D01*
X047793Y071798D02*
X047841Y071798D01*
X047841Y071823D02*
X047793Y071823D01*
X047793Y071848D02*
X047841Y071848D01*
X047841Y071873D02*
X047793Y071873D01*
X047793Y071898D02*
X047841Y071898D01*
X047841Y071923D02*
X047793Y071923D01*
X047793Y071948D02*
X047841Y071948D01*
X047841Y071973D02*
X047793Y071973D01*
X047793Y071998D02*
X047841Y071998D01*
X047841Y072023D02*
X047793Y072023D01*
X047793Y072048D02*
X047841Y072048D01*
X047841Y072073D02*
X047793Y072073D01*
X047793Y072098D02*
X047841Y072098D01*
X048037Y072122D02*
X048037Y071598D01*
X047989Y071598D01*
X047989Y072122D01*
X048037Y072122D01*
X048037Y071623D02*
X047989Y071623D01*
X047989Y071648D02*
X048037Y071648D01*
X048037Y071673D02*
X047989Y071673D01*
X047989Y071698D02*
X048037Y071698D01*
X048037Y071723D02*
X047989Y071723D01*
X047989Y071748D02*
X048037Y071748D01*
X048037Y071773D02*
X047989Y071773D01*
X047989Y071798D02*
X048037Y071798D01*
X048037Y071823D02*
X047989Y071823D01*
X047989Y071848D02*
X048037Y071848D01*
X048037Y071873D02*
X047989Y071873D01*
X047989Y071898D02*
X048037Y071898D01*
X048037Y071923D02*
X047989Y071923D01*
X047989Y071948D02*
X048037Y071948D01*
X048037Y071973D02*
X047989Y071973D01*
X047989Y071998D02*
X048037Y071998D01*
X048037Y072023D02*
X047989Y072023D01*
X047989Y072048D02*
X048037Y072048D01*
X048037Y072073D02*
X047989Y072073D01*
X047989Y072098D02*
X048037Y072098D01*
X048234Y072122D02*
X048234Y071598D01*
X048186Y071598D01*
X048186Y072122D01*
X048234Y072122D01*
X048234Y071623D02*
X048186Y071623D01*
X048186Y071648D02*
X048234Y071648D01*
X048234Y071673D02*
X048186Y071673D01*
X048186Y071698D02*
X048234Y071698D01*
X048234Y071723D02*
X048186Y071723D01*
X048186Y071748D02*
X048234Y071748D01*
X048234Y071773D02*
X048186Y071773D01*
X048186Y071798D02*
X048234Y071798D01*
X048234Y071823D02*
X048186Y071823D01*
X048186Y071848D02*
X048234Y071848D01*
X048234Y071873D02*
X048186Y071873D01*
X048186Y071898D02*
X048234Y071898D01*
X048234Y071923D02*
X048186Y071923D01*
X048186Y071948D02*
X048234Y071948D01*
X048234Y071973D02*
X048186Y071973D01*
X048186Y071998D02*
X048234Y071998D01*
X048234Y072023D02*
X048186Y072023D01*
X048186Y072048D02*
X048234Y072048D01*
X048234Y072073D02*
X048186Y072073D01*
X048186Y072098D02*
X048234Y072098D01*
X048431Y072122D02*
X048431Y071598D01*
X048383Y071598D01*
X048383Y072122D01*
X048431Y072122D01*
X048431Y071623D02*
X048383Y071623D01*
X048383Y071648D02*
X048431Y071648D01*
X048431Y071673D02*
X048383Y071673D01*
X048383Y071698D02*
X048431Y071698D01*
X048431Y071723D02*
X048383Y071723D01*
X048383Y071748D02*
X048431Y071748D01*
X048431Y071773D02*
X048383Y071773D01*
X048383Y071798D02*
X048431Y071798D01*
X048431Y071823D02*
X048383Y071823D01*
X048383Y071848D02*
X048431Y071848D01*
X048431Y071873D02*
X048383Y071873D01*
X048383Y071898D02*
X048431Y071898D01*
X048431Y071923D02*
X048383Y071923D01*
X048383Y071948D02*
X048431Y071948D01*
X048431Y071973D02*
X048383Y071973D01*
X048383Y071998D02*
X048431Y071998D01*
X048431Y072023D02*
X048383Y072023D01*
X048383Y072048D02*
X048431Y072048D01*
X048431Y072073D02*
X048383Y072073D01*
X048383Y072098D02*
X048431Y072098D01*
X048628Y072122D02*
X048628Y071598D01*
X048580Y071598D01*
X048580Y072122D01*
X048628Y072122D01*
X048628Y071623D02*
X048580Y071623D01*
X048580Y071648D02*
X048628Y071648D01*
X048628Y071673D02*
X048580Y071673D01*
X048580Y071698D02*
X048628Y071698D01*
X048628Y071723D02*
X048580Y071723D01*
X048580Y071748D02*
X048628Y071748D01*
X048628Y071773D02*
X048580Y071773D01*
X048580Y071798D02*
X048628Y071798D01*
X048628Y071823D02*
X048580Y071823D01*
X048580Y071848D02*
X048628Y071848D01*
X048628Y071873D02*
X048580Y071873D01*
X048580Y071898D02*
X048628Y071898D01*
X048628Y071923D02*
X048580Y071923D01*
X048580Y071948D02*
X048628Y071948D01*
X048628Y071973D02*
X048580Y071973D01*
X048580Y071998D02*
X048628Y071998D01*
X048628Y072023D02*
X048580Y072023D01*
X048580Y072048D02*
X048628Y072048D01*
X048628Y072073D02*
X048580Y072073D01*
X048580Y072098D02*
X048628Y072098D01*
X048825Y072122D02*
X048825Y071598D01*
X048777Y071598D01*
X048777Y072122D01*
X048825Y072122D01*
X048825Y071623D02*
X048777Y071623D01*
X048777Y071648D02*
X048825Y071648D01*
X048825Y071673D02*
X048777Y071673D01*
X048777Y071698D02*
X048825Y071698D01*
X048825Y071723D02*
X048777Y071723D01*
X048777Y071748D02*
X048825Y071748D01*
X048825Y071773D02*
X048777Y071773D01*
X048777Y071798D02*
X048825Y071798D01*
X048825Y071823D02*
X048777Y071823D01*
X048777Y071848D02*
X048825Y071848D01*
X048825Y071873D02*
X048777Y071873D01*
X048777Y071898D02*
X048825Y071898D01*
X048825Y071923D02*
X048777Y071923D01*
X048777Y071948D02*
X048825Y071948D01*
X048825Y071973D02*
X048777Y071973D01*
X048777Y071998D02*
X048825Y071998D01*
X048825Y072023D02*
X048777Y072023D01*
X048777Y072048D02*
X048825Y072048D01*
X048825Y072073D02*
X048777Y072073D01*
X048777Y072098D02*
X048825Y072098D01*
X049022Y072122D02*
X049022Y071598D01*
X048974Y071598D01*
X048974Y072122D01*
X049022Y072122D01*
X049022Y071623D02*
X048974Y071623D01*
X048974Y071648D02*
X049022Y071648D01*
X049022Y071673D02*
X048974Y071673D01*
X048974Y071698D02*
X049022Y071698D01*
X049022Y071723D02*
X048974Y071723D01*
X048974Y071748D02*
X049022Y071748D01*
X049022Y071773D02*
X048974Y071773D01*
X048974Y071798D02*
X049022Y071798D01*
X049022Y071823D02*
X048974Y071823D01*
X048974Y071848D02*
X049022Y071848D01*
X049022Y071873D02*
X048974Y071873D01*
X048974Y071898D02*
X049022Y071898D01*
X049022Y071923D02*
X048974Y071923D01*
X048974Y071948D02*
X049022Y071948D01*
X049022Y071973D02*
X048974Y071973D01*
X048974Y071998D02*
X049022Y071998D01*
X049022Y072023D02*
X048974Y072023D01*
X048974Y072048D02*
X049022Y072048D01*
X049022Y072073D02*
X048974Y072073D01*
X048974Y072098D02*
X049022Y072098D01*
X049218Y072122D02*
X049218Y071598D01*
X049170Y071598D01*
X049170Y072122D01*
X049218Y072122D01*
X049218Y071623D02*
X049170Y071623D01*
X049170Y071648D02*
X049218Y071648D01*
X049218Y071673D02*
X049170Y071673D01*
X049170Y071698D02*
X049218Y071698D01*
X049218Y071723D02*
X049170Y071723D01*
X049170Y071748D02*
X049218Y071748D01*
X049218Y071773D02*
X049170Y071773D01*
X049170Y071798D02*
X049218Y071798D01*
X049218Y071823D02*
X049170Y071823D01*
X049170Y071848D02*
X049218Y071848D01*
X049218Y071873D02*
X049170Y071873D01*
X049170Y071898D02*
X049218Y071898D01*
X049218Y071923D02*
X049170Y071923D01*
X049170Y071948D02*
X049218Y071948D01*
X049218Y071973D02*
X049170Y071973D01*
X049170Y071998D02*
X049218Y071998D01*
X049218Y072023D02*
X049170Y072023D01*
X049170Y072048D02*
X049218Y072048D01*
X049218Y072073D02*
X049170Y072073D01*
X049170Y072098D02*
X049218Y072098D01*
X049415Y072122D02*
X049415Y071598D01*
X049367Y071598D01*
X049367Y072122D01*
X049415Y072122D01*
X049415Y071623D02*
X049367Y071623D01*
X049367Y071648D02*
X049415Y071648D01*
X049415Y071673D02*
X049367Y071673D01*
X049367Y071698D02*
X049415Y071698D01*
X049415Y071723D02*
X049367Y071723D01*
X049367Y071748D02*
X049415Y071748D01*
X049415Y071773D02*
X049367Y071773D01*
X049367Y071798D02*
X049415Y071798D01*
X049415Y071823D02*
X049367Y071823D01*
X049367Y071848D02*
X049415Y071848D01*
X049415Y071873D02*
X049367Y071873D01*
X049367Y071898D02*
X049415Y071898D01*
X049415Y071923D02*
X049367Y071923D01*
X049367Y071948D02*
X049415Y071948D01*
X049415Y071973D02*
X049367Y071973D01*
X049367Y071998D02*
X049415Y071998D01*
X049415Y072023D02*
X049367Y072023D01*
X049367Y072048D02*
X049415Y072048D01*
X049415Y072073D02*
X049367Y072073D01*
X049367Y072098D02*
X049415Y072098D01*
X049612Y072122D02*
X049612Y071598D01*
X049564Y071598D01*
X049564Y072122D01*
X049612Y072122D01*
X049612Y071623D02*
X049564Y071623D01*
X049564Y071648D02*
X049612Y071648D01*
X049612Y071673D02*
X049564Y071673D01*
X049564Y071698D02*
X049612Y071698D01*
X049612Y071723D02*
X049564Y071723D01*
X049564Y071748D02*
X049612Y071748D01*
X049612Y071773D02*
X049564Y071773D01*
X049564Y071798D02*
X049612Y071798D01*
X049612Y071823D02*
X049564Y071823D01*
X049564Y071848D02*
X049612Y071848D01*
X049612Y071873D02*
X049564Y071873D01*
X049564Y071898D02*
X049612Y071898D01*
X049612Y071923D02*
X049564Y071923D01*
X049564Y071948D02*
X049612Y071948D01*
X049612Y071973D02*
X049564Y071973D01*
X049564Y071998D02*
X049612Y071998D01*
X049612Y072023D02*
X049564Y072023D01*
X049564Y072048D02*
X049612Y072048D01*
X049612Y072073D02*
X049564Y072073D01*
X049564Y072098D02*
X049612Y072098D01*
X049809Y072122D02*
X049809Y071598D01*
X049761Y071598D01*
X049761Y072122D01*
X049809Y072122D01*
X049809Y071623D02*
X049761Y071623D01*
X049761Y071648D02*
X049809Y071648D01*
X049809Y071673D02*
X049761Y071673D01*
X049761Y071698D02*
X049809Y071698D01*
X049809Y071723D02*
X049761Y071723D01*
X049761Y071748D02*
X049809Y071748D01*
X049809Y071773D02*
X049761Y071773D01*
X049761Y071798D02*
X049809Y071798D01*
X049809Y071823D02*
X049761Y071823D01*
X049761Y071848D02*
X049809Y071848D01*
X049809Y071873D02*
X049761Y071873D01*
X049761Y071898D02*
X049809Y071898D01*
X049809Y071923D02*
X049761Y071923D01*
X049761Y071948D02*
X049809Y071948D01*
X049809Y071973D02*
X049761Y071973D01*
X049761Y071998D02*
X049809Y071998D01*
X049809Y072023D02*
X049761Y072023D01*
X049761Y072048D02*
X049809Y072048D01*
X049809Y072073D02*
X049761Y072073D01*
X049761Y072098D02*
X049809Y072098D01*
X050006Y072122D02*
X050006Y071598D01*
X049958Y071598D01*
X049958Y072122D01*
X050006Y072122D01*
X050006Y071623D02*
X049958Y071623D01*
X049958Y071648D02*
X050006Y071648D01*
X050006Y071673D02*
X049958Y071673D01*
X049958Y071698D02*
X050006Y071698D01*
X050006Y071723D02*
X049958Y071723D01*
X049958Y071748D02*
X050006Y071748D01*
X050006Y071773D02*
X049958Y071773D01*
X049958Y071798D02*
X050006Y071798D01*
X050006Y071823D02*
X049958Y071823D01*
X049958Y071848D02*
X050006Y071848D01*
X050006Y071873D02*
X049958Y071873D01*
X049958Y071898D02*
X050006Y071898D01*
X050006Y071923D02*
X049958Y071923D01*
X049958Y071948D02*
X050006Y071948D01*
X050006Y071973D02*
X049958Y071973D01*
X049958Y071998D02*
X050006Y071998D01*
X050006Y072023D02*
X049958Y072023D01*
X049958Y072048D02*
X050006Y072048D01*
X050006Y072073D02*
X049958Y072073D01*
X049958Y072098D02*
X050006Y072098D01*
X050203Y072122D02*
X050203Y071598D01*
X050155Y071598D01*
X050155Y072122D01*
X050203Y072122D01*
X050203Y071623D02*
X050155Y071623D01*
X050155Y071648D02*
X050203Y071648D01*
X050203Y071673D02*
X050155Y071673D01*
X050155Y071698D02*
X050203Y071698D01*
X050203Y071723D02*
X050155Y071723D01*
X050155Y071748D02*
X050203Y071748D01*
X050203Y071773D02*
X050155Y071773D01*
X050155Y071798D02*
X050203Y071798D01*
X050203Y071823D02*
X050155Y071823D01*
X050155Y071848D02*
X050203Y071848D01*
X050203Y071873D02*
X050155Y071873D01*
X050155Y071898D02*
X050203Y071898D01*
X050203Y071923D02*
X050155Y071923D01*
X050155Y071948D02*
X050203Y071948D01*
X050203Y071973D02*
X050155Y071973D01*
X050155Y071998D02*
X050203Y071998D01*
X050203Y072023D02*
X050155Y072023D01*
X050155Y072048D02*
X050203Y072048D01*
X050203Y072073D02*
X050155Y072073D01*
X050155Y072098D02*
X050203Y072098D01*
X050400Y072122D02*
X050400Y071598D01*
X050352Y071598D01*
X050352Y072122D01*
X050400Y072122D01*
X050400Y071623D02*
X050352Y071623D01*
X050352Y071648D02*
X050400Y071648D01*
X050400Y071673D02*
X050352Y071673D01*
X050352Y071698D02*
X050400Y071698D01*
X050400Y071723D02*
X050352Y071723D01*
X050352Y071748D02*
X050400Y071748D01*
X050400Y071773D02*
X050352Y071773D01*
X050352Y071798D02*
X050400Y071798D01*
X050400Y071823D02*
X050352Y071823D01*
X050352Y071848D02*
X050400Y071848D01*
X050400Y071873D02*
X050352Y071873D01*
X050352Y071898D02*
X050400Y071898D01*
X050400Y071923D02*
X050352Y071923D01*
X050352Y071948D02*
X050400Y071948D01*
X050400Y071973D02*
X050352Y071973D01*
X050352Y071998D02*
X050400Y071998D01*
X050400Y072023D02*
X050352Y072023D01*
X050352Y072048D02*
X050400Y072048D01*
X050400Y072073D02*
X050352Y072073D01*
X050352Y072098D02*
X050400Y072098D01*
X050596Y072122D02*
X050596Y071598D01*
X050548Y071598D01*
X050548Y072122D01*
X050596Y072122D01*
X050596Y071623D02*
X050548Y071623D01*
X050548Y071648D02*
X050596Y071648D01*
X050596Y071673D02*
X050548Y071673D01*
X050548Y071698D02*
X050596Y071698D01*
X050596Y071723D02*
X050548Y071723D01*
X050548Y071748D02*
X050596Y071748D01*
X050596Y071773D02*
X050548Y071773D01*
X050548Y071798D02*
X050596Y071798D01*
X050596Y071823D02*
X050548Y071823D01*
X050548Y071848D02*
X050596Y071848D01*
X050596Y071873D02*
X050548Y071873D01*
X050548Y071898D02*
X050596Y071898D01*
X050596Y071923D02*
X050548Y071923D01*
X050548Y071948D02*
X050596Y071948D01*
X050596Y071973D02*
X050548Y071973D01*
X050548Y071998D02*
X050596Y071998D01*
X050596Y072023D02*
X050548Y072023D01*
X050548Y072048D02*
X050596Y072048D01*
X050596Y072073D02*
X050548Y072073D01*
X050548Y072098D02*
X050596Y072098D01*
X051622Y072623D02*
X051622Y072671D01*
X051622Y072623D02*
X051098Y072623D01*
X051098Y072671D01*
X051622Y072671D01*
X051622Y072648D02*
X051098Y072648D01*
X051622Y072820D02*
X051622Y072868D01*
X051622Y072820D02*
X051098Y072820D01*
X051098Y072868D01*
X051622Y072868D01*
X051622Y072845D02*
X051098Y072845D01*
X051622Y073017D02*
X051622Y073065D01*
X051622Y073017D02*
X051098Y073017D01*
X051098Y073065D01*
X051622Y073065D01*
X051622Y073042D02*
X051098Y073042D01*
X051622Y073214D02*
X051622Y073262D01*
X051622Y073214D02*
X051098Y073214D01*
X051098Y073262D01*
X051622Y073262D01*
X051622Y073239D02*
X051098Y073239D01*
X051622Y073411D02*
X051622Y073459D01*
X051622Y073411D02*
X051098Y073411D01*
X051098Y073459D01*
X051622Y073459D01*
X051622Y073436D02*
X051098Y073436D01*
X051622Y073608D02*
X051622Y073656D01*
X051622Y073608D02*
X051098Y073608D01*
X051098Y073656D01*
X051622Y073656D01*
X051622Y073633D02*
X051098Y073633D01*
X051622Y073805D02*
X051622Y073853D01*
X051622Y073805D02*
X051098Y073805D01*
X051098Y073853D01*
X051622Y073853D01*
X051622Y073830D02*
X051098Y073830D01*
X051622Y074001D02*
X051622Y074049D01*
X051622Y074001D02*
X051098Y074001D01*
X051098Y074049D01*
X051622Y074049D01*
X051622Y074026D02*
X051098Y074026D01*
X051622Y074198D02*
X051622Y074246D01*
X051622Y074198D02*
X051098Y074198D01*
X051098Y074246D01*
X051622Y074246D01*
X051622Y074223D02*
X051098Y074223D01*
X051622Y074395D02*
X051622Y074443D01*
X051622Y074395D02*
X051098Y074395D01*
X051098Y074443D01*
X051622Y074443D01*
X051622Y074420D02*
X051098Y074420D01*
X051622Y074592D02*
X051622Y074640D01*
X051622Y074592D02*
X051098Y074592D01*
X051098Y074640D01*
X051622Y074640D01*
X051622Y074617D02*
X051098Y074617D01*
X051622Y074789D02*
X051622Y074837D01*
X051622Y074789D02*
X051098Y074789D01*
X051098Y074837D01*
X051622Y074837D01*
X051622Y074814D02*
X051098Y074814D01*
X051622Y074986D02*
X051622Y075034D01*
X051622Y074986D02*
X051098Y074986D01*
X051098Y075034D01*
X051622Y075034D01*
X051622Y075011D02*
X051098Y075011D01*
X051622Y075182D02*
X051622Y075230D01*
X051622Y075182D02*
X051098Y075182D01*
X051098Y075230D01*
X051622Y075230D01*
X051622Y075207D02*
X051098Y075207D01*
X051622Y075379D02*
X051622Y075427D01*
X051622Y075379D02*
X051098Y075379D01*
X051098Y075427D01*
X051622Y075427D01*
X051622Y075404D02*
X051098Y075404D01*
X051622Y075576D02*
X051622Y075624D01*
X051622Y075576D02*
X051098Y075576D01*
X051098Y075624D01*
X051622Y075624D01*
X051622Y075601D02*
X051098Y075601D01*
X051622Y075773D02*
X051622Y075821D01*
X051622Y075773D02*
X051098Y075773D01*
X051098Y075821D01*
X051622Y075821D01*
X051622Y075798D02*
X051098Y075798D01*
X051622Y075970D02*
X051622Y076018D01*
X051622Y075970D02*
X051098Y075970D01*
X051098Y076018D01*
X051622Y076018D01*
X051622Y075995D02*
X051098Y075995D01*
X051622Y076167D02*
X051622Y076215D01*
X051622Y076167D02*
X051098Y076167D01*
X051098Y076215D01*
X051622Y076215D01*
X051622Y076192D02*
X051098Y076192D01*
X051622Y076364D02*
X051622Y076412D01*
X051622Y076364D02*
X051098Y076364D01*
X051098Y076412D01*
X051622Y076412D01*
X051622Y076389D02*
X051098Y076389D01*
X051622Y076560D02*
X051622Y076608D01*
X051622Y076560D02*
X051098Y076560D01*
X051098Y076608D01*
X051622Y076608D01*
X051622Y076585D02*
X051098Y076585D01*
X051622Y076757D02*
X051622Y076805D01*
X051622Y076757D02*
X051098Y076757D01*
X051098Y076805D01*
X051622Y076805D01*
X051622Y076782D02*
X051098Y076782D01*
X051622Y076954D02*
X051622Y077002D01*
X051622Y076954D02*
X051098Y076954D01*
X051098Y077002D01*
X051622Y077002D01*
X051622Y076979D02*
X051098Y076979D01*
X051622Y077151D02*
X051622Y077199D01*
X051622Y077151D02*
X051098Y077151D01*
X051098Y077199D01*
X051622Y077199D01*
X051622Y077176D02*
X051098Y077176D01*
X051622Y077348D02*
X051622Y077396D01*
X051622Y077348D02*
X051098Y077348D01*
X051098Y077396D01*
X051622Y077396D01*
X051622Y077373D02*
X051098Y077373D01*
D14*
X032472Y075298D02*
X032472Y075062D01*
X032472Y075298D02*
X032748Y075298D01*
X032748Y075062D01*
X032472Y075062D01*
X032472Y075096D02*
X032748Y075096D01*
X032748Y075130D02*
X032472Y075130D01*
X032472Y075164D02*
X032748Y075164D01*
X032748Y075198D02*
X032472Y075198D01*
X032472Y075232D02*
X032748Y075232D01*
X032748Y075266D02*
X032472Y075266D01*
X031672Y074918D02*
X031672Y074682D01*
X031672Y074918D02*
X031948Y074918D01*
X031948Y074682D01*
X031672Y074682D01*
X031672Y074716D02*
X031948Y074716D01*
X031948Y074750D02*
X031672Y074750D01*
X031672Y074784D02*
X031948Y074784D01*
X031948Y074818D02*
X031672Y074818D01*
X031672Y074852D02*
X031948Y074852D01*
X031948Y074886D02*
X031672Y074886D01*
X032472Y074538D02*
X032472Y074302D01*
X032472Y074538D02*
X032748Y074538D01*
X032748Y074302D01*
X032472Y074302D01*
X032472Y074336D02*
X032748Y074336D01*
X032748Y074370D02*
X032472Y074370D01*
X032472Y074404D02*
X032748Y074404D01*
X032748Y074438D02*
X032472Y074438D01*
X032472Y074472D02*
X032748Y074472D01*
X032748Y074506D02*
X032472Y074506D01*
D15*
X031424Y073070D02*
X031066Y073070D01*
X031424Y073070D02*
X031424Y072750D01*
X031066Y072750D01*
X031066Y073070D01*
X031066Y072784D02*
X031424Y072784D01*
X031424Y072818D02*
X031066Y072818D01*
X031066Y072852D02*
X031424Y072852D01*
X031424Y072886D02*
X031066Y072886D01*
X031066Y072920D02*
X031424Y072920D01*
X031424Y072954D02*
X031066Y072954D01*
X031066Y072988D02*
X031424Y072988D01*
X031424Y073022D02*
X031066Y073022D01*
X031066Y073056D02*
X031424Y073056D01*
X030755Y073070D02*
X030397Y073070D01*
X030755Y073070D02*
X030755Y072750D01*
X030397Y072750D01*
X030397Y073070D01*
X030397Y072784D02*
X030755Y072784D01*
X030755Y072818D02*
X030397Y072818D01*
X030397Y072852D02*
X030755Y072852D01*
X030755Y072886D02*
X030397Y072886D01*
X030397Y072920D02*
X030755Y072920D01*
X030755Y072954D02*
X030397Y072954D01*
X030397Y072988D02*
X030755Y072988D01*
X030755Y073022D02*
X030397Y073022D01*
X030397Y073056D02*
X030755Y073056D01*
X031197Y069950D02*
X031555Y069950D01*
X031197Y069950D02*
X031197Y070270D01*
X031555Y070270D01*
X031555Y069950D01*
X031555Y069984D02*
X031197Y069984D01*
X031197Y070018D02*
X031555Y070018D01*
X031555Y070052D02*
X031197Y070052D01*
X031197Y070086D02*
X031555Y070086D01*
X031555Y070120D02*
X031197Y070120D01*
X031197Y070154D02*
X031555Y070154D01*
X031555Y070188D02*
X031197Y070188D01*
X031197Y070222D02*
X031555Y070222D01*
X031555Y070256D02*
X031197Y070256D01*
X031866Y069950D02*
X032224Y069950D01*
X031866Y069950D02*
X031866Y070270D01*
X032224Y070270D01*
X032224Y069950D01*
X032224Y069984D02*
X031866Y069984D01*
X031866Y070018D02*
X032224Y070018D01*
X032224Y070052D02*
X031866Y070052D01*
X031866Y070086D02*
X032224Y070086D01*
X032224Y070120D02*
X031866Y070120D01*
X031866Y070154D02*
X032224Y070154D01*
X032224Y070188D02*
X031866Y070188D01*
X031866Y070222D02*
X032224Y070222D01*
X032224Y070256D02*
X031866Y070256D01*
X043020Y075246D02*
X043020Y075604D01*
X043020Y075246D02*
X042700Y075246D01*
X042700Y075604D01*
X043020Y075604D01*
X043020Y075280D02*
X042700Y075280D01*
X042700Y075314D02*
X043020Y075314D01*
X043020Y075348D02*
X042700Y075348D01*
X042700Y075382D02*
X043020Y075382D01*
X043020Y075416D02*
X042700Y075416D01*
X042700Y075450D02*
X043020Y075450D01*
X043020Y075484D02*
X042700Y075484D01*
X042700Y075518D02*
X043020Y075518D01*
X043020Y075552D02*
X042700Y075552D01*
X042700Y075586D02*
X043020Y075586D01*
X043020Y075915D02*
X043020Y076273D01*
X043020Y075915D02*
X042700Y075915D01*
X042700Y076273D01*
X043020Y076273D01*
X043020Y075949D02*
X042700Y075949D01*
X042700Y075983D02*
X043020Y075983D01*
X043020Y076017D02*
X042700Y076017D01*
X042700Y076051D02*
X043020Y076051D01*
X043020Y076085D02*
X042700Y076085D01*
X042700Y076119D02*
X043020Y076119D01*
X043020Y076153D02*
X042700Y076153D01*
X042700Y076187D02*
X043020Y076187D01*
X043020Y076221D02*
X042700Y076221D01*
X042700Y076255D02*
X043020Y076255D01*
X054950Y084026D02*
X054950Y084384D01*
X055270Y084384D01*
X055270Y084026D01*
X054950Y084026D01*
X054950Y084060D02*
X055270Y084060D01*
X055270Y084094D02*
X054950Y084094D01*
X054950Y084128D02*
X055270Y084128D01*
X055270Y084162D02*
X054950Y084162D01*
X054950Y084196D02*
X055270Y084196D01*
X055270Y084230D02*
X054950Y084230D01*
X054950Y084264D02*
X055270Y084264D01*
X055270Y084298D02*
X054950Y084298D01*
X054950Y084332D02*
X055270Y084332D01*
X055270Y084366D02*
X054950Y084366D01*
X054950Y084695D02*
X054950Y085053D01*
X055270Y085053D01*
X055270Y084695D01*
X054950Y084695D01*
X054950Y084729D02*
X055270Y084729D01*
X055270Y084763D02*
X054950Y084763D01*
X054950Y084797D02*
X055270Y084797D01*
X055270Y084831D02*
X054950Y084831D01*
X054950Y084865D02*
X055270Y084865D01*
X055270Y084899D02*
X054950Y084899D01*
X054950Y084933D02*
X055270Y084933D01*
X055270Y084967D02*
X054950Y084967D01*
X054950Y085001D02*
X055270Y085001D01*
X055270Y085035D02*
X054950Y085035D01*
X027831Y079904D02*
X027831Y079584D01*
X027831Y079904D02*
X028189Y079904D01*
X028189Y079584D01*
X027831Y079584D01*
X027831Y079618D02*
X028189Y079618D01*
X028189Y079652D02*
X027831Y079652D01*
X027831Y079686D02*
X028189Y079686D01*
X028189Y079720D02*
X027831Y079720D01*
X027831Y079754D02*
X028189Y079754D01*
X028189Y079788D02*
X027831Y079788D01*
X027831Y079822D02*
X028189Y079822D01*
X028189Y079856D02*
X027831Y079856D01*
X027831Y079890D02*
X028189Y079890D01*
X027831Y079235D02*
X027831Y078915D01*
X027831Y079235D02*
X028189Y079235D01*
X028189Y078915D01*
X027831Y078915D01*
X027831Y078949D02*
X028189Y078949D01*
X028189Y078983D02*
X027831Y078983D01*
X027831Y079017D02*
X028189Y079017D01*
X028189Y079051D02*
X027831Y079051D01*
X027831Y079085D02*
X028189Y079085D01*
X028189Y079119D02*
X027831Y079119D01*
X027831Y079153D02*
X028189Y079153D01*
X028189Y079187D02*
X027831Y079187D01*
X027831Y079221D02*
X028189Y079221D01*
X023650Y082796D02*
X023650Y083154D01*
X023970Y083154D01*
X023970Y082796D01*
X023650Y082796D01*
X023650Y082830D02*
X023970Y082830D01*
X023970Y082864D02*
X023650Y082864D01*
X023650Y082898D02*
X023970Y082898D01*
X023970Y082932D02*
X023650Y082932D01*
X023650Y082966D02*
X023970Y082966D01*
X023970Y083000D02*
X023650Y083000D01*
X023650Y083034D02*
X023970Y083034D01*
X023970Y083068D02*
X023650Y083068D01*
X023650Y083102D02*
X023970Y083102D01*
X023970Y083136D02*
X023650Y083136D01*
X023650Y083465D02*
X023650Y083823D01*
X023970Y083823D01*
X023970Y083465D01*
X023650Y083465D01*
X023650Y083499D02*
X023970Y083499D01*
X023970Y083533D02*
X023650Y083533D01*
X023650Y083567D02*
X023970Y083567D01*
X023970Y083601D02*
X023650Y083601D01*
X023650Y083635D02*
X023970Y083635D01*
X023970Y083669D02*
X023650Y083669D01*
X023650Y083703D02*
X023970Y083703D01*
X023970Y083737D02*
X023650Y083737D01*
X023650Y083771D02*
X023970Y083771D01*
X023970Y083805D02*
X023650Y083805D01*
X023550Y084356D02*
X023550Y084676D01*
X023870Y084676D01*
X023870Y084356D01*
X023550Y084356D01*
X023550Y084390D02*
X023870Y084390D01*
X023870Y084424D02*
X023550Y084424D01*
X023550Y084458D02*
X023870Y084458D01*
X023870Y084492D02*
X023550Y084492D01*
X023550Y084526D02*
X023870Y084526D01*
X023870Y084560D02*
X023550Y084560D01*
X023550Y084594D02*
X023870Y084594D01*
X023870Y084628D02*
X023550Y084628D01*
X023550Y084662D02*
X023870Y084662D01*
X023550Y085143D02*
X023550Y085463D01*
X023870Y085463D01*
X023870Y085143D01*
X023550Y085143D01*
X023550Y085177D02*
X023870Y085177D01*
X023870Y085211D02*
X023550Y085211D01*
X023550Y085245D02*
X023870Y085245D01*
X023870Y085279D02*
X023550Y085279D01*
X023550Y085313D02*
X023870Y085313D01*
X023870Y085347D02*
X023550Y085347D01*
X023550Y085381D02*
X023870Y085381D01*
X023870Y085415D02*
X023550Y085415D01*
X023550Y085449D02*
X023870Y085449D01*
X023289Y086015D02*
X023289Y086335D01*
X023289Y086015D02*
X022931Y086015D01*
X022931Y086335D01*
X023289Y086335D01*
X023289Y086049D02*
X022931Y086049D01*
X022931Y086083D02*
X023289Y086083D01*
X023289Y086117D02*
X022931Y086117D01*
X022931Y086151D02*
X023289Y086151D01*
X023289Y086185D02*
X022931Y086185D01*
X022931Y086219D02*
X023289Y086219D01*
X023289Y086253D02*
X022931Y086253D01*
X022931Y086287D02*
X023289Y086287D01*
X023289Y086321D02*
X022931Y086321D01*
X023289Y086684D02*
X023289Y087004D01*
X023289Y086684D02*
X022931Y086684D01*
X022931Y087004D01*
X023289Y087004D01*
X023289Y086718D02*
X022931Y086718D01*
X022931Y086752D02*
X023289Y086752D01*
X023289Y086786D02*
X022931Y086786D01*
X022931Y086820D02*
X023289Y086820D01*
X023289Y086854D02*
X022931Y086854D01*
X022931Y086888D02*
X023289Y086888D01*
X023289Y086922D02*
X022931Y086922D01*
X022931Y086956D02*
X023289Y086956D01*
X023289Y086990D02*
X022931Y086990D01*
X023070Y083863D02*
X023070Y083543D01*
X022750Y083543D01*
X022750Y083863D01*
X023070Y083863D01*
X023070Y083577D02*
X022750Y083577D01*
X022750Y083611D02*
X023070Y083611D01*
X023070Y083645D02*
X022750Y083645D01*
X022750Y083679D02*
X023070Y083679D01*
X023070Y083713D02*
X022750Y083713D01*
X022750Y083747D02*
X023070Y083747D01*
X023070Y083781D02*
X022750Y083781D01*
X022750Y083815D02*
X023070Y083815D01*
X023070Y083849D02*
X022750Y083849D01*
X023070Y083076D02*
X023070Y082756D01*
X022750Y082756D01*
X022750Y083076D01*
X023070Y083076D01*
X023070Y082790D02*
X022750Y082790D01*
X022750Y082824D02*
X023070Y082824D01*
X023070Y082858D02*
X022750Y082858D01*
X022750Y082892D02*
X023070Y082892D01*
X023070Y082926D02*
X022750Y082926D01*
X022750Y082960D02*
X023070Y082960D01*
X023070Y082994D02*
X022750Y082994D01*
X022750Y083028D02*
X023070Y083028D01*
X023070Y083062D02*
X022750Y083062D01*
D16*
X032264Y076521D02*
X032408Y076521D01*
X032264Y076521D02*
X032264Y076921D01*
X032408Y076921D01*
X032408Y076521D01*
X032408Y076552D02*
X032264Y076552D01*
X032264Y076583D02*
X032408Y076583D01*
X032408Y076614D02*
X032264Y076614D01*
X032264Y076645D02*
X032408Y076645D01*
X032408Y076676D02*
X032264Y076676D01*
X032264Y076707D02*
X032408Y076707D01*
X032408Y076738D02*
X032264Y076738D01*
X032264Y076769D02*
X032408Y076769D01*
X032408Y076800D02*
X032264Y076800D01*
X032264Y076831D02*
X032408Y076831D01*
X032408Y076862D02*
X032264Y076862D01*
X032264Y076893D02*
X032408Y076893D01*
X033012Y076521D02*
X033156Y076521D01*
X033012Y076521D02*
X033012Y076921D01*
X033156Y076921D01*
X033156Y076521D01*
X033156Y076552D02*
X033012Y076552D01*
X033012Y076583D02*
X033156Y076583D01*
X033156Y076614D02*
X033012Y076614D01*
X033012Y076645D02*
X033156Y076645D01*
X033156Y076676D02*
X033012Y076676D01*
X033012Y076707D02*
X033156Y076707D01*
X033156Y076738D02*
X033012Y076738D01*
X033012Y076769D02*
X033156Y076769D01*
X033156Y076800D02*
X033012Y076800D01*
X033012Y076831D02*
X033156Y076831D01*
X033156Y076862D02*
X033012Y076862D01*
X033012Y076893D02*
X033156Y076893D01*
X033156Y075498D02*
X033012Y075498D01*
X033012Y075898D01*
X033156Y075898D01*
X033156Y075498D01*
X033156Y075529D02*
X033012Y075529D01*
X033012Y075560D02*
X033156Y075560D01*
X033156Y075591D02*
X033012Y075591D01*
X033012Y075622D02*
X033156Y075622D01*
X033156Y075653D02*
X033012Y075653D01*
X033012Y075684D02*
X033156Y075684D01*
X033156Y075715D02*
X033012Y075715D01*
X033012Y075746D02*
X033156Y075746D01*
X033156Y075777D02*
X033012Y075777D01*
X033012Y075808D02*
X033156Y075808D01*
X033156Y075839D02*
X033012Y075839D01*
X033012Y075870D02*
X033156Y075870D01*
X032782Y075498D02*
X032638Y075498D01*
X032638Y075898D01*
X032782Y075898D01*
X032782Y075498D01*
X032782Y075529D02*
X032638Y075529D01*
X032638Y075560D02*
X032782Y075560D01*
X032782Y075591D02*
X032638Y075591D01*
X032638Y075622D02*
X032782Y075622D01*
X032782Y075653D02*
X032638Y075653D01*
X032638Y075684D02*
X032782Y075684D01*
X032782Y075715D02*
X032638Y075715D01*
X032638Y075746D02*
X032782Y075746D01*
X032782Y075777D02*
X032638Y075777D01*
X032638Y075808D02*
X032782Y075808D01*
X032782Y075839D02*
X032638Y075839D01*
X032638Y075870D02*
X032782Y075870D01*
X032408Y075498D02*
X032264Y075498D01*
X032264Y075898D01*
X032408Y075898D01*
X032408Y075498D01*
X032408Y075529D02*
X032264Y075529D01*
X032264Y075560D02*
X032408Y075560D01*
X032408Y075591D02*
X032264Y075591D01*
X032264Y075622D02*
X032408Y075622D01*
X032408Y075653D02*
X032264Y075653D01*
X032264Y075684D02*
X032408Y075684D01*
X032408Y075715D02*
X032264Y075715D01*
X032264Y075746D02*
X032408Y075746D01*
X032408Y075777D02*
X032264Y075777D01*
X032264Y075808D02*
X032408Y075808D01*
X032408Y075839D02*
X032264Y075839D01*
X032264Y075870D02*
X032408Y075870D01*
D17*
X021462Y067460D02*
X021464Y067479D01*
X021469Y067498D01*
X021479Y067514D01*
X021491Y067529D01*
X021506Y067541D01*
X021522Y067551D01*
X021541Y067556D01*
X021560Y067558D01*
X021579Y067556D01*
X021598Y067551D01*
X021614Y067541D01*
X021629Y067529D01*
X021641Y067514D01*
X021651Y067498D01*
X021656Y067479D01*
X021658Y067460D01*
X021656Y067441D01*
X021651Y067422D01*
X021641Y067406D01*
X021629Y067391D01*
X021614Y067379D01*
X021598Y067369D01*
X021579Y067364D01*
X021560Y067362D01*
X021541Y067364D01*
X021522Y067369D01*
X021506Y067379D01*
X021491Y067391D01*
X021479Y067406D01*
X021469Y067422D01*
X021464Y067441D01*
X021462Y067460D01*
X021262Y086660D02*
X021264Y086679D01*
X021269Y086698D01*
X021279Y086714D01*
X021291Y086729D01*
X021306Y086741D01*
X021322Y086751D01*
X021341Y086756D01*
X021360Y086758D01*
X021379Y086756D01*
X021398Y086751D01*
X021414Y086741D01*
X021429Y086729D01*
X021441Y086714D01*
X021451Y086698D01*
X021456Y086679D01*
X021458Y086660D01*
X021456Y086641D01*
X021451Y086622D01*
X021441Y086606D01*
X021429Y086591D01*
X021414Y086579D01*
X021398Y086569D01*
X021379Y086564D01*
X021360Y086562D01*
X021341Y086564D01*
X021322Y086569D01*
X021306Y086579D01*
X021291Y086591D01*
X021279Y086606D01*
X021269Y086622D01*
X021264Y086641D01*
X021262Y086660D01*
D18*
X021384Y085468D02*
X021384Y084674D01*
X020778Y084674D01*
X020778Y085468D01*
X021384Y085468D01*
X021384Y084740D02*
X020778Y084740D01*
X020778Y084806D02*
X021384Y084806D01*
X021384Y084872D02*
X020778Y084872D01*
X020778Y084938D02*
X021384Y084938D01*
X021384Y085004D02*
X020778Y085004D01*
X020778Y085070D02*
X021384Y085070D01*
X021384Y085136D02*
X020778Y085136D01*
X020778Y085202D02*
X021384Y085202D01*
X021384Y085268D02*
X020778Y085268D01*
X020778Y085334D02*
X021384Y085334D01*
X021384Y085400D02*
X020778Y085400D01*
X020778Y085466D02*
X021384Y085466D01*
X021384Y083145D02*
X021384Y082351D01*
X020778Y082351D01*
X020778Y083145D01*
X021384Y083145D01*
X021384Y082417D02*
X020778Y082417D01*
X020778Y082483D02*
X021384Y082483D01*
X021384Y082549D02*
X020778Y082549D01*
X020778Y082615D02*
X021384Y082615D01*
X021384Y082681D02*
X020778Y082681D01*
X020778Y082747D02*
X021384Y082747D01*
X021384Y082813D02*
X020778Y082813D01*
X020778Y082879D02*
X021384Y082879D01*
X021384Y082945D02*
X020778Y082945D01*
X020778Y083011D02*
X021384Y083011D01*
X021384Y083077D02*
X020778Y083077D01*
X020778Y083143D02*
X021384Y083143D01*
X026600Y075408D02*
X027206Y075408D01*
X026600Y075408D02*
X026600Y076212D01*
X027206Y076212D01*
X027206Y075408D01*
X027206Y075474D02*
X026600Y075474D01*
X026600Y075540D02*
X027206Y075540D01*
X027206Y075606D02*
X026600Y075606D01*
X026600Y075672D02*
X027206Y075672D01*
X027206Y075738D02*
X026600Y075738D01*
X026600Y075804D02*
X027206Y075804D01*
X027206Y075870D02*
X026600Y075870D01*
X026600Y075936D02*
X027206Y075936D01*
X027206Y076002D02*
X026600Y076002D01*
X026600Y076068D02*
X027206Y076068D01*
X027206Y076134D02*
X026600Y076134D01*
X026600Y076200D02*
X027206Y076200D01*
X028214Y075408D02*
X028820Y075408D01*
X028214Y075408D02*
X028214Y076212D01*
X028820Y076212D01*
X028820Y075408D01*
X028820Y075474D02*
X028214Y075474D01*
X028214Y075540D02*
X028820Y075540D01*
X028820Y075606D02*
X028214Y075606D01*
X028214Y075672D02*
X028820Y075672D01*
X028820Y075738D02*
X028214Y075738D01*
X028214Y075804D02*
X028820Y075804D01*
X028820Y075870D02*
X028214Y075870D01*
X028214Y075936D02*
X028820Y075936D01*
X028820Y076002D02*
X028214Y076002D01*
X028214Y076068D02*
X028820Y076068D01*
X028820Y076134D02*
X028214Y076134D01*
X028214Y076200D02*
X028820Y076200D01*
X052900Y073412D02*
X053506Y073412D01*
X053506Y072608D01*
X052900Y072608D01*
X052900Y073412D01*
X052900Y072674D02*
X053506Y072674D01*
X053506Y072740D02*
X052900Y072740D01*
X052900Y072806D02*
X053506Y072806D01*
X053506Y072872D02*
X052900Y072872D01*
X052900Y072938D02*
X053506Y072938D01*
X053506Y073004D02*
X052900Y073004D01*
X052900Y073070D02*
X053506Y073070D01*
X053506Y073136D02*
X052900Y073136D01*
X052900Y073202D02*
X053506Y073202D01*
X053506Y073268D02*
X052900Y073268D01*
X052900Y073334D02*
X053506Y073334D01*
X053506Y073400D02*
X052900Y073400D01*
X054514Y073412D02*
X055120Y073412D01*
X055120Y072608D01*
X054514Y072608D01*
X054514Y073412D01*
X054514Y072674D02*
X055120Y072674D01*
X055120Y072740D02*
X054514Y072740D01*
X054514Y072806D02*
X055120Y072806D01*
X055120Y072872D02*
X054514Y072872D01*
X054514Y072938D02*
X055120Y072938D01*
X055120Y073004D02*
X054514Y073004D01*
X054514Y073070D02*
X055120Y073070D01*
X055120Y073136D02*
X054514Y073136D01*
X054514Y073202D02*
X055120Y073202D01*
X055120Y073268D02*
X054514Y073268D01*
X054514Y073334D02*
X055120Y073334D01*
X055120Y073400D02*
X054514Y073400D01*
D19*
X040331Y072567D02*
X039819Y072567D01*
X039819Y072981D01*
X040331Y072981D01*
X040331Y072567D01*
X040331Y072612D02*
X039819Y072612D01*
X039819Y072657D02*
X040331Y072657D01*
X040331Y072702D02*
X039819Y072702D01*
X039819Y072747D02*
X040331Y072747D01*
X040331Y072792D02*
X039819Y072792D01*
X039819Y072837D02*
X040331Y072837D01*
X040331Y072882D02*
X039819Y072882D01*
X039819Y072927D02*
X040331Y072927D01*
X040331Y072972D02*
X039819Y072972D01*
X039819Y074338D02*
X040331Y074338D01*
X039819Y074338D02*
X039819Y074752D01*
X040331Y074752D01*
X040331Y074338D01*
X040331Y074383D02*
X039819Y074383D01*
X039819Y074428D02*
X040331Y074428D01*
X040331Y074473D02*
X039819Y074473D01*
X039819Y074518D02*
X040331Y074518D01*
X040331Y074563D02*
X039819Y074563D01*
X039819Y074608D02*
X040331Y074608D01*
X040331Y074653D02*
X039819Y074653D01*
X039819Y074698D02*
X040331Y074698D01*
X040331Y074743D02*
X039819Y074743D01*
X037201Y074338D02*
X036689Y074338D01*
X036689Y074752D01*
X037201Y074752D01*
X037201Y074338D01*
X037201Y074383D02*
X036689Y074383D01*
X036689Y074428D02*
X037201Y074428D01*
X037201Y074473D02*
X036689Y074473D01*
X036689Y074518D02*
X037201Y074518D01*
X037201Y074563D02*
X036689Y074563D01*
X036689Y074608D02*
X037201Y074608D01*
X037201Y074653D02*
X036689Y074653D01*
X036689Y074698D02*
X037201Y074698D01*
X037201Y074743D02*
X036689Y074743D01*
X036689Y072567D02*
X037201Y072567D01*
X036689Y072567D02*
X036689Y072981D01*
X037201Y072981D01*
X037201Y072567D01*
X037201Y072612D02*
X036689Y072612D01*
X036689Y072657D02*
X037201Y072657D01*
X037201Y072702D02*
X036689Y072702D01*
X036689Y072747D02*
X037201Y072747D01*
X037201Y072792D02*
X036689Y072792D01*
X036689Y072837D02*
X037201Y072837D01*
X037201Y072882D02*
X036689Y072882D01*
X036689Y072927D02*
X037201Y072927D01*
X037201Y072972D02*
X036689Y072972D01*
X026956Y078829D02*
X026956Y079243D01*
X026956Y078829D02*
X026464Y078829D01*
X026464Y079243D01*
X026956Y079243D01*
X026956Y078874D02*
X026464Y078874D01*
X026464Y078919D02*
X026956Y078919D01*
X026956Y078964D02*
X026464Y078964D01*
X026464Y079009D02*
X026956Y079009D01*
X026956Y079054D02*
X026464Y079054D01*
X026464Y079099D02*
X026956Y079099D01*
X026956Y079144D02*
X026464Y079144D01*
X026464Y079189D02*
X026956Y079189D01*
X026956Y079234D02*
X026464Y079234D01*
X026956Y079577D02*
X026956Y079991D01*
X026956Y079577D02*
X026464Y079577D01*
X026464Y079991D01*
X026956Y079991D01*
X026956Y079622D02*
X026464Y079622D01*
X026464Y079667D02*
X026956Y079667D01*
X026956Y079712D02*
X026464Y079712D01*
X026464Y079757D02*
X026956Y079757D01*
X026956Y079802D02*
X026464Y079802D01*
X026464Y079847D02*
X026956Y079847D01*
X026956Y079892D02*
X026464Y079892D01*
X026464Y079937D02*
X026956Y079937D01*
X026956Y079982D02*
X026464Y079982D01*
X023256Y084529D02*
X023256Y084943D01*
X023256Y084529D02*
X022764Y084529D01*
X022764Y084943D01*
X023256Y084943D01*
X023256Y084574D02*
X022764Y084574D01*
X022764Y084619D02*
X023256Y084619D01*
X023256Y084664D02*
X022764Y084664D01*
X022764Y084709D02*
X023256Y084709D01*
X023256Y084754D02*
X022764Y084754D01*
X022764Y084799D02*
X023256Y084799D01*
X023256Y084844D02*
X022764Y084844D01*
X022764Y084889D02*
X023256Y084889D01*
X023256Y084934D02*
X022764Y084934D01*
X023256Y085277D02*
X023256Y085691D01*
X023256Y085277D02*
X022764Y085277D01*
X022764Y085691D01*
X023256Y085691D01*
X023256Y085322D02*
X022764Y085322D01*
X022764Y085367D02*
X023256Y085367D01*
X023256Y085412D02*
X022764Y085412D01*
X022764Y085457D02*
X023256Y085457D01*
X023256Y085502D02*
X022764Y085502D01*
X022764Y085547D02*
X023256Y085547D01*
X023256Y085592D02*
X022764Y085592D01*
X022764Y085637D02*
X023256Y085637D01*
X023256Y085682D02*
X022764Y085682D01*
D20*
X022481Y084473D02*
X022481Y084369D01*
X021885Y084369D01*
X021885Y084473D01*
X022481Y084473D01*
X022481Y084400D02*
X021885Y084400D01*
X021885Y084431D02*
X022481Y084431D01*
X022481Y084462D02*
X021885Y084462D01*
X022481Y084218D02*
X022481Y084114D01*
X021885Y084114D01*
X021885Y084218D01*
X022481Y084218D01*
X022481Y084145D02*
X021885Y084145D01*
X021885Y084176D02*
X022481Y084176D01*
X022481Y084207D02*
X021885Y084207D01*
X022481Y083962D02*
X022481Y083858D01*
X021885Y083858D01*
X021885Y083962D01*
X022481Y083962D01*
X022481Y083889D02*
X021885Y083889D01*
X021885Y083920D02*
X022481Y083920D01*
X022481Y083951D02*
X021885Y083951D01*
X022481Y083706D02*
X022481Y083602D01*
X021885Y083602D01*
X021885Y083706D01*
X022481Y083706D01*
X022481Y083633D02*
X021885Y083633D01*
X021885Y083664D02*
X022481Y083664D01*
X022481Y083695D02*
X021885Y083695D01*
X022481Y083450D02*
X022481Y083346D01*
X021885Y083346D01*
X021885Y083450D01*
X022481Y083450D01*
X022481Y083377D02*
X021885Y083377D01*
X021885Y083408D02*
X022481Y083408D01*
X022481Y083439D02*
X021885Y083439D01*
D21*
X021629Y082690D02*
X022345Y082690D01*
X021629Y082690D02*
X021629Y083160D01*
X022345Y083160D01*
X022345Y082690D01*
X022345Y082741D02*
X021629Y082741D01*
X021629Y082792D02*
X022345Y082792D01*
X022345Y082843D02*
X021629Y082843D01*
X021629Y082894D02*
X022345Y082894D01*
X022345Y082945D02*
X021629Y082945D01*
X021629Y082996D02*
X022345Y082996D01*
X022345Y083047D02*
X021629Y083047D01*
X021629Y083098D02*
X022345Y083098D01*
X022345Y083149D02*
X021629Y083149D01*
X021629Y084659D02*
X022345Y084659D01*
X021629Y084659D02*
X021629Y085129D01*
X022345Y085129D01*
X022345Y084659D01*
X022345Y084710D02*
X021629Y084710D01*
X021629Y084761D02*
X022345Y084761D01*
X022345Y084812D02*
X021629Y084812D01*
X021629Y084863D02*
X022345Y084863D01*
X022345Y084914D02*
X021629Y084914D01*
X021629Y084965D02*
X022345Y084965D01*
X022345Y085016D02*
X021629Y085016D01*
X021629Y085067D02*
X022345Y085067D01*
X022345Y085118D02*
X021629Y085118D01*
D22*
X029184Y078225D02*
X029184Y078173D01*
X028896Y078173D01*
X028896Y078225D01*
X029184Y078225D01*
X029184Y078199D02*
X028896Y078199D01*
X028896Y078225D02*
X029184Y078225D01*
X029184Y078028D02*
X029184Y077976D01*
X028896Y077976D01*
X028896Y078028D01*
X029184Y078028D01*
X029184Y078002D02*
X028896Y078002D01*
X028896Y078028D02*
X029184Y078028D01*
X029184Y077831D02*
X029184Y077779D01*
X028896Y077779D01*
X028896Y077831D01*
X029184Y077831D01*
X029184Y077805D02*
X028896Y077805D01*
X028896Y077831D02*
X029184Y077831D01*
X029184Y077634D02*
X029184Y077582D01*
X028896Y077582D01*
X028896Y077634D01*
X029184Y077634D01*
X029184Y077608D02*
X028896Y077608D01*
X028896Y077634D02*
X029184Y077634D01*
X029184Y077437D02*
X029184Y077385D01*
X028896Y077385D01*
X028896Y077437D01*
X029184Y077437D01*
X029184Y077411D02*
X028896Y077411D01*
X028896Y077437D02*
X029184Y077437D01*
X029184Y077240D02*
X029184Y077188D01*
X028896Y077188D01*
X028896Y077240D01*
X029184Y077240D01*
X029184Y077214D02*
X028896Y077214D01*
X028896Y077240D02*
X029184Y077240D01*
X029184Y077043D02*
X029184Y076991D01*
X028896Y076991D01*
X028896Y077043D01*
X029184Y077043D01*
X029184Y077017D02*
X028896Y077017D01*
X028896Y077043D02*
X029184Y077043D01*
X029184Y076847D02*
X029184Y076795D01*
X028896Y076795D01*
X028896Y076847D01*
X029184Y076847D01*
X029184Y076821D02*
X028896Y076821D01*
X028896Y076847D02*
X029184Y076847D01*
X029295Y076683D02*
X029347Y076683D01*
X029347Y076395D01*
X029295Y076395D01*
X029295Y076683D01*
X029295Y076421D02*
X029347Y076421D01*
X029347Y076447D02*
X029295Y076447D01*
X029295Y076473D02*
X029347Y076473D01*
X029347Y076499D02*
X029295Y076499D01*
X029295Y076525D02*
X029347Y076525D01*
X029347Y076551D02*
X029295Y076551D01*
X029295Y076577D02*
X029347Y076577D01*
X029347Y076603D02*
X029295Y076603D01*
X029295Y076629D02*
X029347Y076629D01*
X029347Y076655D02*
X029295Y076655D01*
X029295Y076681D02*
X029347Y076681D01*
X029492Y076683D02*
X029544Y076683D01*
X029544Y076395D01*
X029492Y076395D01*
X029492Y076683D01*
X029492Y076421D02*
X029544Y076421D01*
X029544Y076447D02*
X029492Y076447D01*
X029492Y076473D02*
X029544Y076473D01*
X029544Y076499D02*
X029492Y076499D01*
X029492Y076525D02*
X029544Y076525D01*
X029544Y076551D02*
X029492Y076551D01*
X029492Y076577D02*
X029544Y076577D01*
X029544Y076603D02*
X029492Y076603D01*
X029492Y076629D02*
X029544Y076629D01*
X029544Y076655D02*
X029492Y076655D01*
X029492Y076681D02*
X029544Y076681D01*
X029689Y076683D02*
X029741Y076683D01*
X029741Y076395D01*
X029689Y076395D01*
X029689Y076683D01*
X029689Y076421D02*
X029741Y076421D01*
X029741Y076447D02*
X029689Y076447D01*
X029689Y076473D02*
X029741Y076473D01*
X029741Y076499D02*
X029689Y076499D01*
X029689Y076525D02*
X029741Y076525D01*
X029741Y076551D02*
X029689Y076551D01*
X029689Y076577D02*
X029741Y076577D01*
X029741Y076603D02*
X029689Y076603D01*
X029689Y076629D02*
X029741Y076629D01*
X029741Y076655D02*
X029689Y076655D01*
X029689Y076681D02*
X029741Y076681D01*
X029886Y076683D02*
X029938Y076683D01*
X029938Y076395D01*
X029886Y076395D01*
X029886Y076683D01*
X029886Y076421D02*
X029938Y076421D01*
X029938Y076447D02*
X029886Y076447D01*
X029886Y076473D02*
X029938Y076473D01*
X029938Y076499D02*
X029886Y076499D01*
X029886Y076525D02*
X029938Y076525D01*
X029938Y076551D02*
X029886Y076551D01*
X029886Y076577D02*
X029938Y076577D01*
X029938Y076603D02*
X029886Y076603D01*
X029886Y076629D02*
X029938Y076629D01*
X029938Y076655D02*
X029886Y076655D01*
X029886Y076681D02*
X029938Y076681D01*
X030083Y076683D02*
X030135Y076683D01*
X030135Y076395D01*
X030083Y076395D01*
X030083Y076683D01*
X030083Y076421D02*
X030135Y076421D01*
X030135Y076447D02*
X030083Y076447D01*
X030083Y076473D02*
X030135Y076473D01*
X030135Y076499D02*
X030083Y076499D01*
X030083Y076525D02*
X030135Y076525D01*
X030135Y076551D02*
X030083Y076551D01*
X030083Y076577D02*
X030135Y076577D01*
X030135Y076603D02*
X030083Y076603D01*
X030083Y076629D02*
X030135Y076629D01*
X030135Y076655D02*
X030083Y076655D01*
X030083Y076681D02*
X030135Y076681D01*
X030280Y076683D02*
X030332Y076683D01*
X030332Y076395D01*
X030280Y076395D01*
X030280Y076683D01*
X030280Y076421D02*
X030332Y076421D01*
X030332Y076447D02*
X030280Y076447D01*
X030280Y076473D02*
X030332Y076473D01*
X030332Y076499D02*
X030280Y076499D01*
X030280Y076525D02*
X030332Y076525D01*
X030332Y076551D02*
X030280Y076551D01*
X030280Y076577D02*
X030332Y076577D01*
X030332Y076603D02*
X030280Y076603D01*
X030280Y076629D02*
X030332Y076629D01*
X030332Y076655D02*
X030280Y076655D01*
X030280Y076681D02*
X030332Y076681D01*
X030476Y076683D02*
X030528Y076683D01*
X030528Y076395D01*
X030476Y076395D01*
X030476Y076683D01*
X030476Y076421D02*
X030528Y076421D01*
X030528Y076447D02*
X030476Y076447D01*
X030476Y076473D02*
X030528Y076473D01*
X030528Y076499D02*
X030476Y076499D01*
X030476Y076525D02*
X030528Y076525D01*
X030528Y076551D02*
X030476Y076551D01*
X030476Y076577D02*
X030528Y076577D01*
X030528Y076603D02*
X030476Y076603D01*
X030476Y076629D02*
X030528Y076629D01*
X030528Y076655D02*
X030476Y076655D01*
X030476Y076681D02*
X030528Y076681D01*
X030673Y076683D02*
X030725Y076683D01*
X030725Y076395D01*
X030673Y076395D01*
X030673Y076683D01*
X030673Y076421D02*
X030725Y076421D01*
X030725Y076447D02*
X030673Y076447D01*
X030673Y076473D02*
X030725Y076473D01*
X030725Y076499D02*
X030673Y076499D01*
X030673Y076525D02*
X030725Y076525D01*
X030725Y076551D02*
X030673Y076551D01*
X030673Y076577D02*
X030725Y076577D01*
X030725Y076603D02*
X030673Y076603D01*
X030673Y076629D02*
X030725Y076629D01*
X030725Y076655D02*
X030673Y076655D01*
X030673Y076681D02*
X030725Y076681D01*
X031125Y076795D02*
X031125Y076847D01*
X031125Y076795D02*
X030837Y076795D01*
X030837Y076847D01*
X031125Y076847D01*
X031125Y076821D02*
X030837Y076821D01*
X030837Y076847D02*
X031125Y076847D01*
X031125Y076991D02*
X031125Y077043D01*
X031125Y076991D02*
X030837Y076991D01*
X030837Y077043D01*
X031125Y077043D01*
X031125Y077017D02*
X030837Y077017D01*
X030837Y077043D02*
X031125Y077043D01*
X031125Y077188D02*
X031125Y077240D01*
X031125Y077188D02*
X030837Y077188D01*
X030837Y077240D01*
X031125Y077240D01*
X031125Y077214D02*
X030837Y077214D01*
X030837Y077240D02*
X031125Y077240D01*
X031125Y077385D02*
X031125Y077437D01*
X031125Y077385D02*
X030837Y077385D01*
X030837Y077437D01*
X031125Y077437D01*
X031125Y077411D02*
X030837Y077411D01*
X030837Y077437D02*
X031125Y077437D01*
X031125Y077582D02*
X031125Y077634D01*
X031125Y077582D02*
X030837Y077582D01*
X030837Y077634D01*
X031125Y077634D01*
X031125Y077608D02*
X030837Y077608D01*
X030837Y077634D02*
X031125Y077634D01*
X031125Y077779D02*
X031125Y077831D01*
X031125Y077779D02*
X030837Y077779D01*
X030837Y077831D01*
X031125Y077831D01*
X031125Y077805D02*
X030837Y077805D01*
X030837Y077831D02*
X031125Y077831D01*
X031125Y077976D02*
X031125Y078028D01*
X031125Y077976D02*
X030837Y077976D01*
X030837Y078028D01*
X031125Y078028D01*
X031125Y078002D02*
X030837Y078002D01*
X030837Y078028D02*
X031125Y078028D01*
X031125Y078173D02*
X031125Y078225D01*
X031125Y078173D02*
X030837Y078173D01*
X030837Y078225D01*
X031125Y078225D01*
X031125Y078199D02*
X030837Y078199D01*
X030837Y078225D02*
X031125Y078225D01*
X030725Y078624D02*
X030673Y078624D01*
X030725Y078624D02*
X030725Y078336D01*
X030673Y078336D01*
X030673Y078624D01*
X030673Y078362D02*
X030725Y078362D01*
X030725Y078388D02*
X030673Y078388D01*
X030673Y078414D02*
X030725Y078414D01*
X030725Y078440D02*
X030673Y078440D01*
X030673Y078466D02*
X030725Y078466D01*
X030725Y078492D02*
X030673Y078492D01*
X030673Y078518D02*
X030725Y078518D01*
X030725Y078544D02*
X030673Y078544D01*
X030673Y078570D02*
X030725Y078570D01*
X030725Y078596D02*
X030673Y078596D01*
X030673Y078622D02*
X030725Y078622D01*
X030528Y078624D02*
X030476Y078624D01*
X030528Y078624D02*
X030528Y078336D01*
X030476Y078336D01*
X030476Y078624D01*
X030476Y078362D02*
X030528Y078362D01*
X030528Y078388D02*
X030476Y078388D01*
X030476Y078414D02*
X030528Y078414D01*
X030528Y078440D02*
X030476Y078440D01*
X030476Y078466D02*
X030528Y078466D01*
X030528Y078492D02*
X030476Y078492D01*
X030476Y078518D02*
X030528Y078518D01*
X030528Y078544D02*
X030476Y078544D01*
X030476Y078570D02*
X030528Y078570D01*
X030528Y078596D02*
X030476Y078596D01*
X030476Y078622D02*
X030528Y078622D01*
X030332Y078624D02*
X030280Y078624D01*
X030332Y078624D02*
X030332Y078336D01*
X030280Y078336D01*
X030280Y078624D01*
X030280Y078362D02*
X030332Y078362D01*
X030332Y078388D02*
X030280Y078388D01*
X030280Y078414D02*
X030332Y078414D01*
X030332Y078440D02*
X030280Y078440D01*
X030280Y078466D02*
X030332Y078466D01*
X030332Y078492D02*
X030280Y078492D01*
X030280Y078518D02*
X030332Y078518D01*
X030332Y078544D02*
X030280Y078544D01*
X030280Y078570D02*
X030332Y078570D01*
X030332Y078596D02*
X030280Y078596D01*
X030280Y078622D02*
X030332Y078622D01*
X030135Y078624D02*
X030083Y078624D01*
X030135Y078624D02*
X030135Y078336D01*
X030083Y078336D01*
X030083Y078624D01*
X030083Y078362D02*
X030135Y078362D01*
X030135Y078388D02*
X030083Y078388D01*
X030083Y078414D02*
X030135Y078414D01*
X030135Y078440D02*
X030083Y078440D01*
X030083Y078466D02*
X030135Y078466D01*
X030135Y078492D02*
X030083Y078492D01*
X030083Y078518D02*
X030135Y078518D01*
X030135Y078544D02*
X030083Y078544D01*
X030083Y078570D02*
X030135Y078570D01*
X030135Y078596D02*
X030083Y078596D01*
X030083Y078622D02*
X030135Y078622D01*
X029938Y078624D02*
X029886Y078624D01*
X029938Y078624D02*
X029938Y078336D01*
X029886Y078336D01*
X029886Y078624D01*
X029886Y078362D02*
X029938Y078362D01*
X029938Y078388D02*
X029886Y078388D01*
X029886Y078414D02*
X029938Y078414D01*
X029938Y078440D02*
X029886Y078440D01*
X029886Y078466D02*
X029938Y078466D01*
X029938Y078492D02*
X029886Y078492D01*
X029886Y078518D02*
X029938Y078518D01*
X029938Y078544D02*
X029886Y078544D01*
X029886Y078570D02*
X029938Y078570D01*
X029938Y078596D02*
X029886Y078596D01*
X029886Y078622D02*
X029938Y078622D01*
X029741Y078624D02*
X029689Y078624D01*
X029741Y078624D02*
X029741Y078336D01*
X029689Y078336D01*
X029689Y078624D01*
X029689Y078362D02*
X029741Y078362D01*
X029741Y078388D02*
X029689Y078388D01*
X029689Y078414D02*
X029741Y078414D01*
X029741Y078440D02*
X029689Y078440D01*
X029689Y078466D02*
X029741Y078466D01*
X029741Y078492D02*
X029689Y078492D01*
X029689Y078518D02*
X029741Y078518D01*
X029741Y078544D02*
X029689Y078544D01*
X029689Y078570D02*
X029741Y078570D01*
X029741Y078596D02*
X029689Y078596D01*
X029689Y078622D02*
X029741Y078622D01*
X029544Y078624D02*
X029492Y078624D01*
X029544Y078624D02*
X029544Y078336D01*
X029492Y078336D01*
X029492Y078624D01*
X029492Y078362D02*
X029544Y078362D01*
X029544Y078388D02*
X029492Y078388D01*
X029492Y078414D02*
X029544Y078414D01*
X029544Y078440D02*
X029492Y078440D01*
X029492Y078466D02*
X029544Y078466D01*
X029544Y078492D02*
X029492Y078492D01*
X029492Y078518D02*
X029544Y078518D01*
X029544Y078544D02*
X029492Y078544D01*
X029492Y078570D02*
X029544Y078570D01*
X029544Y078596D02*
X029492Y078596D01*
X029492Y078622D02*
X029544Y078622D01*
X029347Y078624D02*
X029295Y078624D01*
X029347Y078624D02*
X029347Y078336D01*
X029295Y078336D01*
X029295Y078624D01*
X029295Y078362D02*
X029347Y078362D01*
X029347Y078388D02*
X029295Y078388D01*
X029295Y078414D02*
X029347Y078414D01*
X029347Y078440D02*
X029295Y078440D01*
X029295Y078466D02*
X029347Y078466D01*
X029347Y078492D02*
X029295Y078492D01*
X029295Y078518D02*
X029347Y078518D01*
X029347Y078544D02*
X029295Y078544D01*
X029295Y078570D02*
X029347Y078570D01*
X029347Y078596D02*
X029295Y078596D01*
X029295Y078622D02*
X029347Y078622D01*
X033087Y074720D02*
X033139Y074720D01*
X033087Y074720D02*
X033087Y074830D01*
X033139Y074830D01*
X033139Y074720D01*
X033139Y074746D02*
X033087Y074746D01*
X033087Y074772D02*
X033139Y074772D01*
X033139Y074798D02*
X033087Y074798D01*
X033087Y074824D02*
X033139Y074824D01*
X033481Y074720D02*
X033533Y074720D01*
X033481Y074720D02*
X033481Y074830D01*
X033533Y074830D01*
X033533Y074720D01*
X033533Y074746D02*
X033481Y074746D01*
X033481Y074772D02*
X033533Y074772D01*
X033533Y074798D02*
X033481Y074798D01*
X033481Y074824D02*
X033533Y074824D01*
X033533Y074189D02*
X033481Y074189D01*
X033481Y074299D01*
X033533Y074299D01*
X033533Y074189D01*
X033533Y074215D02*
X033481Y074215D01*
X033481Y074241D02*
X033533Y074241D01*
X033533Y074267D02*
X033481Y074267D01*
X033481Y074293D02*
X033533Y074293D01*
X033336Y074189D02*
X033284Y074189D01*
X033284Y074299D01*
X033336Y074299D01*
X033336Y074189D01*
X033336Y074215D02*
X033284Y074215D01*
X033284Y074241D02*
X033336Y074241D01*
X033336Y074267D02*
X033284Y074267D01*
X033284Y074293D02*
X033336Y074293D01*
X033139Y074189D02*
X033087Y074189D01*
X033087Y074299D01*
X033139Y074299D01*
X033139Y074189D01*
X033139Y074215D02*
X033087Y074215D01*
X033087Y074241D02*
X033139Y074241D01*
X033139Y074267D02*
X033087Y074267D01*
X033087Y074293D02*
X033139Y074293D01*
D23*
X030638Y070872D02*
X030638Y070058D01*
X030112Y070058D01*
X030112Y070872D01*
X030638Y070872D01*
X030638Y070115D02*
X030112Y070115D01*
X030112Y070172D02*
X030638Y070172D01*
X030638Y070229D02*
X030112Y070229D01*
X030112Y070286D02*
X030638Y070286D01*
X030638Y070343D02*
X030112Y070343D01*
X030112Y070400D02*
X030638Y070400D01*
X030638Y070457D02*
X030112Y070457D01*
X030112Y070514D02*
X030638Y070514D01*
X030638Y070571D02*
X030112Y070571D01*
X030112Y070628D02*
X030638Y070628D01*
X030638Y070685D02*
X030112Y070685D01*
X030112Y070742D02*
X030638Y070742D01*
X030638Y070799D02*
X030112Y070799D01*
X030112Y070856D02*
X030638Y070856D01*
D24*
X030962Y070875D02*
X030962Y070841D01*
X030850Y070841D01*
X030850Y070875D01*
X030962Y070875D01*
X030962Y070864D02*
X030850Y070864D01*
X030962Y070679D02*
X030962Y070645D01*
X030850Y070645D01*
X030850Y070679D01*
X030962Y070679D01*
X030962Y070668D02*
X030850Y070668D01*
X030962Y070482D02*
X030962Y070448D01*
X030850Y070448D01*
X030850Y070482D01*
X030962Y070482D01*
X030962Y070471D02*
X030850Y070471D01*
X030962Y070285D02*
X030962Y070251D01*
X030850Y070251D01*
X030850Y070285D01*
X030962Y070285D01*
X030962Y070274D02*
X030850Y070274D01*
X030962Y070088D02*
X030962Y070054D01*
X030850Y070054D01*
X030850Y070088D01*
X030962Y070088D01*
X030962Y070077D02*
X030850Y070077D01*
X029899Y070088D02*
X029899Y070054D01*
X029787Y070054D01*
X029787Y070088D01*
X029899Y070088D01*
X029899Y070077D02*
X029787Y070077D01*
X029899Y070251D02*
X029899Y070285D01*
X029899Y070251D02*
X029787Y070251D01*
X029787Y070285D01*
X029899Y070285D01*
X029899Y070274D02*
X029787Y070274D01*
X029899Y070448D02*
X029899Y070482D01*
X029899Y070448D02*
X029787Y070448D01*
X029787Y070482D01*
X029899Y070482D01*
X029899Y070471D02*
X029787Y070471D01*
X029899Y070645D02*
X029899Y070679D01*
X029899Y070645D02*
X029787Y070645D01*
X029787Y070679D01*
X029899Y070679D01*
X029899Y070668D02*
X029787Y070668D01*
X029899Y070841D02*
X029899Y070875D01*
X029899Y070841D02*
X029787Y070841D01*
X029787Y070875D01*
X029899Y070875D01*
X029899Y070864D02*
X029787Y070864D01*
D25*
X030204Y071905D02*
X030714Y071905D01*
X030714Y071315D01*
X030204Y071315D01*
X030204Y071905D01*
X030204Y071371D02*
X030714Y071371D01*
X030714Y071427D02*
X030204Y071427D01*
X030204Y071483D02*
X030714Y071483D01*
X030714Y071539D02*
X030204Y071539D01*
X030204Y071595D02*
X030714Y071595D01*
X030714Y071651D02*
X030204Y071651D01*
X030204Y071707D02*
X030714Y071707D01*
X030714Y071763D02*
X030204Y071763D01*
X030204Y071819D02*
X030714Y071819D01*
X030714Y071875D02*
X030204Y071875D01*
X030236Y073065D02*
X028780Y073065D01*
X030236Y073065D02*
X030236Y072555D01*
X028780Y072555D01*
X028780Y073065D01*
X028780Y072611D02*
X030236Y072611D01*
X030236Y072667D02*
X028780Y072667D01*
X028780Y072723D02*
X030236Y072723D01*
X030236Y072779D02*
X028780Y072779D01*
X028780Y072835D02*
X030236Y072835D01*
X030236Y072891D02*
X028780Y072891D01*
X028780Y072947D02*
X030236Y072947D01*
X030236Y073003D02*
X028780Y073003D01*
X028780Y073059D02*
X030236Y073059D01*
X031306Y071905D02*
X031816Y071905D01*
X031816Y071315D01*
X031306Y071315D01*
X031306Y071905D01*
X031306Y071371D02*
X031816Y071371D01*
X031816Y071427D02*
X031306Y071427D01*
X031306Y071483D02*
X031816Y071483D01*
X031816Y071539D02*
X031306Y071539D01*
X031306Y071595D02*
X031816Y071595D01*
X031816Y071651D02*
X031306Y071651D01*
X031306Y071707D02*
X031816Y071707D01*
X031816Y071763D02*
X031306Y071763D01*
X031306Y071819D02*
X031816Y071819D01*
X031816Y071875D02*
X031306Y071875D01*
X031114Y068705D02*
X030604Y068705D01*
X031114Y068705D02*
X031114Y068115D01*
X030604Y068115D01*
X030604Y068705D01*
X030604Y068171D02*
X031114Y068171D01*
X031114Y068227D02*
X030604Y068227D01*
X030604Y068283D02*
X031114Y068283D01*
X031114Y068339D02*
X030604Y068339D01*
X030604Y068395D02*
X031114Y068395D01*
X031114Y068451D02*
X030604Y068451D01*
X030604Y068507D02*
X031114Y068507D01*
X031114Y068563D02*
X030604Y068563D01*
X030604Y068619D02*
X031114Y068619D01*
X031114Y068675D02*
X030604Y068675D01*
X031706Y068705D02*
X032216Y068705D01*
X032216Y068115D01*
X031706Y068115D01*
X031706Y068705D01*
X031706Y068171D02*
X032216Y068171D01*
X032216Y068227D02*
X031706Y068227D01*
X031706Y068283D02*
X032216Y068283D01*
X032216Y068339D02*
X031706Y068339D01*
X031706Y068395D02*
X032216Y068395D01*
X032216Y068451D02*
X031706Y068451D01*
X031706Y068507D02*
X032216Y068507D01*
X032216Y068563D02*
X031706Y068563D01*
X031706Y068619D02*
X032216Y068619D01*
X032216Y068675D02*
X031706Y068675D01*
X027441Y073065D02*
X025985Y073065D01*
X027441Y073065D02*
X027441Y072555D01*
X025985Y072555D01*
X025985Y073065D01*
X025985Y072611D02*
X027441Y072611D01*
X027441Y072667D02*
X025985Y072667D01*
X025985Y072723D02*
X027441Y072723D01*
X027441Y072779D02*
X025985Y072779D01*
X025985Y072835D02*
X027441Y072835D01*
X027441Y072891D02*
X025985Y072891D01*
X025985Y072947D02*
X027441Y072947D01*
X027441Y073003D02*
X025985Y073003D01*
X025985Y073059D02*
X027441Y073059D01*
D26*
X030565Y069075D02*
X030917Y069075D01*
X030565Y069075D02*
X030565Y069545D01*
X030917Y069545D01*
X030917Y069075D01*
X030917Y069113D02*
X030565Y069113D01*
X030565Y069151D02*
X030917Y069151D01*
X030917Y069189D02*
X030565Y069189D01*
X030565Y069227D02*
X030917Y069227D01*
X030917Y069265D02*
X030565Y069265D01*
X030565Y069303D02*
X030917Y069303D01*
X030917Y069341D02*
X030565Y069341D01*
X030565Y069379D02*
X030917Y069379D01*
X030917Y069417D02*
X030565Y069417D01*
X030565Y069455D02*
X030917Y069455D01*
X030917Y069493D02*
X030565Y069493D01*
X030565Y069531D02*
X030917Y069531D01*
D27*
X031404Y069087D02*
X032244Y069087D01*
X031404Y069087D02*
X031404Y069533D01*
X032244Y069533D01*
X032244Y069087D01*
X032244Y069136D02*
X031404Y069136D01*
X031404Y069185D02*
X032244Y069185D01*
X032244Y069234D02*
X031404Y069234D01*
X031404Y069283D02*
X032244Y069283D01*
X032244Y069332D02*
X031404Y069332D01*
X031404Y069381D02*
X032244Y069381D01*
X032244Y069430D02*
X031404Y069430D01*
X031404Y069479D02*
X032244Y069479D01*
X032244Y069528D02*
X031404Y069528D01*
D28*
X030720Y076519D02*
X030678Y076519D01*
X030720Y076519D02*
X030720Y076013D01*
X030678Y076013D01*
X030678Y076519D01*
X030678Y076037D02*
X030720Y076037D01*
X030720Y076061D02*
X030678Y076061D01*
X030678Y076085D02*
X030720Y076085D01*
X030720Y076109D02*
X030678Y076109D01*
X030678Y076133D02*
X030720Y076133D01*
X030720Y076157D02*
X030678Y076157D01*
X030678Y076181D02*
X030720Y076181D01*
X030720Y076205D02*
X030678Y076205D01*
X030678Y076229D02*
X030720Y076229D01*
X030720Y076253D02*
X030678Y076253D01*
X030678Y076277D02*
X030720Y076277D01*
X030720Y076301D02*
X030678Y076301D01*
X030678Y076325D02*
X030720Y076325D01*
X030720Y076349D02*
X030678Y076349D01*
X030678Y076373D02*
X030720Y076373D01*
X030720Y076397D02*
X030678Y076397D01*
X030678Y076421D02*
X030720Y076421D01*
X030720Y076445D02*
X030678Y076445D01*
X030678Y076469D02*
X030720Y076469D01*
X030720Y076493D02*
X030678Y076493D01*
X030678Y076517D02*
X030720Y076517D01*
X030523Y076519D02*
X030481Y076519D01*
X030523Y076519D02*
X030523Y076013D01*
X030481Y076013D01*
X030481Y076519D01*
X030481Y076037D02*
X030523Y076037D01*
X030523Y076061D02*
X030481Y076061D01*
X030481Y076085D02*
X030523Y076085D01*
X030523Y076109D02*
X030481Y076109D01*
X030481Y076133D02*
X030523Y076133D01*
X030523Y076157D02*
X030481Y076157D01*
X030481Y076181D02*
X030523Y076181D01*
X030523Y076205D02*
X030481Y076205D01*
X030481Y076229D02*
X030523Y076229D01*
X030523Y076253D02*
X030481Y076253D01*
X030481Y076277D02*
X030523Y076277D01*
X030523Y076301D02*
X030481Y076301D01*
X030481Y076325D02*
X030523Y076325D01*
X030523Y076349D02*
X030481Y076349D01*
X030481Y076373D02*
X030523Y076373D01*
X030523Y076397D02*
X030481Y076397D01*
X030481Y076421D02*
X030523Y076421D01*
X030523Y076445D02*
X030481Y076445D01*
X030481Y076469D02*
X030523Y076469D01*
X030523Y076493D02*
X030481Y076493D01*
X030481Y076517D02*
X030523Y076517D01*
X030327Y076519D02*
X030285Y076519D01*
X030327Y076519D02*
X030327Y076013D01*
X030285Y076013D01*
X030285Y076519D01*
X030285Y076037D02*
X030327Y076037D01*
X030327Y076061D02*
X030285Y076061D01*
X030285Y076085D02*
X030327Y076085D01*
X030327Y076109D02*
X030285Y076109D01*
X030285Y076133D02*
X030327Y076133D01*
X030327Y076157D02*
X030285Y076157D01*
X030285Y076181D02*
X030327Y076181D01*
X030327Y076205D02*
X030285Y076205D01*
X030285Y076229D02*
X030327Y076229D01*
X030327Y076253D02*
X030285Y076253D01*
X030285Y076277D02*
X030327Y076277D01*
X030327Y076301D02*
X030285Y076301D01*
X030285Y076325D02*
X030327Y076325D01*
X030327Y076349D02*
X030285Y076349D01*
X030285Y076373D02*
X030327Y076373D01*
X030327Y076397D02*
X030285Y076397D01*
X030285Y076421D02*
X030327Y076421D01*
X030327Y076445D02*
X030285Y076445D01*
X030285Y076469D02*
X030327Y076469D01*
X030327Y076493D02*
X030285Y076493D01*
X030285Y076517D02*
X030327Y076517D01*
X030130Y076519D02*
X030088Y076519D01*
X030130Y076519D02*
X030130Y076013D01*
X030088Y076013D01*
X030088Y076519D01*
X030088Y076037D02*
X030130Y076037D01*
X030130Y076061D02*
X030088Y076061D01*
X030088Y076085D02*
X030130Y076085D01*
X030130Y076109D02*
X030088Y076109D01*
X030088Y076133D02*
X030130Y076133D01*
X030130Y076157D02*
X030088Y076157D01*
X030088Y076181D02*
X030130Y076181D01*
X030130Y076205D02*
X030088Y076205D01*
X030088Y076229D02*
X030130Y076229D01*
X030130Y076253D02*
X030088Y076253D01*
X030088Y076277D02*
X030130Y076277D01*
X030130Y076301D02*
X030088Y076301D01*
X030088Y076325D02*
X030130Y076325D01*
X030130Y076349D02*
X030088Y076349D01*
X030088Y076373D02*
X030130Y076373D01*
X030130Y076397D02*
X030088Y076397D01*
X030088Y076421D02*
X030130Y076421D01*
X030130Y076445D02*
X030088Y076445D01*
X030088Y076469D02*
X030130Y076469D01*
X030130Y076493D02*
X030088Y076493D01*
X030088Y076517D02*
X030130Y076517D01*
X029933Y076519D02*
X029891Y076519D01*
X029933Y076519D02*
X029933Y076013D01*
X029891Y076013D01*
X029891Y076519D01*
X029891Y076037D02*
X029933Y076037D01*
X029933Y076061D02*
X029891Y076061D01*
X029891Y076085D02*
X029933Y076085D01*
X029933Y076109D02*
X029891Y076109D01*
X029891Y076133D02*
X029933Y076133D01*
X029933Y076157D02*
X029891Y076157D01*
X029891Y076181D02*
X029933Y076181D01*
X029933Y076205D02*
X029891Y076205D01*
X029891Y076229D02*
X029933Y076229D01*
X029933Y076253D02*
X029891Y076253D01*
X029891Y076277D02*
X029933Y076277D01*
X029933Y076301D02*
X029891Y076301D01*
X029891Y076325D02*
X029933Y076325D01*
X029933Y076349D02*
X029891Y076349D01*
X029891Y076373D02*
X029933Y076373D01*
X029933Y076397D02*
X029891Y076397D01*
X029891Y076421D02*
X029933Y076421D01*
X029933Y076445D02*
X029891Y076445D01*
X029891Y076469D02*
X029933Y076469D01*
X029933Y076493D02*
X029891Y076493D01*
X029891Y076517D02*
X029933Y076517D01*
X029736Y076519D02*
X029694Y076519D01*
X029736Y076519D02*
X029736Y076013D01*
X029694Y076013D01*
X029694Y076519D01*
X029694Y076037D02*
X029736Y076037D01*
X029736Y076061D02*
X029694Y076061D01*
X029694Y076085D02*
X029736Y076085D01*
X029736Y076109D02*
X029694Y076109D01*
X029694Y076133D02*
X029736Y076133D01*
X029736Y076157D02*
X029694Y076157D01*
X029694Y076181D02*
X029736Y076181D01*
X029736Y076205D02*
X029694Y076205D01*
X029694Y076229D02*
X029736Y076229D01*
X029736Y076253D02*
X029694Y076253D01*
X029694Y076277D02*
X029736Y076277D01*
X029736Y076301D02*
X029694Y076301D01*
X029694Y076325D02*
X029736Y076325D01*
X029736Y076349D02*
X029694Y076349D01*
X029694Y076373D02*
X029736Y076373D01*
X029736Y076397D02*
X029694Y076397D01*
X029694Y076421D02*
X029736Y076421D01*
X029736Y076445D02*
X029694Y076445D01*
X029694Y076469D02*
X029736Y076469D01*
X029736Y076493D02*
X029694Y076493D01*
X029694Y076517D02*
X029736Y076517D01*
X029539Y076519D02*
X029497Y076519D01*
X029539Y076519D02*
X029539Y076013D01*
X029497Y076013D01*
X029497Y076519D01*
X029497Y076037D02*
X029539Y076037D01*
X029539Y076061D02*
X029497Y076061D01*
X029497Y076085D02*
X029539Y076085D01*
X029539Y076109D02*
X029497Y076109D01*
X029497Y076133D02*
X029539Y076133D01*
X029539Y076157D02*
X029497Y076157D01*
X029497Y076181D02*
X029539Y076181D01*
X029539Y076205D02*
X029497Y076205D01*
X029497Y076229D02*
X029539Y076229D01*
X029539Y076253D02*
X029497Y076253D01*
X029497Y076277D02*
X029539Y076277D01*
X029539Y076301D02*
X029497Y076301D01*
X029497Y076325D02*
X029539Y076325D01*
X029539Y076349D02*
X029497Y076349D01*
X029497Y076373D02*
X029539Y076373D01*
X029539Y076397D02*
X029497Y076397D01*
X029497Y076421D02*
X029539Y076421D01*
X029539Y076445D02*
X029497Y076445D01*
X029497Y076469D02*
X029539Y076469D01*
X029539Y076493D02*
X029497Y076493D01*
X029497Y076517D02*
X029539Y076517D01*
X029342Y076519D02*
X029300Y076519D01*
X029342Y076519D02*
X029342Y076013D01*
X029300Y076013D01*
X029300Y076519D01*
X029300Y076037D02*
X029342Y076037D01*
X029342Y076061D02*
X029300Y076061D01*
X029300Y076085D02*
X029342Y076085D01*
X029342Y076109D02*
X029300Y076109D01*
X029300Y076133D02*
X029342Y076133D01*
X029342Y076157D02*
X029300Y076157D01*
X029300Y076181D02*
X029342Y076181D01*
X029342Y076205D02*
X029300Y076205D01*
X029300Y076229D02*
X029342Y076229D01*
X029342Y076253D02*
X029300Y076253D01*
X029300Y076277D02*
X029342Y076277D01*
X029342Y076301D02*
X029300Y076301D01*
X029300Y076325D02*
X029342Y076325D01*
X029342Y076349D02*
X029300Y076349D01*
X029300Y076373D02*
X029342Y076373D01*
X029342Y076397D02*
X029300Y076397D01*
X029300Y076421D02*
X029342Y076421D01*
X029342Y076445D02*
X029300Y076445D01*
X029300Y076469D02*
X029342Y076469D01*
X029342Y076493D02*
X029300Y076493D01*
X029300Y076517D02*
X029342Y076517D01*
X029019Y076800D02*
X029019Y076842D01*
X029019Y076800D02*
X028513Y076800D01*
X028513Y076842D01*
X029019Y076842D01*
X029019Y076824D02*
X028513Y076824D01*
X029019Y076996D02*
X029019Y077038D01*
X029019Y076996D02*
X028513Y076996D01*
X028513Y077038D01*
X029019Y077038D01*
X029019Y077020D02*
X028513Y077020D01*
X029019Y077193D02*
X029019Y077235D01*
X029019Y077193D02*
X028513Y077193D01*
X028513Y077235D01*
X029019Y077235D01*
X029019Y077217D02*
X028513Y077217D01*
X029019Y077390D02*
X029019Y077432D01*
X029019Y077390D02*
X028513Y077390D01*
X028513Y077432D01*
X029019Y077432D01*
X029019Y077414D02*
X028513Y077414D01*
X029019Y077587D02*
X029019Y077629D01*
X029019Y077587D02*
X028513Y077587D01*
X028513Y077629D01*
X029019Y077629D01*
X029019Y077611D02*
X028513Y077611D01*
X029019Y077784D02*
X029019Y077826D01*
X029019Y077784D02*
X028513Y077784D01*
X028513Y077826D01*
X029019Y077826D01*
X029019Y077808D02*
X028513Y077808D01*
X029019Y077981D02*
X029019Y078023D01*
X029019Y077981D02*
X028513Y077981D01*
X028513Y078023D01*
X029019Y078023D01*
X029019Y078005D02*
X028513Y078005D01*
X029019Y078178D02*
X029019Y078220D01*
X029019Y078178D02*
X028513Y078178D01*
X028513Y078220D01*
X029019Y078220D01*
X029019Y078202D02*
X028513Y078202D01*
X029300Y079007D02*
X029342Y079007D01*
X029342Y078501D01*
X029300Y078501D01*
X029300Y079007D01*
X029300Y078525D02*
X029342Y078525D01*
X029342Y078549D02*
X029300Y078549D01*
X029300Y078573D02*
X029342Y078573D01*
X029342Y078597D02*
X029300Y078597D01*
X029300Y078621D02*
X029342Y078621D01*
X029342Y078645D02*
X029300Y078645D01*
X029300Y078669D02*
X029342Y078669D01*
X029342Y078693D02*
X029300Y078693D01*
X029300Y078717D02*
X029342Y078717D01*
X029342Y078741D02*
X029300Y078741D01*
X029300Y078765D02*
X029342Y078765D01*
X029342Y078789D02*
X029300Y078789D01*
X029300Y078813D02*
X029342Y078813D01*
X029342Y078837D02*
X029300Y078837D01*
X029300Y078861D02*
X029342Y078861D01*
X029342Y078885D02*
X029300Y078885D01*
X029300Y078909D02*
X029342Y078909D01*
X029342Y078933D02*
X029300Y078933D01*
X029300Y078957D02*
X029342Y078957D01*
X029342Y078981D02*
X029300Y078981D01*
X029300Y079005D02*
X029342Y079005D01*
X029497Y079007D02*
X029539Y079007D01*
X029539Y078501D01*
X029497Y078501D01*
X029497Y079007D01*
X029497Y078525D02*
X029539Y078525D01*
X029539Y078549D02*
X029497Y078549D01*
X029497Y078573D02*
X029539Y078573D01*
X029539Y078597D02*
X029497Y078597D01*
X029497Y078621D02*
X029539Y078621D01*
X029539Y078645D02*
X029497Y078645D01*
X029497Y078669D02*
X029539Y078669D01*
X029539Y078693D02*
X029497Y078693D01*
X029497Y078717D02*
X029539Y078717D01*
X029539Y078741D02*
X029497Y078741D01*
X029497Y078765D02*
X029539Y078765D01*
X029539Y078789D02*
X029497Y078789D01*
X029497Y078813D02*
X029539Y078813D01*
X029539Y078837D02*
X029497Y078837D01*
X029497Y078861D02*
X029539Y078861D01*
X029539Y078885D02*
X029497Y078885D01*
X029497Y078909D02*
X029539Y078909D01*
X029539Y078933D02*
X029497Y078933D01*
X029497Y078957D02*
X029539Y078957D01*
X029539Y078981D02*
X029497Y078981D01*
X029497Y079005D02*
X029539Y079005D01*
X029694Y079007D02*
X029736Y079007D01*
X029736Y078501D01*
X029694Y078501D01*
X029694Y079007D01*
X029694Y078525D02*
X029736Y078525D01*
X029736Y078549D02*
X029694Y078549D01*
X029694Y078573D02*
X029736Y078573D01*
X029736Y078597D02*
X029694Y078597D01*
X029694Y078621D02*
X029736Y078621D01*
X029736Y078645D02*
X029694Y078645D01*
X029694Y078669D02*
X029736Y078669D01*
X029736Y078693D02*
X029694Y078693D01*
X029694Y078717D02*
X029736Y078717D01*
X029736Y078741D02*
X029694Y078741D01*
X029694Y078765D02*
X029736Y078765D01*
X029736Y078789D02*
X029694Y078789D01*
X029694Y078813D02*
X029736Y078813D01*
X029736Y078837D02*
X029694Y078837D01*
X029694Y078861D02*
X029736Y078861D01*
X029736Y078885D02*
X029694Y078885D01*
X029694Y078909D02*
X029736Y078909D01*
X029736Y078933D02*
X029694Y078933D01*
X029694Y078957D02*
X029736Y078957D01*
X029736Y078981D02*
X029694Y078981D01*
X029694Y079005D02*
X029736Y079005D01*
X029891Y079007D02*
X029933Y079007D01*
X029933Y078501D01*
X029891Y078501D01*
X029891Y079007D01*
X029891Y078525D02*
X029933Y078525D01*
X029933Y078549D02*
X029891Y078549D01*
X029891Y078573D02*
X029933Y078573D01*
X029933Y078597D02*
X029891Y078597D01*
X029891Y078621D02*
X029933Y078621D01*
X029933Y078645D02*
X029891Y078645D01*
X029891Y078669D02*
X029933Y078669D01*
X029933Y078693D02*
X029891Y078693D01*
X029891Y078717D02*
X029933Y078717D01*
X029933Y078741D02*
X029891Y078741D01*
X029891Y078765D02*
X029933Y078765D01*
X029933Y078789D02*
X029891Y078789D01*
X029891Y078813D02*
X029933Y078813D01*
X029933Y078837D02*
X029891Y078837D01*
X029891Y078861D02*
X029933Y078861D01*
X029933Y078885D02*
X029891Y078885D01*
X029891Y078909D02*
X029933Y078909D01*
X029933Y078933D02*
X029891Y078933D01*
X029891Y078957D02*
X029933Y078957D01*
X029933Y078981D02*
X029891Y078981D01*
X029891Y079005D02*
X029933Y079005D01*
X030088Y079007D02*
X030130Y079007D01*
X030130Y078501D01*
X030088Y078501D01*
X030088Y079007D01*
X030088Y078525D02*
X030130Y078525D01*
X030130Y078549D02*
X030088Y078549D01*
X030088Y078573D02*
X030130Y078573D01*
X030130Y078597D02*
X030088Y078597D01*
X030088Y078621D02*
X030130Y078621D01*
X030130Y078645D02*
X030088Y078645D01*
X030088Y078669D02*
X030130Y078669D01*
X030130Y078693D02*
X030088Y078693D01*
X030088Y078717D02*
X030130Y078717D01*
X030130Y078741D02*
X030088Y078741D01*
X030088Y078765D02*
X030130Y078765D01*
X030130Y078789D02*
X030088Y078789D01*
X030088Y078813D02*
X030130Y078813D01*
X030130Y078837D02*
X030088Y078837D01*
X030088Y078861D02*
X030130Y078861D01*
X030130Y078885D02*
X030088Y078885D01*
X030088Y078909D02*
X030130Y078909D01*
X030130Y078933D02*
X030088Y078933D01*
X030088Y078957D02*
X030130Y078957D01*
X030130Y078981D02*
X030088Y078981D01*
X030088Y079005D02*
X030130Y079005D01*
X030285Y079007D02*
X030327Y079007D01*
X030327Y078501D01*
X030285Y078501D01*
X030285Y079007D01*
X030285Y078525D02*
X030327Y078525D01*
X030327Y078549D02*
X030285Y078549D01*
X030285Y078573D02*
X030327Y078573D01*
X030327Y078597D02*
X030285Y078597D01*
X030285Y078621D02*
X030327Y078621D01*
X030327Y078645D02*
X030285Y078645D01*
X030285Y078669D02*
X030327Y078669D01*
X030327Y078693D02*
X030285Y078693D01*
X030285Y078717D02*
X030327Y078717D01*
X030327Y078741D02*
X030285Y078741D01*
X030285Y078765D02*
X030327Y078765D01*
X030327Y078789D02*
X030285Y078789D01*
X030285Y078813D02*
X030327Y078813D01*
X030327Y078837D02*
X030285Y078837D01*
X030285Y078861D02*
X030327Y078861D01*
X030327Y078885D02*
X030285Y078885D01*
X030285Y078909D02*
X030327Y078909D01*
X030327Y078933D02*
X030285Y078933D01*
X030285Y078957D02*
X030327Y078957D01*
X030327Y078981D02*
X030285Y078981D01*
X030285Y079005D02*
X030327Y079005D01*
X030481Y079007D02*
X030523Y079007D01*
X030523Y078501D01*
X030481Y078501D01*
X030481Y079007D01*
X030481Y078525D02*
X030523Y078525D01*
X030523Y078549D02*
X030481Y078549D01*
X030481Y078573D02*
X030523Y078573D01*
X030523Y078597D02*
X030481Y078597D01*
X030481Y078621D02*
X030523Y078621D01*
X030523Y078645D02*
X030481Y078645D01*
X030481Y078669D02*
X030523Y078669D01*
X030523Y078693D02*
X030481Y078693D01*
X030481Y078717D02*
X030523Y078717D01*
X030523Y078741D02*
X030481Y078741D01*
X030481Y078765D02*
X030523Y078765D01*
X030523Y078789D02*
X030481Y078789D01*
X030481Y078813D02*
X030523Y078813D01*
X030523Y078837D02*
X030481Y078837D01*
X030481Y078861D02*
X030523Y078861D01*
X030523Y078885D02*
X030481Y078885D01*
X030481Y078909D02*
X030523Y078909D01*
X030523Y078933D02*
X030481Y078933D01*
X030481Y078957D02*
X030523Y078957D01*
X030523Y078981D02*
X030481Y078981D01*
X030481Y079005D02*
X030523Y079005D01*
X030678Y079007D02*
X030720Y079007D01*
X030720Y078501D01*
X030678Y078501D01*
X030678Y079007D01*
X030678Y078525D02*
X030720Y078525D01*
X030720Y078549D02*
X030678Y078549D01*
X030678Y078573D02*
X030720Y078573D01*
X030720Y078597D02*
X030678Y078597D01*
X030678Y078621D02*
X030720Y078621D01*
X030720Y078645D02*
X030678Y078645D01*
X030678Y078669D02*
X030720Y078669D01*
X030720Y078693D02*
X030678Y078693D01*
X030678Y078717D02*
X030720Y078717D01*
X030720Y078741D02*
X030678Y078741D01*
X030678Y078765D02*
X030720Y078765D01*
X030720Y078789D02*
X030678Y078789D01*
X030678Y078813D02*
X030720Y078813D01*
X030720Y078837D02*
X030678Y078837D01*
X030678Y078861D02*
X030720Y078861D01*
X030720Y078885D02*
X030678Y078885D01*
X030678Y078909D02*
X030720Y078909D01*
X030720Y078933D02*
X030678Y078933D01*
X030678Y078957D02*
X030720Y078957D01*
X030720Y078981D02*
X030678Y078981D01*
X030678Y079005D02*
X030720Y079005D01*
X031507Y078220D02*
X031507Y078178D01*
X031001Y078178D01*
X031001Y078220D01*
X031507Y078220D01*
X031507Y078202D02*
X031001Y078202D01*
X031507Y078023D02*
X031507Y077981D01*
X031001Y077981D01*
X031001Y078023D01*
X031507Y078023D01*
X031507Y078005D02*
X031001Y078005D01*
X031507Y077826D02*
X031507Y077784D01*
X031001Y077784D01*
X031001Y077826D01*
X031507Y077826D01*
X031507Y077808D02*
X031001Y077808D01*
X031507Y077629D02*
X031507Y077587D01*
X031001Y077587D01*
X031001Y077629D01*
X031507Y077629D01*
X031507Y077611D02*
X031001Y077611D01*
X031507Y077432D02*
X031507Y077390D01*
X031001Y077390D01*
X031001Y077432D01*
X031507Y077432D01*
X031507Y077414D02*
X031001Y077414D01*
X031507Y077235D02*
X031507Y077193D01*
X031001Y077193D01*
X031001Y077235D01*
X031507Y077235D01*
X031507Y077217D02*
X031001Y077217D01*
X031507Y077038D02*
X031507Y076996D01*
X031001Y076996D01*
X031001Y077038D01*
X031507Y077038D01*
X031507Y077020D02*
X031001Y077020D01*
X031507Y076842D02*
X031507Y076800D01*
X031001Y076800D01*
X031001Y076842D01*
X031507Y076842D01*
X031507Y076824D02*
X031001Y076824D01*
D29*
X031752Y080107D02*
X031752Y080177D01*
X032274Y080177D01*
X032274Y080107D01*
X031752Y080107D01*
X031752Y080134D02*
X032274Y080134D01*
X032274Y080161D02*
X031752Y080161D01*
X031752Y080363D02*
X031752Y080433D01*
X032274Y080433D01*
X032274Y080363D01*
X031752Y080363D01*
X031752Y080390D02*
X032274Y080390D01*
X032274Y080417D02*
X031752Y080417D01*
X031752Y080619D02*
X031752Y080689D01*
X032274Y080689D01*
X032274Y080619D01*
X031752Y080619D01*
X031752Y080646D02*
X032274Y080646D01*
X032274Y080673D02*
X031752Y080673D01*
X031752Y080875D02*
X031752Y080945D01*
X032274Y080945D01*
X032274Y080875D01*
X031752Y080875D01*
X031752Y080902D02*
X032274Y080902D01*
X032274Y080929D02*
X031752Y080929D01*
X031752Y081131D02*
X031752Y081201D01*
X032274Y081201D01*
X032274Y081131D01*
X031752Y081131D01*
X031752Y081158D02*
X032274Y081158D01*
X032274Y081185D02*
X031752Y081185D01*
X031752Y081386D02*
X031752Y081456D01*
X032274Y081456D01*
X032274Y081386D01*
X031752Y081386D01*
X031752Y081413D02*
X032274Y081413D01*
X032274Y081440D02*
X031752Y081440D01*
X031752Y081642D02*
X031752Y081712D01*
X032274Y081712D01*
X032274Y081642D01*
X031752Y081642D01*
X031752Y081669D02*
X032274Y081669D01*
X032274Y081696D02*
X031752Y081696D01*
X031752Y082307D02*
X031752Y082377D01*
X032274Y082377D01*
X032274Y082307D01*
X031752Y082307D01*
X031752Y082334D02*
X032274Y082334D01*
X032274Y082361D02*
X031752Y082361D01*
X031752Y082563D02*
X031752Y082633D01*
X032274Y082633D01*
X032274Y082563D01*
X031752Y082563D01*
X031752Y082590D02*
X032274Y082590D01*
X032274Y082617D02*
X031752Y082617D01*
X031752Y082819D02*
X031752Y082889D01*
X032274Y082889D01*
X032274Y082819D01*
X031752Y082819D01*
X031752Y082846D02*
X032274Y082846D01*
X032274Y082873D02*
X031752Y082873D01*
X031752Y083075D02*
X031752Y083145D01*
X032274Y083145D01*
X032274Y083075D01*
X031752Y083075D01*
X031752Y083102D02*
X032274Y083102D01*
X032274Y083129D02*
X031752Y083129D01*
X031752Y083331D02*
X031752Y083401D01*
X032274Y083401D01*
X032274Y083331D01*
X031752Y083331D01*
X031752Y083358D02*
X032274Y083358D01*
X032274Y083385D02*
X031752Y083385D01*
X031752Y083586D02*
X031752Y083656D01*
X032274Y083656D01*
X032274Y083586D01*
X031752Y083586D01*
X031752Y083613D02*
X032274Y083613D01*
X032274Y083640D02*
X031752Y083640D01*
X031752Y083842D02*
X031752Y083912D01*
X032274Y083912D01*
X032274Y083842D01*
X031752Y083842D01*
X031752Y083869D02*
X032274Y083869D01*
X032274Y083896D02*
X031752Y083896D01*
X029547Y083842D02*
X029547Y083912D01*
X030069Y083912D01*
X030069Y083842D01*
X029547Y083842D01*
X029547Y083869D02*
X030069Y083869D01*
X030069Y083896D02*
X029547Y083896D01*
X029547Y083656D02*
X029547Y083586D01*
X029547Y083656D02*
X030069Y083656D01*
X030069Y083586D01*
X029547Y083586D01*
X029547Y083613D02*
X030069Y083613D01*
X030069Y083640D02*
X029547Y083640D01*
X029547Y083401D02*
X029547Y083331D01*
X029547Y083401D02*
X030069Y083401D01*
X030069Y083331D01*
X029547Y083331D01*
X029547Y083358D02*
X030069Y083358D01*
X030069Y083385D02*
X029547Y083385D01*
X029547Y083145D02*
X029547Y083075D01*
X029547Y083145D02*
X030069Y083145D01*
X030069Y083075D01*
X029547Y083075D01*
X029547Y083102D02*
X030069Y083102D01*
X030069Y083129D02*
X029547Y083129D01*
X029547Y082889D02*
X029547Y082819D01*
X029547Y082889D02*
X030069Y082889D01*
X030069Y082819D01*
X029547Y082819D01*
X029547Y082846D02*
X030069Y082846D01*
X030069Y082873D02*
X029547Y082873D01*
X029547Y082633D02*
X029547Y082563D01*
X029547Y082633D02*
X030069Y082633D01*
X030069Y082563D01*
X029547Y082563D01*
X029547Y082590D02*
X030069Y082590D01*
X030069Y082617D02*
X029547Y082617D01*
X029547Y082377D02*
X029547Y082307D01*
X029547Y082377D02*
X030069Y082377D01*
X030069Y082307D01*
X029547Y082307D01*
X029547Y082334D02*
X030069Y082334D01*
X030069Y082361D02*
X029547Y082361D01*
X029547Y081712D02*
X029547Y081642D01*
X029547Y081712D02*
X030069Y081712D01*
X030069Y081642D01*
X029547Y081642D01*
X029547Y081669D02*
X030069Y081669D01*
X030069Y081696D02*
X029547Y081696D01*
X029547Y081456D02*
X029547Y081386D01*
X029547Y081456D02*
X030069Y081456D01*
X030069Y081386D01*
X029547Y081386D01*
X029547Y081413D02*
X030069Y081413D01*
X030069Y081440D02*
X029547Y081440D01*
X029547Y081201D02*
X029547Y081131D01*
X029547Y081201D02*
X030069Y081201D01*
X030069Y081131D01*
X029547Y081131D01*
X029547Y081158D02*
X030069Y081158D01*
X030069Y081185D02*
X029547Y081185D01*
X029547Y080945D02*
X029547Y080875D01*
X029547Y080945D02*
X030069Y080945D01*
X030069Y080875D01*
X029547Y080875D01*
X029547Y080902D02*
X030069Y080902D01*
X030069Y080929D02*
X029547Y080929D01*
X029547Y080689D02*
X029547Y080619D01*
X029547Y080689D02*
X030069Y080689D01*
X030069Y080619D01*
X029547Y080619D01*
X029547Y080646D02*
X030069Y080646D01*
X030069Y080673D02*
X029547Y080673D01*
X029547Y080433D02*
X029547Y080363D01*
X029547Y080433D02*
X030069Y080433D01*
X030069Y080363D01*
X029547Y080363D01*
X029547Y080390D02*
X030069Y080390D01*
X030069Y080417D02*
X029547Y080417D01*
X029547Y080177D02*
X029547Y080107D01*
X029547Y080177D02*
X030069Y080177D01*
X030069Y080107D01*
X029547Y080107D01*
X029547Y080134D02*
X030069Y080134D01*
X030069Y080161D02*
X029547Y080161D01*
D30*
X027809Y081475D02*
X027167Y081475D01*
X027809Y081475D02*
X027809Y081417D01*
X027167Y081417D01*
X027167Y081475D01*
X027167Y081443D02*
X027809Y081443D01*
X027809Y081469D02*
X027167Y081469D01*
X027167Y081731D02*
X027809Y081731D01*
X027809Y081673D01*
X027167Y081673D01*
X027167Y081731D01*
X027167Y081699D02*
X027809Y081699D01*
X027809Y081725D02*
X027167Y081725D01*
X027167Y081987D02*
X027809Y081987D01*
X027809Y081929D01*
X027167Y081929D01*
X027167Y081987D01*
X027167Y081955D02*
X027809Y081955D01*
X027809Y081981D02*
X027167Y081981D01*
X027167Y082243D02*
X027809Y082243D01*
X027809Y082185D01*
X027167Y082185D01*
X027167Y082243D01*
X027167Y082211D02*
X027809Y082211D01*
X027809Y082237D02*
X027167Y082237D01*
X027167Y082499D02*
X027809Y082499D01*
X027809Y082441D01*
X027167Y082441D01*
X027167Y082499D01*
X027167Y082467D02*
X027809Y082467D01*
X027809Y082493D02*
X027167Y082493D01*
X027167Y082755D02*
X027809Y082755D01*
X027809Y082697D01*
X027167Y082697D01*
X027167Y082755D01*
X027167Y082723D02*
X027809Y082723D01*
X027809Y082749D02*
X027167Y082749D01*
X027167Y083011D02*
X027809Y083011D01*
X027809Y082953D01*
X027167Y082953D01*
X027167Y083011D01*
X027167Y082979D02*
X027809Y082979D01*
X027809Y083005D02*
X027167Y083005D01*
X027167Y083267D02*
X027809Y083267D01*
X027809Y083209D01*
X027167Y083209D01*
X027167Y083267D01*
X027167Y083235D02*
X027809Y083235D01*
X027809Y083261D02*
X027167Y083261D01*
X027167Y083522D02*
X027809Y083522D01*
X027809Y083464D01*
X027167Y083464D01*
X027167Y083522D01*
X027167Y083490D02*
X027809Y083490D01*
X027809Y083516D02*
X027167Y083516D01*
X027167Y083778D02*
X027809Y083778D01*
X027809Y083720D01*
X027167Y083720D01*
X027167Y083778D01*
X027167Y083746D02*
X027809Y083746D01*
X027809Y083772D02*
X027167Y083772D01*
X027167Y084034D02*
X027809Y084034D01*
X027809Y083976D01*
X027167Y083976D01*
X027167Y084034D01*
X027167Y084002D02*
X027809Y084002D01*
X027809Y084028D02*
X027167Y084028D01*
X027167Y084290D02*
X027809Y084290D01*
X027809Y084232D01*
X027167Y084232D01*
X027167Y084290D01*
X027167Y084258D02*
X027809Y084258D01*
X027809Y084284D02*
X027167Y084284D01*
X027167Y084546D02*
X027809Y084546D01*
X027809Y084488D01*
X027167Y084488D01*
X027167Y084546D01*
X027167Y084514D02*
X027809Y084514D01*
X027809Y084540D02*
X027167Y084540D01*
X027167Y084802D02*
X027809Y084802D01*
X027809Y084744D01*
X027167Y084744D01*
X027167Y084802D01*
X027167Y084770D02*
X027809Y084770D01*
X027809Y084796D02*
X027167Y084796D01*
X025053Y084802D02*
X024411Y084802D01*
X025053Y084802D02*
X025053Y084744D01*
X024411Y084744D01*
X024411Y084802D01*
X024411Y084770D02*
X025053Y084770D01*
X025053Y084796D02*
X024411Y084796D01*
X024411Y084546D02*
X025053Y084546D01*
X025053Y084488D01*
X024411Y084488D01*
X024411Y084546D01*
X024411Y084514D02*
X025053Y084514D01*
X025053Y084540D02*
X024411Y084540D01*
X024411Y084290D02*
X025053Y084290D01*
X025053Y084232D01*
X024411Y084232D01*
X024411Y084290D01*
X024411Y084258D02*
X025053Y084258D01*
X025053Y084284D02*
X024411Y084284D01*
X024411Y084034D02*
X025053Y084034D01*
X025053Y083976D01*
X024411Y083976D01*
X024411Y084034D01*
X024411Y084002D02*
X025053Y084002D01*
X025053Y084028D02*
X024411Y084028D01*
X024411Y083778D02*
X025053Y083778D01*
X025053Y083720D01*
X024411Y083720D01*
X024411Y083778D01*
X024411Y083746D02*
X025053Y083746D01*
X025053Y083772D02*
X024411Y083772D01*
X024411Y083522D02*
X025053Y083522D01*
X025053Y083464D01*
X024411Y083464D01*
X024411Y083522D01*
X024411Y083490D02*
X025053Y083490D01*
X025053Y083516D02*
X024411Y083516D01*
X024411Y083267D02*
X025053Y083267D01*
X025053Y083209D01*
X024411Y083209D01*
X024411Y083267D01*
X024411Y083235D02*
X025053Y083235D01*
X025053Y083261D02*
X024411Y083261D01*
X024411Y083011D02*
X025053Y083011D01*
X025053Y082953D01*
X024411Y082953D01*
X024411Y083011D01*
X024411Y082979D02*
X025053Y082979D01*
X025053Y083005D02*
X024411Y083005D01*
X024411Y082755D02*
X025053Y082755D01*
X025053Y082697D01*
X024411Y082697D01*
X024411Y082755D01*
X024411Y082723D02*
X025053Y082723D01*
X025053Y082749D02*
X024411Y082749D01*
X024411Y082499D02*
X025053Y082499D01*
X025053Y082441D01*
X024411Y082441D01*
X024411Y082499D01*
X024411Y082467D02*
X025053Y082467D01*
X025053Y082493D02*
X024411Y082493D01*
X024411Y082243D02*
X025053Y082243D01*
X025053Y082185D01*
X024411Y082185D01*
X024411Y082243D01*
X024411Y082211D02*
X025053Y082211D01*
X025053Y082237D02*
X024411Y082237D01*
X024411Y081987D02*
X025053Y081987D01*
X025053Y081929D01*
X024411Y081929D01*
X024411Y081987D01*
X024411Y081955D02*
X025053Y081955D01*
X025053Y081981D02*
X024411Y081981D01*
X024411Y081731D02*
X025053Y081731D01*
X025053Y081673D01*
X024411Y081673D01*
X024411Y081731D01*
X024411Y081699D02*
X025053Y081699D01*
X025053Y081725D02*
X024411Y081725D01*
X024411Y081475D02*
X025053Y081475D01*
X025053Y081417D01*
X024411Y081417D01*
X024411Y081475D01*
X024411Y081443D02*
X025053Y081443D01*
X025053Y081469D02*
X024411Y081469D01*
D31*
X032230Y070664D02*
X033028Y070664D01*
X032230Y070664D02*
X032230Y071756D01*
X033028Y071756D01*
X033028Y070664D01*
X033028Y070752D02*
X032230Y070752D01*
X032230Y070840D02*
X033028Y070840D01*
X033028Y070928D02*
X032230Y070928D01*
X032230Y071016D02*
X033028Y071016D01*
X033028Y071104D02*
X032230Y071104D01*
X032230Y071192D02*
X033028Y071192D01*
X033028Y071280D02*
X032230Y071280D01*
X032230Y071368D02*
X033028Y071368D01*
X033028Y071456D02*
X032230Y071456D01*
X032230Y071544D02*
X033028Y071544D01*
X033028Y071632D02*
X032230Y071632D01*
X032230Y071720D02*
X033028Y071720D01*
X034592Y070664D02*
X035390Y070664D01*
X034592Y070664D02*
X034592Y071756D01*
X035390Y071756D01*
X035390Y070664D01*
X035390Y070752D02*
X034592Y070752D01*
X034592Y070840D02*
X035390Y070840D01*
X035390Y070928D02*
X034592Y070928D01*
X034592Y071016D02*
X035390Y071016D01*
X035390Y071104D02*
X034592Y071104D01*
X034592Y071192D02*
X035390Y071192D01*
X035390Y071280D02*
X034592Y071280D01*
X034592Y071368D02*
X035390Y071368D01*
X035390Y071456D02*
X034592Y071456D01*
X034592Y071544D02*
X035390Y071544D01*
X035390Y071632D02*
X034592Y071632D01*
X034592Y071720D02*
X035390Y071720D01*
D32*
X030512Y077008D02*
X030512Y078012D01*
X030512Y077008D02*
X029508Y077008D01*
X029508Y078012D01*
X030512Y078012D01*
X030512Y077119D02*
X029508Y077119D01*
X029508Y077230D02*
X030512Y077230D01*
X030512Y077341D02*
X029508Y077341D01*
X029508Y077452D02*
X030512Y077452D01*
X030512Y077563D02*
X029508Y077563D01*
X029508Y077674D02*
X030512Y077674D01*
X030512Y077785D02*
X029508Y077785D01*
X029508Y077896D02*
X030512Y077896D01*
X030512Y078007D02*
X029508Y078007D01*
M02*
