%
M48
M72
T01C0.0140
T02C0.0374
T03C0.0400
T04C0.0410
T05C0.0906
T06C0.1260
%
T01
X48510Y67510
X48590Y70030
X48870Y70310
X49150Y70030
X49430Y70310
X49710Y70030
X50070Y69910
X50470Y69910
X50750Y70150
X51030Y69870
X51310Y70150
X51390Y70590
X51750Y70750
X52110Y70790
X52430Y70990
X52750Y70750
X53070Y70990
X54010Y72010
X52510Y72510
X53610Y73910
X50710Y73810
X50210Y73410
X49710Y72910
X49310Y72910
X48910Y73170
X49010Y74010
X49010Y74410
X50190Y74510
X50610Y76010
X50350Y76510
X50670Y76990
X49910Y76910
X49810Y77510
X48910Y77310
X48710Y77110
X48310Y77410
X48030Y76910
X47670Y77430
X47270Y77430
X46550Y77630
X46150Y77630
X46150Y77270
X45610Y76460
X44310Y75510
X43830Y74910
X43390Y74910
X42990Y74910
X42710Y74630
X42430Y74310
X42150Y74030
X41870Y74310
X41590Y74030
X41310Y73750
X40590Y74030
X40610Y74660
X39630Y76110
X39350Y76390
X38830Y76110
X38350Y75830
X37590Y76830
X37010Y76010
X35710Y76010
X35710Y75060
X36310Y74610
X37610Y74610
X37550Y72670
X37910Y72190
X39470Y72670
X41310Y72750
X41590Y72430
X41870Y72750
X42150Y72430
X42430Y72750
X42710Y72430
X42990Y72750
X43270Y72430
X43550Y72750
X43910Y72110
X45110Y72310
X45190Y71590
X45950Y72790
X46110Y73150
X46270Y73510
X46430Y73870
X46590Y74230
X47570Y72390
X47830Y71310
X50010Y72410
X49610Y76010
X48030Y75510
X45510Y78390
X44950Y78550
X45390Y79350
X44390Y80030
X44030Y80470
X43670Y80750
X44110Y81470
X44390Y81750
X43810Y82110
X43010Y82910
X42110Y83910
X41010Y84610
X40110Y85110
X39110Y85810
X37610Y85710
X37790Y83670
X37510Y82110
X36910Y81970
X35590Y81670
X35270Y82230
X34710Y81510
X34010Y81210
X33410Y81010
X32210Y82010
X31470Y82130
X31410Y83310
X30230Y84310
X29210Y84810
X29410Y85410
X28410Y83810
X26960Y82980
X26410Y83310
X26410Y83710
X25460Y83910
X25410Y84760
X24110Y84860
X24110Y84210
X23910Y85810
X23560Y85810
X23710Y87110
X22510Y87110
X21110Y84910
X21110Y82910
X23710Y82560
X24010Y82560
X23260Y81310
X23260Y80960
X25810Y80010
X26590Y81210
X27310Y80810
X28270Y81190
X28790Y81430
X28870Y80430
X28610Y80010
X29510Y79470
X28910Y78510
X28210Y78010
X28010Y78670
X27410Y78810
X29610Y77810
X31560Y78610
X31210Y79210
X32060Y79790
X30310Y80660
X30250Y81910
X29210Y82610
X28030Y82470
X25710Y82610
X25610Y82990
X32610Y84510
X35910Y80010
X39470Y82110
X42210Y79910
X43790Y79830
X44030Y78710
X43310Y76610
X42750Y76790
X42470Y76470
X42360Y75860
X43590Y75950
X40190Y76590
X39910Y76870
X39630Y77150
X40260Y77610
X40510Y78510
X40230Y78870
X40830Y78870
X41110Y78470
X36110Y77410
X34160Y76610
X33710Y76210
X32710Y76110
X31110Y76060
X29510Y74810
X29160Y74810
X29210Y75660
X27710Y74810
X27560Y76360
X23510Y74110
X23260Y74360
X29910Y72110
X29910Y71760
X29910Y71410
X30210Y70810
X30560Y70810
X30560Y70460
X30210Y70460
X30210Y70110
X30560Y70110
X30260Y69460
X30260Y69110
X30260Y68760
X31810Y67710
X32160Y67710
X34010Y69341
X35010Y69341
X36210Y71510
X35810Y72010
X35810Y72910
X34310Y74410
X34310Y74710
X33860Y74560
X31810Y77710
X41350Y71590
X47830Y78710
X48110Y78990
X48560Y79610
X49110Y81570
X49410Y81570
X49910Y82070
X50510Y82070
X50910Y82760
X52160Y82120
X51660Y81560
X52710Y83510
X53610Y83460
X54160Y83460
X54620Y83480
X54010Y84710
X53010Y84710
X51410Y84810
X51410Y84410
X48910Y82110
X48390Y81990
X47830Y82550
X46610Y83210
X45010Y83010
X52310Y78010
X52610Y78310
X53310Y78210
X54010Y78310
X54810Y78310
X53210Y77010
X52010Y77310
X53110Y69510
X55110Y85300
X28410Y69610
T02
X25577Y76132
X25577Y77116
X25577Y77903
X25577Y78888
T03
X56510Y67510
X55510Y67510
X54510Y67510
X53510Y67510
X52510Y67510
X51510Y67510
X50510Y67510
X49510Y67510
X47510Y67510
X46510Y67510
X45510Y67510
X44510Y67510
X43510Y67510
X42510Y67510
X41510Y67510
X40510Y67510
X38510Y67510
X37510Y67510
X36510Y67510
X35510Y67510
X34510Y67510
X33510Y67510
X57510Y69510
X57510Y70510
X57510Y71510
X57510Y72510
X57510Y73510
X57510Y74510
X57510Y75510
X57510Y76510
X57510Y77510
X57510Y78510
X57510Y79510
X57510Y80510
X57510Y81510
X57510Y82510
X57510Y83510
X57510Y84510
X57510Y85510
X57510Y86510
X58510Y86510
X58510Y85510
X58510Y84510
X58510Y83510
X58510Y82510
X58510Y81510
X58510Y80510
X58510Y79510
X58510Y78510
X58510Y77510
X58510Y76510
X58510Y75510
X58510Y74510
X58510Y73510
X58510Y72510
X58510Y71510
X58510Y70510
X58510Y69510
X54510Y86510
X53510Y86510
X52510Y86510
X51510Y86510
X50510Y86510
X49510Y86510
X48510Y86510
X47510Y86510
X45510Y86510
X44510Y86510
X43510Y86510
X42510Y86510
X41510Y86510
X40510Y86510
X39510Y86510
X38510Y86510
X36910Y86510
X35910Y86510
X34910Y86510
X33910Y86510
X32910Y86510
X31910Y86510
X30910Y86510
X29910Y86510
T04
X24782Y68859
X24191Y68859
X23601Y68859
X23010Y70120
X23010Y70710
X23010Y71300
X25372Y71400
X25372Y70710
X25372Y70020
T05
X24510Y74923
X24510Y80096
T06
X58510Y67510
X46510Y69510
X46510Y80510
X56010Y86510
X26510Y86510
X26010Y67510
M30
