%
M48
M72
T01C0.0140
T02C0.0236
T03C0.0315
T04C0.0320
T05C0.0400
T06C0.0433
T07C0.0453
T08C0.0531
T09C0.1260
%
T01
X12104Y6522
X16584Y7242
X16824Y7562
X16584Y7882
X16824Y8202
X20744Y7722
X20984Y7402
X20744Y7082
X22664Y7402
X21304Y8042
X28824Y9002
X30584Y9002
X32184Y8202
X22824Y11642
X30344Y12042
X30824Y11722
X30264Y14842
X30584Y15162
X27224Y15162
X22664Y15882
X17864Y15562
X12424Y14842
X10264Y16202
X8504Y16282
X7784Y16282
X8104Y17002
X9224Y18282
X9624Y19482
X16744Y20682
X17224Y20682
X14289Y13232
X12664Y13002
X12824Y12362
X13784Y11642
X12904Y11162
X9464Y12282
T02
X6504Y17082
X15464Y6602
X24904Y6042
X28774Y6602
X31624Y6602
T03
X10972Y7608
X7972Y7608
X6972Y7608
X6972Y9608
X7972Y9608
X10972Y9608
X10972Y13108
X7972Y13108
X6972Y13108
X6972Y15108
X7972Y15108
X10972Y15108
T04
X14504Y10342
X14504Y9342
X14504Y8342
T05
X14504Y3842
X15504Y3842
X16504Y3842
X17504Y3842
X18504Y3842
X20504Y3842
X21504Y3842
X22504Y3842
X23504Y3842
X24504Y3842
X25504Y3842
X26504Y3842
X27504Y3842
X29504Y3842
X30504Y3842
X31504Y3842
X32504Y3842
X33504Y3842
X34504Y3842
X35504Y3842
X36504Y3842
X13504Y3842
X4254Y17467
X3254Y17467
X2254Y17467
X2254Y18467
X3254Y18467
X4254Y18467
X4254Y19467
X3254Y19467
X2254Y19467
X10004Y22842
X11004Y22842
X12004Y22842
X13004Y22842
X14004Y22842
X15004Y22842
X16004Y22842
X17004Y22842
X18504Y22842
X19504Y22842
X20504Y22842
X21504Y22842
X22504Y22842
X23504Y22842
X24504Y22842
X25504Y22842
X27504Y22842
X28504Y22842
X29504Y22842
X30504Y22842
X31504Y22842
X32504Y22842
X33504Y22842
X34504Y22842
T06
X3965Y14787
X3965Y13409
X3965Y12031
X3965Y10653
X3965Y9275
X3965Y7897
T07
X26394Y10586
X33614Y10586
X33134Y15074
X33614Y16098
X26394Y16098
T08
X26874Y11610
T09
X6004Y3842
X38504Y3842
X36004Y22842
X6504Y22842
M30
