G75*
G70*
%OFA0B0*%
%FSLAX24Y24*%
%IPPOS*%
%LPD*%
%AMOC8*
5,1,8,0,0,1.08239X$1,22.5*
%
%ADD10C,0.0533*%
%ADD11C,0.0611*%
%ADD12C,0.0759*%
%ADD13C,0.0595*%
%ADD14C,0.1340*%
%ADD15C,0.0680*%
%ADD16C,0.0749*%
%ADD17C,0.0680*%
%ADD18OC8,0.0680*%
%ADD19C,0.0600*%
D10*
X033134Y015074D03*
D11*
X026874Y011610D03*
D12*
X026394Y010586D03*
X033614Y010586D03*
X033614Y016098D03*
X026394Y016098D03*
D13*
X010972Y015108D03*
X007972Y015108D03*
X006972Y015108D03*
X006972Y013108D03*
X007972Y013108D03*
X010972Y013108D03*
X010972Y009608D03*
X007972Y009608D03*
X006972Y009608D03*
X006972Y007608D03*
X007972Y007608D03*
X010972Y007608D03*
D14*
X006004Y003842D03*
X038504Y003842D03*
X036004Y022842D03*
X006504Y022842D03*
D15*
X010004Y023142D02*
X010004Y022542D01*
X011004Y022542D02*
X011004Y023142D01*
X012004Y023142D02*
X012004Y022542D01*
X013004Y022542D02*
X013004Y023142D01*
X014004Y023142D02*
X014004Y022542D01*
X015004Y022542D02*
X015004Y023142D01*
X016004Y023142D02*
X016004Y022542D01*
X017004Y022542D02*
X017004Y023142D01*
X018504Y023142D02*
X018504Y022542D01*
X019504Y022542D02*
X019504Y023142D01*
X020504Y023142D02*
X020504Y022542D01*
X021504Y022542D02*
X021504Y023142D01*
X022504Y023142D02*
X022504Y022542D01*
X023504Y022542D02*
X023504Y023142D01*
X024504Y023142D02*
X024504Y022542D01*
X025504Y022542D02*
X025504Y023142D01*
X027504Y023142D02*
X027504Y022542D01*
X028504Y022542D02*
X028504Y023142D01*
X029504Y023142D02*
X029504Y022542D01*
X030504Y022542D02*
X030504Y023142D01*
X031504Y023142D02*
X031504Y022542D01*
X032504Y022542D02*
X032504Y023142D01*
X033504Y023142D02*
X033504Y022542D01*
X034504Y022542D02*
X034504Y023142D01*
X034504Y004142D02*
X034504Y003542D01*
X035504Y003542D02*
X035504Y004142D01*
X036504Y004142D02*
X036504Y003542D01*
X033504Y003542D02*
X033504Y004142D01*
X032504Y004142D02*
X032504Y003542D01*
X031504Y003542D02*
X031504Y004142D01*
X030504Y004142D02*
X030504Y003542D01*
X029504Y003542D02*
X029504Y004142D01*
X027504Y004142D02*
X027504Y003542D01*
X026504Y003542D02*
X026504Y004142D01*
X025504Y004142D02*
X025504Y003542D01*
X024504Y003542D02*
X024504Y004142D01*
X023504Y004142D02*
X023504Y003542D01*
X022504Y003542D02*
X022504Y004142D01*
X021504Y004142D02*
X021504Y003542D01*
X020504Y003542D02*
X020504Y004142D01*
X018504Y004142D02*
X018504Y003542D01*
X017504Y003542D02*
X017504Y004142D01*
X016504Y004142D02*
X016504Y003542D01*
X015504Y003542D02*
X015504Y004142D01*
X014504Y004142D02*
X014504Y003542D01*
X013504Y003542D02*
X013504Y004142D01*
D16*
X003965Y007897D03*
X003965Y009275D03*
X003965Y010653D03*
X003965Y012031D03*
X003965Y013409D03*
X003965Y014787D03*
D17*
X002254Y017467D03*
X002254Y018467D03*
X002254Y019467D03*
D18*
X003254Y019467D03*
X004254Y019467D03*
X004254Y018467D03*
X003254Y018467D03*
X003254Y017467D03*
X004254Y017467D03*
D19*
X014244Y010342D02*
X014764Y010342D01*
X014764Y009342D02*
X014244Y009342D01*
X014244Y008342D02*
X014764Y008342D01*
M02*
