G75*
G70*
%OFA0B0*%
%FSLAX24Y24*%
%IPPOS*%
%LPD*%
%AMOC8*
5,1,8,0,0,1.08239X$1,22.5*
%
%ADD10C,0.0060*%
%ADD11C,0.0080*%
%ADD12C,0.0120*%
%ADD13R,0.0150X0.0007*%
%ADD14R,0.0225X0.0008*%
%ADD15R,0.0285X0.0007*%
%ADD16R,0.0330X0.0008*%
%ADD17R,0.0337X0.0008*%
%ADD18R,0.0375X0.0007*%
%ADD19R,0.0420X0.0008*%
%ADD20R,0.0450X0.0007*%
%ADD21R,0.0480X0.0008*%
%ADD22R,0.0510X0.0007*%
%ADD23R,0.0533X0.0008*%
%ADD24R,0.0555X0.0007*%
%ADD25R,0.0585X0.0008*%
%ADD26R,0.0600X0.0007*%
%ADD27R,0.0623X0.0008*%
%ADD28R,0.0645X0.0007*%
%ADD29R,0.0660X0.0008*%
%ADD30R,0.0675X0.0007*%
%ADD31R,0.0697X0.0008*%
%ADD32R,0.0713X0.0007*%
%ADD33R,0.0727X0.0008*%
%ADD34R,0.0743X0.0007*%
%ADD35R,0.0757X0.0008*%
%ADD36R,0.0773X0.0007*%
%ADD37R,0.0787X0.0008*%
%ADD38R,0.0795X0.0007*%
%ADD39R,0.0810X0.0008*%
%ADD40R,0.0825X0.0007*%
%ADD41R,0.0840X0.0008*%
%ADD42R,0.0847X0.0007*%
%ADD43R,0.0855X0.0008*%
%ADD44R,0.0870X0.0007*%
%ADD45R,0.0877X0.0008*%
%ADD46R,0.0885X0.0007*%
%ADD47R,0.0900X0.0008*%
%ADD48R,0.0907X0.0007*%
%ADD49R,0.0915X0.0008*%
%ADD50R,0.0923X0.0007*%
%ADD51R,0.0930X0.0008*%
%ADD52R,0.0937X0.0007*%
%ADD53R,0.0945X0.0008*%
%ADD54R,0.0953X0.0007*%
%ADD55R,0.0960X0.0008*%
%ADD56R,0.0960X0.0007*%
%ADD57R,0.0967X0.0007*%
%ADD58R,0.0975X0.0008*%
%ADD59R,0.0975X0.0007*%
%ADD60R,0.0983X0.0008*%
%ADD61R,0.0990X0.0007*%
%ADD62R,0.0990X0.0008*%
%ADD63R,0.0997X0.0007*%
%ADD64R,0.1005X0.0008*%
%ADD65R,0.1005X0.0007*%
%ADD66R,0.1013X0.0008*%
%ADD67R,0.1020X0.0007*%
%ADD68R,0.1020X0.0008*%
%ADD69R,0.1027X0.0008*%
%ADD70R,0.1027X0.0007*%
%ADD71R,0.1035X0.0008*%
%ADD72R,0.1035X0.0007*%
%ADD73R,0.1043X0.0008*%
%ADD74R,0.1043X0.0007*%
%ADD75R,0.1050X0.0007*%
%ADD76R,0.1050X0.0008*%
%ADD77R,0.3728X0.0007*%
%ADD78R,0.3802X0.0008*%
%ADD79R,0.3862X0.0007*%
%ADD80R,0.3908X0.0008*%
%ADD81R,0.3952X0.0007*%
%ADD82R,0.3998X0.0008*%
%ADD83R,0.4028X0.0007*%
%ADD84R,0.4058X0.0008*%
%ADD85R,0.4088X0.0007*%
%ADD86R,0.4118X0.0008*%
%ADD87R,0.4132X0.0007*%
%ADD88R,0.4162X0.0008*%
%ADD89R,0.4178X0.0007*%
%ADD90R,0.4208X0.0008*%
%ADD91R,0.4222X0.0007*%
%ADD92R,0.4245X0.0008*%
%ADD93R,0.4268X0.0007*%
%ADD94R,0.4282X0.0008*%
%ADD95R,0.4298X0.0007*%
%ADD96R,0.4312X0.0008*%
%ADD97R,0.4328X0.0007*%
%ADD98R,0.4342X0.0008*%
%ADD99R,0.4358X0.0007*%
%ADD100R,0.4372X0.0008*%
%ADD101R,0.4388X0.0007*%
%ADD102R,0.4402X0.0008*%
%ADD103R,0.4418X0.0007*%
%ADD104R,0.4432X0.0008*%
%ADD105R,0.4432X0.0007*%
%ADD106R,0.4448X0.0008*%
%ADD107R,0.4462X0.0007*%
%ADD108R,0.4478X0.0008*%
%ADD109R,0.4478X0.0007*%
%ADD110R,0.4492X0.0008*%
%ADD111R,0.4508X0.0007*%
%ADD112R,0.4508X0.0008*%
%ADD113R,0.4522X0.0007*%
%ADD114R,0.4522X0.0008*%
%ADD115R,0.4538X0.0007*%
%ADD116R,0.4545X0.0008*%
%ADD117R,0.4552X0.0007*%
%ADD118R,0.4560X0.0008*%
%ADD119R,0.4568X0.0007*%
%ADD120R,0.4575X0.0008*%
%ADD121R,0.4582X0.0007*%
%ADD122R,0.4582X0.0008*%
%ADD123R,0.4598X0.0007*%
%ADD124R,0.4598X0.0008*%
%ADD125R,0.4605X0.0007*%
%ADD126R,0.4612X0.0008*%
%ADD127R,0.4612X0.0007*%
%ADD128R,0.4620X0.0008*%
%ADD129R,0.4628X0.0007*%
%ADD130R,0.4628X0.0008*%
%ADD131R,0.4642X0.0008*%
%ADD132R,0.4642X0.0007*%
%ADD133R,0.4658X0.0008*%
%ADD134R,0.4658X0.0007*%
%ADD135R,0.4665X0.0008*%
%ADD136R,0.4672X0.0007*%
%ADD137R,0.4672X0.0008*%
%ADD138R,0.0128X0.0007*%
%ADD139R,0.0218X0.0008*%
%ADD140R,0.0278X0.0007*%
%ADD141R,0.0322X0.0008*%
%ADD142R,0.0368X0.0007*%
%ADD143R,0.0405X0.0008*%
%ADD144R,0.0412X0.0008*%
%ADD145R,0.0442X0.0007*%
%ADD146R,0.0472X0.0008*%
%ADD147R,0.0502X0.0007*%
%ADD148R,0.0532X0.0008*%
%ADD149R,0.0548X0.0007*%
%ADD150R,0.0578X0.0008*%
%ADD151R,0.0592X0.0007*%
%ADD152R,0.0622X0.0008*%
%ADD153R,0.0638X0.0007*%
%ADD154R,0.0652X0.0008*%
%ADD155R,0.0698X0.0008*%
%ADD156R,0.0712X0.0007*%
%ADD157R,0.0728X0.0008*%
%ADD158R,0.0742X0.0007*%
%ADD159R,0.0758X0.0008*%
%ADD160R,0.0772X0.0007*%
%ADD161R,0.0788X0.0008*%
%ADD162R,0.0818X0.0007*%
%ADD163R,0.0832X0.0008*%
%ADD164R,0.0848X0.0007*%
%ADD165R,0.0862X0.0007*%
%ADD166R,0.0878X0.0008*%
%ADD167R,0.0892X0.0008*%
%ADD168R,0.0908X0.0007*%
%ADD169R,0.0908X0.0008*%
%ADD170R,0.0922X0.0007*%
%ADD171R,0.0938X0.0007*%
%ADD172R,0.0952X0.0007*%
%ADD173R,0.0952X0.0008*%
%ADD174R,0.0968X0.0007*%
%ADD175R,0.0968X0.0008*%
%ADD176R,0.0982X0.0008*%
%ADD177R,0.0982X0.0007*%
%ADD178R,0.0998X0.0008*%
%ADD179R,0.0998X0.0007*%
%ADD180R,0.1012X0.0008*%
%ADD181R,0.1012X0.0007*%
%ADD182R,0.1028X0.0007*%
%ADD183R,0.1028X0.0008*%
%ADD184R,0.1042X0.0007*%
%ADD185R,0.1042X0.0008*%
%ADD186R,0.0802X0.0007*%
%ADD187R,0.0682X0.0007*%
%ADD188R,0.0142X0.0007*%
%ADD189R,0.4710X0.0007*%
%ADD190R,0.4710X0.0008*%
%ADD191R,0.4702X0.0008*%
%ADD192R,0.4702X0.0007*%
%ADD193R,0.4695X0.0008*%
%ADD194R,0.4695X0.0007*%
%ADD195R,0.4688X0.0007*%
%ADD196R,0.4688X0.0008*%
%ADD197R,0.4680X0.0008*%
%ADD198R,0.4680X0.0007*%
%ADD199R,0.4665X0.0007*%
%ADD200R,0.4650X0.0008*%
%ADD201R,0.4635X0.0007*%
%ADD202R,0.4590X0.0007*%
%ADD203R,0.4575X0.0007*%
%ADD204R,0.4568X0.0008*%
%ADD205R,0.4552X0.0008*%
%ADD206R,0.4538X0.0008*%
%ADD207R,0.4530X0.0007*%
%ADD208R,0.4515X0.0008*%
%ADD209R,0.4500X0.0007*%
%ADD210R,0.4492X0.0007*%
%ADD211R,0.4485X0.0008*%
%ADD212R,0.4470X0.0007*%
%ADD213R,0.4462X0.0008*%
%ADD214R,0.4455X0.0008*%
%ADD215R,0.4448X0.0007*%
%ADD216R,0.4425X0.0007*%
%ADD217R,0.4418X0.0008*%
%ADD218R,0.4402X0.0007*%
%ADD219R,0.4395X0.0008*%
%ADD220R,0.4380X0.0008*%
%ADD221R,0.4372X0.0007*%
%ADD222R,0.4358X0.0008*%
%ADD223R,0.4350X0.0007*%
%ADD224R,0.4335X0.0007*%
%ADD225R,0.4328X0.0008*%
%ADD226R,0.2048X0.0007*%
%ADD227R,0.2002X0.0008*%
%ADD228R,0.1972X0.0007*%
%ADD229R,0.1942X0.0008*%
%ADD230R,0.1912X0.0007*%
%ADD231R,0.1898X0.0008*%
%ADD232R,0.1882X0.0007*%
%ADD233R,0.0923X0.0008*%
%ADD234R,0.1868X0.0008*%
%ADD235R,0.0915X0.0007*%
%ADD236R,0.1852X0.0007*%
%ADD237R,0.1838X0.0008*%
%ADD238R,0.0900X0.0007*%
%ADD239R,0.1822X0.0007*%
%ADD240R,0.0893X0.0007*%
%ADD241R,0.0885X0.0008*%
%ADD242R,0.1822X0.0008*%
%ADD243R,0.0878X0.0007*%
%ADD244R,0.1808X0.0007*%
%ADD245R,0.0870X0.0008*%
%ADD246R,0.1792X0.0008*%
%ADD247R,0.1792X0.0007*%
%ADD248R,0.0855X0.0007*%
%ADD249R,0.1778X0.0008*%
%ADD250R,0.0840X0.0007*%
%ADD251R,0.1778X0.0007*%
%ADD252R,0.0833X0.0007*%
%ADD253R,0.1762X0.0007*%
%ADD254R,0.0825X0.0008*%
%ADD255R,0.1762X0.0008*%
%ADD256R,0.0817X0.0007*%
%ADD257R,0.0817X0.0008*%
%ADD258R,0.0810X0.0007*%
%ADD259R,0.1748X0.0007*%
%ADD260R,0.0802X0.0008*%
%ADD261R,0.1748X0.0008*%
%ADD262R,0.0795X0.0008*%
%ADD263R,0.0787X0.0007*%
%ADD264R,0.0780X0.0007*%
%ADD265R,0.0780X0.0008*%
%ADD266R,0.0765X0.0008*%
%ADD267R,0.0765X0.0007*%
%ADD268R,0.0758X0.0007*%
%ADD269R,0.0757X0.0007*%
%ADD270R,0.0750X0.0008*%
%ADD271R,0.1800X0.0007*%
%ADD272R,0.1808X0.0008*%
%ADD273R,0.0750X0.0007*%
%ADD274R,0.1838X0.0007*%
%ADD275R,0.1852X0.0008*%
%ADD276R,0.1868X0.0007*%
%ADD277R,0.1882X0.0008*%
%ADD278R,0.1898X0.0007*%
%ADD279R,0.1928X0.0008*%
%ADD280R,0.1942X0.0007*%
%ADD281R,0.1972X0.0008*%
%ADD282R,0.2018X0.0007*%
%ADD283R,0.0818X0.0008*%
%ADD284R,0.2078X0.0008*%
%ADD285R,0.3840X0.0007*%
%ADD286R,0.3832X0.0008*%
%ADD287R,0.3818X0.0007*%
%ADD288R,0.3788X0.0007*%
%ADD289R,0.3780X0.0008*%
%ADD290R,0.3772X0.0007*%
%ADD291R,0.3758X0.0008*%
%ADD292R,0.3742X0.0007*%
%ADD293R,0.3728X0.0008*%
%ADD294R,0.3720X0.0007*%
%ADD295R,0.3705X0.0008*%
%ADD296R,0.3698X0.0007*%
%ADD297R,0.3682X0.0008*%
%ADD298R,0.3668X0.0007*%
%ADD299R,0.3652X0.0008*%
%ADD300R,0.3638X0.0007*%
%ADD301R,0.3622X0.0008*%
%ADD302R,0.3608X0.0007*%
%ADD303R,0.3600X0.0008*%
%ADD304R,0.3585X0.0007*%
%ADD305R,0.3570X0.0008*%
%ADD306R,0.3555X0.0007*%
%ADD307R,0.3548X0.0008*%
%ADD308R,0.3532X0.0007*%
%ADD309R,0.3518X0.0008*%
%ADD310R,0.3502X0.0007*%
%ADD311R,0.3488X0.0008*%
%ADD312R,0.3472X0.0007*%
%ADD313R,0.3458X0.0008*%
%ADD314R,0.3442X0.0007*%
%ADD315R,0.3428X0.0008*%
%ADD316R,0.3412X0.0007*%
%ADD317R,0.3398X0.0008*%
%ADD318R,0.3375X0.0007*%
%ADD319R,0.3360X0.0008*%
%ADD320R,0.3345X0.0007*%
%ADD321R,0.3330X0.0008*%
%ADD322R,0.3308X0.0007*%
%ADD323R,0.3292X0.0008*%
%ADD324R,0.3278X0.0007*%
%ADD325R,0.3262X0.0008*%
%ADD326R,0.3248X0.0007*%
%ADD327R,0.3232X0.0008*%
%ADD328R,0.3210X0.0007*%
%ADD329R,0.3188X0.0008*%
%ADD330R,0.3172X0.0007*%
%ADD331R,0.3158X0.0008*%
%ADD332R,0.3142X0.0007*%
%ADD333R,0.3120X0.0008*%
%ADD334R,0.3098X0.0007*%
%ADD335R,0.3082X0.0008*%
%ADD336R,0.3068X0.0007*%
%ADD337R,0.3045X0.0008*%
%ADD338R,0.3022X0.0007*%
%ADD339R,0.3008X0.0008*%
%ADD340R,0.2985X0.0007*%
%ADD341R,0.2962X0.0008*%
%ADD342R,0.2948X0.0007*%
%ADD343R,0.2925X0.0008*%
%ADD344R,0.2902X0.0007*%
%ADD345R,0.2888X0.0008*%
%ADD346R,0.2858X0.0007*%
%ADD347R,0.2842X0.0008*%
%ADD348R,0.2820X0.0007*%
%ADD349R,0.2798X0.0008*%
%ADD350R,0.2775X0.0007*%
%ADD351R,0.2752X0.0008*%
%ADD352R,0.2730X0.0007*%
%ADD353R,0.2708X0.0008*%
%ADD354R,0.2678X0.0007*%
%ADD355R,0.2662X0.0008*%
%ADD356R,0.2632X0.0007*%
%ADD357R,0.2610X0.0008*%
%ADD358R,0.2588X0.0007*%
%ADD359R,0.2558X0.0008*%
%ADD360R,0.2535X0.0007*%
%ADD361R,0.2512X0.0008*%
%ADD362R,0.2482X0.0007*%
%ADD363R,0.2452X0.0008*%
%ADD364R,0.2430X0.0007*%
%ADD365R,0.2408X0.0008*%
%ADD366R,0.2378X0.0007*%
%ADD367R,0.2348X0.0008*%
%ADD368R,0.2318X0.0007*%
%ADD369R,0.2318X0.0008*%
%ADD370R,0.2332X0.0008*%
%ADD371R,0.2348X0.0007*%
%ADD372R,0.2362X0.0007*%
%ADD373R,0.2362X0.0008*%
%ADD374R,0.2205X0.0008*%
%ADD375R,0.0165X0.0008*%
%ADD376R,0.0172X0.0007*%
%ADD377R,0.2002X0.0007*%
%ADD378R,0.0173X0.0007*%
%ADD379R,0.1935X0.0007*%
%ADD380R,0.0172X0.0008*%
%ADD381R,0.1860X0.0007*%
%ADD382R,0.0165X0.0007*%
%ADD383R,0.0173X0.0008*%
%ADD384R,0.1740X0.0008*%
%ADD385R,0.1702X0.0007*%
%ADD386R,0.1658X0.0008*%
%ADD387R,0.1612X0.0007*%
%ADD388R,0.1568X0.0008*%
%ADD389R,0.1522X0.0007*%
%ADD390R,0.1470X0.0008*%
%ADD391R,0.1418X0.0007*%
%ADD392R,0.1365X0.0008*%
%ADD393R,0.1312X0.0007*%
%ADD394R,0.1252X0.0008*%
%ADD395R,0.1192X0.0007*%
%ADD396R,0.1132X0.0008*%
%ADD397R,0.1058X0.0007*%
%ADD398R,0.0720X0.0007*%
%ADD399R,0.0608X0.0008*%
%ADD400R,0.0458X0.0007*%
%ADD401R,0.0240X0.0008*%
%ADD402R,0.0157X0.0008*%
%ADD403R,0.0157X0.0007*%
%ADD404R,0.0150X0.0008*%
%ADD405R,0.0142X0.0008*%
%ADD406R,0.0128X0.0008*%
%ADD407R,0.0112X0.0007*%
%ADD408R,0.0098X0.0008*%
%ADD409R,0.0075X0.0007*%
%ADD410R,0.0038X0.0008*%
%ADD411R,0.1120X0.0020*%
%ADD412R,0.0640X0.0020*%
%ADD413R,0.0160X0.0020*%
%ADD414R,0.0320X0.0020*%
%ADD415R,0.0480X0.0020*%
%ADD416R,0.0800X0.0020*%
%ADD417R,0.1440X0.0020*%
%ADD418R,0.0960X0.0020*%
%ADD419R,0.1280X0.0020*%
%ADD420R,0.1600X0.0020*%
D10*
X001091Y008247D02*
X001034Y008304D01*
X001034Y008417D01*
X001091Y008474D01*
X001317Y008474D01*
X001374Y008417D01*
X001374Y008304D01*
X001317Y008247D01*
X001091Y008247D01*
X001034Y008616D02*
X001034Y008786D01*
X001091Y008842D01*
X001204Y008842D01*
X001261Y008786D01*
X001261Y008616D01*
X000921Y008616D01*
X001091Y008984D02*
X001204Y008984D01*
X001261Y009041D01*
X001261Y009154D01*
X001204Y009211D01*
X001147Y009211D01*
X001147Y008984D01*
X001091Y008984D02*
X001034Y009041D01*
X001034Y009154D01*
X001034Y009352D02*
X001261Y009352D01*
X001261Y009522D01*
X001204Y009579D01*
X001034Y009579D01*
X001091Y010089D02*
X001034Y010145D01*
X001034Y010259D01*
X001091Y010316D01*
X001147Y010316D01*
X001204Y010259D01*
X001204Y010145D01*
X001261Y010089D01*
X001317Y010089D01*
X001374Y010145D01*
X001374Y010259D01*
X001317Y010316D01*
X001204Y010457D02*
X001091Y010457D01*
X001034Y010514D01*
X001034Y010627D01*
X001091Y010684D01*
X001204Y010684D01*
X001261Y010627D01*
X001261Y010514D01*
X001204Y010457D01*
X001261Y010825D02*
X001091Y010825D01*
X001034Y010882D01*
X001034Y011052D01*
X001261Y011052D01*
X001261Y011194D02*
X001034Y011194D01*
X001147Y011194D02*
X001261Y011307D01*
X001261Y011364D01*
X001204Y011501D02*
X001091Y011501D01*
X001034Y011557D01*
X001034Y011727D01*
X001091Y011869D02*
X001204Y011869D01*
X001261Y011926D01*
X001261Y012039D01*
X001204Y012096D01*
X001147Y012096D01*
X001147Y011869D01*
X001091Y011869D02*
X001034Y011926D01*
X001034Y012039D01*
X001261Y011727D02*
X001261Y011557D01*
X001204Y011501D01*
X001784Y011566D02*
X001954Y011566D01*
X002011Y011509D01*
X002011Y011339D01*
X001784Y011339D01*
X001784Y011197D02*
X002011Y011197D01*
X002124Y011084D01*
X002011Y010970D01*
X001784Y010970D01*
X001954Y010970D02*
X001954Y011197D01*
X002534Y011118D02*
X002704Y011118D01*
X002761Y011061D01*
X002761Y010948D01*
X002704Y010891D01*
X002761Y010750D02*
X002477Y010750D01*
X002421Y010693D01*
X002421Y010636D01*
X002534Y010580D02*
X002534Y010750D01*
X002534Y010891D02*
X002874Y010891D01*
X002761Y010750D02*
X002761Y010580D01*
X002704Y010523D01*
X002591Y010523D01*
X002534Y010580D01*
X002534Y010391D02*
X002534Y010277D01*
X002534Y010334D02*
X002761Y010334D01*
X002761Y010277D01*
X002874Y010334D02*
X002931Y010334D01*
X002761Y010141D02*
X002761Y010084D01*
X002647Y009970D01*
X002534Y009970D02*
X002761Y009970D01*
X002761Y009829D02*
X002477Y009829D01*
X002421Y009772D01*
X002421Y009716D01*
X002534Y009659D02*
X002534Y009829D01*
X002534Y009659D02*
X002591Y009602D01*
X002761Y009602D01*
X002704Y009461D02*
X002591Y009461D01*
X002534Y009404D01*
X002534Y009234D01*
X002421Y009234D02*
X002761Y009234D01*
X002761Y009404D01*
X002704Y009461D01*
X002704Y009092D02*
X002761Y009036D01*
X002761Y008922D01*
X002704Y008866D01*
X002591Y008866D01*
X002534Y008922D01*
X002534Y009036D01*
X002591Y009092D01*
X002704Y009092D01*
X002124Y009497D02*
X002124Y009724D01*
X002124Y009611D02*
X001784Y009611D01*
X001784Y009866D02*
X002124Y009866D01*
X002011Y009922D02*
X002011Y010036D01*
X001954Y010092D01*
X001784Y010092D01*
X001841Y010234D02*
X001954Y010234D01*
X002011Y010291D01*
X002011Y010404D01*
X001954Y010461D01*
X001897Y010461D01*
X001897Y010234D01*
X001841Y010234D02*
X001784Y010291D01*
X001784Y010404D01*
X002011Y009922D02*
X001954Y009866D01*
X002591Y008724D02*
X002534Y008667D01*
X002534Y008554D01*
X002591Y008497D01*
X002817Y008497D01*
X002874Y008554D01*
X002874Y008667D01*
X002817Y008724D01*
X002761Y011259D02*
X002761Y011373D01*
X002817Y011316D02*
X002591Y011316D01*
X002534Y011373D01*
X002647Y011873D02*
X002761Y011873D01*
X002874Y011987D01*
X002817Y012119D02*
X002591Y012119D01*
X002534Y012175D01*
X002534Y012289D01*
X002591Y012346D01*
X002534Y012487D02*
X002647Y012601D01*
X002761Y012601D01*
X002874Y012487D01*
X002817Y012346D02*
X002874Y012289D01*
X002874Y012175D01*
X002817Y012119D01*
X002647Y011873D02*
X002534Y011987D01*
X002124Y011934D02*
X001784Y011934D01*
X001784Y011764D01*
X001841Y011707D01*
X001954Y011707D01*
X002011Y011764D01*
X002011Y011934D01*
X002011Y012075D02*
X001784Y012075D01*
X001897Y012075D02*
X002011Y012189D01*
X002011Y012245D01*
X001954Y012382D02*
X001841Y012382D01*
X001784Y012439D01*
X001784Y012552D01*
X001841Y012609D01*
X001954Y012609D01*
X002011Y012552D01*
X002011Y012439D01*
X001954Y012382D01*
X001374Y012605D02*
X001374Y012776D01*
X001317Y012832D01*
X001204Y012832D01*
X001147Y012776D01*
X001147Y012605D01*
X001034Y012605D02*
X001374Y012605D01*
X001784Y012751D02*
X001784Y012864D01*
X001784Y012807D02*
X002011Y012807D01*
X002011Y012751D01*
X002124Y012807D02*
X002181Y012807D01*
X001954Y012996D02*
X002011Y013053D01*
X002011Y013223D01*
X002124Y013223D02*
X001784Y013223D01*
X001784Y013053D01*
X001841Y012996D01*
X001954Y012996D01*
X002534Y013101D02*
X002761Y013328D01*
X002817Y013328D01*
X002874Y013271D01*
X002874Y013158D01*
X002817Y013101D01*
X002534Y013101D02*
X002534Y013328D01*
X002591Y013469D02*
X002534Y013526D01*
X002534Y013639D01*
X002591Y013696D01*
X002817Y013696D01*
X002591Y013469D01*
X002817Y013469D01*
X002874Y013526D01*
X002874Y013639D01*
X002817Y013696D01*
X002761Y013838D02*
X002874Y013951D01*
X002534Y013951D01*
X002534Y013838D02*
X002534Y014064D01*
X002534Y014206D02*
X002534Y014433D01*
X002534Y014319D02*
X002874Y014319D01*
X002761Y014206D01*
X001431Y013762D02*
X001374Y013762D01*
X001261Y013762D02*
X000977Y013762D01*
X000921Y013706D01*
X000921Y013649D01*
X001091Y013508D02*
X001204Y013508D01*
X001261Y013451D01*
X001261Y013337D01*
X001204Y013281D01*
X001091Y013281D01*
X001034Y013337D01*
X001034Y013451D01*
X001091Y013508D01*
X001091Y013894D02*
X001204Y013894D01*
X001261Y013951D01*
X001261Y014065D01*
X001204Y014121D01*
X001147Y014121D01*
X001147Y013894D01*
X001091Y013894D02*
X001034Y013951D01*
X001034Y014065D01*
X001091Y014263D02*
X001034Y014319D01*
X001034Y014490D01*
X001091Y014688D02*
X001034Y014745D01*
X001091Y014688D02*
X001317Y014688D01*
X001261Y014631D02*
X001261Y014745D01*
X001261Y014490D02*
X001261Y014319D01*
X001204Y014263D01*
X001091Y014263D01*
X001261Y013144D02*
X001261Y013087D01*
X001147Y012974D01*
X001034Y012974D02*
X001261Y012974D01*
D11*
X015227Y021132D02*
X015297Y021202D01*
X015297Y021482D01*
X015367Y021412D02*
X015227Y021412D01*
X015604Y021412D02*
X015604Y021132D01*
X015674Y021132D02*
X015534Y021132D01*
X015604Y021412D02*
X015674Y021412D01*
X015604Y021553D02*
X015604Y021623D01*
X015848Y021412D02*
X016058Y021272D01*
X015848Y021132D01*
X016058Y021132D02*
X016058Y021553D01*
X016238Y021342D02*
X016308Y021412D01*
X016448Y021412D01*
X016518Y021342D01*
X016518Y021202D01*
X016448Y021132D01*
X016308Y021132D01*
X016238Y021202D01*
X016238Y021342D01*
X016698Y021342D02*
X016698Y021132D01*
X016838Y021132D02*
X016838Y021342D01*
X016768Y021412D01*
X016698Y021342D01*
X016838Y021342D02*
X016908Y021412D01*
X016979Y021412D01*
X016979Y021132D01*
X017159Y021272D02*
X017439Y021272D01*
X017439Y021202D02*
X017439Y021342D01*
X017369Y021412D01*
X017229Y021412D01*
X017159Y021342D01*
X017159Y021272D01*
X017229Y021132D02*
X017369Y021132D01*
X017439Y021202D01*
X017619Y021132D02*
X017829Y021132D01*
X017899Y021202D01*
X017899Y021342D01*
X017829Y021412D01*
X017619Y021412D01*
X017619Y021553D02*
X017619Y021132D01*
X018079Y021553D02*
X018360Y021132D01*
X018540Y021132D02*
X018540Y021342D01*
X018610Y021412D01*
X018680Y021342D01*
X018680Y021132D01*
X018820Y021132D02*
X018820Y021412D01*
X018750Y021412D01*
X018680Y021342D01*
X019000Y021342D02*
X019000Y021202D01*
X019070Y021132D01*
X019210Y021132D01*
X019280Y021202D01*
X019280Y021342D01*
X019210Y021412D01*
X019070Y021412D01*
X019000Y021342D01*
X019460Y021412D02*
X019671Y021412D01*
X019741Y021342D01*
X019741Y021202D01*
X019671Y021132D01*
X019460Y021132D01*
X019901Y021132D02*
X019971Y021132D01*
X019971Y021202D01*
X019901Y021202D01*
X019901Y021132D01*
X020151Y021132D02*
X020361Y021132D01*
X020431Y021202D01*
X020431Y021342D01*
X020361Y021412D01*
X020151Y021412D01*
X020151Y021553D02*
X020151Y021132D01*
X020598Y021132D02*
X020738Y021132D01*
X020668Y021132D02*
X020668Y021412D01*
X020738Y021412D01*
X020668Y021553D02*
X020668Y021623D01*
X020918Y021342D02*
X020988Y021412D01*
X021128Y021412D01*
X021198Y021342D01*
X021198Y021202D01*
X021128Y021132D01*
X020988Y021132D01*
X020918Y021202D01*
X020918Y021342D01*
X021372Y021412D02*
X021442Y021412D01*
X021582Y021272D01*
X021582Y021132D02*
X021582Y021412D01*
X021762Y021412D02*
X021972Y021412D01*
X022042Y021342D01*
X022042Y021202D01*
X021972Y021132D01*
X021762Y021132D01*
X021762Y021553D01*
X022222Y021342D02*
X022222Y021132D01*
X022222Y021342D02*
X022293Y021412D01*
X022503Y021412D01*
X022503Y021132D01*
X022683Y021132D02*
X022893Y021132D01*
X022963Y021202D01*
X022893Y021272D01*
X022683Y021272D01*
X022683Y021342D02*
X022683Y021132D01*
X022683Y021342D02*
X022753Y021412D01*
X022893Y021412D01*
X023123Y021202D02*
X023123Y021132D01*
X023193Y021132D01*
X023193Y021202D01*
X023123Y021202D01*
X023373Y021132D02*
X023373Y021342D01*
X023443Y021412D01*
X023584Y021412D01*
X023584Y021272D02*
X023373Y021272D01*
X023373Y021132D02*
X023584Y021132D01*
X023654Y021202D01*
X023584Y021272D01*
X023834Y021553D02*
X024114Y021132D01*
X024294Y021553D02*
X024574Y021132D01*
X024734Y021132D02*
X024804Y021132D01*
X024804Y021202D01*
X024734Y021202D01*
X024734Y021132D01*
X024734Y021342D02*
X024804Y021342D01*
X024804Y021412D01*
X024734Y021412D01*
X024734Y021342D01*
X024985Y021342D02*
X024985Y021202D01*
X025055Y021132D01*
X025265Y021132D01*
X025265Y020992D02*
X025265Y021412D01*
X025055Y021412D01*
X024985Y021342D01*
X025432Y021412D02*
X025572Y021412D01*
X025502Y021482D02*
X025502Y021202D01*
X025432Y021132D01*
X025738Y021132D02*
X025809Y021202D01*
X025809Y021482D01*
X025879Y021412D02*
X025738Y021412D01*
X026059Y021342D02*
X026059Y021132D01*
X026059Y021342D02*
X026129Y021412D01*
X026269Y021412D01*
X026339Y021342D01*
X026339Y021132D02*
X026339Y021553D01*
D12*
X024566Y009405D02*
X023941Y009405D01*
X023941Y008780D01*
X023941Y007530D02*
X023941Y006905D01*
X024566Y006905D01*
X035816Y006905D02*
X036441Y006905D01*
X036441Y007530D01*
X036441Y008780D02*
X036441Y009092D01*
X036129Y009405D01*
X035816Y009405D01*
D13*
X018053Y006842D03*
X019800Y006842D03*
X020378Y015242D03*
X017475Y015242D03*
D14*
X015870Y012550D03*
X021983Y012550D03*
X019800Y006850D03*
X018053Y006850D03*
D15*
X018053Y006857D03*
X019800Y006857D03*
X021983Y012542D03*
X015870Y012542D03*
D16*
X015870Y012535D03*
X021983Y012535D03*
X019800Y006865D03*
D17*
X018049Y006865D03*
D18*
X018053Y006872D03*
X019800Y006872D03*
X021983Y012527D03*
X015870Y012527D03*
D19*
X018053Y006880D03*
X019800Y006880D03*
D20*
X019800Y006887D03*
X018053Y006887D03*
D21*
X018053Y006895D03*
X019800Y006895D03*
D22*
X019800Y006902D03*
X018053Y006902D03*
D23*
X018049Y006910D03*
X019804Y006910D03*
D24*
X019800Y006917D03*
X018053Y006917D03*
X015870Y012482D03*
X021983Y012482D03*
D25*
X019800Y006925D03*
X018053Y006925D03*
D26*
X018053Y006932D03*
X019800Y006932D03*
X021983Y012467D03*
X015870Y012467D03*
D27*
X018049Y006940D03*
X019804Y006940D03*
D28*
X019800Y006947D03*
X018053Y006947D03*
D29*
X018053Y006955D03*
X019800Y006955D03*
X021983Y012445D03*
X015870Y012445D03*
D30*
X015870Y009452D03*
X021983Y009452D03*
X019800Y006962D03*
X018053Y006962D03*
D31*
X018049Y006970D03*
X019804Y006970D03*
D32*
X019804Y006977D03*
X018049Y006977D03*
D33*
X018049Y006985D03*
X019804Y006985D03*
D34*
X019804Y006992D03*
X018049Y006992D03*
D35*
X018049Y007000D03*
X019804Y007000D03*
X020554Y013780D03*
X020539Y013795D03*
X017314Y013795D03*
D36*
X017374Y013862D03*
X018049Y007007D03*
X019804Y007007D03*
D37*
X019804Y007015D03*
X018049Y007015D03*
X017269Y013705D03*
X020584Y013705D03*
D38*
X020588Y013697D03*
X020460Y013877D03*
X017393Y013877D03*
X015870Y009512D03*
X021983Y009512D03*
X019800Y007022D03*
X018053Y007022D03*
D39*
X018053Y007030D03*
X019800Y007030D03*
X021983Y009520D03*
X015870Y009520D03*
X015870Y012370D03*
X017258Y013660D03*
X021983Y012370D03*
D40*
X021983Y012362D03*
X019800Y007037D03*
X018053Y007037D03*
D41*
X018053Y007045D03*
X019800Y007045D03*
X020603Y013630D03*
X017250Y013630D03*
D42*
X018049Y007052D03*
X019804Y007052D03*
D43*
X019800Y007060D03*
X018053Y007060D03*
X015870Y009550D03*
X021983Y009550D03*
X021983Y012340D03*
X020603Y013615D03*
X017250Y013615D03*
X015870Y012340D03*
D44*
X017250Y013592D03*
X018053Y007067D03*
X019800Y007067D03*
D45*
X019804Y007075D03*
X018049Y007075D03*
D46*
X018053Y007082D03*
X019800Y007082D03*
X021983Y009572D03*
X015870Y009572D03*
X015870Y012317D03*
X021983Y012317D03*
D47*
X020603Y013570D03*
X017250Y013570D03*
X018053Y007090D03*
X019800Y007090D03*
D48*
X019804Y007097D03*
X018049Y007097D03*
D49*
X018053Y007105D03*
X019800Y007105D03*
X021983Y012295D03*
X015870Y012295D03*
D50*
X018049Y007112D03*
X019804Y007112D03*
D51*
X019800Y007120D03*
X018053Y007120D03*
X015870Y009610D03*
X021983Y009610D03*
X021983Y012280D03*
X015870Y012280D03*
D52*
X017254Y013547D03*
X020599Y013547D03*
X019804Y007127D03*
X018049Y007127D03*
D53*
X018053Y007135D03*
X019800Y007135D03*
X021983Y009625D03*
X015870Y009625D03*
X015870Y012265D03*
X017258Y013540D03*
X020595Y013540D03*
X021983Y012265D03*
D54*
X019804Y007142D03*
X018049Y007142D03*
D55*
X018053Y007150D03*
X019800Y007150D03*
X021983Y012250D03*
X015870Y012250D03*
D56*
X019800Y007157D03*
D57*
X018049Y007157D03*
D58*
X018053Y007165D03*
X019800Y007165D03*
X020588Y013525D03*
X017265Y013525D03*
D59*
X015870Y012227D03*
X021983Y012227D03*
X021983Y009662D03*
X015870Y009662D03*
X018053Y007172D03*
X019800Y007172D03*
D60*
X019804Y007180D03*
X018049Y007180D03*
D61*
X018053Y007187D03*
X019800Y007187D03*
X017273Y013517D03*
D62*
X018053Y007195D03*
X019800Y007195D03*
D63*
X019804Y007202D03*
X018049Y007202D03*
X020584Y013517D03*
D64*
X019800Y007210D03*
X018053Y007210D03*
D65*
X018053Y007217D03*
X019800Y007217D03*
X021983Y009707D03*
X015870Y009707D03*
X015870Y012182D03*
X021983Y012182D03*
D66*
X019804Y007225D03*
X018049Y007225D03*
D67*
X018053Y007232D03*
X018053Y007247D03*
X019800Y007247D03*
X019800Y007232D03*
D68*
X019800Y007240D03*
X018053Y007240D03*
X015870Y009730D03*
X021983Y009730D03*
X021983Y012160D03*
X015870Y012160D03*
D69*
X018049Y007255D03*
X019804Y007255D03*
D70*
X019804Y007262D03*
X018049Y007262D03*
D71*
X018053Y007270D03*
X018053Y007285D03*
X019800Y007285D03*
X019800Y007270D03*
X021983Y009775D03*
X015870Y009775D03*
X015870Y012115D03*
X021983Y012115D03*
D72*
X021983Y012122D03*
X015870Y012122D03*
X015870Y009767D03*
X021983Y009767D03*
X019800Y007292D03*
X019800Y007277D03*
X018053Y007277D03*
X018053Y007292D03*
D73*
X018049Y007300D03*
X018049Y007315D03*
X019804Y007315D03*
X019804Y007300D03*
D74*
X019804Y007307D03*
X018049Y007307D03*
D75*
X018053Y007322D03*
X018053Y007337D03*
X018053Y007352D03*
X018053Y007367D03*
X018053Y007382D03*
X018053Y007397D03*
X018053Y007412D03*
X018053Y007427D03*
X018053Y007442D03*
X018053Y007457D03*
X018053Y007472D03*
X018053Y007487D03*
X018053Y007502D03*
X018053Y007517D03*
X018053Y007532D03*
X018053Y007547D03*
X018053Y007562D03*
X018053Y007577D03*
X018053Y007592D03*
X018053Y007607D03*
X018053Y007622D03*
X018053Y007637D03*
X018053Y007652D03*
X018053Y007667D03*
X018053Y007682D03*
X018053Y007697D03*
X018053Y007712D03*
X018053Y007727D03*
X018053Y007742D03*
X018053Y007757D03*
X018053Y007772D03*
X018053Y007787D03*
X018053Y007802D03*
X018053Y007817D03*
X018053Y007832D03*
X018053Y007847D03*
X018053Y007862D03*
X018053Y007877D03*
X018053Y007892D03*
X018053Y007907D03*
X018053Y007922D03*
X018053Y007937D03*
X018053Y007952D03*
X018053Y007967D03*
X018053Y007982D03*
X018053Y007997D03*
X018053Y008012D03*
X018053Y008027D03*
X018053Y008042D03*
X018053Y008057D03*
X018053Y008072D03*
X018053Y008087D03*
X018053Y008102D03*
X018053Y008117D03*
X018053Y008132D03*
X018053Y008147D03*
X018053Y008162D03*
X018053Y008177D03*
X018053Y008192D03*
X018053Y008207D03*
X018053Y008222D03*
X018053Y008237D03*
X018053Y008252D03*
X018053Y008267D03*
X018053Y008282D03*
X018053Y008297D03*
X018053Y008312D03*
X018053Y008327D03*
X018053Y008342D03*
X018053Y008357D03*
X018053Y008372D03*
X018053Y008387D03*
X018053Y008402D03*
X018053Y008417D03*
X018053Y008432D03*
X018053Y008447D03*
X018053Y008462D03*
X018053Y008477D03*
X018053Y008492D03*
X018053Y008507D03*
X019800Y008507D03*
X019800Y008492D03*
X019800Y008477D03*
X019800Y008462D03*
X019800Y008447D03*
X019800Y008432D03*
X019800Y008417D03*
X019800Y008402D03*
X019800Y008387D03*
X019800Y008372D03*
X019800Y008357D03*
X019800Y008342D03*
X019800Y008327D03*
X019800Y008312D03*
X019800Y008297D03*
X019800Y008282D03*
X019800Y008267D03*
X019800Y008252D03*
X019800Y008237D03*
X019800Y008222D03*
X019800Y008207D03*
X019800Y008192D03*
X019800Y008177D03*
X019800Y008162D03*
X019800Y008147D03*
X019800Y008132D03*
X019800Y008117D03*
X019800Y008102D03*
X019800Y008087D03*
X019800Y008072D03*
X019800Y008057D03*
X019800Y008042D03*
X019800Y008027D03*
X019800Y008012D03*
X019800Y007997D03*
X019800Y007982D03*
X019800Y007967D03*
X019800Y007952D03*
X019800Y007937D03*
X019800Y007922D03*
X019800Y007907D03*
X019800Y007892D03*
X019800Y007877D03*
X019800Y007862D03*
X019800Y007847D03*
X019800Y007832D03*
X019800Y007817D03*
X019800Y007802D03*
X019800Y007787D03*
X019800Y007772D03*
X019800Y007757D03*
X019800Y007742D03*
X019800Y007727D03*
X019800Y007712D03*
X019800Y007697D03*
X019800Y007682D03*
X019800Y007667D03*
X019800Y007652D03*
X019800Y007637D03*
X019800Y007622D03*
X019800Y007607D03*
X019800Y007592D03*
X019800Y007577D03*
X019800Y007562D03*
X019800Y007547D03*
X019800Y007532D03*
X019800Y007517D03*
X019800Y007502D03*
X019800Y007487D03*
X019800Y007472D03*
X019800Y007457D03*
X019800Y007442D03*
X019800Y007427D03*
X019800Y007412D03*
X019800Y007397D03*
X019800Y007382D03*
X019800Y007367D03*
X019800Y007352D03*
X019800Y007337D03*
X019800Y007322D03*
X021983Y009842D03*
X021983Y009857D03*
X021983Y009872D03*
X021983Y009887D03*
X021983Y009902D03*
X021983Y009917D03*
X021983Y009932D03*
X021983Y009947D03*
X021983Y009962D03*
X021983Y009977D03*
X021983Y009992D03*
X021983Y010007D03*
X021983Y010022D03*
X021983Y010037D03*
X021983Y010052D03*
X021983Y010067D03*
X021983Y010082D03*
X021983Y010097D03*
X021983Y010112D03*
X021983Y010127D03*
X021983Y010142D03*
X021983Y010157D03*
X021983Y010172D03*
X021983Y010187D03*
X021983Y010202D03*
X021983Y010217D03*
X021983Y010232D03*
X021983Y010247D03*
X021983Y010262D03*
X021983Y010277D03*
X021983Y010292D03*
X021983Y010307D03*
X021983Y010322D03*
X021983Y010337D03*
X021983Y010352D03*
X021983Y010367D03*
X021983Y010382D03*
X021983Y010397D03*
X021983Y010412D03*
X021983Y010427D03*
X021983Y010442D03*
X021983Y010457D03*
X021983Y010472D03*
X021983Y010487D03*
X021983Y010502D03*
X021983Y010517D03*
X021983Y010532D03*
X021983Y010547D03*
X021983Y010562D03*
X021983Y010577D03*
X021983Y010592D03*
X021983Y010607D03*
X021983Y010622D03*
X021983Y010637D03*
X021983Y010652D03*
X021983Y010667D03*
X021983Y010682D03*
X021983Y010697D03*
X021983Y010712D03*
X021983Y010727D03*
X021983Y010742D03*
X021983Y010757D03*
X021983Y010772D03*
X021983Y010787D03*
X021983Y010802D03*
X021983Y010817D03*
X021983Y010832D03*
X021983Y010847D03*
X021983Y010862D03*
X021983Y010877D03*
X021983Y010892D03*
X021983Y010907D03*
X021983Y010922D03*
X021983Y010937D03*
X021983Y010952D03*
X021983Y010967D03*
X021983Y010982D03*
X021983Y010997D03*
X021983Y011012D03*
X021983Y011027D03*
X021983Y011042D03*
X021983Y011057D03*
X021983Y011072D03*
X021983Y011087D03*
X021983Y011102D03*
X021983Y011117D03*
X021983Y011132D03*
X021983Y011147D03*
X021983Y011162D03*
X021983Y011177D03*
X021983Y011192D03*
X021983Y011207D03*
X021983Y011222D03*
X021983Y011237D03*
X021983Y011252D03*
X021983Y011267D03*
X021983Y011282D03*
X021983Y011297D03*
X021983Y011312D03*
X021983Y011327D03*
X021983Y011342D03*
X021983Y011357D03*
X021983Y011372D03*
X021983Y011387D03*
X021983Y011402D03*
X021983Y011417D03*
X021983Y011432D03*
X021983Y011447D03*
X021983Y011462D03*
X021983Y011477D03*
X021983Y011492D03*
X021983Y011507D03*
X021983Y011522D03*
X021983Y011537D03*
X021983Y011552D03*
X021983Y011567D03*
X021983Y011582D03*
X021983Y011597D03*
X021983Y011612D03*
X021983Y011627D03*
X021983Y011642D03*
X021983Y011657D03*
X021983Y011672D03*
X021983Y011687D03*
X021983Y011702D03*
X021983Y011717D03*
X021983Y011732D03*
X021983Y011747D03*
X021983Y011762D03*
X021983Y011777D03*
X021983Y011792D03*
X021983Y011807D03*
X021983Y011822D03*
X021983Y011837D03*
X021983Y011852D03*
X021983Y011867D03*
X021983Y011882D03*
X021983Y011897D03*
X021983Y011912D03*
X021983Y011927D03*
X021983Y011942D03*
X021983Y011957D03*
X021983Y011972D03*
X021983Y011987D03*
X021983Y012002D03*
X021983Y012017D03*
X021983Y012032D03*
X021983Y012047D03*
X020565Y013502D03*
X015870Y012032D03*
X015870Y012017D03*
X015870Y012002D03*
X015870Y011987D03*
X015870Y011972D03*
X015870Y011957D03*
X015870Y011942D03*
X015870Y011927D03*
X015870Y011912D03*
X015870Y011897D03*
X015870Y011882D03*
X015870Y011867D03*
X015870Y011852D03*
X015870Y011837D03*
X015870Y011822D03*
X015870Y011807D03*
X015870Y011792D03*
X015870Y011777D03*
X015870Y011762D03*
X015870Y011747D03*
X015870Y011732D03*
X015870Y011717D03*
X015870Y011702D03*
X015870Y011687D03*
X015870Y011672D03*
X015870Y011657D03*
X015870Y011642D03*
X015870Y011627D03*
X015870Y011612D03*
X015870Y011597D03*
X015870Y011582D03*
X015870Y011567D03*
X015870Y011552D03*
X015870Y011537D03*
X015870Y011522D03*
X015870Y011507D03*
X015870Y011492D03*
X015870Y011477D03*
X015870Y011462D03*
X015870Y011447D03*
X015870Y011432D03*
X015870Y011417D03*
X015870Y011402D03*
X015870Y011387D03*
X015870Y011372D03*
X015870Y011357D03*
X015870Y011342D03*
X015870Y011327D03*
X015870Y011312D03*
X015870Y011297D03*
X015870Y011282D03*
X015870Y011267D03*
X015870Y011252D03*
X015870Y011237D03*
X015870Y011222D03*
X015870Y011207D03*
X015870Y011192D03*
X015870Y011177D03*
X015870Y011162D03*
X015870Y011147D03*
X015870Y011132D03*
X015870Y011117D03*
X015870Y011102D03*
X015870Y011087D03*
X015870Y011072D03*
X015870Y011057D03*
X015870Y011042D03*
X015870Y011027D03*
X015870Y011012D03*
X015870Y010997D03*
X015870Y010982D03*
X015870Y010967D03*
X015870Y010952D03*
X015870Y010937D03*
X015870Y010922D03*
X015870Y010907D03*
X015870Y010892D03*
X015870Y010877D03*
X015870Y010862D03*
X015870Y010847D03*
X015870Y010832D03*
X015870Y010817D03*
X015870Y010802D03*
X015870Y010787D03*
X015870Y010772D03*
X015870Y010757D03*
X015870Y010742D03*
X015870Y010727D03*
X015870Y010712D03*
X015870Y010697D03*
X015870Y010682D03*
X015870Y010667D03*
X015870Y010652D03*
X015870Y010637D03*
X015870Y010622D03*
X015870Y010607D03*
X015870Y010592D03*
X015870Y010577D03*
X015870Y010562D03*
X015870Y010547D03*
X015870Y010532D03*
X015870Y010517D03*
X015870Y010502D03*
X015870Y010487D03*
X015870Y010472D03*
X015870Y010457D03*
X015870Y010442D03*
X015870Y010427D03*
X015870Y010412D03*
X015870Y010397D03*
X015870Y010382D03*
X015870Y010367D03*
X015870Y010352D03*
X015870Y010337D03*
X015870Y010322D03*
X015870Y010307D03*
X015870Y010292D03*
X015870Y010277D03*
X015870Y010262D03*
X015870Y010247D03*
X015870Y010232D03*
X015870Y010217D03*
X015870Y010202D03*
X015870Y010187D03*
X015870Y010172D03*
X015870Y010157D03*
X015870Y010142D03*
X015870Y010127D03*
X015870Y010112D03*
X015870Y010097D03*
X015870Y010082D03*
X015870Y010067D03*
X015870Y010052D03*
X015870Y010037D03*
X015870Y010022D03*
X015870Y010007D03*
X015870Y009992D03*
X015870Y009977D03*
X015870Y009962D03*
X015870Y009947D03*
X015870Y009932D03*
X015870Y009917D03*
X015870Y009902D03*
X015870Y009887D03*
X015870Y009872D03*
X015870Y009857D03*
D76*
X015870Y009850D03*
X015870Y009865D03*
X015870Y009880D03*
X015870Y009895D03*
X015870Y009910D03*
X015870Y009925D03*
X015870Y009940D03*
X015870Y009955D03*
X015870Y009970D03*
X015870Y009985D03*
X015870Y010000D03*
X015870Y010015D03*
X015870Y010030D03*
X015870Y010045D03*
X015870Y010060D03*
X015870Y010075D03*
X015870Y010090D03*
X015870Y010105D03*
X015870Y010120D03*
X015870Y010135D03*
X015870Y010150D03*
X015870Y010165D03*
X015870Y010180D03*
X015870Y010195D03*
X015870Y010210D03*
X015870Y010225D03*
X015870Y010240D03*
X015870Y010255D03*
X015870Y010270D03*
X015870Y010285D03*
X015870Y010300D03*
X015870Y010315D03*
X015870Y010330D03*
X015870Y010345D03*
X015870Y010360D03*
X015870Y010375D03*
X015870Y010390D03*
X015870Y010405D03*
X015870Y010420D03*
X015870Y010435D03*
X015870Y010450D03*
X015870Y010465D03*
X015870Y010480D03*
X015870Y010495D03*
X015870Y010510D03*
X015870Y010525D03*
X015870Y010540D03*
X015870Y010555D03*
X015870Y010570D03*
X015870Y010585D03*
X015870Y010600D03*
X015870Y010615D03*
X015870Y010630D03*
X015870Y010645D03*
X015870Y010660D03*
X015870Y010675D03*
X015870Y010690D03*
X015870Y010705D03*
X015870Y010720D03*
X015870Y010735D03*
X015870Y010750D03*
X015870Y010765D03*
X015870Y010780D03*
X015870Y010795D03*
X015870Y010810D03*
X015870Y010825D03*
X015870Y010840D03*
X015870Y010855D03*
X015870Y010870D03*
X015870Y010885D03*
X015870Y010900D03*
X015870Y010915D03*
X015870Y010930D03*
X015870Y010945D03*
X015870Y010960D03*
X015870Y010975D03*
X015870Y010990D03*
X015870Y011005D03*
X015870Y011020D03*
X015870Y011035D03*
X015870Y011050D03*
X015870Y011065D03*
X015870Y011080D03*
X015870Y011095D03*
X015870Y011110D03*
X015870Y011125D03*
X015870Y011140D03*
X015870Y011155D03*
X015870Y011170D03*
X015870Y011185D03*
X015870Y011200D03*
X015870Y011215D03*
X015870Y011230D03*
X015870Y011245D03*
X015870Y011260D03*
X015870Y011275D03*
X015870Y011290D03*
X015870Y011305D03*
X015870Y011320D03*
X015870Y011335D03*
X015870Y011350D03*
X015870Y011365D03*
X015870Y011380D03*
X015870Y011395D03*
X015870Y011410D03*
X015870Y011425D03*
X015870Y011440D03*
X015870Y011455D03*
X015870Y011470D03*
X015870Y011485D03*
X015870Y011500D03*
X015870Y011515D03*
X015870Y011530D03*
X015870Y011545D03*
X015870Y011560D03*
X015870Y011575D03*
X015870Y011590D03*
X015870Y011605D03*
X015870Y011620D03*
X015870Y011635D03*
X015870Y011650D03*
X015870Y011665D03*
X015870Y011680D03*
X015870Y011695D03*
X015870Y011710D03*
X015870Y011725D03*
X015870Y011740D03*
X015870Y011755D03*
X015870Y011770D03*
X015870Y011785D03*
X015870Y011800D03*
X015870Y011815D03*
X015870Y011830D03*
X015870Y011845D03*
X015870Y011860D03*
X015870Y011875D03*
X015870Y011890D03*
X015870Y011905D03*
X015870Y011920D03*
X015870Y011935D03*
X015870Y011950D03*
X015870Y011965D03*
X015870Y011980D03*
X015870Y011995D03*
X015870Y012010D03*
X015870Y012025D03*
X015870Y012040D03*
X021983Y012040D03*
X021983Y012025D03*
X021983Y012010D03*
X021983Y011995D03*
X021983Y011980D03*
X021983Y011965D03*
X021983Y011950D03*
X021983Y011935D03*
X021983Y011920D03*
X021983Y011905D03*
X021983Y011890D03*
X021983Y011875D03*
X021983Y011860D03*
X021983Y011845D03*
X021983Y011830D03*
X021983Y011815D03*
X021983Y011800D03*
X021983Y011785D03*
X021983Y011770D03*
X021983Y011755D03*
X021983Y011740D03*
X021983Y011725D03*
X021983Y011710D03*
X021983Y011695D03*
X021983Y011680D03*
X021983Y011665D03*
X021983Y011650D03*
X021983Y011635D03*
X021983Y011620D03*
X021983Y011605D03*
X021983Y011590D03*
X021983Y011575D03*
X021983Y011560D03*
X021983Y011545D03*
X021983Y011530D03*
X021983Y011515D03*
X021983Y011500D03*
X021983Y011485D03*
X021983Y011470D03*
X021983Y011455D03*
X021983Y011440D03*
X021983Y011425D03*
X021983Y011410D03*
X021983Y011395D03*
X021983Y011380D03*
X021983Y011365D03*
X021983Y011350D03*
X021983Y011335D03*
X021983Y011320D03*
X021983Y011305D03*
X021983Y011290D03*
X021983Y011275D03*
X021983Y011260D03*
X021983Y011245D03*
X021983Y011230D03*
X021983Y011215D03*
X021983Y011200D03*
X021983Y011185D03*
X021983Y011170D03*
X021983Y011155D03*
X021983Y011140D03*
X021983Y011125D03*
X021983Y011110D03*
X021983Y011095D03*
X021983Y011080D03*
X021983Y011065D03*
X021983Y011050D03*
X021983Y011035D03*
X021983Y011020D03*
X021983Y011005D03*
X021983Y010990D03*
X021983Y010975D03*
X021983Y010960D03*
X021983Y010945D03*
X021983Y010930D03*
X021983Y010915D03*
X021983Y010900D03*
X021983Y010885D03*
X021983Y010870D03*
X021983Y010855D03*
X021983Y010840D03*
X021983Y010825D03*
X021983Y010810D03*
X021983Y010795D03*
X021983Y010780D03*
X021983Y010765D03*
X021983Y010750D03*
X021983Y010735D03*
X021983Y010720D03*
X021983Y010705D03*
X021983Y010690D03*
X021983Y010675D03*
X021983Y010660D03*
X021983Y010645D03*
X021983Y010630D03*
X021983Y010615D03*
X021983Y010600D03*
X021983Y010585D03*
X021983Y010570D03*
X021983Y010555D03*
X021983Y010540D03*
X021983Y010525D03*
X021983Y010510D03*
X021983Y010495D03*
X021983Y010480D03*
X021983Y010465D03*
X021983Y010450D03*
X021983Y010435D03*
X021983Y010420D03*
X021983Y010405D03*
X021983Y010390D03*
X021983Y010375D03*
X021983Y010360D03*
X021983Y010345D03*
X021983Y010330D03*
X021983Y010315D03*
X021983Y010300D03*
X021983Y010285D03*
X021983Y010270D03*
X021983Y010255D03*
X021983Y010240D03*
X021983Y010225D03*
X021983Y010210D03*
X021983Y010195D03*
X021983Y010180D03*
X021983Y010165D03*
X021983Y010150D03*
X021983Y010135D03*
X021983Y010120D03*
X021983Y010105D03*
X021983Y010090D03*
X021983Y010075D03*
X021983Y010060D03*
X021983Y010045D03*
X021983Y010030D03*
X021983Y010015D03*
X021983Y010000D03*
X021983Y009985D03*
X021983Y009970D03*
X021983Y009955D03*
X021983Y009940D03*
X021983Y009925D03*
X021983Y009910D03*
X021983Y009895D03*
X021983Y009880D03*
X021983Y009865D03*
X021983Y009850D03*
X019800Y008515D03*
X019800Y008500D03*
X019800Y008485D03*
X019800Y008470D03*
X019800Y008455D03*
X019800Y008440D03*
X019800Y008425D03*
X019800Y008410D03*
X019800Y008395D03*
X019800Y008380D03*
X019800Y008365D03*
X019800Y008350D03*
X019800Y008335D03*
X019800Y008320D03*
X019800Y008305D03*
X019800Y008290D03*
X019800Y008275D03*
X019800Y008260D03*
X019800Y008245D03*
X019800Y008230D03*
X019800Y008215D03*
X019800Y008200D03*
X019800Y008185D03*
X019800Y008170D03*
X019800Y008155D03*
X019800Y008140D03*
X019800Y008125D03*
X019800Y008110D03*
X019800Y008095D03*
X019800Y008080D03*
X019800Y008065D03*
X019800Y008050D03*
X019800Y008035D03*
X019800Y008020D03*
X019800Y008005D03*
X019800Y007990D03*
X019800Y007975D03*
X019800Y007960D03*
X019800Y007945D03*
X019800Y007930D03*
X019800Y007915D03*
X019800Y007900D03*
X019800Y007885D03*
X019800Y007870D03*
X019800Y007855D03*
X019800Y007840D03*
X019800Y007825D03*
X019800Y007810D03*
X019800Y007795D03*
X019800Y007780D03*
X019800Y007765D03*
X019800Y007750D03*
X019800Y007735D03*
X019800Y007720D03*
X019800Y007705D03*
X019800Y007690D03*
X019800Y007675D03*
X019800Y007660D03*
X019800Y007645D03*
X019800Y007630D03*
X019800Y007615D03*
X019800Y007600D03*
X019800Y007585D03*
X019800Y007570D03*
X019800Y007555D03*
X019800Y007540D03*
X019800Y007525D03*
X019800Y007510D03*
X019800Y007495D03*
X019800Y007480D03*
X019800Y007465D03*
X019800Y007450D03*
X019800Y007435D03*
X019800Y007420D03*
X019800Y007405D03*
X019800Y007390D03*
X019800Y007375D03*
X019800Y007360D03*
X019800Y007345D03*
X019800Y007330D03*
X018053Y007330D03*
X018053Y007345D03*
X018053Y007360D03*
X018053Y007375D03*
X018053Y007390D03*
X018053Y007405D03*
X018053Y007420D03*
X018053Y007435D03*
X018053Y007450D03*
X018053Y007465D03*
X018053Y007480D03*
X018053Y007495D03*
X018053Y007510D03*
X018053Y007525D03*
X018053Y007540D03*
X018053Y007555D03*
X018053Y007570D03*
X018053Y007585D03*
X018053Y007600D03*
X018053Y007615D03*
X018053Y007630D03*
X018053Y007645D03*
X018053Y007660D03*
X018053Y007675D03*
X018053Y007690D03*
X018053Y007705D03*
X018053Y007720D03*
X018053Y007735D03*
X018053Y007750D03*
X018053Y007765D03*
X018053Y007780D03*
X018053Y007795D03*
X018053Y007810D03*
X018053Y007825D03*
X018053Y007840D03*
X018053Y007855D03*
X018053Y007870D03*
X018053Y007885D03*
X018053Y007900D03*
X018053Y007915D03*
X018053Y007930D03*
X018053Y007945D03*
X018053Y007960D03*
X018053Y007975D03*
X018053Y007990D03*
X018053Y008005D03*
X018053Y008020D03*
X018053Y008035D03*
X018053Y008050D03*
X018053Y008065D03*
X018053Y008080D03*
X018053Y008095D03*
X018053Y008110D03*
X018053Y008125D03*
X018053Y008140D03*
X018053Y008155D03*
X018053Y008170D03*
X018053Y008185D03*
X018053Y008200D03*
X018053Y008215D03*
X018053Y008230D03*
X018053Y008245D03*
X018053Y008260D03*
X018053Y008275D03*
X018053Y008290D03*
X018053Y008305D03*
X018053Y008320D03*
X018053Y008335D03*
X018053Y008350D03*
X018053Y008365D03*
X018053Y008380D03*
X018053Y008395D03*
X018053Y008410D03*
X018053Y008425D03*
X018053Y008440D03*
X018053Y008455D03*
X018053Y008470D03*
X018053Y008485D03*
X018053Y008500D03*
X018053Y008515D03*
D77*
X018926Y008522D03*
D78*
X018926Y008530D03*
X018926Y013915D03*
D79*
X018926Y008537D03*
D80*
X018926Y008545D03*
D81*
X018926Y008552D03*
D82*
X018926Y008560D03*
D83*
X018926Y008567D03*
D84*
X018926Y008575D03*
D85*
X018926Y008582D03*
D86*
X018926Y008590D03*
D87*
X018926Y008597D03*
D88*
X018926Y008605D03*
D89*
X018926Y008612D03*
D90*
X018926Y008620D03*
D91*
X018926Y008627D03*
D92*
X018923Y008635D03*
D93*
X018926Y008642D03*
D94*
X018926Y008650D03*
D95*
X018926Y008657D03*
D96*
X018926Y008665D03*
D97*
X018926Y008672D03*
D98*
X018926Y008680D03*
X018926Y013480D03*
D99*
X018926Y013457D03*
X018926Y008687D03*
D100*
X018926Y008695D03*
X018926Y013450D03*
D101*
X018926Y013427D03*
X018926Y008702D03*
D102*
X018926Y008710D03*
X018926Y013405D03*
D103*
X018926Y013397D03*
X018926Y008717D03*
D104*
X018926Y008725D03*
X018926Y013375D03*
D105*
X018926Y013367D03*
X018926Y008732D03*
D106*
X018926Y008740D03*
X018926Y013360D03*
D107*
X018926Y013337D03*
X018926Y008747D03*
D108*
X018926Y008755D03*
X018926Y013315D03*
D109*
X018926Y013307D03*
X018926Y008762D03*
D110*
X018926Y008770D03*
X018926Y013285D03*
D111*
X018926Y013262D03*
X018926Y008777D03*
D112*
X018926Y008785D03*
X018926Y013270D03*
D113*
X018926Y013247D03*
X018926Y008792D03*
D114*
X018926Y008800D03*
X018926Y013240D03*
D115*
X018926Y013217D03*
X018926Y008807D03*
D116*
X018923Y008815D03*
X018930Y013210D03*
D117*
X018926Y013202D03*
X018926Y013187D03*
X018926Y008822D03*
D118*
X018923Y008830D03*
X018930Y013180D03*
D119*
X018926Y013172D03*
X018926Y008837D03*
D120*
X018923Y008845D03*
D121*
X018926Y008852D03*
X018926Y013142D03*
D122*
X018926Y013135D03*
X018926Y013150D03*
X018926Y008860D03*
D123*
X018926Y008867D03*
X018926Y013112D03*
D124*
X018926Y013105D03*
X018926Y013120D03*
X018926Y008875D03*
D125*
X018923Y008882D03*
X018930Y013097D03*
D126*
X018926Y013090D03*
X018926Y013075D03*
X018926Y008890D03*
D127*
X018926Y008897D03*
X018926Y013067D03*
X018926Y013082D03*
D128*
X018930Y013060D03*
X018923Y008905D03*
D129*
X018926Y008912D03*
X018926Y008927D03*
X018926Y013037D03*
X018926Y013052D03*
D130*
X018926Y013045D03*
X018926Y013030D03*
X018926Y008920D03*
D131*
X018926Y008935D03*
X018926Y008950D03*
X018926Y013000D03*
X018926Y013015D03*
D132*
X018926Y013007D03*
X018926Y012992D03*
X018926Y008957D03*
X018926Y008942D03*
D133*
X018926Y008965D03*
X018926Y008980D03*
X018926Y008995D03*
X018926Y012955D03*
X018926Y012970D03*
D134*
X018926Y012977D03*
X018926Y012962D03*
X018926Y012947D03*
X018926Y009002D03*
X018926Y008987D03*
X018926Y008972D03*
D135*
X018923Y009010D03*
X018930Y012940D03*
D136*
X018926Y012917D03*
X018926Y012902D03*
X018926Y012452D03*
X018926Y012437D03*
X018926Y012422D03*
X018926Y012407D03*
X018926Y012392D03*
X018926Y012377D03*
X018926Y012362D03*
X018926Y012347D03*
X018926Y012332D03*
X018926Y012317D03*
X018926Y012302D03*
X018926Y012287D03*
X018926Y012272D03*
X018926Y012257D03*
X018926Y012242D03*
X018926Y012227D03*
X018926Y012212D03*
X018926Y012197D03*
X018926Y012182D03*
X018926Y012167D03*
X018926Y012152D03*
X018926Y012137D03*
X018926Y012122D03*
X018926Y012107D03*
X018926Y012092D03*
X018926Y012077D03*
X018926Y012062D03*
X018926Y012047D03*
X018926Y012032D03*
X018926Y012017D03*
X018926Y012002D03*
X018926Y011987D03*
X018926Y011972D03*
X018926Y011957D03*
X018926Y011942D03*
X018926Y011927D03*
X018926Y011912D03*
X018926Y011897D03*
X018926Y011882D03*
X018926Y011867D03*
X018926Y011852D03*
X018926Y011837D03*
X018926Y011822D03*
X018926Y011807D03*
X018926Y011792D03*
X018926Y011777D03*
X018926Y011762D03*
X018926Y011747D03*
X018926Y011732D03*
X018926Y011717D03*
X018926Y011702D03*
X018926Y011687D03*
X018926Y011672D03*
X018926Y011657D03*
X018926Y011642D03*
X018926Y011627D03*
X018926Y011612D03*
X018926Y011597D03*
X018926Y011582D03*
X018926Y011567D03*
X018926Y011552D03*
X018926Y011537D03*
X018926Y011522D03*
X018926Y011507D03*
X018926Y011492D03*
X018926Y011477D03*
X018926Y011462D03*
X018926Y011447D03*
X018926Y011432D03*
X018926Y011417D03*
X018926Y011402D03*
X018926Y011387D03*
X018926Y011372D03*
X018926Y011357D03*
X018926Y011342D03*
X018926Y011327D03*
X018926Y011312D03*
X018926Y011297D03*
X018926Y011282D03*
X018926Y011267D03*
X018926Y011252D03*
X018926Y011237D03*
X018926Y011222D03*
X018926Y011207D03*
X018926Y011192D03*
X018926Y011177D03*
X018926Y011162D03*
X018926Y011147D03*
X018926Y011132D03*
X018926Y011117D03*
X018926Y011102D03*
X018926Y011087D03*
X018926Y011072D03*
X018926Y011057D03*
X018926Y011042D03*
X018926Y011027D03*
X018926Y011012D03*
X018926Y010997D03*
X018926Y010982D03*
X018926Y010967D03*
X018926Y010952D03*
X018926Y010937D03*
X018926Y010922D03*
X018926Y010907D03*
X018926Y010892D03*
X018926Y010877D03*
X018926Y010862D03*
X018926Y010847D03*
X018926Y010832D03*
X018926Y010817D03*
X018926Y010802D03*
X018926Y010787D03*
X018926Y010772D03*
X018926Y010757D03*
X018926Y010742D03*
X018926Y010727D03*
X018926Y010712D03*
X018926Y010697D03*
X018926Y010682D03*
X018926Y010667D03*
X018926Y010652D03*
X018926Y010637D03*
X018926Y010622D03*
X018926Y010607D03*
X018926Y010592D03*
X018926Y010577D03*
X018926Y010562D03*
X018926Y010547D03*
X018926Y010532D03*
X018926Y010517D03*
X018926Y010502D03*
X018926Y010487D03*
X018926Y010472D03*
X018926Y010457D03*
X018926Y010442D03*
X018926Y010427D03*
X018926Y010412D03*
X018926Y010397D03*
X018926Y010382D03*
X018926Y010367D03*
X018926Y010352D03*
X018926Y010337D03*
X018926Y010322D03*
X018926Y010307D03*
X018926Y010292D03*
X018926Y010277D03*
X018926Y010262D03*
X018926Y010247D03*
X018926Y010232D03*
X018926Y010217D03*
X018926Y010202D03*
X018926Y010187D03*
X018926Y010172D03*
X018926Y010157D03*
X018926Y010142D03*
X018926Y010127D03*
X018926Y010112D03*
X018926Y010097D03*
X018926Y010082D03*
X018926Y010067D03*
X018926Y010052D03*
X018926Y010037D03*
X018926Y010022D03*
X018926Y010007D03*
X018926Y009992D03*
X018926Y009977D03*
X018926Y009962D03*
X018926Y009947D03*
X018926Y009932D03*
X018926Y009917D03*
X018926Y009902D03*
X018926Y009887D03*
X018926Y009872D03*
X018926Y009857D03*
X018926Y009842D03*
X018926Y009827D03*
X018926Y009812D03*
X018926Y009797D03*
X018926Y009782D03*
X018926Y009767D03*
X018926Y009752D03*
X018926Y009737D03*
X018926Y009722D03*
X018926Y009707D03*
X018926Y009692D03*
X018926Y009677D03*
X018926Y009662D03*
X018926Y009647D03*
X018926Y009632D03*
X018926Y009617D03*
X018926Y009602D03*
X018926Y009587D03*
X018926Y009572D03*
X018926Y009557D03*
X018926Y009542D03*
X018926Y009527D03*
X018926Y009512D03*
X018926Y009497D03*
X018926Y009482D03*
X018926Y009467D03*
X018926Y009452D03*
X018926Y009437D03*
X018926Y009422D03*
X018926Y009407D03*
X018926Y009392D03*
X018926Y009377D03*
X018926Y009362D03*
X018926Y009347D03*
X018926Y009332D03*
X018926Y009317D03*
X018926Y009302D03*
X018926Y009287D03*
X018926Y009272D03*
X018926Y009257D03*
X018926Y009242D03*
X018926Y009227D03*
X018926Y009212D03*
X018926Y009197D03*
X018926Y009182D03*
X018926Y009167D03*
X018926Y009152D03*
X018926Y009137D03*
X018926Y009122D03*
X018926Y009107D03*
X018926Y009092D03*
X018926Y009077D03*
X018926Y009062D03*
X018926Y009047D03*
X018926Y009032D03*
X018926Y009017D03*
D137*
X018926Y009025D03*
X018926Y009040D03*
X018926Y009055D03*
X018926Y009070D03*
X018926Y009085D03*
X018926Y009100D03*
X018926Y009115D03*
X018926Y009130D03*
X018926Y009145D03*
X018926Y009160D03*
X018926Y009175D03*
X018926Y009190D03*
X018926Y009205D03*
X018926Y009220D03*
X018926Y009235D03*
X018926Y009250D03*
X018926Y009265D03*
X018926Y009280D03*
X018926Y009295D03*
X018926Y009310D03*
X018926Y009325D03*
X018926Y009340D03*
X018926Y009355D03*
X018926Y009370D03*
X018926Y009385D03*
X018926Y009400D03*
X018926Y009415D03*
X018926Y009430D03*
X018926Y009445D03*
X018926Y009460D03*
X018926Y009475D03*
X018926Y009490D03*
X018926Y009505D03*
X018926Y009520D03*
X018926Y009535D03*
X018926Y009550D03*
X018926Y009565D03*
X018926Y009580D03*
X018926Y009595D03*
X018926Y009610D03*
X018926Y009625D03*
X018926Y009640D03*
X018926Y009655D03*
X018926Y009670D03*
X018926Y009685D03*
X018926Y009700D03*
X018926Y009715D03*
X018926Y009730D03*
X018926Y009745D03*
X018926Y009760D03*
X018926Y009775D03*
X018926Y009790D03*
X018926Y009805D03*
X018926Y009820D03*
X018926Y009835D03*
X018926Y009850D03*
X018926Y009865D03*
X018926Y009880D03*
X018926Y009895D03*
X018926Y009910D03*
X018926Y009925D03*
X018926Y009940D03*
X018926Y009955D03*
X018926Y009970D03*
X018926Y009985D03*
X018926Y010000D03*
X018926Y010015D03*
X018926Y010030D03*
X018926Y010045D03*
X018926Y010060D03*
X018926Y010075D03*
X018926Y010090D03*
X018926Y010105D03*
X018926Y010120D03*
X018926Y010135D03*
X018926Y010150D03*
X018926Y010165D03*
X018926Y010180D03*
X018926Y010195D03*
X018926Y010210D03*
X018926Y010225D03*
X018926Y010240D03*
X018926Y010255D03*
X018926Y010270D03*
X018926Y010285D03*
X018926Y010300D03*
X018926Y010315D03*
X018926Y010330D03*
X018926Y010345D03*
X018926Y010360D03*
X018926Y010375D03*
X018926Y010390D03*
X018926Y010405D03*
X018926Y010420D03*
X018926Y010435D03*
X018926Y010450D03*
X018926Y010465D03*
X018926Y010480D03*
X018926Y010495D03*
X018926Y010510D03*
X018926Y010525D03*
X018926Y010540D03*
X018926Y010555D03*
X018926Y010570D03*
X018926Y010585D03*
X018926Y010600D03*
X018926Y010615D03*
X018926Y010630D03*
X018926Y010645D03*
X018926Y010660D03*
X018926Y010675D03*
X018926Y010690D03*
X018926Y010705D03*
X018926Y010720D03*
X018926Y010735D03*
X018926Y010750D03*
X018926Y010765D03*
X018926Y010780D03*
X018926Y010795D03*
X018926Y010810D03*
X018926Y010825D03*
X018926Y010840D03*
X018926Y010855D03*
X018926Y010870D03*
X018926Y010885D03*
X018926Y010900D03*
X018926Y010915D03*
X018926Y010930D03*
X018926Y010945D03*
X018926Y010960D03*
X018926Y010975D03*
X018926Y010990D03*
X018926Y011005D03*
X018926Y011020D03*
X018926Y011035D03*
X018926Y011050D03*
X018926Y011065D03*
X018926Y011080D03*
X018926Y011095D03*
X018926Y011110D03*
X018926Y011125D03*
X018926Y011140D03*
X018926Y011155D03*
X018926Y011170D03*
X018926Y011185D03*
X018926Y011200D03*
X018926Y011215D03*
X018926Y011230D03*
X018926Y011245D03*
X018926Y011260D03*
X018926Y011275D03*
X018926Y011290D03*
X018926Y011305D03*
X018926Y011320D03*
X018926Y011335D03*
X018926Y011350D03*
X018926Y011365D03*
X018926Y011380D03*
X018926Y011395D03*
X018926Y011410D03*
X018926Y011425D03*
X018926Y011440D03*
X018926Y011455D03*
X018926Y011470D03*
X018926Y011485D03*
X018926Y011500D03*
X018926Y011515D03*
X018926Y011530D03*
X018926Y011545D03*
X018926Y011560D03*
X018926Y011575D03*
X018926Y011590D03*
X018926Y011605D03*
X018926Y011620D03*
X018926Y011635D03*
X018926Y011650D03*
X018926Y011665D03*
X018926Y011680D03*
X018926Y011695D03*
X018926Y011710D03*
X018926Y011725D03*
X018926Y011740D03*
X018926Y011755D03*
X018926Y011770D03*
X018926Y011785D03*
X018926Y011800D03*
X018926Y011815D03*
X018926Y011830D03*
X018926Y011845D03*
X018926Y011860D03*
X018926Y011875D03*
X018926Y011890D03*
X018926Y011905D03*
X018926Y011920D03*
X018926Y011935D03*
X018926Y011950D03*
X018926Y011965D03*
X018926Y011980D03*
X018926Y011995D03*
X018926Y012010D03*
X018926Y012025D03*
X018926Y012040D03*
X018926Y012055D03*
X018926Y012070D03*
X018926Y012085D03*
X018926Y012100D03*
X018926Y012115D03*
X018926Y012130D03*
X018926Y012145D03*
X018926Y012160D03*
X018926Y012175D03*
X018926Y012190D03*
X018926Y012205D03*
X018926Y012220D03*
X018926Y012235D03*
X018926Y012250D03*
X018926Y012265D03*
X018926Y012280D03*
X018926Y012295D03*
X018926Y012310D03*
X018926Y012325D03*
X018926Y012340D03*
X018926Y012355D03*
X018926Y012370D03*
X018926Y012385D03*
X018926Y012400D03*
X018926Y012415D03*
X018926Y012430D03*
X018926Y012445D03*
X018926Y012460D03*
X018926Y012895D03*
X018926Y012910D03*
X018926Y012925D03*
D138*
X017471Y015257D03*
X020381Y015257D03*
X021986Y009332D03*
X015866Y009332D03*
D139*
X015866Y009340D03*
X021986Y009340D03*
D140*
X021986Y009347D03*
X015866Y009347D03*
D141*
X015866Y009355D03*
X021986Y009355D03*
D142*
X021986Y009362D03*
X015866Y009362D03*
D143*
X021983Y009370D03*
D144*
X015866Y009370D03*
X015866Y012520D03*
X021986Y012520D03*
D145*
X021986Y012512D03*
X015866Y012512D03*
X015866Y009377D03*
X021986Y009377D03*
D146*
X021986Y009385D03*
X015866Y009385D03*
X015866Y012505D03*
X021986Y012505D03*
D147*
X021986Y012497D03*
X015866Y012497D03*
X015866Y009392D03*
X021986Y009392D03*
D148*
X021986Y009400D03*
X015866Y009400D03*
X015866Y012490D03*
X021986Y012490D03*
D149*
X021986Y009407D03*
X015866Y009407D03*
D150*
X015866Y009415D03*
X021986Y009415D03*
X021986Y012475D03*
X015866Y012475D03*
D151*
X015866Y009422D03*
X021986Y009422D03*
D152*
X021986Y009430D03*
X015866Y009430D03*
X015866Y012460D03*
X021986Y012460D03*
D153*
X021986Y012452D03*
X015866Y012452D03*
X015866Y009437D03*
X021986Y009437D03*
D154*
X021986Y009445D03*
X015866Y009445D03*
D155*
X015866Y009460D03*
X021986Y009460D03*
X021986Y012430D03*
X015866Y012430D03*
D156*
X015866Y012422D03*
X021986Y012422D03*
X021986Y009467D03*
X015866Y009467D03*
D157*
X015866Y009475D03*
X021986Y009475D03*
X021986Y012415D03*
X015866Y012415D03*
D158*
X015866Y012407D03*
X021986Y012407D03*
X021986Y009482D03*
X015866Y009482D03*
D159*
X015866Y009490D03*
X021986Y009490D03*
X021986Y012400D03*
X020561Y013765D03*
X020531Y013810D03*
X020516Y013825D03*
X017321Y013810D03*
X017291Y013765D03*
X015866Y012400D03*
D160*
X015866Y012392D03*
X017276Y013727D03*
X020576Y013727D03*
X021986Y012392D03*
X021986Y009497D03*
X015866Y009497D03*
D161*
X015866Y009505D03*
X021986Y009505D03*
X021986Y012385D03*
X020471Y013870D03*
X017381Y013870D03*
X015866Y012385D03*
D162*
X015866Y012362D03*
X015866Y009527D03*
X021986Y009527D03*
D163*
X021986Y009535D03*
X015866Y009535D03*
X015866Y012355D03*
X021986Y012355D03*
D164*
X021986Y012347D03*
X015866Y012347D03*
X015866Y009542D03*
X021986Y009542D03*
D165*
X021986Y009557D03*
X015866Y009557D03*
X015866Y012332D03*
X020606Y013607D03*
X021986Y012332D03*
D166*
X021986Y012325D03*
X015866Y012325D03*
X015866Y009565D03*
X021986Y009565D03*
D167*
X021986Y009580D03*
X015866Y009580D03*
X015866Y012310D03*
X021986Y012310D03*
D168*
X021986Y012302D03*
X015866Y012302D03*
X015866Y009587D03*
X021986Y009587D03*
X018926Y014762D03*
D169*
X015866Y009595D03*
X021986Y009595D03*
D170*
X021986Y009602D03*
X015866Y009602D03*
X015866Y012287D03*
X021986Y012287D03*
D171*
X021986Y012272D03*
X015866Y012272D03*
X015866Y009617D03*
X021986Y009617D03*
D172*
X021986Y009632D03*
X015866Y009632D03*
X015866Y012257D03*
X021986Y012257D03*
D173*
X021986Y009640D03*
X015866Y009640D03*
D174*
X015866Y009647D03*
X021986Y009647D03*
X021986Y012242D03*
X020591Y013532D03*
X017261Y013532D03*
X015866Y012242D03*
D175*
X015866Y012235D03*
X021986Y012235D03*
X021986Y009655D03*
X015866Y009655D03*
D176*
X015866Y009670D03*
X021986Y009670D03*
X021986Y012220D03*
X015866Y012220D03*
X018926Y014755D03*
D177*
X015866Y012212D03*
X021986Y012212D03*
X021986Y009677D03*
X015866Y009677D03*
D178*
X015866Y009685D03*
X015866Y009700D03*
X021986Y009700D03*
X021986Y009685D03*
X021986Y012190D03*
X021986Y012205D03*
X015866Y012205D03*
X015866Y012190D03*
D179*
X015866Y012197D03*
X021986Y012197D03*
X021986Y009692D03*
X015866Y009692D03*
D180*
X015866Y009715D03*
X021986Y009715D03*
X021986Y012175D03*
X020576Y013510D03*
X017276Y013510D03*
X015866Y012175D03*
D181*
X015866Y012167D03*
X021986Y012167D03*
X021986Y009722D03*
X015866Y009722D03*
D182*
X015866Y009737D03*
X015866Y009752D03*
X021986Y009752D03*
X021986Y009737D03*
X021986Y012137D03*
X021986Y012152D03*
X015866Y012152D03*
X015866Y012137D03*
D183*
X015866Y012130D03*
X015866Y012145D03*
X021986Y012145D03*
X021986Y012130D03*
X021986Y009760D03*
X021986Y009745D03*
X015866Y009760D03*
X015866Y009745D03*
D184*
X015866Y009782D03*
X015866Y009797D03*
X015866Y009812D03*
X015866Y009827D03*
X015866Y009842D03*
X021986Y009827D03*
X021986Y009812D03*
X021986Y009797D03*
X021986Y009782D03*
X021986Y012062D03*
X021986Y012077D03*
X021986Y012092D03*
X021986Y012107D03*
X017291Y013502D03*
X015866Y012107D03*
X015866Y012092D03*
X015866Y012077D03*
X015866Y012062D03*
X015866Y012047D03*
D185*
X015866Y012055D03*
X015866Y012070D03*
X015866Y012085D03*
X015866Y012100D03*
X021986Y012100D03*
X021986Y012085D03*
X021986Y012070D03*
X021986Y012055D03*
X021986Y009835D03*
X021986Y009820D03*
X021986Y009805D03*
X021986Y009790D03*
X015866Y009805D03*
X015866Y009820D03*
X015866Y009835D03*
X015866Y009790D03*
D186*
X015866Y012377D03*
X017261Y013682D03*
X020591Y013682D03*
X021986Y012377D03*
D187*
X021986Y012437D03*
X015866Y012437D03*
D188*
X015866Y012557D03*
X021986Y012557D03*
D189*
X018930Y012647D03*
X018930Y012662D03*
X018930Y012677D03*
D190*
X018930Y012670D03*
X018930Y012655D03*
D191*
X018926Y012685D03*
X018926Y012700D03*
X018926Y012715D03*
X018926Y012730D03*
X018926Y012745D03*
X018926Y012760D03*
X018926Y012775D03*
X018926Y012790D03*
D192*
X018926Y012797D03*
X018926Y012782D03*
X018926Y012767D03*
X018926Y012752D03*
X018926Y012737D03*
X018926Y012722D03*
X018926Y012707D03*
X018926Y012692D03*
D193*
X018930Y012805D03*
X018930Y012820D03*
D194*
X018930Y012812D03*
D195*
X018926Y012827D03*
X018926Y012842D03*
X018926Y012857D03*
X018926Y012872D03*
D196*
X018926Y012865D03*
X018926Y012850D03*
X018926Y012835D03*
D197*
X018930Y012880D03*
D198*
X018930Y012887D03*
D199*
X018930Y012932D03*
D200*
X018930Y012985D03*
D201*
X018930Y013022D03*
D202*
X018930Y013127D03*
D203*
X018930Y013157D03*
D204*
X018926Y013165D03*
D205*
X018926Y013195D03*
D206*
X018926Y013225D03*
D207*
X018930Y013232D03*
D208*
X018930Y013255D03*
D209*
X018930Y013277D03*
D210*
X018926Y013292D03*
D211*
X018930Y013300D03*
D212*
X018930Y013322D03*
D213*
X018926Y013330D03*
D214*
X018930Y013345D03*
D215*
X018926Y013352D03*
D216*
X018930Y013382D03*
D217*
X018926Y013390D03*
D218*
X018926Y013412D03*
D219*
X018930Y013420D03*
D220*
X018930Y013435D03*
D221*
X018926Y013442D03*
D222*
X018926Y013465D03*
D223*
X018930Y013472D03*
D224*
X018930Y013487D03*
D225*
X018926Y013495D03*
D226*
X018926Y013502D03*
D227*
X018926Y013510D03*
D228*
X018926Y013517D03*
D229*
X018926Y013525D03*
D230*
X018926Y013532D03*
D231*
X018926Y013540D03*
X018926Y014620D03*
D232*
X018926Y013547D03*
D233*
X017254Y013555D03*
X020599Y013555D03*
D234*
X018926Y013555D03*
D235*
X017250Y013562D03*
X020603Y013562D03*
D236*
X018926Y013562D03*
D237*
X018926Y013570D03*
D238*
X020603Y013577D03*
D239*
X018926Y013577D03*
X018926Y013802D03*
D240*
X017254Y013577D03*
D241*
X017250Y013585D03*
X020603Y013585D03*
D242*
X018926Y013585D03*
X018926Y013810D03*
X018926Y014635D03*
D243*
X020606Y013592D03*
D244*
X018926Y013592D03*
D245*
X017250Y013600D03*
X020603Y013600D03*
D246*
X018926Y013600D03*
X018926Y013780D03*
D247*
X018926Y013607D03*
D248*
X017250Y013607D03*
D249*
X018926Y013615D03*
X018926Y013630D03*
X018926Y013765D03*
D250*
X017250Y013622D03*
X020603Y013622D03*
D251*
X018926Y013622D03*
X018926Y013757D03*
X018926Y013772D03*
X018926Y014642D03*
D252*
X017254Y013637D03*
X020599Y013637D03*
D253*
X018926Y013637D03*
X018926Y013652D03*
X018926Y013727D03*
X018926Y013742D03*
D254*
X017250Y013645D03*
X020603Y013645D03*
D255*
X018926Y013645D03*
X018926Y013660D03*
X018926Y013735D03*
X018926Y013750D03*
D256*
X017254Y013652D03*
X020599Y013652D03*
D257*
X020599Y013660D03*
D258*
X020595Y013667D03*
X017258Y013667D03*
D259*
X018926Y013667D03*
X018926Y013682D03*
X018926Y013697D03*
X018926Y013712D03*
D260*
X017261Y013675D03*
X020591Y013675D03*
D261*
X018926Y013675D03*
X018926Y013690D03*
X018926Y013705D03*
X018926Y013720D03*
D262*
X017265Y013690D03*
X020588Y013690D03*
D263*
X017269Y013697D03*
D264*
X017273Y013712D03*
X020483Y013862D03*
X020580Y013712D03*
D265*
X020580Y013720D03*
X017273Y013720D03*
D266*
X017280Y013735D03*
X017288Y013750D03*
X017348Y013840D03*
X017363Y013855D03*
X020490Y013855D03*
X020505Y013840D03*
X020565Y013750D03*
X020573Y013735D03*
D267*
X020573Y013742D03*
X020565Y013757D03*
X020498Y013847D03*
X017355Y013847D03*
X017280Y013742D03*
D268*
X017291Y013757D03*
X017306Y013787D03*
X020516Y013832D03*
X020546Y013787D03*
D269*
X020554Y013772D03*
X020524Y013817D03*
X017329Y013817D03*
X017299Y013772D03*
D270*
X017303Y013780D03*
X017333Y013825D03*
D271*
X018923Y013787D03*
D272*
X018926Y013795D03*
D273*
X017340Y013832D03*
X017318Y013802D03*
X020535Y013802D03*
D274*
X018926Y013817D03*
D275*
X018926Y013825D03*
D276*
X018926Y013832D03*
D277*
X018926Y013840D03*
D278*
X018926Y013847D03*
D279*
X018926Y013855D03*
D280*
X018926Y013862D03*
D281*
X018926Y013870D03*
X018926Y014605D03*
D282*
X018926Y013877D03*
D283*
X017411Y013885D03*
X020441Y013885D03*
X018926Y014770D03*
D284*
X018926Y013885D03*
D285*
X018930Y013892D03*
D286*
X018926Y013900D03*
D287*
X018926Y013907D03*
D288*
X018926Y013922D03*
D289*
X018930Y013930D03*
D290*
X018926Y013937D03*
D291*
X018926Y013945D03*
D292*
X018926Y013952D03*
D293*
X018926Y013960D03*
D294*
X018930Y013967D03*
D295*
X018930Y013975D03*
D296*
X018926Y013982D03*
D297*
X018926Y013990D03*
D298*
X018926Y013997D03*
D299*
X018926Y014005D03*
D300*
X018926Y014012D03*
D301*
X018926Y014020D03*
D302*
X018926Y014027D03*
D303*
X018930Y014035D03*
D304*
X018930Y014042D03*
D305*
X018930Y014050D03*
D306*
X018930Y014057D03*
D307*
X018926Y014065D03*
D308*
X018926Y014072D03*
D309*
X018926Y014080D03*
D310*
X018926Y014087D03*
D311*
X018926Y014095D03*
D312*
X018926Y014102D03*
D313*
X018926Y014110D03*
D314*
X018926Y014117D03*
D315*
X018926Y014125D03*
D316*
X018926Y014132D03*
D317*
X018926Y014140D03*
D318*
X018930Y014147D03*
D319*
X018930Y014155D03*
D320*
X018930Y014162D03*
D321*
X018930Y014170D03*
D322*
X018926Y014177D03*
D323*
X018926Y014185D03*
D324*
X018926Y014192D03*
D325*
X018926Y014200D03*
D326*
X018926Y014207D03*
D327*
X018926Y014215D03*
D328*
X018930Y014222D03*
D329*
X018926Y014230D03*
D330*
X018926Y014237D03*
D331*
X018926Y014245D03*
D332*
X018926Y014252D03*
D333*
X018930Y014260D03*
D334*
X018926Y014267D03*
D335*
X018926Y014275D03*
D336*
X018926Y014282D03*
D337*
X018930Y014290D03*
D338*
X018926Y014297D03*
D339*
X018926Y014305D03*
D340*
X018930Y014312D03*
D341*
X018926Y014320D03*
D342*
X018926Y014327D03*
D343*
X018930Y014335D03*
D344*
X018926Y014342D03*
D345*
X018926Y014350D03*
D346*
X018926Y014357D03*
D347*
X018926Y014365D03*
D348*
X018930Y014372D03*
D349*
X018926Y014380D03*
D350*
X018930Y014387D03*
D351*
X018926Y014395D03*
D352*
X018930Y014402D03*
D353*
X018926Y014410D03*
D354*
X018926Y014417D03*
D355*
X018926Y014425D03*
D356*
X018926Y014432D03*
D357*
X018930Y014440D03*
D358*
X018926Y014447D03*
D359*
X018926Y014455D03*
D360*
X018930Y014462D03*
D361*
X018926Y014470D03*
D362*
X018926Y014477D03*
D363*
X018926Y014485D03*
D364*
X018930Y014492D03*
D365*
X018926Y014500D03*
D366*
X018926Y014507D03*
X018926Y014582D03*
D367*
X018926Y014560D03*
X018926Y014515D03*
D368*
X018926Y014522D03*
X018926Y014537D03*
D369*
X018926Y014530D03*
D370*
X018926Y014545D03*
D371*
X018926Y014552D03*
D372*
X018926Y014567D03*
D373*
X018926Y014575D03*
D374*
X019013Y014590D03*
D375*
X020040Y014605D03*
X020048Y014620D03*
X020100Y014710D03*
X020108Y014725D03*
X020115Y014740D03*
X020123Y014755D03*
X020130Y014770D03*
X020190Y014875D03*
X020198Y014890D03*
X020205Y014905D03*
X020213Y014920D03*
X020273Y015025D03*
X020280Y015040D03*
X020288Y015055D03*
X020295Y015070D03*
X020355Y015175D03*
X020363Y015190D03*
X020370Y015205D03*
X017820Y014590D03*
X017813Y014605D03*
X017753Y014710D03*
X017745Y014725D03*
X017738Y014740D03*
X017730Y014755D03*
X017723Y014770D03*
X017670Y014860D03*
X017663Y014875D03*
X017655Y014890D03*
X017648Y014905D03*
X017640Y014920D03*
X017580Y015025D03*
X017573Y015040D03*
X017565Y015055D03*
X017558Y015070D03*
X017498Y015175D03*
X017490Y015190D03*
X017483Y015205D03*
D376*
X017486Y015197D03*
X017501Y015167D03*
X017561Y015062D03*
X017576Y015032D03*
X017591Y015002D03*
X017636Y014927D03*
X017651Y014897D03*
X017666Y014867D03*
X017726Y014762D03*
X017741Y014732D03*
X017756Y014702D03*
X017816Y014597D03*
X020036Y014597D03*
X020051Y014627D03*
X020096Y014702D03*
X020111Y014732D03*
X020126Y014762D03*
X020186Y014867D03*
X020201Y014897D03*
X020216Y014927D03*
X020276Y015032D03*
X020291Y015062D03*
X020351Y015167D03*
X020366Y015197D03*
D377*
X018926Y014597D03*
D378*
X017809Y014612D03*
X017749Y014717D03*
X017734Y014747D03*
X017719Y014777D03*
X017674Y014852D03*
X017659Y014882D03*
X017644Y014912D03*
X017584Y015017D03*
X017569Y015047D03*
X017554Y015077D03*
X017494Y015182D03*
X020044Y014612D03*
X020104Y014717D03*
X020119Y014747D03*
X020134Y014777D03*
X020179Y014852D03*
X020194Y014882D03*
X020209Y014912D03*
X020269Y015017D03*
X020284Y015047D03*
X020299Y015077D03*
X020359Y015182D03*
D379*
X018930Y014612D03*
D380*
X017801Y014620D03*
X017786Y014650D03*
X017771Y014680D03*
X017711Y014785D03*
X017696Y014815D03*
X017681Y014845D03*
X017621Y014950D03*
X017606Y014980D03*
X017591Y015010D03*
X017546Y015085D03*
X017531Y015115D03*
X017516Y015145D03*
X020066Y014650D03*
X020081Y014680D03*
X020141Y014785D03*
X020156Y014815D03*
X020171Y014845D03*
X020231Y014950D03*
X020246Y014980D03*
X020261Y015010D03*
X020306Y015085D03*
X020321Y015115D03*
X020336Y015145D03*
D381*
X018930Y014627D03*
D382*
X017798Y014627D03*
X017790Y014642D03*
X017783Y014657D03*
X017775Y014672D03*
X017768Y014687D03*
X017708Y014792D03*
X017700Y014807D03*
X017693Y014822D03*
X017685Y014837D03*
X017625Y014942D03*
X017618Y014957D03*
X017610Y014972D03*
X017603Y014987D03*
X017543Y015092D03*
X017535Y015107D03*
X017528Y015122D03*
X017520Y015137D03*
X017513Y015152D03*
X017483Y015212D03*
X020063Y014642D03*
X020070Y014657D03*
X020078Y014672D03*
X020085Y014687D03*
X020145Y014792D03*
X020153Y014807D03*
X020160Y014822D03*
X020168Y014837D03*
X020228Y014942D03*
X020235Y014957D03*
X020243Y014972D03*
X020250Y014987D03*
X020258Y015002D03*
X020310Y015092D03*
X020318Y015107D03*
X020325Y015122D03*
X020333Y015137D03*
X020340Y015152D03*
X020370Y015212D03*
D383*
X020344Y015160D03*
X020329Y015130D03*
X020314Y015100D03*
X020254Y014995D03*
X020239Y014965D03*
X020224Y014935D03*
X020179Y014860D03*
X020164Y014830D03*
X020149Y014800D03*
X020089Y014695D03*
X020074Y014665D03*
X020059Y014635D03*
X017794Y014635D03*
X017779Y014665D03*
X017764Y014695D03*
X017704Y014800D03*
X017689Y014830D03*
X017629Y014935D03*
X017614Y014965D03*
X017599Y014995D03*
X017539Y015100D03*
X017524Y015130D03*
X017509Y015160D03*
D384*
X018930Y014650D03*
D385*
X018926Y014657D03*
D386*
X018926Y014665D03*
D387*
X018926Y014672D03*
D388*
X018926Y014680D03*
D389*
X018926Y014687D03*
D390*
X018930Y014695D03*
D391*
X018926Y014702D03*
D392*
X018930Y014710D03*
D393*
X018926Y014717D03*
D394*
X018926Y014725D03*
D395*
X018926Y014732D03*
D396*
X018926Y014740D03*
D397*
X018926Y014747D03*
D398*
X018930Y014777D03*
D399*
X018926Y014785D03*
D400*
X018926Y014792D03*
D401*
X018930Y014800D03*
D402*
X017479Y015220D03*
X020374Y015220D03*
D403*
X020374Y015227D03*
X017479Y015227D03*
D404*
X017475Y015235D03*
X020378Y015235D03*
D405*
X020381Y015250D03*
X017471Y015250D03*
D406*
X017471Y015265D03*
X020381Y015265D03*
D407*
X020381Y015272D03*
X017471Y015272D03*
D408*
X017471Y015280D03*
X020381Y015280D03*
D409*
X020378Y015287D03*
X017475Y015287D03*
D410*
X017471Y015295D03*
X020381Y015295D03*
D411*
X013669Y016877D03*
X013669Y016897D03*
X013669Y016917D03*
X013669Y016937D03*
X013669Y016957D03*
X013669Y016977D03*
X013669Y016997D03*
X013669Y017017D03*
X013669Y017837D03*
X013669Y017857D03*
X013669Y017877D03*
X013669Y017897D03*
X013669Y017917D03*
X013669Y017937D03*
X013669Y017957D03*
X013669Y017977D03*
X010629Y018317D03*
X010629Y018337D03*
X010629Y018357D03*
X010629Y018377D03*
X010629Y018397D03*
X010629Y018417D03*
X010629Y018437D03*
X010629Y018457D03*
X010149Y020397D03*
X010149Y020417D03*
X010149Y020437D03*
X010149Y020457D03*
X010149Y020477D03*
X010149Y020497D03*
X010149Y020517D03*
X010149Y020537D03*
X010149Y021357D03*
X010149Y021377D03*
X010149Y021397D03*
X010149Y021417D03*
X010149Y021437D03*
X010149Y021457D03*
X010149Y021477D03*
X010149Y021497D03*
X013669Y021497D03*
X013669Y021477D03*
X013669Y021457D03*
X013669Y021437D03*
X013669Y021417D03*
X013669Y021397D03*
X013669Y021377D03*
X013669Y021357D03*
X013669Y020537D03*
X013669Y020517D03*
X013669Y020497D03*
X013669Y020477D03*
X013669Y020457D03*
X013669Y020437D03*
X013669Y020417D03*
X013669Y020397D03*
D412*
X013429Y019897D03*
X013429Y019877D03*
X013429Y019857D03*
X013429Y019837D03*
X013429Y019817D03*
X013429Y019797D03*
X013429Y019777D03*
X013429Y019757D03*
X012309Y019737D03*
X012309Y019717D03*
X012309Y019697D03*
X012309Y019677D03*
X012309Y019657D03*
X012309Y019637D03*
X012309Y019617D03*
X012309Y019597D03*
X013429Y019257D03*
X013429Y019237D03*
X013429Y019217D03*
X013429Y019197D03*
X013429Y019177D03*
X013429Y019157D03*
X013429Y019137D03*
X013429Y019117D03*
X013909Y018297D03*
X013909Y018277D03*
X013909Y018257D03*
X013909Y018237D03*
X013909Y018217D03*
X013909Y018197D03*
X013909Y018177D03*
X013909Y018157D03*
X011349Y017497D03*
X011349Y017477D03*
X011349Y017457D03*
X011349Y017437D03*
X011349Y017417D03*
X011349Y017397D03*
X011349Y017377D03*
X011349Y017357D03*
X012309Y017017D03*
X012309Y016997D03*
X012309Y016977D03*
X012309Y016957D03*
X012309Y016937D03*
X012309Y016917D03*
X012309Y016897D03*
X012309Y016877D03*
X010389Y016877D03*
X010389Y016897D03*
X010389Y016917D03*
X010389Y016937D03*
X010389Y016957D03*
X010389Y016977D03*
X010389Y016997D03*
X010389Y017017D03*
X010709Y019437D03*
X010709Y019457D03*
X010709Y019477D03*
X010709Y019497D03*
X010709Y019517D03*
X010709Y019537D03*
X010709Y019557D03*
X010709Y019577D03*
X011509Y021197D03*
X011509Y021217D03*
X011509Y021237D03*
X011509Y021257D03*
X011509Y021277D03*
X011509Y021297D03*
X011509Y021317D03*
X011509Y021337D03*
X012469Y021177D03*
X012469Y021157D03*
X012469Y021137D03*
X012469Y021117D03*
X012469Y021097D03*
X012469Y021077D03*
X012469Y021057D03*
X012469Y021037D03*
D413*
X012549Y021017D03*
X012549Y020997D03*
X012549Y020977D03*
X012549Y020957D03*
X012549Y020937D03*
X012549Y020917D03*
X012549Y020897D03*
X012549Y020877D03*
X012869Y020877D03*
X012869Y020897D03*
X012869Y020917D03*
X012869Y020937D03*
X012869Y020957D03*
X012869Y020977D03*
X012869Y020997D03*
X012869Y021017D03*
X013189Y021017D03*
X013189Y020997D03*
X013189Y020977D03*
X013189Y020957D03*
X013189Y020937D03*
X013189Y020917D03*
X013189Y020897D03*
X013189Y020877D03*
X013189Y020857D03*
X013189Y020837D03*
X013189Y020817D03*
X013189Y020797D03*
X013189Y020777D03*
X013189Y020757D03*
X013189Y020737D03*
X013189Y020717D03*
X013189Y020697D03*
X013189Y020677D03*
X013189Y020657D03*
X013189Y020637D03*
X013189Y020617D03*
X013189Y020597D03*
X013189Y020577D03*
X013189Y020557D03*
X012869Y020537D03*
X012869Y020517D03*
X012869Y020497D03*
X012869Y020477D03*
X012869Y020457D03*
X012869Y020437D03*
X012869Y020417D03*
X012869Y020397D03*
X012869Y020377D03*
X012869Y020357D03*
X012869Y020337D03*
X012869Y020317D03*
X012869Y020297D03*
X012869Y020277D03*
X012869Y020257D03*
X012869Y020237D03*
X012709Y020217D03*
X012709Y020197D03*
X012709Y020177D03*
X012709Y020157D03*
X012709Y020137D03*
X012709Y020117D03*
X012709Y020097D03*
X012709Y020077D03*
X013029Y020057D03*
X013029Y020037D03*
X013029Y020017D03*
X013029Y019997D03*
X013029Y019977D03*
X013029Y019957D03*
X013029Y019937D03*
X013029Y019917D03*
X013189Y020077D03*
X013189Y020097D03*
X013189Y020117D03*
X013189Y020137D03*
X013189Y020157D03*
X013189Y020177D03*
X013189Y020197D03*
X013189Y020217D03*
X013669Y020057D03*
X013669Y020037D03*
X013669Y020017D03*
X013669Y019997D03*
X013669Y019977D03*
X013669Y019957D03*
X013669Y019937D03*
X013669Y019917D03*
X013669Y019737D03*
X013669Y019717D03*
X013669Y019697D03*
X013669Y019677D03*
X013669Y019657D03*
X013669Y019637D03*
X013669Y019617D03*
X013669Y019597D03*
X013189Y019577D03*
X013189Y019557D03*
X013189Y019537D03*
X013189Y019517D03*
X013189Y019497D03*
X013189Y019477D03*
X013189Y019457D03*
X013189Y019437D03*
X012869Y019437D03*
X012869Y019457D03*
X012869Y019477D03*
X012869Y019497D03*
X012869Y019517D03*
X012869Y019537D03*
X012869Y019557D03*
X012869Y019577D03*
X012869Y019597D03*
X012869Y019617D03*
X012869Y019637D03*
X012869Y019657D03*
X012869Y019677D03*
X012869Y019697D03*
X012869Y019717D03*
X012869Y019737D03*
X012709Y019417D03*
X012709Y019397D03*
X012709Y019377D03*
X012709Y019357D03*
X012709Y019337D03*
X012709Y019317D03*
X012709Y019297D03*
X012709Y019277D03*
X012389Y019277D03*
X012389Y019297D03*
X012389Y019317D03*
X012389Y019337D03*
X012389Y019357D03*
X012389Y019377D03*
X012389Y019397D03*
X012389Y019417D03*
X012069Y019437D03*
X012069Y019457D03*
X012069Y019477D03*
X012069Y019497D03*
X012069Y019517D03*
X012069Y019537D03*
X012069Y019557D03*
X012069Y019577D03*
X011749Y019577D03*
X011749Y019557D03*
X011749Y019537D03*
X011749Y019517D03*
X011749Y019497D03*
X011749Y019477D03*
X011749Y019457D03*
X011749Y019437D03*
X011749Y019917D03*
X011749Y019937D03*
X011749Y019957D03*
X011749Y019977D03*
X011749Y019997D03*
X011749Y020017D03*
X011749Y020037D03*
X011749Y020057D03*
X011909Y020397D03*
X011909Y020417D03*
X011909Y020437D03*
X011909Y020457D03*
X011909Y020477D03*
X011909Y020497D03*
X011909Y020517D03*
X011909Y020537D03*
X012229Y020537D03*
X012229Y020517D03*
X012229Y020497D03*
X012229Y020477D03*
X012229Y020457D03*
X012229Y020437D03*
X012229Y020417D03*
X012229Y020397D03*
X012229Y020557D03*
X012229Y020577D03*
X012229Y020597D03*
X012229Y020617D03*
X012229Y020637D03*
X012229Y020657D03*
X012229Y020677D03*
X012229Y020697D03*
X012549Y020537D03*
X012549Y020517D03*
X012549Y020497D03*
X012549Y020477D03*
X012549Y020457D03*
X012549Y020437D03*
X012549Y020417D03*
X012549Y020397D03*
X012229Y020057D03*
X012229Y020037D03*
X012229Y020017D03*
X012229Y019997D03*
X012229Y019977D03*
X012229Y019957D03*
X012229Y019937D03*
X012229Y019917D03*
X011589Y020397D03*
X011589Y020417D03*
X011589Y020437D03*
X011589Y020457D03*
X011589Y020477D03*
X011589Y020497D03*
X011589Y020517D03*
X011589Y020537D03*
X011269Y020537D03*
X011269Y020517D03*
X011269Y020497D03*
X011269Y020477D03*
X011269Y020457D03*
X011269Y020437D03*
X011269Y020417D03*
X011269Y020397D03*
X011269Y020557D03*
X011269Y020577D03*
X011269Y020597D03*
X011269Y020617D03*
X011269Y020637D03*
X011269Y020657D03*
X011269Y020677D03*
X011269Y020697D03*
X010949Y020697D03*
X010949Y020677D03*
X010949Y020657D03*
X010949Y020637D03*
X010949Y020617D03*
X010949Y020597D03*
X010949Y020577D03*
X010949Y020557D03*
X010949Y020537D03*
X010949Y020517D03*
X010949Y020497D03*
X010949Y020477D03*
X010949Y020457D03*
X010949Y020437D03*
X010949Y020417D03*
X010949Y020397D03*
X010629Y020557D03*
X010629Y020577D03*
X010629Y020597D03*
X010629Y020617D03*
X010629Y020637D03*
X010629Y020657D03*
X010629Y020677D03*
X010629Y020697D03*
X010629Y020717D03*
X010629Y020737D03*
X010629Y020757D03*
X010629Y020777D03*
X010629Y020797D03*
X010629Y020817D03*
X010629Y020837D03*
X010629Y020857D03*
X010629Y020877D03*
X010629Y020897D03*
X010629Y020917D03*
X010629Y020937D03*
X010629Y020957D03*
X010629Y020977D03*
X010629Y020997D03*
X010629Y021017D03*
X010629Y021037D03*
X010629Y021057D03*
X010629Y021077D03*
X010629Y021097D03*
X010629Y021117D03*
X010629Y021137D03*
X010629Y021157D03*
X010629Y021177D03*
X010629Y021197D03*
X010629Y021217D03*
X010629Y021237D03*
X010629Y021257D03*
X010629Y021277D03*
X010629Y021297D03*
X010629Y021317D03*
X010629Y021337D03*
X010949Y021337D03*
X010949Y021317D03*
X010949Y021297D03*
X010949Y021277D03*
X010949Y021257D03*
X010949Y021237D03*
X010949Y021217D03*
X010949Y021197D03*
X011909Y021357D03*
X011909Y021377D03*
X011909Y021397D03*
X011909Y021417D03*
X011909Y021437D03*
X011909Y021457D03*
X011909Y021477D03*
X011909Y021497D03*
X012389Y021497D03*
X012389Y021477D03*
X012389Y021457D03*
X012389Y021437D03*
X012389Y021417D03*
X012389Y021397D03*
X012389Y021377D03*
X012389Y021357D03*
X012709Y021357D03*
X012709Y021377D03*
X012709Y021397D03*
X012709Y021417D03*
X012709Y021437D03*
X012709Y021457D03*
X012709Y021477D03*
X012709Y021497D03*
X013189Y021337D03*
X013189Y021317D03*
X013189Y021297D03*
X013189Y021277D03*
X013189Y021257D03*
X013189Y021237D03*
X013189Y021217D03*
X013189Y021197D03*
X013189Y021177D03*
X013189Y021157D03*
X013189Y021137D03*
X013189Y021117D03*
X013189Y021097D03*
X013189Y021077D03*
X013189Y021057D03*
X013189Y021037D03*
X014149Y021037D03*
X014149Y021017D03*
X014149Y020997D03*
X014149Y020977D03*
X014149Y020957D03*
X014149Y020937D03*
X014149Y020917D03*
X014149Y020897D03*
X014149Y020877D03*
X014149Y020857D03*
X014149Y020837D03*
X014149Y020817D03*
X014149Y020797D03*
X014149Y020777D03*
X014149Y020757D03*
X014149Y020737D03*
X014149Y020717D03*
X014149Y020697D03*
X014149Y020677D03*
X014149Y020657D03*
X014149Y020637D03*
X014149Y020617D03*
X014149Y020597D03*
X014149Y020577D03*
X014149Y020557D03*
X014149Y020057D03*
X014149Y020037D03*
X014149Y020017D03*
X014149Y019997D03*
X014149Y019977D03*
X014149Y019957D03*
X014149Y019937D03*
X014149Y019917D03*
X014149Y019417D03*
X014149Y019397D03*
X014149Y019377D03*
X014149Y019357D03*
X014149Y019337D03*
X014149Y019317D03*
X014149Y019297D03*
X014149Y019277D03*
X013029Y019097D03*
X013029Y019077D03*
X013029Y019057D03*
X013029Y019037D03*
X013029Y019017D03*
X013029Y018997D03*
X013029Y018977D03*
X013029Y018957D03*
X013029Y018777D03*
X013029Y018757D03*
X013029Y018737D03*
X013029Y018717D03*
X013029Y018697D03*
X013029Y018677D03*
X013029Y018657D03*
X013029Y018637D03*
X013189Y018617D03*
X013189Y018597D03*
X013189Y018577D03*
X013189Y018557D03*
X013189Y018537D03*
X013189Y018517D03*
X013189Y018497D03*
X013189Y018477D03*
X013029Y018457D03*
X013029Y018437D03*
X013029Y018417D03*
X013029Y018397D03*
X013029Y018377D03*
X013029Y018357D03*
X013029Y018337D03*
X013029Y018317D03*
X012869Y018137D03*
X012869Y018117D03*
X012869Y018097D03*
X012869Y018077D03*
X012869Y018057D03*
X012869Y018037D03*
X012869Y018017D03*
X012869Y017997D03*
X012549Y018157D03*
X012549Y018177D03*
X012549Y018197D03*
X012549Y018217D03*
X012549Y018237D03*
X012549Y018257D03*
X012549Y018277D03*
X012549Y018297D03*
X012549Y018317D03*
X012549Y018337D03*
X012549Y018357D03*
X012549Y018377D03*
X012549Y018397D03*
X012549Y018417D03*
X012549Y018437D03*
X012549Y018457D03*
X012709Y018637D03*
X012709Y018657D03*
X012709Y018677D03*
X012709Y018697D03*
X012709Y018717D03*
X012709Y018737D03*
X012709Y018757D03*
X012709Y018777D03*
X012229Y018797D03*
X012229Y018817D03*
X012229Y018837D03*
X012229Y018857D03*
X012229Y018877D03*
X012229Y018897D03*
X012229Y018917D03*
X012229Y018937D03*
X012229Y018957D03*
X012229Y018977D03*
X012229Y018997D03*
X012229Y019017D03*
X012229Y019037D03*
X012229Y019057D03*
X012229Y019077D03*
X012229Y019097D03*
X011909Y019097D03*
X011909Y019077D03*
X011909Y019057D03*
X011909Y019037D03*
X011909Y019017D03*
X011909Y018997D03*
X011909Y018977D03*
X011909Y018957D03*
X011749Y018937D03*
X011749Y018917D03*
X011749Y018897D03*
X011749Y018877D03*
X011749Y018857D03*
X011749Y018837D03*
X011749Y018817D03*
X011749Y018797D03*
X011429Y018797D03*
X011429Y018817D03*
X011429Y018837D03*
X011429Y018857D03*
X011429Y018877D03*
X011429Y018897D03*
X011429Y018917D03*
X011429Y018937D03*
X011429Y018957D03*
X011429Y018977D03*
X011429Y018997D03*
X011429Y019017D03*
X011429Y019037D03*
X011429Y019057D03*
X011429Y019077D03*
X011429Y019097D03*
X010949Y018937D03*
X010949Y018917D03*
X010949Y018897D03*
X010949Y018877D03*
X010949Y018857D03*
X010949Y018837D03*
X010949Y018817D03*
X010949Y018797D03*
X009669Y018777D03*
X009669Y018757D03*
X009669Y018737D03*
X009669Y018717D03*
X009669Y018697D03*
X009669Y018677D03*
X009669Y018657D03*
X009669Y018637D03*
X009669Y018617D03*
X009669Y018597D03*
X009669Y018577D03*
X009669Y018557D03*
X009669Y018537D03*
X009669Y018517D03*
X009669Y018497D03*
X009669Y018477D03*
X009669Y018137D03*
X009669Y018117D03*
X009669Y018097D03*
X009669Y018077D03*
X009669Y018057D03*
X009669Y018037D03*
X009669Y018017D03*
X009669Y017997D03*
X009669Y017657D03*
X009669Y017637D03*
X009669Y017617D03*
X009669Y017597D03*
X009669Y017577D03*
X009669Y017557D03*
X009669Y017537D03*
X009669Y017517D03*
X010629Y017837D03*
X010629Y017857D03*
X010629Y017877D03*
X010629Y017897D03*
X010629Y017917D03*
X010629Y017937D03*
X010629Y017957D03*
X010629Y017977D03*
X010949Y017977D03*
X010949Y017957D03*
X010949Y017937D03*
X010949Y017917D03*
X010949Y017897D03*
X010949Y017877D03*
X010949Y017857D03*
X010949Y017837D03*
X010949Y017817D03*
X010949Y017797D03*
X010949Y017777D03*
X010949Y017757D03*
X010949Y017737D03*
X010949Y017717D03*
X010949Y017697D03*
X010949Y017677D03*
X010789Y017497D03*
X010789Y017477D03*
X010789Y017457D03*
X010789Y017437D03*
X010789Y017417D03*
X010789Y017397D03*
X010789Y017377D03*
X010789Y017357D03*
X011269Y017177D03*
X011269Y017157D03*
X011269Y017137D03*
X011269Y017117D03*
X011269Y017097D03*
X011269Y017077D03*
X011269Y017057D03*
X011269Y017037D03*
X011589Y017017D03*
X011589Y016997D03*
X011589Y016977D03*
X011589Y016957D03*
X011589Y016937D03*
X011589Y016917D03*
X011589Y016897D03*
X011589Y016877D03*
X011589Y017197D03*
X011589Y017217D03*
X011589Y017237D03*
X011589Y017257D03*
X011589Y017277D03*
X011589Y017297D03*
X011589Y017317D03*
X011589Y017337D03*
X012069Y017517D03*
X012069Y017537D03*
X012069Y017557D03*
X012069Y017577D03*
X012069Y017597D03*
X012069Y017617D03*
X012069Y017637D03*
X012069Y017657D03*
X011749Y017837D03*
X011749Y017857D03*
X011749Y017877D03*
X011749Y017897D03*
X011749Y017917D03*
X011749Y017937D03*
X011749Y017957D03*
X011749Y017977D03*
X011269Y017817D03*
X011269Y017797D03*
X011269Y017777D03*
X011269Y017757D03*
X011269Y017737D03*
X011269Y017717D03*
X011269Y017697D03*
X011269Y017677D03*
X010949Y017997D03*
X010949Y018017D03*
X010949Y018037D03*
X010949Y018057D03*
X010949Y018077D03*
X010949Y018097D03*
X010949Y018117D03*
X010949Y018137D03*
X012549Y017817D03*
X012549Y017797D03*
X012549Y017777D03*
X012549Y017757D03*
X012549Y017737D03*
X012549Y017717D03*
X012549Y017697D03*
X012549Y017677D03*
X012709Y017657D03*
X012709Y017637D03*
X012709Y017617D03*
X012709Y017597D03*
X012709Y017577D03*
X012709Y017557D03*
X012709Y017537D03*
X012709Y017517D03*
X012709Y017497D03*
X012709Y017477D03*
X012709Y017457D03*
X012709Y017437D03*
X012709Y017417D03*
X012709Y017397D03*
X012709Y017377D03*
X012709Y017357D03*
X012869Y017177D03*
X012869Y017157D03*
X012869Y017137D03*
X012869Y017117D03*
X012869Y017097D03*
X012869Y017077D03*
X012869Y017057D03*
X012869Y017037D03*
X013189Y017037D03*
X013189Y017057D03*
X013189Y017077D03*
X013189Y017097D03*
X013189Y017117D03*
X013189Y017137D03*
X013189Y017157D03*
X013189Y017177D03*
X013189Y017197D03*
X013189Y017217D03*
X013189Y017237D03*
X013189Y017257D03*
X013189Y017277D03*
X013189Y017297D03*
X013189Y017317D03*
X013189Y017337D03*
X013189Y017357D03*
X013189Y017377D03*
X013189Y017397D03*
X013189Y017417D03*
X013189Y017437D03*
X013189Y017457D03*
X013189Y017477D03*
X013189Y017497D03*
X013189Y017517D03*
X013189Y017537D03*
X013189Y017557D03*
X013189Y017577D03*
X013189Y017597D03*
X013189Y017617D03*
X013189Y017637D03*
X013189Y017657D03*
X013189Y017677D03*
X013189Y017697D03*
X013189Y017717D03*
X013189Y017737D03*
X013189Y017757D03*
X013189Y017777D03*
X013189Y017797D03*
X013189Y017817D03*
X014149Y017817D03*
X014149Y017797D03*
X014149Y017777D03*
X014149Y017757D03*
X014149Y017737D03*
X014149Y017717D03*
X014149Y017697D03*
X014149Y017677D03*
X014149Y017657D03*
X014149Y017637D03*
X014149Y017617D03*
X014149Y017597D03*
X014149Y017577D03*
X014149Y017557D03*
X014149Y017537D03*
X014149Y017517D03*
X014149Y017497D03*
X014149Y017477D03*
X014149Y017457D03*
X014149Y017437D03*
X014149Y017417D03*
X014149Y017397D03*
X014149Y017377D03*
X014149Y017357D03*
X014149Y017337D03*
X014149Y017317D03*
X014149Y017297D03*
X014149Y017277D03*
X014149Y017257D03*
X014149Y017237D03*
X014149Y017217D03*
X014149Y017197D03*
X014149Y017177D03*
X014149Y017157D03*
X014149Y017137D03*
X014149Y017117D03*
X014149Y017097D03*
X014149Y017077D03*
X014149Y017057D03*
X014149Y017037D03*
X012389Y017037D03*
X012389Y017057D03*
X012389Y017077D03*
X012389Y017097D03*
X012389Y017117D03*
X012389Y017137D03*
X012389Y017157D03*
X012389Y017177D03*
X010949Y017017D03*
X010949Y016997D03*
X010949Y016977D03*
X010949Y016957D03*
X010949Y016937D03*
X010949Y016917D03*
X010949Y016897D03*
X010949Y016877D03*
X009669Y016877D03*
X009669Y016897D03*
X009669Y016917D03*
X009669Y016937D03*
X009669Y016957D03*
X009669Y016977D03*
X009669Y016997D03*
X009669Y017017D03*
X013829Y018317D03*
X013829Y018337D03*
X013829Y018357D03*
X013829Y018377D03*
X013829Y018397D03*
X013829Y018417D03*
X013829Y018437D03*
X013829Y018457D03*
X013989Y018637D03*
X013989Y018657D03*
X013989Y018677D03*
X013989Y018697D03*
X013989Y018717D03*
X013989Y018737D03*
X013989Y018757D03*
X013989Y018777D03*
X013349Y018777D03*
X013349Y018757D03*
X013349Y018737D03*
X013349Y018717D03*
X013349Y018697D03*
X013349Y018677D03*
X013349Y018657D03*
X013349Y018637D03*
X011109Y019597D03*
X011109Y019617D03*
X011109Y019637D03*
X011109Y019657D03*
X011109Y019677D03*
X011109Y019697D03*
X011109Y019717D03*
X011109Y019737D03*
X011109Y019757D03*
X011109Y019777D03*
X011109Y019797D03*
X011109Y019817D03*
X011109Y019837D03*
X011109Y019857D03*
X011109Y019877D03*
X011109Y019897D03*
X010629Y019417D03*
X010629Y019397D03*
X010629Y019377D03*
X010629Y019357D03*
X010629Y019337D03*
X010629Y019317D03*
X010629Y019297D03*
X010629Y019277D03*
X010149Y019277D03*
X010149Y019297D03*
X010149Y019317D03*
X010149Y019337D03*
X010149Y019357D03*
X010149Y019377D03*
X010149Y019397D03*
X010149Y019417D03*
X010149Y019437D03*
X010149Y019457D03*
X010149Y019477D03*
X010149Y019497D03*
X010149Y019517D03*
X010149Y019537D03*
X010149Y019557D03*
X010149Y019577D03*
X010149Y019597D03*
X010149Y019617D03*
X010149Y019637D03*
X010149Y019657D03*
X010149Y019677D03*
X010149Y019697D03*
X010149Y019717D03*
X010149Y019737D03*
X010149Y020077D03*
X010149Y020097D03*
X010149Y020117D03*
X010149Y020137D03*
X010149Y020157D03*
X010149Y020177D03*
X010149Y020197D03*
X010149Y020217D03*
X009669Y020557D03*
X009669Y020577D03*
X009669Y020597D03*
X009669Y020617D03*
X009669Y020637D03*
X009669Y020657D03*
X009669Y020677D03*
X009669Y020697D03*
X009669Y020717D03*
X009669Y020737D03*
X009669Y020757D03*
X009669Y020777D03*
X009669Y020797D03*
X009669Y020817D03*
X009669Y020837D03*
X009669Y020857D03*
X009669Y020877D03*
X009669Y020897D03*
X009669Y020917D03*
X009669Y020937D03*
X009669Y020957D03*
X009669Y020977D03*
X009669Y020997D03*
X009669Y021017D03*
X009669Y021037D03*
X009669Y021057D03*
X009669Y021077D03*
X009669Y021097D03*
X009669Y021117D03*
X009669Y021137D03*
X009669Y021157D03*
X009669Y021177D03*
X009669Y021197D03*
X009669Y021217D03*
X009669Y021237D03*
X009669Y021257D03*
X009669Y021277D03*
X009669Y021297D03*
X009669Y021317D03*
X009669Y021337D03*
X014149Y021337D03*
X014149Y021317D03*
X014149Y021297D03*
X014149Y021277D03*
X014149Y021257D03*
X014149Y021237D03*
X014149Y021217D03*
X014149Y021197D03*
X014149Y021177D03*
X014149Y021157D03*
X014149Y021137D03*
X014149Y021117D03*
X014149Y021097D03*
X014149Y021077D03*
X014149Y021057D03*
X009669Y019897D03*
X009669Y019877D03*
X009669Y019857D03*
X009669Y019837D03*
X009669Y019817D03*
X009669Y019797D03*
X009669Y019777D03*
X009669Y019757D03*
X009829Y019577D03*
X009829Y019557D03*
X009829Y019537D03*
X009829Y019517D03*
X009829Y019497D03*
X009829Y019477D03*
X009829Y019457D03*
X009829Y019437D03*
X009669Y019417D03*
X009669Y019397D03*
X009669Y019377D03*
X009669Y019357D03*
X009669Y019337D03*
X009669Y019317D03*
X009669Y019297D03*
X009669Y019277D03*
X009669Y019257D03*
X009669Y019237D03*
X009669Y019217D03*
X009669Y019197D03*
X009669Y019177D03*
X009669Y019157D03*
X009669Y019137D03*
X009669Y019117D03*
X009669Y019097D03*
X009669Y019077D03*
X009669Y019057D03*
X009669Y019037D03*
X009669Y019017D03*
X009669Y018997D03*
X009669Y018977D03*
X009669Y018957D03*
D414*
X010069Y019117D03*
X010069Y019137D03*
X010069Y019157D03*
X010069Y019177D03*
X010069Y019197D03*
X010069Y019217D03*
X010069Y019237D03*
X010069Y019257D03*
X010229Y019097D03*
X010229Y019077D03*
X010229Y019057D03*
X010229Y019037D03*
X010229Y019017D03*
X010229Y018997D03*
X010229Y018977D03*
X010229Y018957D03*
X010069Y018777D03*
X010069Y018757D03*
X010069Y018737D03*
X010069Y018717D03*
X010069Y018697D03*
X010069Y018677D03*
X010069Y018657D03*
X010069Y018637D03*
X010549Y018637D03*
X010549Y018657D03*
X010549Y018677D03*
X010549Y018697D03*
X010549Y018717D03*
X010549Y018737D03*
X010549Y018757D03*
X010549Y018777D03*
X010549Y018797D03*
X010549Y018817D03*
X010549Y018837D03*
X010549Y018857D03*
X010549Y018877D03*
X010549Y018897D03*
X010549Y018917D03*
X010549Y018937D03*
X010549Y019117D03*
X010549Y019137D03*
X010549Y019157D03*
X010549Y019177D03*
X010549Y019197D03*
X010549Y019217D03*
X010549Y019237D03*
X010549Y019257D03*
X011029Y019257D03*
X011029Y019237D03*
X011029Y019217D03*
X011029Y019197D03*
X011029Y019177D03*
X011029Y019157D03*
X011029Y019137D03*
X011029Y019117D03*
X011029Y018777D03*
X011029Y018757D03*
X011029Y018737D03*
X011029Y018717D03*
X011029Y018697D03*
X011029Y018677D03*
X011029Y018657D03*
X011029Y018637D03*
X011189Y018617D03*
X011189Y018597D03*
X011189Y018577D03*
X011189Y018557D03*
X011189Y018537D03*
X011189Y018517D03*
X011189Y018497D03*
X011189Y018477D03*
X011669Y018297D03*
X011669Y018277D03*
X011669Y018257D03*
X011669Y018237D03*
X011669Y018217D03*
X011669Y018197D03*
X011669Y018177D03*
X011669Y018157D03*
X011349Y017977D03*
X011349Y017957D03*
X011349Y017937D03*
X011349Y017917D03*
X011349Y017897D03*
X011349Y017877D03*
X011349Y017857D03*
X011349Y017837D03*
X011989Y017817D03*
X011989Y017797D03*
X011989Y017777D03*
X011989Y017757D03*
X011989Y017737D03*
X011989Y017717D03*
X011989Y017697D03*
X011989Y017677D03*
X012149Y017837D03*
X012149Y017857D03*
X012149Y017877D03*
X012149Y017897D03*
X012149Y017917D03*
X012149Y017937D03*
X012149Y017957D03*
X012149Y017977D03*
X012469Y017997D03*
X012469Y018017D03*
X012469Y018037D03*
X012469Y018057D03*
X012469Y018077D03*
X012469Y018097D03*
X012469Y018117D03*
X012469Y018137D03*
X012629Y017977D03*
X012629Y017957D03*
X012629Y017937D03*
X012629Y017917D03*
X012629Y017897D03*
X012629Y017877D03*
X012629Y017857D03*
X012629Y017837D03*
X012789Y017337D03*
X012789Y017317D03*
X012789Y017297D03*
X012789Y017277D03*
X012789Y017257D03*
X012789Y017237D03*
X012789Y017217D03*
X012789Y017197D03*
X012309Y017197D03*
X012309Y017217D03*
X012309Y017237D03*
X012309Y017257D03*
X012309Y017277D03*
X012309Y017297D03*
X012309Y017317D03*
X012309Y017337D03*
X011669Y017177D03*
X011669Y017157D03*
X011669Y017137D03*
X011669Y017117D03*
X011669Y017097D03*
X011669Y017077D03*
X011669Y017057D03*
X011669Y017037D03*
X010389Y017197D03*
X010389Y017217D03*
X010389Y017237D03*
X010389Y017257D03*
X010389Y017277D03*
X010389Y017297D03*
X010389Y017317D03*
X010389Y017337D03*
X010229Y017677D03*
X010229Y017697D03*
X010229Y017717D03*
X010229Y017737D03*
X010229Y017757D03*
X010229Y017777D03*
X010229Y017797D03*
X010229Y017817D03*
X010229Y017997D03*
X010229Y018017D03*
X010229Y018037D03*
X010229Y018057D03*
X010229Y018077D03*
X010229Y018097D03*
X010229Y018117D03*
X010229Y018137D03*
X012629Y018957D03*
X012629Y018977D03*
X012629Y018997D03*
X012629Y019017D03*
X012629Y019037D03*
X012629Y019057D03*
X012629Y019077D03*
X012629Y019097D03*
X012789Y019117D03*
X012789Y019137D03*
X012789Y019157D03*
X012789Y019177D03*
X012789Y019197D03*
X012789Y019217D03*
X012789Y019237D03*
X012789Y019257D03*
X013589Y019437D03*
X013589Y019457D03*
X013589Y019477D03*
X013589Y019497D03*
X013589Y019517D03*
X013589Y019537D03*
X013589Y019557D03*
X013589Y019577D03*
X014069Y019577D03*
X014069Y019557D03*
X014069Y019537D03*
X014069Y019517D03*
X014069Y019497D03*
X014069Y019477D03*
X014069Y019457D03*
X014069Y019437D03*
X014069Y019757D03*
X014069Y019777D03*
X014069Y019797D03*
X014069Y019817D03*
X014069Y019837D03*
X014069Y019857D03*
X014069Y019877D03*
X014069Y019897D03*
X013909Y020077D03*
X013909Y020097D03*
X013909Y020117D03*
X013909Y020137D03*
X013909Y020157D03*
X013909Y020177D03*
X013909Y020197D03*
X013909Y020217D03*
X012789Y020557D03*
X012789Y020577D03*
X012789Y020597D03*
X012789Y020617D03*
X012789Y020637D03*
X012789Y020657D03*
X012789Y020677D03*
X012789Y020697D03*
X011989Y020877D03*
X011989Y020897D03*
X011989Y020917D03*
X011989Y020937D03*
X011989Y020957D03*
X011989Y020977D03*
X011989Y020997D03*
X011989Y021017D03*
X011349Y020857D03*
X011349Y020837D03*
X011349Y020817D03*
X011349Y020797D03*
X011349Y020777D03*
X011349Y020757D03*
X011349Y020737D03*
X011349Y020717D03*
X011989Y020377D03*
X011989Y020357D03*
X011989Y020337D03*
X011989Y020317D03*
X011989Y020297D03*
X011989Y020277D03*
X011989Y020257D03*
X011989Y020237D03*
X011029Y020057D03*
X011029Y020037D03*
X011029Y020017D03*
X011029Y019997D03*
X011029Y019977D03*
X011029Y019957D03*
X011029Y019937D03*
X011029Y019917D03*
X010549Y019917D03*
X010549Y019937D03*
X010549Y019957D03*
X010549Y019977D03*
X010549Y019997D03*
X010549Y020017D03*
X010549Y020037D03*
X010549Y020057D03*
X010549Y020077D03*
X010549Y020097D03*
X010549Y020117D03*
X010549Y020137D03*
X010549Y020157D03*
X010549Y020177D03*
X010549Y020197D03*
X010549Y020217D03*
X009749Y020057D03*
X009749Y020037D03*
X009749Y020017D03*
X009749Y019997D03*
X009749Y019977D03*
X009749Y019957D03*
X009749Y019937D03*
X009749Y019917D03*
X010389Y019897D03*
X010389Y019877D03*
X010389Y019857D03*
X010389Y019837D03*
X010389Y019817D03*
X010389Y019797D03*
X010389Y019777D03*
X010389Y019757D03*
X011669Y019737D03*
X011669Y019717D03*
X011669Y019697D03*
X011669Y019677D03*
X011669Y019657D03*
X011669Y019637D03*
X011669Y019617D03*
X011669Y019597D03*
X012629Y019757D03*
X012629Y019777D03*
X012629Y019797D03*
X012629Y019817D03*
X012629Y019837D03*
X012629Y019857D03*
X012629Y019877D03*
X012629Y019897D03*
X014069Y018937D03*
X014069Y018917D03*
X014069Y018897D03*
X014069Y018877D03*
X014069Y018857D03*
X014069Y018837D03*
X014069Y018817D03*
X014069Y018797D03*
X014069Y018617D03*
X014069Y018597D03*
X014069Y018577D03*
X014069Y018557D03*
X014069Y018537D03*
X014069Y018517D03*
X014069Y018497D03*
X014069Y018477D03*
X013429Y018457D03*
X013429Y018437D03*
X013429Y018417D03*
X013429Y018397D03*
X013429Y018377D03*
X013429Y018357D03*
X013429Y018337D03*
X013429Y018317D03*
D415*
X013029Y018297D03*
X013029Y018277D03*
X013029Y018257D03*
X013029Y018237D03*
X013029Y018217D03*
X013029Y018197D03*
X013029Y018177D03*
X013029Y018157D03*
X012549Y018477D03*
X012549Y018497D03*
X012549Y018517D03*
X012549Y018537D03*
X012549Y018557D03*
X012549Y018577D03*
X012549Y018597D03*
X012549Y018617D03*
X012069Y018637D03*
X012069Y018657D03*
X012069Y018677D03*
X012069Y018697D03*
X012069Y018717D03*
X012069Y018737D03*
X012069Y018757D03*
X012069Y018777D03*
X011909Y018617D03*
X011909Y018597D03*
X011909Y018577D03*
X011909Y018557D03*
X011909Y018537D03*
X011909Y018517D03*
X011909Y018497D03*
X011909Y018477D03*
X011749Y018137D03*
X011749Y018117D03*
X011749Y018097D03*
X011749Y018077D03*
X011749Y018057D03*
X011749Y018037D03*
X011749Y018017D03*
X011749Y017997D03*
X013669Y017657D03*
X013669Y017637D03*
X013669Y017617D03*
X013669Y017597D03*
X013669Y017577D03*
X013669Y017557D03*
X013669Y017537D03*
X013669Y017517D03*
X013669Y017497D03*
X013669Y017477D03*
X013669Y017457D03*
X013669Y017437D03*
X013669Y017417D03*
X013669Y017397D03*
X013669Y017377D03*
X013669Y017357D03*
X013669Y017337D03*
X013669Y017317D03*
X013669Y017297D03*
X013669Y017277D03*
X013669Y017257D03*
X013669Y017237D03*
X013669Y017217D03*
X013669Y017197D03*
X010949Y017197D03*
X010949Y017217D03*
X010949Y017237D03*
X010949Y017257D03*
X010949Y017277D03*
X010949Y017297D03*
X010949Y017317D03*
X010949Y017337D03*
X010789Y017177D03*
X010789Y017157D03*
X010789Y017137D03*
X010789Y017117D03*
X010789Y017097D03*
X010789Y017077D03*
X010789Y017057D03*
X010789Y017037D03*
X009829Y017197D03*
X009829Y017217D03*
X009829Y017237D03*
X009829Y017257D03*
X009829Y017277D03*
X009829Y017297D03*
X009829Y017317D03*
X009829Y017337D03*
X013349Y018797D03*
X013349Y018817D03*
X013349Y018837D03*
X013349Y018857D03*
X013349Y018877D03*
X013349Y018897D03*
X013349Y018917D03*
X013349Y018937D03*
X013669Y018957D03*
X013669Y018977D03*
X013669Y018997D03*
X013669Y019017D03*
X013669Y019037D03*
X013669Y019057D03*
X013669Y019077D03*
X013669Y019097D03*
X013669Y019277D03*
X013669Y019297D03*
X013669Y019317D03*
X013669Y019337D03*
X013669Y019357D03*
X013669Y019377D03*
X013669Y019397D03*
X013669Y019417D03*
X011589Y019757D03*
X011589Y019777D03*
X011589Y019797D03*
X011589Y019817D03*
X011589Y019837D03*
X011589Y019857D03*
X011589Y019877D03*
X011589Y019897D03*
X010629Y019737D03*
X010629Y019717D03*
X010629Y019697D03*
X010629Y019677D03*
X010629Y019657D03*
X010629Y019637D03*
X010629Y019617D03*
X010629Y019597D03*
X010949Y019097D03*
X010949Y019077D03*
X010949Y019057D03*
X010949Y019037D03*
X010949Y019017D03*
X010949Y018997D03*
X010949Y018977D03*
X010949Y018957D03*
X011749Y020557D03*
X011749Y020577D03*
X011749Y020597D03*
X011749Y020617D03*
X011749Y020637D03*
X011749Y020657D03*
X011749Y020677D03*
X011749Y020697D03*
X011269Y020877D03*
X011269Y020897D03*
X011269Y020917D03*
X011269Y020937D03*
X011269Y020957D03*
X011269Y020977D03*
X011269Y020997D03*
X011269Y021017D03*
X010149Y021017D03*
X010149Y020997D03*
X010149Y020977D03*
X010149Y020957D03*
X010149Y020937D03*
X010149Y020917D03*
X010149Y020897D03*
X010149Y020877D03*
X010149Y020857D03*
X010149Y020837D03*
X010149Y020817D03*
X010149Y020797D03*
X010149Y020777D03*
X010149Y020757D03*
X010149Y020737D03*
X010149Y020717D03*
X010149Y021037D03*
X010149Y021057D03*
X010149Y021077D03*
X010149Y021097D03*
X010149Y021117D03*
X010149Y021137D03*
X010149Y021157D03*
X010149Y021177D03*
X013669Y021177D03*
X013669Y021157D03*
X013669Y021137D03*
X013669Y021117D03*
X013669Y021097D03*
X013669Y021077D03*
X013669Y021057D03*
X013669Y021037D03*
X013669Y021017D03*
X013669Y020997D03*
X013669Y020977D03*
X013669Y020957D03*
X013669Y020937D03*
X013669Y020917D03*
X013669Y020897D03*
X013669Y020877D03*
X013669Y020857D03*
X013669Y020837D03*
X013669Y020817D03*
X013669Y020797D03*
X013669Y020777D03*
X013669Y020757D03*
X013669Y020737D03*
X013669Y020717D03*
D416*
X011269Y021037D03*
X011269Y021057D03*
X011269Y021077D03*
X011269Y021097D03*
X011269Y021117D03*
X011269Y021137D03*
X011269Y021157D03*
X011269Y021177D03*
X011909Y019257D03*
X011909Y019237D03*
X011909Y019217D03*
X011909Y019197D03*
X011909Y019177D03*
X011909Y019157D03*
X011909Y019137D03*
X011909Y019117D03*
X009989Y017977D03*
X009989Y017957D03*
X009989Y017937D03*
X009989Y017917D03*
X009989Y017897D03*
X009989Y017877D03*
X009989Y017857D03*
X009989Y017837D03*
X010149Y017497D03*
X010149Y017477D03*
X010149Y017457D03*
X010149Y017437D03*
X010149Y017417D03*
X010149Y017397D03*
X010149Y017377D03*
X010149Y017357D03*
D417*
X010949Y017517D03*
X010949Y017537D03*
X010949Y017557D03*
X010949Y017577D03*
X010949Y017597D03*
X010949Y017617D03*
X010949Y017637D03*
X010949Y017657D03*
D418*
X010549Y018157D03*
X010549Y018177D03*
X010549Y018197D03*
X010549Y018217D03*
X010549Y018237D03*
X010549Y018257D03*
X010549Y018277D03*
X010549Y018297D03*
D419*
X011509Y019277D03*
X011509Y019297D03*
X011509Y019317D03*
X011509Y019337D03*
X011509Y019357D03*
X011509Y019377D03*
X011509Y019397D03*
X011509Y019417D03*
D420*
X011669Y020077D03*
X011669Y020097D03*
X011669Y020117D03*
X011669Y020137D03*
X011669Y020157D03*
X011669Y020177D03*
X011669Y020197D03*
X011669Y020217D03*
M02*
